<svg width="120" height="29" viewBox="0 0 120 29" fill="none" xmlns="http://www.w3.org/2000/svg">
<g clip-path="url(#clip0)">
<path d="M20.6571 0C9.25714 0 0 5.4 0 12.1714C0 15 1.71429 17.6571 4.54286 19.7143C3.17143 18 2.4 16.1143 2.4 14.0571C2.4 7.11429 11.4857 1.45714 22.6286 1.45714C29.8286 1.45714 36.1714 3.77143 39.7714 7.37143C36.4286 3 29.1429 0 20.6571 0Z" fill="white"/>
<path d="M18.8572 15.5999C19.7143 15.5999 20.4 15.4285 20.9143 15.0857C21.5143 14.6571 21.7715 14.1428 21.7715 13.3714C21.7715 11.9999 21.3429 10.7142 20.4 9.51422C19.4572 8.31422 18.3429 7.45708 16.8858 6.85708C15.9429 6.42851 14.8286 6.25708 13.6286 6.25708C11.2286 6.25708 9.17147 7.02851 7.62862 8.65708C6.08576 10.1999 5.31433 12.1714 5.31433 14.3999C5.31433 16.6285 6.17147 18.5142 7.80005 20.0571C9.42862 21.5999 11.4858 22.3714 13.9715 22.3714C15.2572 22.3714 16.5429 22.1999 17.7429 21.7714C19.2 21.3428 20.2286 20.7428 20.9143 19.8857C21.2572 19.4571 21.4286 19.0285 21.4286 18.5142C21.4286 17.3142 20.7429 16.7142 19.4572 16.7142C19.2 16.7142 18.4286 16.9714 17.2286 17.4857C16.0286 17.9999 15 18.2571 14.1429 18.2571C13.1143 18.2571 12.2572 17.9999 11.5715 17.5714C10.8858 17.1428 10.4572 16.4571 10.3715 15.5999H18.8572ZM11.4858 10.6285C12.0858 10.1142 12.8572 9.85708 13.7143 9.85708C14.5715 9.85708 15.3429 10.1142 15.9429 10.6285C16.5429 11.1428 16.8858 11.7428 16.9715 12.5999H10.4572C10.5429 11.8285 10.8858 11.1428 11.4858 10.6285Z" fill="white"/>
<path d="M24.5143 19.9714C26.0572 21.5142 28.0286 22.2857 30.5143 22.2857C31.9715 22.2857 33.2572 22.0285 34.2857 21.5999C35.6572 20.9999 36.3429 20.2285 36.3429 19.2857C36.3429 18.7714 36.1715 18.2571 35.8286 17.9142C35.4857 17.5714 34.9715 17.3142 34.4572 17.3142C34.0286 17.3142 33.6 17.3999 33 17.6571C32.4 17.9142 31.8 17.9999 31.0286 17.9999C29.8286 17.9999 28.8857 17.6571 28.2857 16.8857C27.6857 16.1999 27.4286 15.3428 27.4286 14.2285C27.4286 13.1999 27.6857 12.2571 28.2857 11.5714C28.8857 10.7999 29.7429 10.3714 30.9429 10.3714C31.6286 10.3714 32.3143 10.4571 32.9143 10.7142C33.5143 10.9714 34.0286 11.0571 34.4572 11.0571C35.0572 11.0571 35.5715 10.8857 35.9143 10.4571C36.3429 10.1142 36.5143 9.59994 36.5143 9.08565C36.5143 8.05708 35.8286 7.28565 34.4572 6.77137C33.4286 6.42851 32.2286 6.25708 30.8572 6.25708C28.2857 6.25708 26.2286 7.02851 24.6857 8.48565C23.1429 10.0285 22.3715 11.9142 22.3715 14.3142C22.3715 16.6285 23.0572 18.5142 24.5143 19.9714Z" fill="white"/>
<path d="M38.9143 20.0571C40.5428 21.5999 42.5143 22.4571 45 22.4571C47.4857 22.4571 49.5428 21.6857 51.0857 20.1428C52.6285 18.5999 53.4 16.7142 53.4 14.3999C53.4 12.0857 52.6285 10.1999 51.0857 8.57137C49.5428 7.02851 47.4857 6.25708 45 6.25708C42.5143 6.25708 40.4571 7.02851 38.9143 8.57137C37.3714 10.1142 36.6 12.0857 36.6 14.3142C36.6 16.6285 37.3714 18.5142 38.9143 20.0571ZM42.5143 11.6571C43.1143 10.8857 43.9714 10.4571 45 10.4571C46.0285 10.4571 46.8857 10.8857 47.4857 11.6571C48 12.3428 48.2571 13.1999 48.2571 14.2285C48.2571 15.2571 48 16.1142 47.4857 16.7999C46.8857 17.6571 46.0285 17.9999 45 17.9999C43.9714 17.9999 43.1143 17.5714 42.5143 16.7999C42 16.1142 41.7428 15.2571 41.7428 14.2285C41.7428 13.1999 42 12.4285 42.5143 11.6571Z" fill="white"/>
<path d="M60.4286 5.82868H62.5715C64.8858 5.82868 66.0858 6.68583 66.0858 8.48582C66.0858 10.2858 64.8858 11.2287 62.5715 11.2287H60.3429V5.82868H60.4286ZM60.4286 18.8573V15.4287H63.8572C66.2572 15.4287 68.1429 14.8287 69.6 13.6287C70.9715 12.4287 71.6572 10.7144 71.6572 8.48582C71.6572 6.25725 70.8858 4.54297 69.3429 3.34297C67.8858 2.14297 65.9143 1.54297 63.4286 1.54297H58.8C57.4286 1.54297 56.5715 1.80011 56.0572 2.22868C55.5429 2.65725 55.2858 3.60011 55.2858 4.80011V18.8573C55.2858 21.0858 56.1429 22.1144 57.8572 22.1144C59.5715 22.2001 60.4286 21.0858 60.4286 18.8573Z" fill="white"/>
<path d="M77.9143 11.7428C78.5143 10.9713 79.2857 10.6285 80.3143 10.6285C81.3429 10.6285 82.2 10.9713 82.7143 11.7428C83.2286 12.4285 83.4857 13.2856 83.4857 14.2285C83.4857 15.2571 83.2286 16.0285 82.7143 16.7142C82.1143 17.4856 81.3429 17.9142 80.3143 17.9142C79.2857 17.9142 78.4286 17.4856 77.8286 16.7142C77.3143 16.0285 77.0572 15.1713 77.0572 14.2285C77.0572 13.2856 77.3143 12.4285 77.9143 11.7428ZM86.0572 22.1999C87.6857 22.1999 88.5429 21.0856 88.5429 18.8571V9.77134C88.5429 7.62849 87.6857 6.5142 86.0572 6.5142C85.0286 6.5142 84.2572 7.02849 83.6572 7.97134C82.6286 6.85706 81.3429 6.34277 79.6286 6.34277C77.3143 6.34277 75.5143 7.19992 73.9715 8.82849C72.6 10.3713 71.9143 12.2571 71.9143 14.3142C71.9143 16.3713 72.6 18.2571 73.8857 19.7999C75.3429 21.5142 77.2286 22.2856 79.4572 22.2856C81.2572 22.2856 82.6286 21.6856 83.6572 20.5713C84.1714 21.6856 84.9429 22.1999 86.0572 22.1999Z" fill="white"/>
<path d="M100.029 8.31418L96.9429 15.5142L94.1143 8.65704C93.7715 7.88561 93.5143 7.37132 93.2572 7.11418C92.8286 6.68561 92.3143 6.42847 91.5429 6.42847C90.8572 6.42847 90.2572 6.68561 89.8286 7.11418C89.4 7.54275 89.1429 8.05704 89.1429 8.74275C89.1429 9.17132 89.2286 9.5999 89.4 10.0285L94.3715 20.657L92.3143 24.6856C92.0572 25.2856 91.8857 25.7999 91.8857 26.2285C91.8857 26.9142 92.1429 27.4285 92.5715 27.857C93 28.2856 93.6 28.457 94.3715 28.457C95.2286 28.457 96 27.857 96.5143 26.657L104.143 10.2856C104.4 9.68561 104.571 9.17132 104.571 8.74275C104.571 7.28561 103.714 6.5999 102.086 6.5999C101.314 6.51418 100.543 7.11418 100.029 8.31418Z" fill="white"/>
<path d="M116.914 17.7429H112.029L118.629 10.0286C119.314 9.25722 119.657 8.5715 119.657 8.05722C119.657 7.45722 119.4 7.11436 118.886 6.94293C118.371 6.77151 117.6 6.68579 116.486 6.68579H108.514C106.371 6.68579 105.343 7.3715 105.343 8.74293C105.343 10.1144 106.371 10.8001 108.514 10.8001H112.8L105.943 18.8572C105.429 19.4572 105.171 19.9715 105.171 20.5715C105.171 21.5144 106.029 21.9429 107.829 21.9429H116.914C118.971 21.9429 120.086 21.2572 120.086 19.8858C120 18.4286 118.971 17.7429 116.914 17.7429Z" fill="white"/>
</g>
<defs>
<clipPath id="clip0">
<rect width="120" height="28.3714" fill="white"/>
</clipPath>
</defs>
</svg>
