<svg xmlns="http://www.w3.org/2000/svg" viewBox="0 0 46 46"><defs><style>.cls-1{fill:#4285f4;}.cls-1,.cls-2,.cls-3,.cls-4{fill-rule:evenodd;}.cls-2{fill:#34a853;}.cls-3{fill:#fbbc05;}.cls-4{fill:#ea4335;}.cls-5{fill:none;}</style></defs><title>logo-google</title><g id="圖層_11" data-name="圖層 11"><g id="logo_googleg_48dp" data-name="logo googleg 48dp"><path id="Shape" class="cls-1" d="M40.28,23.41A20,20,0,0,0,40,19.73H23v7h9.69a8.29,8.29,0,0,1-3.59,5.43v4.52h5.81a17.53,17.53,0,0,0,5.37-13.23Z"/><path id="Shape-2" data-name="Shape" class="cls-2" d="M23,41a17.18,17.18,0,0,0,11.91-4.36L29.1,32.12A10.86,10.86,0,0,1,23,33.84a10.72,10.72,0,0,1-10.07-7.42h-6v4.66A18,18,0,0,0,23,41Z"/><path id="Shape-3" data-name="Shape" class="cls-3" d="M12.93,26.42a10.54,10.54,0,0,1,0-6.84V14.92h-6a18,18,0,0,0,0,16.16l6-4.66Z"/><path id="Shape-4" data-name="Shape" class="cls-4" d="M23,12.16a9.73,9.73,0,0,1,6.88,2.69L35,9.69A17.26,17.26,0,0,0,23,5,18,18,0,0,0,6.91,14.92l6,4.66A10.72,10.72,0,0,1,23,12.16Z"/><path id="Shape-5" data-name="Shape" class="cls-5" d="M5,5H41V41H5Z"/></g></g></svg>