<svg id="圖層_1" data-name="圖層 1" xmlns="http://www.w3.org/2000/svg" xmlns:xlink="http://www.w3.org/1999/xlink" viewBox="0 0 470 310"><defs><style>.cls-1{fill:#c1a678;}.cls-2{fill:#f2f2f2;}.cls-3{fill:url(#未命名漸層_20);}.cls-4{fill:url(#未命名漸層_20-2);}.cls-5{fill:url(#未命名漸層_20-3);}.cls-6{fill:url(#未命名漸層_20-4);}.cls-7{fill:#b3b3b3;}</style><linearGradient id="未命名漸層_20" x1="56.12" y1="268.45" x2="169.57" y2="322.74" gradientUnits="userSpaceOnUse"><stop offset="0" stop-color="#c1a678"/><stop offset="1" stop-color="#c7b299"/></linearGradient><linearGradient id="未命名漸層_20-2" x1="67.37" y1="244.94" x2="180.82" y2="299.22" xlink:href="#未命名漸層_20"/><linearGradient id="未命名漸層_20-3" x1="59.76" y1="260.84" x2="173.22" y2="315.12" xlink:href="#未命名漸層_20"/><linearGradient id="未命名漸層_20-4" x1="70.87" y1="237.63" x2="184.32" y2="291.92" xlink:href="#未命名漸層_20"/></defs><title>logo-ewin_w</title><path class="cls-1" d="M197.74,204.6h0l1.67-.83.07,0c.57-.31,1.14-.63,1.69-1l57.54-34.38a4.55,4.55,0,0,0,0-7.82L244,151.88l0,0-7-4.17-2.08-1.23h0l-9.86-5.89L214,133.94l-10-6-11.69-7-26.79-16V73.48h0L198,92.92l19.41,11.6,2.31,1.37,18.86,11.28,27,16.12,21.21,12.34a10,10,0,0,0,10.11-.06l13-7.77a37.74,37.74,0,0,0,17-22,38,38,0,0,0-16.65-44.39l-108.75-65q-.82-.48-1.65-.93c-.7-.37-1.4-.72-2.11-1A37.57,37.57,0,0,0,182,1.06c-.76,0-1.53,0-2.29.08-.33,0-.66.06-1,.09s-.87.07-1.3.13h0a37.76,37.76,0,0,0-15.24,5.12h0a38,38,0,0,0-18.5,32.69c0,.57,0,1.14,0,1.71V168.05c0,.73-.07,1.45-.07,2.17a37.68,37.68,0,0,0,4.7,18.21.25.25,0,0,0,0,.07c.21.39.43.77.65,1.15.34.56.68,1.1,1,1.64l.15.21c.32.47.64.93,1,1.38l0,0a38,38,0,0,0,46.5,11.68Zm5.24-134-5-3L175.51,54.17l-1.85-1.11a16.29,16.29,0,0,1,16.71-28l23.4,14,5.77,3.45.2.12.1.06,50.52,30.18,28.76,17.19a16.18,16.18,0,0,1,7.44,10,16.62,16.62,0,0,1,.5,4,16.07,16.07,0,0,1-.94,5.4,15.52,15.52,0,0,1-1.37,2.92A16.3,16.3,0,0,1,282.41,118l-22.64-13.52L238.6,91.87,219.74,80.59l-16.59-9.91ZM181.27,186.43l-.75,0c-.3,0-.59,0-.88-.09l-.66-.09c-.33-.06-.66-.12-1-.2l-.58-.15c-.32-.09-.64-.18-1-.29l-.63-.23c-.27-.1-.54-.21-.8-.33l-.7-.33-.7-.38-.67-.4c-.24-.16-.48-.31-.71-.48l-.55-.4c-.27-.22-.54-.43-.8-.66l-.34-.32a12.45,12.45,0,0,1-.89-.89l-.16-.18c-.31-.35-.61-.71-.89-1.09l-.06-.08c-.3-.42-.59-.84-.85-1.29s-.51-.91-.74-1.38l0-.07a13.81,13.81,0,0,1-.55-1.33,1.46,1.46,0,0,1-.07-.19c-.15-.41-.27-.82-.38-1.24l-.1-.37c-.08-.37-.15-.73-.21-1.1,0-.2-.07-.39-.09-.59s-.07-.62-.09-.93,0-.47,0-.71,0-.38,0-.58h0v-1c0-.3.05-.6.09-.89l-.09.88V130.26l17.31,10.34,9.48,5.66,11.69,7,10,6,8.87,5.31-3.08,1.84-.17.1,0,0L213.66,170,190,184.14c-.44.26-.9.51-1.36.73l-.09,0c-.43.2-.86.38-1.3.54l-.23.08c-.39.14-.8.26-1.2.37l-.45.11c-.34.08-.68.15-1,.2l-.66.1-.87.09c-.25,0-.51,0-.77,0Z"/><path class="cls-2" d="M18.65,287.69H35c8.89,0,17.59-7.35,19.39-16.38s-4-16.38-12.87-16.38H25.18c-8.9,0-17.6,7.35-19.4,16.38L1.55,292.56c-1.8,9,4,16.38,12.87,16.38H43.31L45,300.66H16.07c-4.4,0-7.25-3.63-6.36-8.1l1.4-7A13.57,13.57,0,0,0,18.65,287.69Zm4.88-24.47H39.91c4.4,0,7.25,3.63,6.36,8.09a10.31,10.31,0,0,1-9.58,8.09H20.3c-4.39,0-7.25-3.63-6.36-8.09A10.31,10.31,0,0,1,23.53,263.22Z"/><path class="cls-3" d="M108,255.58h-6.34a1.18,1.18,0,0,0-1.1.92l-7.63,38.32A7.44,7.44,0,0,1,86,300.66a4.62,4.62,0,0,1-4.58-5.84L89,256.5a.73.73,0,0,0-.72-.92H82a1.17,1.17,0,0,0-1.09.92l-7.63,38.32a7.44,7.44,0,0,1-6.92,5.84,4.62,4.62,0,0,1-4.58-5.84l7.63-38.32a.73.73,0,0,0-.72-.92H62.29a1.17,1.17,0,0,0-1.09.92l-7.63,38.32C52,302.61,57,308.94,64.66,308.94a16.79,16.79,0,0,0,10.66-4.15,11.2,11.2,0,0,0,9,4.15c7.67,0,15.18-6.33,16.73-14.12l7.63-38.32A.73.73,0,0,0,108,255.58Z"/><path class="cls-4" d="M158.62,255.58c-11.52,0-22.78,9.51-25.11,21.2L127.28,308a.73.73,0,0,0,.73.92h6.34a1.17,1.17,0,0,0,1.09-.92l6.23-31.24c1.42-7.12,8.28-12.92,15.3-12.92s11.57,5.8,10.15,12.92L160.9,308a.73.73,0,0,0,.72.92H168a1.17,1.17,0,0,0,1.09-.92l6.22-31.24C177.61,265.09,170.14,255.58,158.62,255.58Z"/><path class="cls-5" d="M120.6,300.66a4.62,4.62,0,0,1-4.59-5.84l5-25.16a.73.73,0,0,0-.72-.93H114a1.18,1.18,0,0,0-1.1.93l-5,25.16c-1.55,7.79,3.43,14.12,11.1,14.12A1.17,1.17,0,0,0,120,308l1.28-6.44A.73.73,0,0,0,120.6,300.66Z"/><path class="cls-6" d="M114.6,265.51h6.34a1.17,1.17,0,0,0,1.09-.92l1.61-8.09a.72.72,0,0,0-.72-.92h-6.34a1.19,1.19,0,0,0-1.1.92l-1.61,8.09A.73.73,0,0,0,114.6,265.51Z"/><path class="cls-7" d="M232.14,276.18h-12a1.18,1.18,0,0,0-1.09.93l-1.28,6.44a.72.72,0,0,0,.72.92h12c4.39,0,7.24,3.63,6.35,8.09a10.3,10.3,0,0,1-9.58,8.1H210.87c-4.39,0-7.24-3.63-6.35-8.1l4.23-21.25a10.31,10.31,0,0,1,9.58-8.09h27.89a1.18,1.18,0,0,0,1.09-.93l1.29-6.44a.73.73,0,0,0-.73-.92H220c-8.89,0-17.59,7.35-19.39,16.38l-4.23,21.25c-1.8,9,4,16.38,12.86,16.38h16.39c8.89,0,17.59-7.34,19.39-16.38S241,276.18,232.14,276.18Z"/><path class="cls-7" d="M454.74,276.18h-12a1.18,1.18,0,0,0-1.09.93l-1.29,6.44a.73.73,0,0,0,.73.92h12c4.4,0,7.25,3.63,6.36,8.09a10.31,10.31,0,0,1-9.58,8.1H433.48c-4.4,0-7.25-3.63-6.36-8.1l4.24-21.25a10.29,10.29,0,0,1,9.58-8.09h27.89a1.18,1.18,0,0,0,1.09-.93l1.28-6.44a.73.73,0,0,0-.72-.92H442.59c-8.9,0-17.59,7.35-19.39,16.38L419,292.56c-1.8,9,4,16.38,12.87,16.38h16.39c8.89,0,17.59-7.34,19.39-16.38S463.64,276.18,454.74,276.18Z"/><path class="cls-7" d="M336.5,255.58a16.81,16.81,0,0,0-10.66,4.15,11.2,11.2,0,0,0-9-4.15c-7.67,0-15.17,6.33-16.73,14.12L292.48,308a.73.73,0,0,0,.72.92h6.35a1.17,1.17,0,0,0,1.09-.92l7.63-38.32a7.45,7.45,0,0,1,6.92-5.84,4.62,4.62,0,0,1,4.59,5.84L312.14,308a.73.73,0,0,0,.73.92h6.34a1.17,1.17,0,0,0,1.09-.92l7.63-38.32a7.45,7.45,0,0,1,6.92-5.84,4.62,4.62,0,0,1,4.59,5.84L331.8,308a.73.73,0,0,0,.73.92h6.34A1.17,1.17,0,0,0,340,308l7.64-38.32C349.15,261.91,344.17,255.58,336.5,255.58Z"/><path class="cls-7" d="M400.16,255.58c-11.51,0-22.78,9.51-25.11,21.2L368.83,308a.73.73,0,0,0,.72.92h6.34A1.17,1.17,0,0,0,377,308l6.22-31.24c1.42-7.12,8.28-12.92,15.3-12.92s11.57,5.8,10.15,12.92L402.44,308a.73.73,0,0,0,.73.92h6.34a1.17,1.17,0,0,0,1.09-.92l6.22-31.24C419.15,265.09,411.68,255.58,400.16,255.58Z"/><path class="cls-7" d="M362.14,300.66a4.62,4.62,0,0,1-4.59-5.84l5-25.16a.74.74,0,0,0-.73-.93H355.5a1.18,1.18,0,0,0-1.09.93l-5,25.16c-1.55,7.79,3.43,14.12,11.1,14.12a1.17,1.17,0,0,0,1.09-.92l1.28-6.44A.72.72,0,0,0,362.14,300.66Z"/><path class="cls-7" d="M356.14,265.51h6.34a1.17,1.17,0,0,0,1.09-.92l1.62-8.09a.73.73,0,0,0-.73-.92h-6.34a1.17,1.17,0,0,0-1.09.92l-1.61,8.09A.72.72,0,0,0,356.14,265.51Z"/><path class="cls-7" d="M277.08,255.58c-11.52,0-22.78,9.51-25.11,21.2L245.74,308a.73.73,0,0,0,.73.92h6.34a1.17,1.17,0,0,0,1.09-.92l4.31-21.62h25.46L279.36,308a.73.73,0,0,0,.72.92h6.35a1.17,1.17,0,0,0,1.09-.92l6.22-31.24C296.07,265.09,288.6,255.58,277.08,255.58Zm8.5,21.2-.26,1.34H259.86l.27-1.34c1.42-7.12,8.28-12.92,15.3-12.92S287,269.66,285.58,276.78Z"/></svg>