<svg id="圖層_1" data-name="圖層 1" xmlns="http://www.w3.org/2000/svg" xmlns:xlink="http://www.w3.org/1999/xlink" viewBox="0 0 470 310"><defs><style>.cls-1{fill:#c1a678;}.cls-2{fill:#4d4d4d;}.cls-3{fill:url(#未命名漸層_20);}.cls-4{fill:url(#未命名漸層_20-2);}.cls-5{fill:url(#未命名漸層_20-3);}.cls-6{fill:url(#未命名漸層_20-4);}.cls-7{fill:gray;}</style><linearGradient id="未命名漸層_20" x1="54.85" y1="268.83" x2="168.5" y2="323.21" gradientUnits="userSpaceOnUse"><stop offset="0" stop-color="#c1a678"/><stop offset="1" stop-color="#c7b299"/></linearGradient><linearGradient id="未命名漸層_20-2" x1="66.01" y1="245.28" x2="179.67" y2="299.66" xlink:href="#未命名漸層_20"/><linearGradient id="未命名漸層_20-3" x1="58.33" y1="261.17" x2="172.21" y2="315.66" xlink:href="#未命名漸層_20"/><linearGradient id="未命名漸層_20-4" x1="69.55" y1="237.87" x2="183.23" y2="292.27" xlink:href="#未命名漸層_20"/></defs><title>logo-ewin</title><path class="cls-1" d="M196.52,204.6h0l1.67-.83.07,0c.57-.3,1.14-.62,1.69-1l57.54-34.56a4.58,4.58,0,0,0,0-7.86L242.8,151.6l0,0-7-4.19-2.08-1.24h0l-9.86-5.92-11.14-6.7-10-6-11.69-7-26.79-16.09V72.8h0L196.8,92.34,216.21,104l2.31,1.38,18.86,11.33,27,16.21,21.21,12.41a9.93,9.93,0,0,0,10.11-.06l13-7.82a37.93,37.93,0,0,0,17-22.09A38.32,38.32,0,0,0,309,70.74L200.29,5.42c-.55-.32-1.1-.64-1.65-.93s-1.4-.73-2.11-1.05A37.43,37.43,0,0,0,180.79,0c-.76,0-1.53,0-2.29.08-.33,0-.66.06-1,.09l-1.3.13h0A37.53,37.53,0,0,0,161,5.46h0a38.26,38.26,0,0,0-18.5,32.85c0,.58,0,1.15,0,1.72V167.86c0,.73-.07,1.46-.07,2.18a38.07,38.07,0,0,0,4.7,18.31.25.25,0,0,0,0,.07c.21.39.43.77.65,1.15.34.56.68,1.11,1,1.65l.15.22c.32.46.64.93,1,1.38l0,0a37.9,37.9,0,0,0,46.5,11.74Zm5.24-134.71-5-3L174.29,53.38l-1.85-1.11a16.43,16.43,0,0,1-5.63-22.45,16.29,16.29,0,0,1,22.34-5.66l23.4,14.06,5.77,3.46.2.13.1.06,50.52,30.34L297.9,89.48a16.3,16.3,0,0,1,7.44,10.06,16.78,16.78,0,0,1,.5,4,16.29,16.29,0,0,1-24.65,14L258.55,104,237.38,91.28,218.52,80,201.93,70ZM180.05,186.34l-.75,0c-.3,0-.59-.05-.88-.09l-.66-.1c-.33-.05-.66-.12-1-.2l-.58-.15c-.32-.08-.64-.18-1-.29l-.63-.23c-.27-.1-.54-.22-.8-.33l-.7-.34-.7-.37c-.23-.13-.45-.27-.67-.41s-.48-.31-.71-.48-.37-.27-.55-.41-.54-.43-.8-.66-.23-.21-.34-.32a12.45,12.45,0,0,1-.89-.89l-.16-.18c-.31-.35-.61-.72-.89-1.1l-.06-.08c-.3-.42-.59-.85-.85-1.3s-.51-.91-.74-1.38l0-.07a14,14,0,0,1-.55-1.34,1.46,1.46,0,0,1-.07-.19c-.15-.41-.27-.83-.38-1.25l-.1-.37q-.12-.56-.21-1.11a5.58,5.58,0,0,1-.09-.59c0-.31-.07-.62-.09-.94s0-.47,0-.71,0-.38,0-.58h0v-1c0-.3.05-.6.09-.9l-.09.89V129.87l17.31,10.4L191,146l11.69,7,10,6,8.87,5.34-3.08,1.85-.17.1,0,0-5.87,3.53L188.81,184a14.85,14.85,0,0,1-1.36.73l-.09.05c-.43.2-.86.38-1.3.54l-.23.08c-.39.14-.8.26-1.2.37l-.45.11c-.34.09-.68.15-1,.21l-.66.1-.87.08-.77,0Z"/><path class="cls-2" d="M17.43,288.12H33.82c8.89,0,17.59-7.38,19.39-16.46s-4-16.47-12.87-16.47H24c-8.9,0-17.6,7.39-19.4,16.47L.33,293c-1.8,9.08,4,16.46,12.87,16.46H42.09l1.65-8.32H14.85c-4.4,0-7.25-3.65-6.36-8.14L9.89,286A13.49,13.49,0,0,0,17.43,288.12Zm4.88-24.6H38.69c4.4,0,7.25,3.65,6.36,8.14a10.33,10.33,0,0,1-9.58,8.13H19.08c-4.39,0-7.25-3.65-6.36-8.13A10.33,10.33,0,0,1,22.31,263.52Z"/><path class="cls-3" d="M106.74,255.84H100.4a1.19,1.19,0,0,0-1.1.93l-7.63,38.52a7.45,7.45,0,0,1-6.92,5.87c-3.17,0-5.22-2.64-4.58-5.87l7.63-38.52a.73.73,0,0,0-.72-.93H80.73a1.18,1.18,0,0,0-1.09.93L72,295.29a7.46,7.46,0,0,1-6.92,5.87c-3.17,0-5.22-2.64-4.58-5.87l7.63-38.52a.73.73,0,0,0-.72-.93H61.07a1.18,1.18,0,0,0-1.09.93l-7.63,38.52c-1.55,7.83,3.42,14.19,11.09,14.19a16.76,16.76,0,0,0,10.66-4.17,11.19,11.19,0,0,0,9,4.17c7.67,0,15.18-6.36,16.73-14.19l7.63-38.52A.73.73,0,0,0,106.74,255.84Z"/><path class="cls-4" d="M157.4,255.84c-11.52,0-22.78,9.56-25.11,21.32l-6.23,31.4a.73.73,0,0,0,.73.92h6.34a1.17,1.17,0,0,0,1.09-.92l6.23-31.4c1.42-7.16,8.28-13,15.3-13s11.57,5.83,10.15,13l-6.22,31.4a.73.73,0,0,0,.72.92h6.35a1.17,1.17,0,0,0,1.09-.92l6.22-31.4C176.39,265.4,168.92,255.84,157.4,255.84Z"/><path class="cls-5" d="M119.38,301.16c-3.17,0-5.23-2.64-4.59-5.87l5-25.3a.73.73,0,0,0-.72-.92h-6.34a1.17,1.17,0,0,0-1.1.92l-5,25.3c-1.55,7.83,3.43,14.19,11.1,14.19a1.17,1.17,0,0,0,1.09-.92l1.28-6.48A.73.73,0,0,0,119.38,301.16Z"/><path class="cls-6" d="M113.38,265.83h6.34a1.17,1.17,0,0,0,1.09-.93l1.61-8.13a.73.73,0,0,0-.72-.93h-6.34a1.2,1.2,0,0,0-1.1.93l-1.61,8.13A.73.73,0,0,0,113.38,265.83Z"/><path class="cls-7" d="M230.92,276.56h-12a1.17,1.17,0,0,0-1.09.92L216.52,284a.72.72,0,0,0,.72.92h12c4.39,0,7.24,3.65,6.35,8.14a10.33,10.33,0,0,1-9.58,8.14H209.65c-4.39,0-7.24-3.65-6.35-8.14l4.23-21.36a10.33,10.33,0,0,1,9.58-8.14H245a1.17,1.17,0,0,0,1.09-.93l1.29-6.47a.74.74,0,0,0-.73-.93H218.76c-8.89,0-17.59,7.39-19.39,16.47L195.14,293c-1.8,9.08,4,16.46,12.86,16.46h16.39c8.89,0,17.59-7.38,19.39-16.46S239.81,276.56,230.92,276.56Z"/><path class="cls-7" d="M453.52,276.56h-12a1.17,1.17,0,0,0-1.09.92L439.12,284a.73.73,0,0,0,.73.92h12c4.4,0,7.25,3.65,6.36,8.14a10.33,10.33,0,0,1-9.58,8.14H432.26c-4.4,0-7.25-3.65-6.36-8.14l4.24-21.36a10.31,10.31,0,0,1,9.58-8.14h27.89a1.17,1.17,0,0,0,1.09-.93l1.28-6.47a.73.73,0,0,0-.72-.93H441.37c-8.9,0-17.59,7.39-19.39,16.47L417.74,293c-1.8,9.08,4,16.46,12.87,16.46H447c8.89,0,17.59-7.38,19.39-16.46S462.42,276.56,453.52,276.56Z"/><path class="cls-7" d="M335.28,255.84A16.74,16.74,0,0,0,324.62,260a11.16,11.16,0,0,0-9-4.18c-7.67,0-15.17,6.37-16.73,14.2l-7.63,38.52a.73.73,0,0,0,.72.92h6.35a1.17,1.17,0,0,0,1.09-.92L307.05,270a7.46,7.46,0,0,1,6.92-5.87c3.17,0,5.23,2.63,4.59,5.87l-7.64,38.52a.73.73,0,0,0,.73.92H318a1.17,1.17,0,0,0,1.09-.92L326.71,270a7.46,7.46,0,0,1,6.92-5.87c3.17,0,5.23,2.63,4.59,5.87l-7.64,38.52a.73.73,0,0,0,.73.92h6.34a1.17,1.17,0,0,0,1.09-.92L346.38,270C347.93,262.21,343,255.84,335.28,255.84Z"/><path class="cls-7" d="M398.94,255.84c-11.51,0-22.78,9.56-25.11,21.32l-6.22,31.4a.73.73,0,0,0,.72.92h6.34a1.17,1.17,0,0,0,1.1-.92l6.22-31.4c1.42-7.16,8.28-13,15.3-13s11.57,5.83,10.15,13l-6.22,31.4a.73.73,0,0,0,.73.92h6.34a1.17,1.17,0,0,0,1.09-.92l6.22-31.4C417.93,265.4,410.46,255.84,398.94,255.84Z"/><path class="cls-7" d="M360.92,301.16c-3.17,0-5.23-2.64-4.59-5.87l5-25.3a.73.73,0,0,0-.73-.92h-6.34a1.17,1.17,0,0,0-1.09.92l-5,25.3c-1.55,7.83,3.43,14.19,11.1,14.19a1.17,1.17,0,0,0,1.09-.92l1.28-6.48A.72.72,0,0,0,360.92,301.16Z"/><path class="cls-7" d="M354.92,265.83h6.34a1.17,1.17,0,0,0,1.09-.93l1.62-8.13a.74.74,0,0,0-.73-.93H356.9a1.18,1.18,0,0,0-1.09.93l-1.61,8.13A.73.73,0,0,0,354.92,265.83Z"/><path class="cls-7" d="M275.86,255.84c-11.52,0-22.78,9.56-25.11,21.32l-6.23,31.4a.73.73,0,0,0,.73.92h6.34a1.17,1.17,0,0,0,1.09-.92L257,286.83h25.46l-4.31,21.73a.73.73,0,0,0,.72.92h6.35a1.17,1.17,0,0,0,1.09-.92l6.22-31.4C294.85,265.4,287.38,255.84,275.86,255.84Zm8.5,21.32-.26,1.34H258.64l.27-1.34c1.42-7.16,8.28-13,15.3-13S285.78,270,284.36,277.16Z"/></svg>