<svg width="267" height="234" viewBox="0 0 267 234" fill="none" xmlns="http://www.w3.org/2000/svg">
<path d="M82.0698 89.432C76.6987 85.8898 70.9565 84.945 64.0709 92.0033C53.7687 91.8279 55.6186 100.332 55.4998 107.431C52.3973 117.836 34.2764 127.772 52.9285 138.857C38.4507 146.777 39.2312 158.969 46.241 157.465C48.5506 156.969 51.6908 155.76 55.4998 153.999C41.3228 174.37 45.027 179.041 62.071 171.998C60.7819 175.12 57.1523 177.404 56.3734 179.937C52.6827 191.935 57.8278 197.261 71.7847 188.854C67.4087 200.695 68.4487 204.952 83.4984 200.282C81.7688 218.649 90.3198 216.969 103.783 205.71C105.901 219.575 115.445 215.697 119.496 204.853C128.143 218.042 135.274 215.95 144.067 204.282C155.576 218.203 158.382 203.113 163.495 195.711C171.977 207.821 176.303 200.934 179.494 188.854C185.551 187.022 192.281 186.341 193.207 175.712C205.948 175.527 212.586 170.885 206.349 156.284C216.786 156.32 216.18 149.453 214.634 142C219.928 138.785 218.64 131.456 218.063 124.572C224.043 94.2144 210.463 102.293 205.492 96.5747L181.494 94.2892C98.7776 36.0941 105.75 80.2534 82.0698 89.432Z" fill="white" stroke="#444444" stroke-width="2.1289"/>
<path d="M100.925 57.4326L95.497 67.7176L93.4971 79.7169L94.3542 88.002C94.3542 88.002 103.782 101.43 102.925 102.858C102.068 104.287 157.493 99.43 157.493 99.43L180.064 104.858L186.064 88.5735L184.35 69.146L149.781 44.0049L100.925 57.4326H100.925Z" fill="white" stroke="white" stroke-width="2.1289"/>
<path d="M92.924 86.003C92.1214 77.3765 93.2511 67.6598 99.5488 57.8545C113.489 36.1521 143.836 14.0199 171.536 2.33084C178.219 1.17959 183.301 3.10686 187.38 6.96184C197.206 16.2475 201.216 36.7177 207.774 52.2888C210.569 55.9737 212.881 57.4803 214.928 57.7977C218.908 58.4148 221.89 54.5369 225.487 53.4316C219.255 54.8302 220.721 78.7778 198.114 62.4844C194.103 59.5933 191.181 53.9379 184.918 40.2896V72.8589C173.015 66.004 166.148 72.5792 158.634 77.4302C155.262 70.5725 151.98 63.2939 145.742 59.9646C132.129 52.6994 114.379 54.8749 108.662 55.6851C92.1507 58.0261 92.8818 75.8501 92.9231 86.0001L92.924 86.003Z" fill="white" stroke="#444444" stroke-width="2.1289"/>
<path d="M237.918 53.1805C237.918 55.5153 237.013 57.7545 235.404 59.4055C233.794 61.0565 231.61 61.984 229.334 61.984C227.057 61.984 224.874 61.0565 223.264 59.4055C221.654 57.7545 220.75 55.5153 220.75 53.1805C220.75 50.8456 221.654 48.6065 223.264 46.9555C224.874 45.3045 227.057 44.377 229.334 44.377C231.61 44.377 233.794 45.3045 235.404 46.9555C237.013 48.6065 237.918 50.8456 237.918 53.1805Z" fill="#FF0066" stroke="#444444" stroke-width="2.82656"/>
<path d="M167.25 22.9923C167.25 30.85 161.06 37.22 153.426 37.22C145.791 37.22 138.996 29.941 138.996 22.0831C145.945 15.5331 155.043 10.5288 158.653 9.34277C164.382 11.0802 167.25 16.5336 167.25 22.992V22.9923Z" fill="#FF0066" stroke="#444444" stroke-width="1.96991"/>
<path d="M180.224 51.2688C180.224 54.7226 178.88 58.0348 176.487 60.4769C174.094 62.9191 170.848 64.2911 167.464 64.2911C164.08 64.2911 160.834 62.9191 158.441 60.4769C156.048 58.0348 154.703 54.7226 154.703 51.2688C154.703 47.8151 156.048 44.5029 158.441 42.0608C160.834 39.6186 164.08 38.2466 167.464 38.2466C170.848 38.2466 174.094 39.6186 176.487 42.0608C178.88 44.5029 180.224 47.8151 180.224 51.2688Z" fill="#FF0066" stroke="#444444" stroke-width="1.81057"/>
<path d="M145.495 58.8618C151.37 62.2339 158.67 64.7898 163.778 60.9541C173.572 56.0375 179.742 40.2957 183.551 29.2572C191.334 0.793154 182.295 46.4552 205.576 60.138C209.178 61.8632 213.992 61.408 220.919 57.1478L217.491 65.433C217.491 65.433 214.634 67.7185 213.491 68.0043C212.348 68.2902 206.063 66.5758 204.634 66.2901C203.206 66.0045 194.635 59.719 194.635 59.719L184.921 40.5773L185.207 49.7196L184.921 72.5747L177.493 70.5749L171.779 70.0035L161.494 75.146L158.351 77.7174L152.351 66.2893L145.495 58.8611L145.495 58.8618Z" fill="#444444" stroke="#444444" stroke-width="0.638671"/>
<path d="M110.067 44.8623L101.782 54.0046L98.3535 58.8615C103.176 56.9652 107.936 54.9151 113.495 54.8617C111.658 52.2236 110.028 49.3774 110.067 44.8623H110.067Z" fill="#444444" stroke="#444444" stroke-width="0.638671"/>
<path d="M134.191 46.4179C134.191 49.2898 133.259 51.9421 131.686 54.0842C125.051 54.671 117.974 54.828 111.988 55.0913C109.922 52.8022 108.662 49.7585 108.662 46.4177C112.155 42.076 116.824 37.1345 120.192 34.842C121.889 33.6874 121.596 33.657 124.012 33.7991C129.822 35.0056 134.191 40.1967 134.191 46.4177V46.4179Z" fill="#FF0066" stroke="#444444" stroke-width="1.8013"/>
<path d="M89.2109 107.714C85.8838 118.358 92.2381 129.895 95.1043 139.943C96.72 145.641 98.7459 151.074 103.249 154.747C110.139 158.77 120.707 153.641 128.745 149.941C134.955 147.024 143.195 142.701 147.829 139.595C155.78 134.265 158.517 129.96 161.206 123.999C171.646 125.747 175.752 113.752 178.722 105.317C180.185 99.7758 179.543 94.5365 174.367 91.5882C171.247 92.0497 168.822 91.1202 162.063 98.8576C166.582 91.4079 161.527 88.7457 158.921 84.8584" fill="white"/>
<path d="M89.2109 107.714C85.8838 118.358 92.2381 129.895 95.1043 139.943C96.72 145.641 98.7459 151.074 103.249 154.747C110.139 158.77 120.707 153.641 128.745 149.941C134.955 147.024 143.195 142.701 147.829 139.595C155.78 134.265 158.517 129.96 161.206 123.999C171.646 125.747 175.752 113.752 178.722 105.317C180.185 99.7758 179.543 94.5365 174.367 91.5882C171.247 92.0497 168.822 91.1202 162.063 98.8576C166.582 91.4079 161.527 88.7457 158.921 84.8584" stroke="#444444" stroke-width="2.1289" stroke-linecap="round"/>
<path d="M105.781 86.7173L94.353 86.8601" stroke="#444444" stroke-width="2.1289"/>
<path d="M102.587 85.671C102.587 86.7465 102.16 87.778 101.399 88.5385C100.639 89.299 99.6072 89.7262 98.5317 89.7262C97.4562 89.7262 96.4248 89.299 95.6643 88.5385C94.9038 87.778 94.4766 86.7465 94.4766 85.671C94.4766 84.5955 94.9038 83.564 95.6643 82.8035C96.4248 82.0429 97.4562 81.6157 98.5317 81.6157C99.6072 81.6157 100.639 82.0429 101.399 82.8035C102.16 83.564 102.587 84.5955 102.587 85.671Z" fill="#444444" stroke="#444444" stroke-width="1.69315" stroke-linecap="round" stroke-linejoin="round"/>
<path d="M98.9254 76.8608L98.6396 92.1457" stroke="#444444" stroke-width="2.1289"/>
<path d="M105.951 85.3311C106.19 88.9566 105.777 91.6028 104.94 93.6137" stroke="#444444" stroke-width="2.1289" stroke-linecap="round"/>
<path d="M102.141 117.073C105.436 117.266 111.77 116.657 115.071 116.388C121.906 114.441 127.967 110.46 134.353 106.572C142.067 102.894 149.239 99.9718 149.454 106.748C148.966 110.089 147.643 113.132 144.57 115.551C142.159 116.882 140.253 118.271 138.448 120.323C135.901 123.327 133.611 126.505 131.429 129.764C129.074 133.284 126.844 136.898 124.555 140.491C119.164 147.132 116.025 157.376 105.355 155.569C99.4609 151.728 97.9901 145.34 94.7837 139.427C94.0694 139.284 90.3553 124.571 90.3553 124.571L88.3555 109.858C95.9113 109.763 96.2499 116.481 102.141 117.073V117.073Z" stroke="#444444" stroke-width="2.1289"/>
<path d="M91.08 113.371C83.1337 113.371 76.7181 107.21 76.692 99.6108C76.6659 92.1045 82.5972 86.5467 91.08 85.8506C124.154 94.1231 112.656 112.324 91.08 113.37V113.371Z" fill="#FF0066" stroke="#444444" stroke-width="2.1289" stroke-linecap="round" stroke-linejoin="round"/>
<path d="M179.746 105.873C194.62 104.492 198.579 100.012 197.633 94.1383C197.195 91.4182 194.611 90.754 192.665 87.6057C194.083 76.3736 188.26 77.0675 183.5 71.6626" fill="white"/>
<path d="M179.746 105.873C194.62 104.492 198.579 100.012 197.633 94.1383C197.195 91.4182 194.611 90.754 192.665 87.6057C194.083 76.3736 188.26 77.0675 183.5 71.6626" stroke="#444444" stroke-width="2.1289"/>
<path d="M192.666 86.2778C190.034 88.0433 187.899 88.3209 185.797 88.5" stroke="#444444" stroke-width="2.1289" stroke-linecap="round"/>
<path d="M111.868 79.4084C114.478 73.0758 117.197 70.7821 123.504 68.734C134.117 67.2498 141.886 79.2084 150.05 89.3072" stroke="#444444" stroke-width="3.35229" stroke-linecap="round"/>
<path d="M103.989 78.6013C102.804 72.7412 100.917 68.03 93.8882 71.7326" stroke="#444444" stroke-width="3.35229" stroke-linecap="round"/>
<path d="M134.29 78.8022C138.837 87.718 137.04 94.9483 132.839 99.1746C118.029 109.593 110.081 96.6564 110.047 87.0852" stroke="#444444" stroke-width="2.1289" stroke-linecap="round"/>
<path d="M130.454 90.7312C130.454 92.1243 129.932 93.4603 129.004 94.4454C128.076 95.4304 126.817 95.9838 125.504 95.9838C124.192 95.9838 122.933 95.4304 122.004 94.4454C121.076 93.4603 120.555 92.1243 120.555 90.7312C120.555 89.3381 121.076 88.002 122.004 87.017C122.933 86.0319 124.192 85.4785 125.504 85.4785C126.817 85.4785 128.076 86.0319 129.004 87.017C129.932 88.002 130.454 89.3381 130.454 90.7312Z" fill="#444444" stroke="#444444" stroke-width="2.1289" stroke-linecap="round" stroke-linejoin="round"/>
<path d="M124.998 77.9951V102.036" stroke="#444444" stroke-width="2.1289"/>
<path d="M114.639 90.5747L136.209 90.8604" stroke="#444444" stroke-width="2.1289"/>
<path d="M172.491 103.716C172.358 97.951 171.287 98.1864 170.007 99.7602C168.338 101.606 168.752 104.029 168.361 106.42C167.649 109.028 167.39 110.102 165.777 112.858" stroke="#444444" stroke-width="2.1289" stroke-linecap="round"/>
<path d="M179.595 105.267C185.435 103.196 186.165 99.8898 187.492 96.4302" stroke="#444444" stroke-width="3.40621" stroke-linecap="round"/>
<path d="M126.661 118.931C130.464 121.478 118.109 133.311 112.749 139.024C106.521 144.792 101.664 141.788 98.1292 130.317C93.3864 121.576 91.9506 119.012 99.0412 122.01C108.8 128.549 116.451 119.543 126.662 118.931L126.661 118.931Z" fill="#DADADA" stroke="#444444" stroke-width="2.1289"/>
<path d="M101.563 124.862C103.527 129.089 103.678 132.769 108.427 133.092C112.66 132.656 114.691 128.292 117.725 124.458L122.169 119.407L114.492 123.044L109.644 125.468L103.988 124.862L100.553 122.438L101.563 124.862L101.563 124.862Z" fill="#444444" stroke="#444444" stroke-width="0.851554"/>
<path d="M83.2117 200.391C83.9362 192.919 82.6719 178.526 89.558 174.087C93.074 172.165 96.3828 175.569 92.9252 185.708L83.2114 201.993" stroke="#444444" stroke-width="2.1289"/>
<path d="M89.5 174.391L112.925 155.142" stroke="#444444" stroke-width="2.1289"/>
<path d="M77.4976 161.142L104 154.891" stroke="#444444" stroke-width="2.1289"/>
<path d="M66.5 152.891C67.9285 152.891 98.3551 147.999 98.3551 147.999" stroke="#444444" stroke-width="2.1289"/>
<path d="M62.5 137.891C73.5 139.391 86.5 142.391 97.21 145.142" stroke="#444444" stroke-width="2.1289"/>
<path d="M45 125.891C55.3299 126.573 82.425 126.015 93.4969 134.857" stroke="#444444" stroke-width="2.1289"/>
<path d="M56 108.891C71.623 109.669 82.3542 122.859 91.7833 129.144" stroke="#444444" stroke-width="2.1289"/>
<path d="M62 91.8906C72.2433 97.1166 81.6627 110.812 89.7817 120.286" stroke="#444444" stroke-width="2.1289"/>
<path d="M125.376 152.338C132.407 156.051 142.039 157.614 148.351 174.283" stroke="#444444" stroke-width="2.1289"/>
<path d="M126.847 173.891L124.999 151.714" stroke="#444444" stroke-width="1.96732"/>
<path d="M103.782 206.28C109.11 198.426 111 190.391 110.146 181.783C109.292 173.176 99.5003 183.89 98.51 196.842C97.5198 209.794 101.5 207.391 91.5 213.391" stroke="#444444" stroke-width="2.1289"/>
<path d="M129.447 177.665C130.5 184.39 121.459 200.291 119.5 205.891C117.929 200.635 116.052 186.073 118.5 178.39C120.949 170.708 128.393 170.94 129.447 177.665Z" stroke="#444444" stroke-width="2.1289"/>
<path d="M72.0691 188.743C78.0304 183.008 79.0823 175.118 79.7609 167.156C80.1557 159.996 76.6408 158.285 74.0004 165.39C71.3601 172.496 69.811 181.835 70.6402 188.743" stroke="#444444" stroke-width="2.1289"/>
<path d="M59.5005 172.39C64.0005 140.39 76.6167 152.603 60.894 173.16" stroke="#444444" stroke-width="2.1289"/>
<path d="M52.5 139.391C63.5 132.391 72 141.891 55.5 153.891" stroke="#444444" stroke-width="2.1289"/>
<path d="M144 205.391C149.347 197.701 151.813 185.433 149.5 176.391C148.135 172.217 144.861 171.239 141.68 178.315C138.5 185.391 141.44 195.71 144 204.558" stroke="#444444" stroke-width="2.1289"/>
<path d="M163.5 195.891C169.5 183.391 166.647 162.861 163.5 166.391C160.353 169.92 158.203 181.517 161.778 197.706" stroke="#444444" stroke-width="2.1289"/>
<path d="M130.066 149.999C142.503 152.991 154.465 157.245 164.635 166.283" stroke="#444444" stroke-width="2.1289"/>
<path d="M140.066 144C155.772 147.469 164.467 153.023 178 159.391" stroke="#444444" stroke-width="2.1289"/>
<path d="M180.5 188.891C186.313 184.264 180.656 150.162 176.5 161.891C173.95 169.088 176 182.391 180.5 188.891Z" stroke="#444444" stroke-width="2.1289"/>
<path d="M193.5 175.891C197.702 163.782 201.133 146.739 196.611 149.21C188.217 155.458 191.102 166.082 193.5 175.891Z" stroke="#444444" stroke-width="2.1289"/>
<path d="M196.926 149.142C186.568 140.812 164.921 139.097 151 137.891" stroke="#444444" stroke-width="2.1289"/>
<path d="M205.2 133.715C190.319 126.773 172.1 130.709 156.5 132.391" stroke="#444444" stroke-width="2.1289"/>
<path d="M214.473 142.35C215 114.891 205.476 117.166 207.554 127.893C207.919 129.779 211 136.891 214.5 142.391" stroke="#444444" stroke-width="2.1289"/>
<path d="M209.777 120.572C192.249 118.231 173.006 120.948 160 125.391" stroke="#444444" stroke-width="2.1289"/>
<path d="M206.583 156.456C196.65 130.253 208.367 121.146 207.488 155.369" stroke="#444444" stroke-width="2.1289"/>
<path d="M174.5 115.39C186.975 109.687 206.158 112.191 218.632 112.571" stroke="#444444" stroke-width="2.1289"/>
<path d="M215 100.391C205.313 101.62 191.5 103.891 179.5 106.891" stroke="#444444" stroke-width="2.1289"/>
<path d="M112.409 155.977C131.248 148.96 147.136 136.452 159.497 119.124C166.947 120.515 171.498 113.205 176.753 108.01L172.951 118.539L167.979 123.219H160.667L158.619 128.776L151.892 137.55L146.501 141.144L134.052 148.372L112.409 155.977Z" fill="#444444" stroke="#444444" stroke-width="0.226567"/>
<path d="M185.529 103.332C191.002 101.173 193.325 96.652 195.765 92.2183L197.813 96.6053L191.963 104.21L182.312 105.672L185.529 103.332L185.529 103.332Z" fill="#444444" stroke="#444444" stroke-width="0.226567"/>
<path d="M79.6523 107.719C90.1783 112.714 101.625 108.257 110.362 101.431C111.028 104.803 108.6 107.338 104.939 109.167C95.453 113.906 82.7289 113.242 79.6519 107.719L79.6523 107.719Z" fill="#444444" stroke="#444444" stroke-width="0.226567"/>
<path d="M167.687 18.3686C165.624 8.8924 168.536 5.83565 177.193 3.1599L171.051 2.42871L161.691 6.37707L156.866 8.42441L163.739 12.8115L167.687 18.3686Z" fill="#444444" stroke="#444444" stroke-width="0.226567"/>
<path d="M228.601 60.9228L234.816 60.4841L237.595 54.3422L235.986 48.054L231.745 45.6411C232 46.6018 233.183 46.5611 233.692 47.715C234.715 52.9416 235.186 57.3656 230.96 60.5729C230.556 60.9945 229.088 60.5273 228.601 60.9229L228.601 60.9228Z" fill="#444444" stroke="#444444" stroke-width="0.226567"/>
<path d="M187.285 87.1004C188.664 83.9009 188.749 82.9054 188.601 79.6424L189.478 83.737C190.616 81.7558 190.369 80.5678 189.917 77.7412L192.549 83.8831L192.403 85.638L187.87 89.0015L187.285 87.1004Z" fill="#444444" stroke="#444444" stroke-width="0.226567"/>
<path d="M248.1 123.92C243.963 124.312 240.874 128.048 241.275 132.289C241.491 134.564 242.608 136.441 244.297 137.742C243.553 137.604 242.706 137.476 241.878 137.554C237.638 137.956 234.538 141.589 234.94 145.829C235.342 150.07 239.059 152.953 243.299 152.551C246.712 152.228 249.112 150.017 249.749 146.826C249.856 150.156 249.356 154.795 248.41 155.824L253.788 155.314C252.646 154.274 250.925 149.324 250.68 146.738C251.998 149.64 254.78 151.463 258.193 151.14C262.433 150.738 265.523 147.002 265.131 142.865C264.739 138.727 261.003 135.638 256.762 136.039C255.935 136.118 255.117 136.3 254.423 136.679C255.837 135.084 256.582 133.03 256.366 130.755C255.871 126.628 252.238 123.528 248.1 123.92Z" fill="#A445B2"/>
<path d="M229.491 174.429L237.001 207.663L208.17 225.821L200.661 192.586L229.491 174.429Z" fill="#FF0066"/>
<path d="M18.7519 51.9351C18.7519 51.9351 18.0322 59.2584 16.928 63.8103C15.8238 68.3622 14.2407 70.6726 12.6697 75.2616C11.0988 79.8506 9.81121 82.8499 12.4118 88.912C14.5986 94.0096 20.6018 96.0019 25.6295 93.845C28.8907 92.446 30.8991 89.6269 31.6017 86.3891C31.6669 87.6662 31.7321 88.9433 31.6023 90.1409C30.9295 95.3233 27.5976 98.0577 27.5976 98.0577L45.9419 90.1882C45.9419 90.1882 41.6643 90.7182 37.5812 87.576C36.6239 86.8447 35.7434 85.9174 34.8629 84.9901C37.6933 86.7122 41.1202 87.1997 44.3814 85.8006C49.4091 83.6438 52.0434 77.783 49.9156 72.8231C47.3151 66.7611 44.2544 65.6272 39.8465 63.603C35.4385 61.5789 32.5375 61.1922 28.614 58.7971C24.6905 56.402 18.7519 51.9351 18.7519 51.9351Z" fill="#A445B2"/>
<path d="M79.5866 67.3904C79.5866 67.3904 76.8448 62.681 74.7275 60.0404C72.6102 57.3999 70.8117 56.2391 68.2986 53.6045C65.9834 50.9669 64.179 49.4103 64.1071 44.5623C64.047 40.5059 67.4628 37.2885 71.5193 37.2283C75.5758 37.1681 78.8877 40.2857 79.2447 44.3378C79.4813 40.2769 82.6993 37.0625 86.7558 37.0023C90.8122 36.9421 94.322 40.0568 94.3822 44.1132C94.4541 48.9612 92.6982 50.6696 90.3633 53.3761C88.0284 56.0827 86.1647 57.1989 84.1281 60C82.0915 62.801 79.5866 67.3904 79.5866 67.3904Z" fill="#FF0066"/>
</svg>
