<svg width="1440" height="480" viewBox="0 0 1440 480" fill="none" xmlns="http://www.w3.org/2000/svg">
<rect width="1440" height="480" fill="#EEEEEE"/>
<path opacity="0.1" d="M735.556 260H704.444C701.99 260 700 258.01 700 255.556V224.444C700 221.99 701.99 220 704.444 220H735.556C738.01 220 740 221.99 740 224.444V255.556C740 258.01 738.01 260 735.556 260ZM704.444 224.444V255.556H735.556V224.444H704.444ZM733.333 251.111H706.667L713.333 242.222L715.556 244.444L722.222 235.556L733.333 251.111ZM712.222 237.778C710.381 237.778 708.889 236.285 708.889 234.444C708.889 232.603 710.381 231.111 712.222 231.111C714.063 231.111 715.556 232.603 715.556 234.444C715.556 236.285 714.063 237.778 712.222 237.778Z" fill="#444444"/>
</svg>
