<?xml version="1.0" encoding="utf-8"?>
<!-- Generator: Adobe Illustrator 24.0.2, SVG Export Plug-In . SVG Version: 6.00 Build 0)  -->
<svg version="1.1" id="圖層_1" xmlns="http://www.w3.org/2000/svg" xmlns:xlink="http://www.w3.org/1999/xlink" x="0px" y="0px"
	 viewBox="0 0 35 35" style="enable-background:new 0 0 35 35;" xml:space="preserve">
<style type="text/css">
	.st0{display:none;fill:#FFFFFF;}
	.st1{fill:#444444;}
</style>
<title>dice</title>
<path class="st0" d="M5.2,0.9h19.5c2.4,0,4.4,2,4.4,4.4v19.5c0,2.4-2,4.4-4.4,4.4H5.2c-2.4,0-4.4-2-4.4-4.4V5.2
	C0.9,2.8,2.8,0.9,5.2,0.9z"/>
<path class="st1" d="M28.7,0H6.3C2.8,0,0,2.8,0,6.3l0,0v22.4C0,32.2,2.8,35,6.3,35l0,0h22.4c3.5,0,6.3-2.8,6.3-6.3l0,0V6.3
	C35,2.8,32.2,0,28.7,0L28.7,0z M30.8,28.7c0,1.2-0.9,2.1-2.1,2.1H6.3c-1.2,0-2.1-0.9-2.1-2.1V6.3c0-1.2,0.9-2.1,2.1-2.1h22.4
	c1.2,0,2.1,0.9,2.1,2.1V28.7z M13.3,10.5c0,1.2-0.7,2.1-1.8,2.6c-0.5,0.2-1,0.2-1.6,0.1c-1.2-0.2-2-1-2.2-2.2c0-0.5,0-1.1,0.2-1.5
	c0.6-1.4,2.2-2.1,3.6-1.5C12.6,8.3,13.3,9.3,13.3,10.5z M27.3,10.5c0,1.2-0.7,2.1-1.8,2.6c-0.5,0.2-1,0.2-1.6,0.1
	c-1.2-0.2-2-1-2.2-2.2c-0.1-0.6-0.1-1.2,0.1-1.6c0.6-1.4,2.2-2.1,3.6-1.5C26.6,8.3,27.3,9.3,27.3,10.5z M13.3,24.5
	c0,1.2-0.7,2.1-1.8,2.6c-0.5,0.2-1,0.2-1.6,0.1c-1.2-0.2-2-1-2.2-2.2c-0.1-0.6-0.1-1.2,0.1-1.6c0.6-1.4,2.2-2.1,3.6-1.5
	C12.6,22.3,13.3,23.3,13.3,24.5z M27.3,24.5c0,1.2-0.7,2.1-1.8,2.6c-0.5,0.2-1,0.2-1.6,0.1c-1.2-0.2-2-1-2.2-2.2
	c-0.1-0.6-0.1-1.2,0.1-1.6c0.6-1.4,2.2-2.1,3.6-1.5C26.6,22.3,27.3,23.3,27.3,24.5z M20.3,17.5c0,1.2-0.7,2.1-1.8,2.6
	c-0.5,0.2-1,0.2-1.6,0.1c-1.2-0.2-2-1-2.2-2.2c-0.1-0.6-0.1-1.2,0.1-1.6c0.6-1.4,2.2-2.1,3.6-1.5C19.6,15.3,20.3,16.3,20.3,17.5z"/>
</svg>
