<?xml version="1.0" encoding="utf-8"?>
<!-- Generator: Adobe Illustrator 24.0.2, SVG Export Plug-In . SVG Version: 6.00 Build 0)  -->
<svg version="1.1" id="圖層_1" xmlns="http://www.w3.org/2000/svg" xmlns:xlink="http://www.w3.org/1999/xlink" x="0px" y="0px"
	 viewBox="0 0 35 35" style="enable-background:new 0 0 35 35;" xml:space="preserve">
<style type="text/css">
	.st0{display:none;fill:#FFFFFF;}
	.st1{fill:#444444;}
</style>
<circle class="st0" cx="15" cy="15" r="15"/>
<path class="st1" d="M17.5,0C7.8,0,0,7.8,0,17.5S7.8,35,17.5,35S35,27.2,35,17.5S27.2,0,17.5,0z M18.1,5l6.1-2.4
	c0.7,0.3,1.4,0.7,2,1l0,0C26.8,4.1,27.4,4.6,28,5l0,0c0.2,0.2,0.5,0.5,0.7,0.7l0.1,0.1c0.2,0.2,0.5,0.5,0.7,0.8c0,0,0,0,0.1,0.1
	C29.9,7,30,7.2,30.2,7.5c0,0.1,0.1,0.1,0.1,0.1c0.2,0.2,0.5,0.6,0.6,0.8l-1.2,5.1l-6,2L18.1,11L18.1,5z M4.6,7.6
	c0-0.1,0.1-0.1,0.1-0.2C4.9,7.1,5,6.9,5.3,6.7c0,0,0,0,0.1-0.1c0.2-0.2,0.5-0.5,0.7-0.7l0.1-0.1C6.4,5.5,6.6,5.3,6.9,5H7
	c0.6-0.5,1.2-0.9,1.7-1.3l0,0c0.6-0.3,1.3-0.8,2-1l6.1,2.4v5.9l-5.7,4.6l-5.9-2L4,8.5C4.2,8.2,4.3,7.8,4.6,7.6z M3.8,26.5
	c-0.1-0.4-0.3-0.6-0.5-0.8v-0.1C3.3,25.3,3,25,2.9,24.7l0,0c-0.4-0.6-0.6-1.2-0.8-1.8l0,0C2,22.6,1.9,22.4,1.9,22v-0.1
	c-0.1-0.2-0.1-0.6-0.2-0.8c0,0,0,0,0-0.1c-0.1-0.7-0.2-1.3-0.4-2l3.6-4.3l5.9,2l1.8,6.9l-2.8,3.7L3.8,26.5z M21.3,33.4
	c-0.3,0.1-0.6,0.1-0.9,0.2h-0.1c-0.2,0-0.5,0.1-0.8,0.1c-0.1,0-0.1,0-0.2,0c-0.2,0-0.5,0-0.7,0.1c-0.1,0-0.1,0-0.2,0
	c-0.4,0-0.6,0-0.9,0c-0.2,0-0.6,0-0.8,0h-0.1c-0.2,0-0.5,0-0.8-0.1l0,0c-0.6-0.1-1-0.1-1.6-0.2l-3.5-5.4l2.8-3.7h8.2l2.8,3.7
	L21.3,33.4z M33.5,21L33.5,21c-0.1,0.3-0.1,0.7-0.2,0.9V22C33.1,22.4,33,22.6,33,23l0,0c-0.2,0.6-0.5,1.2-0.8,1.8l0,0
	c-0.1,0.2-0.2,0.6-0.5,0.8v0.1c-0.1,0.2-0.3,0.6-0.5,0.8l-5.7,0.9l-2.8-3.7l1.8-6.9l6-2l3.6,4.3C33.7,19.7,33.6,20.3,33.5,21z"/>
</svg>
