<?xml version="1.0" encoding="utf-8"?>
<!-- Generator: Adobe Illustrator 24.0.2, SVG Export Plug-In . SVG Version: 6.00 Build 0)  -->
<svg version="1.1" id="圖層_1" xmlns="http://www.w3.org/2000/svg" xmlns:xlink="http://www.w3.org/1999/xlink" x="0px" y="0px"
	 viewBox="0 0 35 35" style="enable-background:new 0 0 35 35;" xml:space="preserve">
<style type="text/css">
	.st0{fill:#444444;}
</style>
<path class="st0" d="M20.1,24.3c0.8,1.2,2,2,3.5,2.5c1.3,0.5,2.8,0.3,4.1,0c1.3-0.5,2.5-1.3,3.3-2.5c0.8-1.2,1.3-2.5,1.3-4
	c0-1.5-0.5-3-1.3-4l0,0L17.5,0L4,16.2l0,0c-0.8,1.2-1.3,2.6-1.3,4c0,1.5,0.5,2.8,1.3,4s2,2,3.3,2.5c1.3,0.5,2.8,0.5,4.1,0
	c1.3-0.5,2.5-1.3,3.5-2.5l1.3-1.7v5.8c0,4.1-6.8,4.1-6.8,4.1c-0.3,0-0.7,0.2-1,0.3c-0.3,0.3-0.3,0.7-0.3,1c0,0.3,0.2,0.7,0.3,1
	C8.8,35,9.1,35,9.4,35h16.2c0.3,0,0.7-0.2,1-0.3c0.3-0.3,0.3-0.7,0.3-1c0-0.3-0.2-0.7-0.3-1c-0.3-0.3-0.7-0.3-1-0.3
	c0,0-6.8,0-6.8-4.1v-5.8L20.1,24.3z"/>
</svg>
