<?xml version="1.0" encoding="utf-8"?>
<!-- Generator: Adobe Illustrator 24.0.2, SVG Export Plug-In . SVG Version: 6.00 Build 0)  -->
<svg version="1.1" id="圖層_1" xmlns="http://www.w3.org/2000/svg" xmlns:xlink="http://www.w3.org/1999/xlink" x="0px" y="0px"
	 viewBox="0 0 35 35" style="enable-background:new 0 0 35 35;" xml:space="preserve">
<style type="text/css">
	.st0{display:none;fill:#444444;}
	.st1{fill:#444444;}
</style>
<path class="st0" d="M26.5,4.9c-2.3,0-4.5-0.4-6.8-1.1C18,3.3,16.3,3,14.6,3c-3.5,0-6,1.1-6,1.1L7.7,4.5V2.2H4v12.5h3.7v-2.5h14
	l-1.4,1.1c-0.1,0.1-10.4,8.3-10.7,19.5h11.8c0.1-2.8,1-13.8,9.7-23V4.4c0,0,0,0,0,0C30,4.6,28.5,4.9,26.5,4.9z"/>
<path class="st1" d="M32.4,1.9C32,1.6,31.5,1.5,31,1.5c-0.2,0-0.5,0-0.7,0.1l-1.9,0.6c-0.6,0.2-1.6,0.3-3,0.3
	c-1.6,0-3.3-0.3-4.9-0.8c-1.8-0.6-3.8-0.9-5.7-0.9c-0.8,0-1.6,0.1-2.3,0.1V0h-11v18.9h8.9C10,19.7,9.4,20.7,9,21.6
	c-1.3,2.7-2.3,5.9-2.4,9.4l-0.1,4h1.1h17.1l0.1-3.7c0-0.8,0.2-3.5,1.2-6.9c1-3.4,2.9-7.4,6.4-11.1l1.1-1.1V3.8
	C33.4,3.1,33,2.4,32.4,1.9z M31.2,11.3l-0.5,0.5c-3.8,4-5.8,8.3-6.9,12c-1.1,3.6-1.3,6.5-1.3,7.4l0,1.6H8.7l0.1-1.7
	c0.1-3.1,1-6,2.2-8.5c1.2-2.5,2.8-4.7,4.2-6.4l1.5-1.8h-6.3v2.2H3.8V2.2h6.6v1.3l1.3-0.2c0.9-0.2,2-0.3,3.2-0.3
	c1.7,0,3.4,0.3,5.1,0.8c1.8,0.6,3.7,0.9,5.5,0.9c1.6,0,2.8-0.2,3.5-0.4l0,0L31,3.7l0,0l0.1,0l0.1,0.1V11.3L31.2,11.3z"/>
<path class="st1" d="M25.5,6.3c-2,0-4-0.3-6.1-1c-1.5-0.5-3-0.7-4.6-0.7c-3.1,0-5.3,0.9-5.4,1L8.7,5.9V3.9H5.5V15h3.3v-2.2h12.5
	l-1.3,1c-0.1,0.1-9.2,7.4-9.6,17.4h10.5c0.1-2.5,0.9-12.3,8.7-20.5V5.8c0,0,0,0,0,0C28.7,6,27.3,6.3,25.5,6.3z"/>
</svg>
