<svg xmlns="http://www.w3.org/2000/svg" viewBox="0 0 60 14"><defs><style>.cls-1{fill:#f2f2f2;}</style></defs><title>logo_OCW888_gray</title><g id="EXPORT"><path class="cls-1" d="M23.7,10.16a3.54,3.54,0,0,1-.55-1.94,3.59,3.59,0,0,1,.55-2,3.88,3.88,0,0,1,1.48-1.39,4.26,4.26,0,0,1,2.07-.51A4.31,4.31,0,0,1,29,4.72a4.17,4.17,0,0,1,1.39,1,3.64,3.64,0,0,1,.81,1.43H29.61a2.49,2.49,0,0,0-.94-1,2.84,2.84,0,0,0-2.75-.05A2.47,2.47,0,0,0,25,7a2.44,2.44,0,0,0,0,2.52,2.44,2.44,0,0,0,.94.89,2.7,2.7,0,0,0,1.33.33,2.73,2.73,0,0,0,1.38-.36,2.46,2.46,0,0,0,.95-1h1.58a3.77,3.77,0,0,1-.83,1.4,4.16,4.16,0,0,1-1.37,1,4.41,4.41,0,0,1-3.78-.16A3.91,3.91,0,0,1,23.7,10.16Z"/><path class="cls-1" d="M40.15,12H38.67L36.88,6.81,35.08,12H33.6L31.35,4.45h1.57l1.42,5.11,1.9-5.11h1.29l1.88,5.11,1.44-5.11h1.57Z"/><path class="cls-1" d="M43.05,10.91a2.12,2.12,0,0,1-.35-1.18,2.26,2.26,0,0,1,.25-1,2.3,2.3,0,0,1,.7-.79,1.9,1.9,0,0,1-.55-.68,1.84,1.84,0,0,1-.19-.83,1.81,1.81,0,0,1,.31-1,2.05,2.05,0,0,1,.87-.74,3,3,0,0,1,1.31-.27,3.05,3.05,0,0,1,1.32.27,2.05,2.05,0,0,1,.87.74,1.78,1.78,0,0,1,.31,1,1.84,1.84,0,0,1-.19.83,1.93,1.93,0,0,1-.56.68,2.2,2.2,0,0,1,.7.79,2.14,2.14,0,0,1,.25,1,2.11,2.11,0,0,1-.34,1.18,2.31,2.31,0,0,1-1,.84,3,3,0,0,1-1.4.32A3,3,0,0,1,44,11.75,2.2,2.2,0,0,1,43.05,10.91Zm3.52-1.23a.93.93,0,0,0-.32-.74,1.25,1.25,0,0,0-.85-.28,1.2,1.2,0,0,0-.84.28,1,1,0,0,0,0,1.48,1.2,1.2,0,0,0,.84.28,1.25,1.25,0,0,0,.85-.28A.93.93,0,0,0,46.57,9.68Zm-.21-3.23q0-.72-1-.72a1.11,1.11,0,0,0-.71.19.63.63,0,0,0-.25.53c0,.49.32.73,1,.73A1.18,1.18,0,0,0,46.11,7,.64.64,0,0,0,46.36,6.45Z"/><path class="cls-1" d="M49,10.91a2.2,2.2,0,0,1-.34-1.18,2.26,2.26,0,0,1,.25-1,2.3,2.3,0,0,1,.7-.79,1.9,1.9,0,0,1-.55-.68,1.84,1.84,0,0,1-.19-.83,1.88,1.88,0,0,1,.3-1,2.18,2.18,0,0,1,.87-.74,3.36,3.36,0,0,1,2.64,0,2.12,2.12,0,0,1,.87.74,1.78,1.78,0,0,1,.31,1,1.85,1.85,0,0,1-.2.83,1.8,1.8,0,0,1-.55.68,2.2,2.2,0,0,1,.7.79,2.14,2.14,0,0,1,.25,1,2.11,2.11,0,0,1-.34,1.18,2.41,2.41,0,0,1-1,.84,3,3,0,0,1-1.39.32,3.07,3.07,0,0,1-1.4-.32A2.31,2.31,0,0,1,49,10.91Zm3.53-1.23a.91.91,0,0,0-.33-.74,1.4,1.4,0,0,0-1.68,0,.9.9,0,0,0-.32.74.9.9,0,0,0,.32.74,1.4,1.4,0,0,0,1.68,0A.91.91,0,0,0,52.54,9.68Zm-.21-3.23q0-.72-1-.72a1.11,1.11,0,0,0-.71.19.61.61,0,0,0-.25.53c0,.49.32.73,1,.73A1.18,1.18,0,0,0,52.08,7,.64.64,0,0,0,52.33,6.45Z"/><path class="cls-1" d="M55,10.91a2.11,2.11,0,0,1-.34-1.18,2.14,2.14,0,0,1,.25-1,2.38,2.38,0,0,1,.69-.79A2,2,0,0,1,55,7.24a1.85,1.85,0,0,1-.2-.83,1.89,1.89,0,0,1,.31-1A2.18,2.18,0,0,1,56,4.64a3,3,0,0,1,1.31-.27,3.05,3.05,0,0,1,1.32.27,2.15,2.15,0,0,1,.88.74,1.85,1.85,0,0,1,.11,1.86,1.9,1.9,0,0,1-.55.68,2.3,2.3,0,0,1,.7.79,2.18,2.18,0,0,1-.1,2.2,2.31,2.31,0,0,1-1,.84,3.2,3.2,0,0,1-2.79,0A2.31,2.31,0,0,1,55,10.91Zm3.53-1.23a.91.91,0,0,0-.33-.74,1.42,1.42,0,0,0-1.69,0,1,1,0,0,0,0,1.48,1.42,1.42,0,0,0,1.69,0A.91.91,0,0,0,58.51,9.68ZM58.3,6.45c0-.48-.32-.72-1-.72a1.13,1.13,0,0,0-.71.19.63.63,0,0,0-.24.53c0,.49.32.73.95.73A1.21,1.21,0,0,0,58.05,7,.64.64,0,0,0,58.3,6.45Z"/><path class="cls-1" d="M18.62,12a3.93,3.93,0,0,1-4-3.81,3.93,3.93,0,0,1,4-3.82,3.93,3.93,0,0,1,4,3.82A3.93,3.93,0,0,1,18.62,12Zm0-6.38a2.65,2.65,0,0,0-2.71,2.57,2.71,2.71,0,0,0,5.42,0A2.64,2.64,0,0,0,18.62,5.65Z"/><path class="cls-1" d="M11.66,7.42,9.19,5.27c-.3-.27-.41-.39-.45-.43a.22.22,0,0,1,0-.29.57.57,0,0,1,.44-.2.6.6,0,0,1,.32.1c.15.1.21.19.21.22a.49.49,0,0,1-.13.17L9.44,5l.14.13.64.59.12.11.13-.11A1.34,1.34,0,0,0,11,4.58a1.54,1.54,0,0,0-.73-1.1,1.9,1.9,0,0,0-1.07-.32,1.86,1.86,0,0,0-1.46.67,1.34,1.34,0,0,0,0,1.78c.07.08.22.22.44.43H4.68l.2-.17h0L5,5.77l.5-.43c.42-.36.76-.66,1.05-1l0,0,.06,0h0a2.51,2.51,0,0,0,.73-1.18A2.33,2.33,0,0,0,6.49.8,2.69,2.69,0,0,0,4.84.25a2.66,2.66,0,0,0-2,.83,1.92,1.92,0,0,0-.52,1.46,2,2,0,0,0,.78,1.39,1.94,1.94,0,0,0,.57.3,1.89,1.89,0,0,0,.67.11h.27l.1,0L1.16,7.45a3.06,3.06,0,0,0,2,5.4,5.36,5.36,0,0,0,3.24-1.59,5.32,5.32,0,0,0,3.22,1.57,3,3,0,0,0,2-5.41ZM5.59,10.33a4.24,4.24,0,0,1-2.4,1.3,1.66,1.66,0,0,1-1.14-.39,1.88,1.88,0,0,1-.7-1.45,1.92,1.92,0,0,1,.7-1.45L3.41,7.15l2.28,3.1A.39.39,0,0,0,5.59,10.33Zm5.22.88a1.67,1.67,0,0,1-1.16.4,4.5,4.5,0,0,1-2.38-1.29l0,0L9.48,7.21l.19.17.12.11,0,0,1,.84a2,2,0,0,1,.72,1.45A1.91,1.91,0,0,1,10.81,11.21Zm-2.9-4-1.44,2L5,7.23ZM4.67,3.3l0-.18-.17,0H4.38a.67.67,0,0,1-.24,0A.57.57,0,0,1,4,3a.78.78,0,0,1-.32-.56.75.75,0,0,1,.21-.59,1.35,1.35,0,0,1,1-.42,1.42,1.42,0,0,1,.85.28A1.19,1.19,0,0,1,6.13,2.9a1,1,0,0,1-.26.43l-1,.92,0-.13Z"/><path class="cls-1" d="M6.89,12.5l-.47-.57L6,12.5l-.53.63L4.7,14H8.14l-.72-.87Zm-1,1,.53-.64.53.64Z"/></g></svg>