<?xml version="1.0" encoding="utf-8"?>
<!-- Generator: Adobe Illustrator 22.0.1, SVG Export Plug-In . SVG Version: 6.00 Build 0)  -->
<svg version="1.1" id="圖層_1" xmlns="http://www.w3.org/2000/svg" xmlns:xlink="http://www.w3.org/1999/xlink" x="0px" y="0px"
	 viewBox="0 0 370 370" style="enable-background:new 0 0 370 370;" xml:space="preserve">
<g id="quickmark" transform="translate(40,40)">
	<rect y="0" width="10" height="10"/>
	<rect x="10" y="0" width="10" height="10"/>
	<rect x="20" y="0" width="10" height="10"/>
	<rect x="30" y="0" width="10" height="10"/>
	<rect x="40" y="0" width="10" height="10"/>
	<rect x="50" y="0" width="10" height="10"/>
	<rect x="60" y="0" width="10" height="10"/>
	<rect x="90" y="0" width="10" height="10"/>
	<rect x="100" y="0" width="10" height="10"/>
	<rect x="110" y="0" width="10" height="10"/>
	<rect x="130" y="0" width="10" height="10"/>
	<rect x="140" y="0" width="10" height="10"/>
	<rect x="150" y="0" width="10" height="10"/>
	<rect x="180" y="0" width="10" height="10"/>
	<rect x="200" y="0" width="10" height="10"/>
	<rect x="220" y="0" width="10" height="10"/>
	<rect x="230" y="0" width="10" height="10"/>
	<rect x="240" y="0" width="10" height="10"/>
	<rect x="250" y="0" width="10" height="10"/>
	<rect x="260" y="0" width="10" height="10"/>
	<rect x="270" y="0" width="10" height="10"/>
	<rect x="280" y="0" width="10" height="10"/>
	<rect y="10" width="10" height="10"/>
	<rect x="60" y="10" width="10" height="10"/>
	<rect x="80" y="10" width="10" height="10"/>
	<rect x="100" y="10" width="10" height="10"/>
	<rect x="110" y="10" width="10" height="10"/>
	<rect x="120" y="10" width="10" height="10"/>
	<rect x="150" y="10" width="10" height="10"/>
	<rect x="170" y="10" width="10" height="10"/>
	<rect x="200" y="10" width="10" height="10"/>
	<rect x="220" y="10" width="10" height="10"/>
	<rect x="280" y="10" width="10" height="10"/>
	<rect y="20" width="10" height="10"/>
	<rect x="20" y="20" width="10" height="10"/>
	<rect x="30" y="20" width="10" height="10"/>
	<rect x="40" y="20" width="10" height="10"/>
	<rect x="60" y="20" width="10" height="10"/>
	<rect x="80" y="20" width="10" height="10"/>
	<rect x="90" y="20" width="10" height="10"/>
	<rect x="100" y="20" width="10" height="10"/>
	<rect x="110" y="20" width="10" height="10"/>
	<rect x="140" y="20" width="10" height="10"/>
	<rect x="160" y="20" width="10" height="10"/>
	<rect x="200" y="20" width="10" height="10"/>
	<rect x="220" y="20" width="10" height="10"/>
	<rect x="240" y="20" width="10" height="10"/>
	<rect x="250" y="20" width="10" height="10"/>
	<rect x="260" y="20" width="10" height="10"/>
	<rect x="280" y="20" width="10" height="10"/>
	<rect y="30" width="10" height="10"/>
	<rect x="20" y="30" width="10" height="10"/>
	<rect x="30" y="30" width="10" height="10"/>
	<rect x="40" y="30" width="10" height="10"/>
	<rect x="60" y="30" width="10" height="10"/>
	<rect x="80" y="30" width="10" height="10"/>
	<rect x="100" y="30" width="10" height="10"/>
	<rect x="110" y="30" width="10" height="10"/>
	<rect x="120" y="30" width="10" height="10"/>
	<rect x="140" y="30" width="10" height="10"/>
	<rect x="150" y="30" width="10" height="10"/>
	<rect x="190" y="30" width="10" height="10"/>
	<rect x="200" y="30" width="10" height="10"/>
	<rect x="220" y="30" width="10" height="10"/>
	<rect x="240" y="30" width="10" height="10"/>
	<rect x="250" y="30" width="10" height="10"/>
	<rect x="260" y="30" width="10" height="10"/>
	<rect x="280" y="30" width="10" height="10"/>
	<rect y="40" width="10" height="10"/>
	<rect x="20" y="40" width="10" height="10"/>
	<rect x="30" y="40" width="10" height="10"/>
	<rect x="40" y="40" width="10" height="10"/>
	<rect x="60" y="40" width="10" height="10"/>
	<rect x="110" y="40" width="10" height="10"/>
	<rect x="130" y="40" width="10" height="10"/>
	<rect x="140" y="40" width="10" height="10"/>
	<rect x="150" y="40" width="10" height="10"/>
	<rect x="170" y="40" width="10" height="10"/>
	<rect x="180" y="40" width="10" height="10"/>
	<rect x="190" y="40" width="10" height="10"/>
	<rect x="200" y="40" width="10" height="10"/>
	<rect x="220" y="40" width="10" height="10"/>
	<rect x="240" y="40" width="10" height="10"/>
	<rect x="250" y="40" width="10" height="10"/>
	<rect x="260" y="40" width="10" height="10"/>
	<rect x="280" y="40" width="10" height="10"/>
	<rect y="50" width="10" height="10"/>
	<rect x="60" y="50" width="10" height="10"/>
	<rect x="90" y="50" width="10" height="10"/>
	<rect x="100" y="50" width="10" height="10"/>
	<rect x="130" y="50" width="10" height="10"/>
	<rect x="140" y="50" width="10" height="10"/>
	<rect x="160" y="50" width="10" height="10"/>
	<rect x="180" y="50" width="10" height="10"/>
	<rect x="200" y="50" width="10" height="10"/>
	<rect x="220" y="50" width="10" height="10"/>
	<rect x="280" y="50" width="10" height="10"/>
	<rect y="60" width="10" height="10"/>
	<rect x="10" y="60" width="10" height="10"/>
	<rect x="20" y="60" width="10" height="10"/>
	<rect x="30" y="60" width="10" height="10"/>
	<rect x="40" y="60" width="10" height="10"/>
	<rect x="50" y="60" width="10" height="10"/>
	<rect x="60" y="60" width="10" height="10"/>
	<rect x="80" y="60" width="10" height="10"/>
	<rect x="100" y="60" width="10" height="10"/>
	<rect x="120" y="60" width="10" height="10"/>
	<rect x="140" y="60" width="10" height="10"/>
	<rect x="160" y="60" width="10" height="10"/>
	<rect x="180" y="60" width="10" height="10"/>
	<rect x="200" y="60" width="10" height="10"/>
	<rect x="220" y="60" width="10" height="10"/>
	<rect x="230" y="60" width="10" height="10"/>
	<rect x="240" y="60" width="10" height="10"/>
	<rect x="250" y="60" width="10" height="10"/>
	<rect x="260" y="60" width="10" height="10"/>
	<rect x="270" y="60" width="10" height="10"/>
	<rect x="280" y="60" width="10" height="10"/>
	<rect x="80" y="70" width="10" height="10"/>
	<rect x="90" y="70" width="10" height="10"/>
	<rect x="120" y="70" width="10" height="10"/>
	<rect x="130" y="70" width="10" height="10"/>
	<rect x="190" y="70" width="10" height="10"/>
	<rect x="200" y="70" width="10" height="10"/>
	<rect y="80" width="10" height="10"/>
	<rect x="60" y="80" width="10" height="10"/>
	<rect x="80" y="80" width="10" height="10"/>
	<rect x="90" y="80" width="10" height="10"/>
	<rect x="110" y="80" width="10" height="10"/>
	<rect x="120" y="80" width="10" height="10"/>
	<rect x="140" y="80" width="10" height="10"/>
	<rect x="150" y="80" width="10" height="10"/>
	<rect x="170" y="80" width="10" height="10"/>
	<rect x="190" y="80" width="10" height="10"/>
	<rect x="210" y="80" width="10" height="10"/>
	<rect x="220" y="80" width="10" height="10"/>
	<rect x="250" y="80" width="10" height="10"/>
	<rect x="260" y="80" width="10" height="10"/>
	<rect x="270" y="80" width="10" height="10"/>
	<rect y="90" width="10" height="10"/>
	<rect x="40" y="90" width="10" height="10"/>
	<rect x="70" y="90" width="10" height="10"/>
	<rect x="90" y="90" width="10" height="10"/>
	<rect x="110" y="90" width="10" height="10"/>
	<rect x="140" y="90" width="10" height="10"/>
	<rect x="170" y="90" width="10" height="10"/>
	<rect x="180" y="90" width="10" height="10"/>
	<rect x="190" y="90" width="10" height="10"/>
	<rect x="210" y="90" width="10" height="10"/>
	<rect x="230" y="90" width="10" height="10"/>
	<rect x="240" y="90" width="10" height="10"/>
	<rect x="260" y="90" width="10" height="10"/>
	<rect x="270" y="90" width="10" height="10"/>
	<rect x="10" y="100" width="10" height="10"/>
	<rect x="30" y="100" width="10" height="10"/>
	<rect x="40" y="100" width="10" height="10"/>
	<rect x="60" y="100" width="10" height="10"/>
	<rect x="90" y="100" width="10" height="10"/>
	<rect x="100" y="100" width="10" height="10"/>
	<rect x="170" y="100" width="10" height="10"/>
	<rect x="200" y="100" width="10" height="10"/>
	<rect y="110" width="10" height="10"/>
	<rect x="20" y="110" width="10" height="10"/>
	<rect x="30" y="110" width="10" height="10"/>
	<rect x="80" y="110" width="10" height="10"/>
	<rect x="90" y="110" width="10" height="10"/>
	<rect x="110" y="110" width="10" height="10"/>
	<rect x="140" y="110" width="10" height="10"/>
	<rect x="150" y="110" width="10" height="10"/>
	<rect x="160" y="110" width="10" height="10"/>
	<rect x="180" y="110" width="10" height="10"/>
	<rect x="190" y="110" width="10" height="10"/>
	<rect x="220" y="110" width="10" height="10"/>
	<rect x="230" y="110" width="10" height="10"/>
	<rect x="250" y="110" width="10" height="10"/>
	<rect y="120" width="10" height="10"/>
	<rect x="10" y="120" width="10" height="10"/>
	<rect x="20" y="120" width="10" height="10"/>
	<rect x="30" y="120" width="10" height="10"/>
	<rect x="50" y="120" width="10" height="10"/>
	<rect x="60" y="120" width="10" height="10"/>
	<rect x="70" y="120" width="10" height="10"/>
	<rect x="120" y="120" width="10" height="10"/>
	<rect x="130" y="120" width="10" height="10"/>
	<rect x="140" y="120" width="10" height="10"/>
	<rect x="160" y="120" width="10" height="10"/>
	<rect x="190" y="120" width="10" height="10"/>
	<rect x="200" y="120" width="10" height="10"/>
	<rect x="220" y="120" width="10" height="10"/>
	<rect x="230" y="120" width="10" height="10"/>
	<rect x="280" y="120" width="10" height="10"/>
	<rect x="20" y="130" width="10" height="10"/>
	<rect x="50" y="130" width="10" height="10"/>
	<rect x="90" y="130" width="10" height="10"/>
	<rect x="100" y="130" width="10" height="10"/>
	<rect x="130" y="130" width="10" height="10"/>
	<rect x="140" y="130" width="10" height="10"/>
	<rect x="180" y="130" width="10" height="10"/>
	<rect x="190" y="130" width="10" height="10"/>
	<rect x="200" y="130" width="10" height="10"/>
	<rect x="220" y="130" width="10" height="10"/>
	<rect x="240" y="130" width="10" height="10"/>
	<rect x="270" y="130" width="10" height="10"/>
	<rect x="280" y="130" width="10" height="10"/>
	<rect x="20" y="140" width="10" height="10"/>
	<rect x="40" y="140" width="10" height="10"/>
	<rect x="60" y="140" width="10" height="10"/>
	<rect x="80" y="140" width="10" height="10"/>
	<rect x="100" y="140" width="10" height="10"/>
	<rect x="120" y="140" width="10" height="10"/>
	<rect x="130" y="140" width="10" height="10"/>
	<rect x="140" y="140" width="10" height="10"/>
	<rect x="150" y="140" width="10" height="10"/>
	<rect x="230" y="140" width="10" height="10"/>
	<rect x="250" y="140" width="10" height="10"/>
	<rect x="260" y="140" width="10" height="10"/>
	<rect x="20" y="150" width="10" height="10"/>
	<rect x="40" y="150" width="10" height="10"/>
	<rect x="50" y="150" width="10" height="10"/>
	<rect x="70" y="150" width="10" height="10"/>
	<rect x="90" y="150" width="10" height="10"/>
	<rect x="120" y="150" width="10" height="10"/>
	<rect x="130" y="150" width="10" height="10"/>
	<rect x="140" y="150" width="10" height="10"/>
	<rect x="160" y="150" width="10" height="10"/>
	<rect x="180" y="150" width="10" height="10"/>
	<rect x="190" y="150" width="10" height="10"/>
	<rect x="210" y="150" width="10" height="10"/>
	<rect x="230" y="150" width="10" height="10"/>
	<rect x="240" y="150" width="10" height="10"/>
	<rect x="260" y="150" width="10" height="10"/>
	<rect x="280" y="150" width="10" height="10"/>
	<rect x="10" y="160" width="10" height="10"/>
	<rect x="60" y="160" width="10" height="10"/>
	<rect x="70" y="160" width="10" height="10"/>
	<rect x="80" y="160" width="10" height="10"/>
	<rect x="90" y="160" width="10" height="10"/>
	<rect x="100" y="160" width="10" height="10"/>
	<rect x="110" y="160" width="10" height="10"/>
	<rect x="120" y="160" width="10" height="10"/>
	<rect x="140" y="160" width="10" height="10"/>
	<rect x="160" y="160" width="10" height="10"/>
	<rect x="170" y="160" width="10" height="10"/>
	<rect x="190" y="160" width="10" height="10"/>
	<rect x="230" y="160" width="10" height="10"/>
	<rect x="250" y="160" width="10" height="10"/>
	<rect x="260" y="160" width="10" height="10"/>
	<rect x="10" y="170" width="10" height="10"/>
	<rect x="30" y="170" width="10" height="10"/>
	<rect x="50" y="170" width="10" height="10"/>
	<rect x="70" y="170" width="10" height="10"/>
	<rect x="80" y="170" width="10" height="10"/>
	<rect x="90" y="170" width="10" height="10"/>
	<rect x="100" y="170" width="10" height="10"/>
	<rect x="110" y="170" width="10" height="10"/>
	<rect x="120" y="170" width="10" height="10"/>
	<rect x="150" y="170" width="10" height="10"/>
	<rect x="160" y="170" width="10" height="10"/>
	<rect x="180" y="170" width="10" height="10"/>
	<rect x="190" y="170" width="10" height="10"/>
	<rect x="210" y="170" width="10" height="10"/>
	<rect x="220" y="170" width="10" height="10"/>
	<rect x="230" y="170" width="10" height="10"/>
	<rect x="240" y="170" width="10" height="10"/>
	<rect x="260" y="170" width="10" height="10"/>
	<rect x="270" y="170" width="10" height="10"/>
	<rect x="280" y="170" width="10" height="10"/>
	<rect x="20" y="180" width="10" height="10"/>
	<rect x="40" y="180" width="10" height="10"/>
	<rect x="50" y="180" width="10" height="10"/>
	<rect x="60" y="180" width="10" height="10"/>
	<rect x="70" y="180" width="10" height="10"/>
	<rect x="80" y="180" width="10" height="10"/>
	<rect x="90" y="180" width="10" height="10"/>
	<rect x="120" y="180" width="10" height="10"/>
	<rect x="130" y="180" width="10" height="10"/>
	<rect x="140" y="180" width="10" height="10"/>
	<rect x="150" y="180" width="10" height="10"/>
	<rect x="160" y="180" width="10" height="10"/>
	<rect x="170" y="180" width="10" height="10"/>
	<rect x="190" y="180" width="10" height="10"/>
	<rect x="200" y="180" width="10" height="10"/>
	<rect x="210" y="180" width="10" height="10"/>
	<rect x="220" y="180" width="10" height="10"/>
	<rect x="250" y="180" width="10" height="10"/>
	<rect x="280" y="180" width="10" height="10"/>
	<rect x="10" y="190" width="10" height="10"/>
	<rect x="50" y="190" width="10" height="10"/>
	<rect x="70" y="190" width="10" height="10"/>
	<rect x="90" y="190" width="10" height="10"/>
	<rect x="100" y="190" width="10" height="10"/>
	<rect x="140" y="190" width="10" height="10"/>
	<rect x="210" y="190" width="10" height="10"/>
	<rect x="220" y="190" width="10" height="10"/>
	<rect x="230" y="190" width="10" height="10"/>
	<rect x="240" y="190" width="10" height="10"/>
	<rect x="10" y="200" width="10" height="10"/>
	<rect x="20" y="200" width="10" height="10"/>
	<rect x="40" y="200" width="10" height="10"/>
	<rect x="60" y="200" width="10" height="10"/>
	<rect x="70" y="200" width="10" height="10"/>
	<rect x="80" y="200" width="10" height="10"/>
	<rect x="100" y="200" width="10" height="10"/>
	<rect x="120" y="200" width="10" height="10"/>
	<rect x="150" y="200" width="10" height="10"/>
	<rect x="160" y="200" width="10" height="10"/>
	<rect x="170" y="200" width="10" height="10"/>
	<rect x="190" y="200" width="10" height="10"/>
	<rect x="200" y="200" width="10" height="10"/>
	<rect x="210" y="200" width="10" height="10"/>
	<rect x="220" y="200" width="10" height="10"/>
	<rect x="230" y="200" width="10" height="10"/>
	<rect x="240" y="200" width="10" height="10"/>
	<rect x="260" y="200" width="10" height="10"/>
	<rect x="270" y="200" width="10" height="10"/>
	<rect x="280" y="200" width="10" height="10"/>
	<rect x="80" y="210" width="10" height="10"/>
	<rect x="90" y="210" width="10" height="10"/>
	<rect x="130" y="210" width="10" height="10"/>
	<rect x="150" y="210" width="10" height="10"/>
	<rect x="170" y="210" width="10" height="10"/>
	<rect x="190" y="210" width="10" height="10"/>
	<rect x="200" y="210" width="10" height="10"/>
	<rect x="240" y="210" width="10" height="10"/>
	<rect x="250" y="210" width="10" height="10"/>
	<rect y="220" width="10" height="10"/>
	<rect x="10" y="220" width="10" height="10"/>
	<rect x="20" y="220" width="10" height="10"/>
	<rect x="30" y="220" width="10" height="10"/>
	<rect x="40" y="220" width="10" height="10"/>
	<rect x="50" y="220" width="10" height="10"/>
	<rect x="60" y="220" width="10" height="10"/>
	<rect x="90" y="220" width="10" height="10"/>
	<rect x="110" y="220" width="10" height="10"/>
	<rect x="120" y="220" width="10" height="10"/>
	<rect x="130" y="220" width="10" height="10"/>
	<rect x="140" y="220" width="10" height="10"/>
	<rect x="150" y="220" width="10" height="10"/>
	<rect x="160" y="220" width="10" height="10"/>
	<rect x="180" y="220" width="10" height="10"/>
	<rect x="190" y="220" width="10" height="10"/>
	<rect x="200" y="220" width="10" height="10"/>
	<rect x="220" y="220" width="10" height="10"/>
	<rect x="240" y="220" width="10" height="10"/>
	<rect x="250" y="220" width="10" height="10"/>
	<rect x="260" y="220" width="10" height="10"/>
	<rect y="230" width="10" height="10"/>
	<rect x="60" y="230" width="10" height="10"/>
	<rect x="100" y="230" width="10" height="10"/>
	<rect x="130" y="230" width="10" height="10"/>
	<rect x="150" y="230" width="10" height="10"/>
	<rect x="180" y="230" width="10" height="10"/>
	<rect x="200" y="230" width="10" height="10"/>
	<rect x="240" y="230" width="10" height="10"/>
	<rect x="270" y="230" width="10" height="10"/>
	<rect y="240" width="10" height="10"/>
	<rect x="20" y="240" width="10" height="10"/>
	<rect x="30" y="240" width="10" height="10"/>
	<rect x="40" y="240" width="10" height="10"/>
	<rect x="60" y="240" width="10" height="10"/>
	<rect x="90" y="240" width="10" height="10"/>
	<rect x="100" y="240" width="10" height="10"/>
	<rect x="110" y="240" width="10" height="10"/>
	<rect x="130" y="240" width="10" height="10"/>
	<rect x="150" y="240" width="10" height="10"/>
	<rect x="180" y="240" width="10" height="10"/>
	<rect x="190" y="240" width="10" height="10"/>
	<rect x="200" y="240" width="10" height="10"/>
	<rect x="210" y="240" width="10" height="10"/>
	<rect x="220" y="240" width="10" height="10"/>
	<rect x="230" y="240" width="10" height="10"/>
	<rect x="240" y="240" width="10" height="10"/>
	<rect x="250" y="240" width="10" height="10"/>
	<rect x="270" y="240" width="10" height="10"/>
	<rect x="280" y="240" width="10" height="10"/>
	<rect y="250" width="10" height="10"/>
	<rect x="20" y="250" width="10" height="10"/>
	<rect x="30" y="250" width="10" height="10"/>
	<rect x="40" y="250" width="10" height="10"/>
	<rect x="60" y="250" width="10" height="10"/>
	<rect x="90" y="250" width="10" height="10"/>
	<rect x="110" y="250" width="10" height="10"/>
	<rect x="150" y="250" width="10" height="10"/>
	<rect x="160" y="250" width="10" height="10"/>
	<rect x="170" y="250" width="10" height="10"/>
	<rect x="180" y="250" width="10" height="10"/>
	<rect x="230" y="250" width="10" height="10"/>
	<rect x="250" y="250" width="10" height="10"/>
	<rect x="260" y="250" width="10" height="10"/>
	<rect x="280" y="250" width="10" height="10"/>
	<rect y="260" width="10" height="10"/>
	<rect x="20" y="260" width="10" height="10"/>
	<rect x="30" y="260" width="10" height="10"/>
	<rect x="40" y="260" width="10" height="10"/>
	<rect x="60" y="260" width="10" height="10"/>
	<rect x="100" y="260" width="10" height="10"/>
	<rect x="110" y="260" width="10" height="10"/>
	<rect x="150" y="260" width="10" height="10"/>
	<rect x="160" y="260" width="10" height="10"/>
	<rect x="170" y="260" width="10" height="10"/>
	<rect x="200" y="260" width="10" height="10"/>
	<rect x="220" y="260" width="10" height="10"/>
	<rect x="230" y="260" width="10" height="10"/>
	<rect x="240" y="260" width="10" height="10"/>
	<rect x="250" y="260" width="10" height="10"/>
	<rect x="260" y="260" width="10" height="10"/>
	<rect x="270" y="260" width="10" height="10"/>
	<rect y="270" width="10" height="10"/>
	<rect x="60" y="270" width="10" height="10"/>
	<rect x="110" y="270" width="10" height="10"/>
	<rect x="120" y="270" width="10" height="10"/>
	<rect x="130" y="270" width="10" height="10"/>
	<rect x="140" y="270" width="10" height="10"/>
	<rect x="160" y="270" width="10" height="10"/>
	<rect x="180" y="270" width="10" height="10"/>
	<rect x="190" y="270" width="10" height="10"/>
	<rect x="230" y="270" width="10" height="10"/>
	<rect x="250" y="270" width="10" height="10"/>
	<rect x="260" y="270" width="10" height="10"/>
	<rect x="280" y="270" width="10" height="10"/>
	<rect y="280" width="10" height="10"/>
	<rect x="10" y="280" width="10" height="10"/>
	<rect x="20" y="280" width="10" height="10"/>
	<rect x="30" y="280" width="10" height="10"/>
	<rect x="40" y="280" width="10" height="10"/>
	<rect x="50" y="280" width="10" height="10"/>
	<rect x="60" y="280" width="10" height="10"/>
	<rect x="80" y="280" width="10" height="10"/>
	<rect x="90" y="280" width="10" height="10"/>
	<rect x="120" y="280" width="10" height="10"/>
	<rect x="140" y="280" width="10" height="10"/>
	<rect x="150" y="280" width="10" height="10"/>
	<rect x="170" y="280" width="10" height="10"/>
	<rect x="210" y="280" width="10" height="10"/>
	<rect x="230" y="280" width="10" height="10"/>
	<rect x="240" y="280" width="10" height="10"/>
	<rect x="250" y="280" width="10" height="10"/>
	<rect x="260" y="280" width="10" height="10"/>
</g>
</svg>
