<svg xmlns="http://www.w3.org/2000/svg" xmlns:xlink="http://www.w3.org/1999/xlink" viewBox="0 0 242 37"><defs><style>.cls-1{fill:#f06;}.cls-2{fill:url(#未命名漸層_58);}.cls-3{fill:url(#未命名漸層_58-2);}</style><linearGradient id="未命名漸層_58" x1="7.86" y1="7.65" x2="25.12" y2="37.12" gradientUnits="userSpaceOnUse"><stop offset="0" stop-color="#ff4c94"/><stop offset="1" stop-color="#f06"/></linearGradient><linearGradient id="未命名漸層_58-2" x1="2.02" y1="11.08" x2="19.28" y2="40.55" xlink:href="#未命名漸層_58"/></defs><title>logo</title><g id="圖層_4" data-name="圖層 4"><path class="cls-1" d="M112,27.18a7.56,7.56,0,0,1,0-7.82,7.85,7.85,0,0,1,3-2.79,8.47,8.47,0,0,1,4.14-1,8.64,8.64,0,0,1,3.49.71,8.27,8.27,0,0,1,2.78,2A7.15,7.15,0,0,1,127,21.09h-3.15a4.8,4.8,0,0,0-1.88-2,5.71,5.71,0,0,0-5.53-.11,5,5,0,0,0-1.89,1.8,4.92,4.92,0,0,0,0,5.06,5,5,0,0,0,1.89,1.8,5.44,5.44,0,0,0,2.66.66,5.37,5.37,0,0,0,2.78-.73,5,5,0,0,0,1.9-2H127a7.23,7.23,0,0,1-1.65,2.81,8.22,8.22,0,0,1-2.75,1.92,8.64,8.64,0,0,1-3.45.69A8.47,8.47,0,0,1,115,30,7.85,7.85,0,0,1,112,27.18Z"/><path class="cls-1" d="M129,28.23a5.3,5.3,0,0,1,0-5.6,5.87,5.87,0,0,1,2.14-2,6.23,6.23,0,0,1,5.89,0,5.8,5.8,0,0,1,2.14,2,5.31,5.31,0,0,1,.78,2.8v5.4h-3V29.68a2.14,2.14,0,0,1-1.1.93,4.22,4.22,0,0,1-1.8.39,6.06,6.06,0,0,1-3-.74A5.87,5.87,0,0,1,129,28.23Zm8-2.8a2.71,2.71,0,0,0-.82-2,2.84,2.84,0,0,0-2.08-.81,2.91,2.91,0,0,0-2.1.81,2.85,2.85,0,0,0,0,4,2.91,2.91,0,0,0,2.1.81,2.84,2.84,0,0,0,2.08-.81A2.71,2.71,0,0,0,137,25.43Z"/><path class="cls-1" d="M141.73,29.33a3.09,3.09,0,0,1-.68-2h2.83a1,1,0,0,0,.61.84,3.17,3.17,0,0,0,1.54.33,2.67,2.67,0,0,0,1.38-.3.84.84,0,0,0,.49-.74.69.69,0,0,0-.55-.67,10.77,10.77,0,0,0-1.76-.39,16.84,16.84,0,0,1-2.23-.48,3.53,3.53,0,0,1-1.54-.93,2.78,2.78,0,0,1,0-3.54,4.14,4.14,0,0,1,1.71-1.17,6.48,6.48,0,0,1,2.39-.42,5.59,5.59,0,0,1,3.36.94,3,3,0,0,1,1.3,2.6h-2.83a.9.9,0,0,0-.56-.76,2.72,2.72,0,0,0-1.31-.3,2.54,2.54,0,0,0-1.23.28.84.84,0,0,0-.49.72c0,.25.18.45.53.58a9.46,9.46,0,0,0,1.66.37,17.41,17.41,0,0,1,2.26.48,3.8,3.8,0,0,1,1.6.93,2.4,2.4,0,0,1,.69,1.82,2.86,2.86,0,0,1-1.34,2.61A6.51,6.51,0,0,1,146,31a6.87,6.87,0,0,1-2.44-.42A4.11,4.11,0,0,1,141.73,29.33Z"/><path class="cls-1" d="M152,17.2a1.55,1.55,0,0,1,.51-1.17,1.76,1.76,0,0,1,1.27-.49A1.72,1.72,0,0,1,155,16a1.55,1.55,0,0,1,.51,1.17,1.58,1.58,0,0,1-.51,1.2,1.72,1.72,0,0,1-1.24.49,1.76,1.76,0,0,1-1.27-.49A1.58,1.58,0,0,1,152,17.2ZM155.27,20v10.8h-3V20Z"/><path class="cls-1" d="M167.18,25.15v5.68h-3V25.15a3.12,3.12,0,0,0-.49-1.93,2.29,2.29,0,0,0-3.13,0,3.06,3.06,0,0,0-.49,1.93v5.68h-3V25.15a5.27,5.27,0,0,1,1.37-4,5.67,5.67,0,0,1,7.3,0A5.23,5.23,0,0,1,167.18,25.15Z"/><path class="cls-1" d="M179.43,22.63a5.42,5.42,0,0,1,0,5.6,5.75,5.75,0,0,1-2.15,2,6.27,6.27,0,0,1-5.91,0,5.72,5.72,0,0,1-2.14-2,5.36,5.36,0,0,1,0-5.6,5.72,5.72,0,0,1,2.14-2,6.27,6.27,0,0,1,5.91,0A5.75,5.75,0,0,1,179.43,22.63Zm-8,2.8a2.69,2.69,0,0,0,.85,2,2.91,2.91,0,0,0,2.1.81,2.84,2.84,0,0,0,2.08-.81,2.9,2.9,0,0,0,0-4,2.84,2.84,0,0,0-2.08-.81,2.91,2.91,0,0,0-2.1.81A2.69,2.69,0,0,0,171.4,25.43Z"/><path class="cls-1" d="M203,30.83h-3l-3.59-10.39-3.63,10.39h-3l-4.52-15.12h3.15L191.34,26l3.81-10.26h2.6L201.52,26l2.9-10.26h3.15Z"/><path class="cls-1" d="M217.53,22.63a5.36,5.36,0,0,1,0,5.6,5.75,5.75,0,0,1-2.15,2,6.27,6.27,0,0,1-5.91,0,5.72,5.72,0,0,1-2.14-2,5.36,5.36,0,0,1,0-5.6,5.72,5.72,0,0,1,2.14-2,6.27,6.27,0,0,1,5.91,0A5.75,5.75,0,0,1,217.53,22.63Zm-8,2.8a2.69,2.69,0,0,0,.84,2,2.91,2.91,0,0,0,2.1.81,2.84,2.84,0,0,0,2.08-.81,2.9,2.9,0,0,0,0-4,2.84,2.84,0,0,0-2.08-.81,2.91,2.91,0,0,0-2.1.81A2.69,2.69,0,0,0,209.51,25.43Z"/><path class="cls-1" d="M220.92,21.28A4.89,4.89,0,0,1,224.46,20h.13v2.74h-.11a1.77,1.77,0,0,0-1.46.58,2.87,2.87,0,0,0-.48,1.84v5.68h-3V25.15A5.14,5.14,0,0,1,220.92,21.28Z"/><path class="cls-1" d="M226,15.71h3V30.83h-3Z"/><path class="cls-1" d="M239,30.26a6.23,6.23,0,0,1-5.89,0,5.83,5.83,0,0,1-2.15-2,5.3,5.3,0,0,1,0-5.6,5.83,5.83,0,0,1,2.15-2,6,6,0,0,1,2.94-.74,5,5,0,0,1,2.88.82v-5h3v9.72a5.31,5.31,0,0,1-.79,2.8A5.85,5.85,0,0,1,239,30.26Zm-5.87-4.83a2.71,2.71,0,0,0,.82,2,2.84,2.84,0,0,0,2.08.81,2.92,2.92,0,0,0,2.1-.81,2.85,2.85,0,0,0,0-4,2.92,2.92,0,0,0-2.1-.81,2.84,2.84,0,0,0-2.08.81A2.71,2.71,0,0,0,233.15,25.43Z"/><path class="cls-1" d="M70.73,25v5.68h-3V25A3.06,3.06,0,0,0,67.27,23a2.27,2.27,0,0,0-3.12,0A3.06,3.06,0,0,0,63.66,25v5.68h-3V25a5.3,5.3,0,0,1,1.37-4,5.67,5.67,0,0,1,7.3,0A5.26,5.26,0,0,1,70.73,25Z"/><path class="cls-1" d="M72.33,15.53h3V30.64h-3Z"/><path class="cls-1" d="M77.12,17a1.57,1.57,0,0,1,.51-1.18,1.82,1.82,0,0,1,1.27-.49,1.75,1.75,0,0,1,1.24.49,1.61,1.61,0,0,1,0,2.37,1.7,1.7,0,0,1-1.24.49,1.77,1.77,0,0,1-1.27-.49A1.57,1.57,0,0,1,77.12,17Zm3.26,2.82v10.8h-3V19.84Z"/><path class="cls-1" d="M92.3,25v5.68h-3V25A3.06,3.06,0,0,0,88.84,23a2.29,2.29,0,0,0-3.13,0A3.12,3.12,0,0,0,85.22,25v5.68h-3V25a5.3,5.3,0,0,1,1.37-4,5.69,5.69,0,0,1,7.31,0A5.3,5.3,0,0,1,92.3,25Z"/><path class="cls-1" d="M96.42,20.44a5.78,5.78,0,0,1,2.93-.77,6.45,6.45,0,0,1,2.81.64,5.74,5.74,0,0,1,2.22,1.84,5,5,0,0,1,.93,2.86,6.46,6.46,0,0,1-.1,1.33H96.75a2,2,0,0,0,.9,1.27,3,3,0,0,0,1.7.46,3.36,3.36,0,0,0,1.15-.17,3.21,3.21,0,0,0,.81-.46l3.54,0a5.72,5.72,0,0,1-2.17,2.41,5.89,5.89,0,0,1-3.24.93,6.11,6.11,0,0,1-3-.74,5.74,5.74,0,0,1-2.13-2,5.17,5.17,0,0,1-.79-2.79,5.33,5.33,0,0,1,.77-2.77A5.66,5.66,0,0,1,96.42,20.44Zm4.63,2.44a3,3,0,0,0-1.61-.47,2.9,2.9,0,0,0-1.64.46,2.87,2.87,0,0,0-1,1.23h5.38A2.77,2.77,0,0,0,101.05,22.88Z"/><path class="cls-1" d="M50.66,31a8.45,8.45,0,1,1,8.44-8.45A8.46,8.46,0,0,1,50.66,31Zm0-14.12a5.68,5.68,0,1,0,5.67,5.67A5.68,5.68,0,0,0,50.66,16.88Z"/><path class="cls-2" d="M31.27,19.23l-6.66-5.78c-.79-.73-1.09-1-1.21-1.16a.58.58,0,0,1,0-.77,1.58,1.58,0,0,1,2.07-.27c.4.27.54.51.55.58s-.07.21-.36.47l-.4.36.4.37,1.71,1.58.33.3.34-.3a3.63,3.63,0,0,0,1.39-3A4,4,0,0,0,27.5,8.65a5.1,5.1,0,0,0-2.89-.88,5,5,0,0,0-3.91,1.8,3.63,3.63,0,0,0,.1,4.8c.2.21.58.6,1.18,1.15H12.49l.54-.46,0,0,.34-.29,1.33-1.16c1.13-1,2-1.78,2.82-2.55l.06-.05.17-.14v0a6.7,6.7,0,0,0,2-3.18,6.29,6.29,0,0,0-2.39-6.26A7.34,7.34,0,0,0,12.92-.06,7.18,7.18,0,0,0,7.63,2.19,5.11,5.11,0,0,0,6.25,6.12,5.28,5.28,0,0,0,8.34,9.85a5.49,5.49,0,0,0,1.53.82,5.8,5.8,0,0,0,1.8.29,4.36,4.36,0,0,0,.72-.05l.28,0L3,19.32a8.12,8.12,0,0,0,0,12.6,8.23,8.23,0,0,0,5.48,1.93c2.47,0,5.4-1.44,8.72-4.28,3.36,2.84,6.19,4.22,8.66,4.22a8.18,8.18,0,0,0,5.53-2,8.1,8.1,0,0,0-.12-12.6ZM14.92,27.06c-2.72,2.36-4.83,3.51-6.44,3.51A4.53,4.53,0,0,1,5.4,29.52a5,5,0,0,1,0-7.8l3.68-3.21,6.12,8.34A2.92,2.92,0,0,0,14.92,27.06ZM29,29.44a4.58,4.58,0,0,1-3.12,1.07c-2.1,0-4.66-2-6.41-3.46l-.14-.11,6.08-8.28.51.46.34.3,0,0,2.61,2.26a5,5,0,0,1,.09,7.8Zm-7.8-10.71L17.29,24l-3.89-5.3ZM12.46,8.15l-.07-.48-.48.07h-.24a2,2,0,0,1-.64-.1,1.86,1.86,0,0,1-.52-.28,2.13,2.13,0,0,1-.85-1.49,2,2,0,0,1,.56-1.59,3.66,3.66,0,0,1,2.69-1.14,3.72,3.72,0,0,1,2.28.76,3.2,3.2,0,0,1,1.2,3.17,3,3,0,0,1-.71,1.16L12.87,10.7l-.06-.35Z"/><path class="cls-3" d="M18.43,32.9l-1.26-1.52L15.9,32.9l-1.42,1.71-2,2.33H21.8l-1.94-2.33Zm-2.69,2.59,1.43-1.71,1.43,1.71Z"/></g></svg>