<svg id="圖層_1" data-name="圖層 1" xmlns="http://www.w3.org/2000/svg" xmlns:xlink="http://www.w3.org/1999/xlink" viewBox="0 0 335 185"><defs><style>.cls-1{fill:url(#未命名漸層);}.cls-2,.cls-3{fill:#fff;}.cls-2{fill-opacity:0.03;}.cls-3{fill-opacity:0.08;fill-rule:evenodd;}</style><linearGradient id="未命名漸層" x1="-47.79" y1="206.4" x2="382.21" y2="-19.1" gradientTransform="matrix(1, 0, 0, -1, 0, 186)" gradientUnits="userSpaceOnUse"><stop offset="0.12" stop-color="#179bd7"/><stop offset="0.88" stop-color="#253b80"/></linearGradient></defs><title>card-08</title><rect class="cls-1" width="335" height="185"/><rect class="cls-2" width="335" height="185"/><path class="cls-3" d="M133.86,57.84c13.92,32.45,27.28,63.63,88.7,62,56.35-1.54,92.09,4.14,112.44,14V165a20,20,0,0,1-20,20H20A20,20,0,0,1,0,165V20A20,20,0,0,1,20,0H89.79C114.78,13.34,124.44,35.88,133.86,57.84Z"/><path class="cls-3" d="M17.19.2A20,20,0,0,0,0,20V165a20,20,0,0,0,20,20H315a20,20,0,0,0,17.67-10.62c7.94-27.83-22.09-51.25-127.17-48.38-58.64,1.6-71.41-28.17-84.69-59.15C106.44,33.34,91.46-1.59,17.19.2Z"/></svg>