<?xml version="1.0" encoding="utf-8"?>
<!-- Generator: Adobe Illustrator 26.0.3, SVG Export Plug-In . SVG Version: 6.00 Build 0)  -->
<svg version="1.1" id="圖層_1" xmlns="http://www.w3.org/2000/svg" xmlns:xlink="http://www.w3.org/1999/xlink" x="0px" y="0px"
	 viewBox="0 0 48 16" style="enable-background:new 0 0 48 16;" xml:space="preserve">
<style type="text/css">
	.st0{fill:#FFFFFF;}
</style>
<g>
	<path class="st0" d="M1,7.6c0-0.4,0.1-0.7,0.1-0.9c0-0.3,0-0.7,0-1.2c0-0.5,0-0.9,0-1.1c0-0.1,0-0.2,0-0.3c0.2,0,0.4,0,0.5,0
		c0.2,0,0.4,0,0.6,0c0.2,0,0.5,0,0.6,0c0.2,0,0.4,0,0.5,0c0.1,0,0.2,0,0.3,0.1c0.1,0,0.2,0.1,0.2,0.1C4,4.4,4.1,4.5,4.1,4.6
		c0,0.1,0.1,0.2,0.1,0.4c0,0.1,0,0.2,0,0.3c0,0.1-0.1,0.2-0.1,0.2C4,5.5,4,5.5,3.9,5.6c-0.1,0-0.1,0.1-0.2,0.1
		c-0.1,0-0.1,0.1-0.2,0.1c0.1,0,0.2,0,0.2,0.1c0.1,0,0.1,0.1,0.2,0.1C4,6,4,6,4.1,6.1c0,0.1,0.1,0.1,0.1,0.2c0,0.1,0,0.2,0,0.3
		c0,0.1,0,0.3-0.1,0.4c0,0.1-0.1,0.2-0.2,0.3C3.9,7.3,3.8,7.4,3.7,7.4S3.5,7.5,3.4,7.5c-0.1,0-0.3,0-0.5,0c-0.2,0-0.5,0-0.7,0
		l-0.7,0L1,7.6z M2.1,6.9h0.5c0.1,0,0.2,0,0.3,0C3,6.8,3,6.8,3,6.8c0,0,0.1-0.1,0.1-0.1c0-0.1,0-0.1,0-0.2c0-0.1,0-0.1,0-0.1
		c0,0,0-0.1-0.1-0.1c0,0-0.1,0-0.1-0.1c-0.1,0-0.1,0-0.3,0H2.1L2.1,6.9z M2.2,5.4h0.4c0.1,0,0.2,0,0.3,0c0.1,0,0.1,0,0.1,0
		c0,0,0.1,0,0.1-0.1c0,0,0.1-0.1,0.1-0.1c0,0,0-0.1,0-0.1c0-0.1,0-0.1,0-0.2c0,0-0.1-0.1-0.1-0.1c-0.1,0-0.2,0-0.3,0H2.2L2.2,5.4z"
		/>
	<path class="st0" d="M4.3,7.6l0.2-0.4l1.3-2.5l0.1-0.3C6,4.4,6,4.2,6.1,4.1c0.3,0,0.5,0,0.7,0c0.2,0,0.5,0,0.7,0l0.4,1.1l0.8,2.1
		l0.1,0.4c-0.3,0-0.5,0-0.5,0c-0.1,0-0.4,0-0.6,0C7.5,7.3,7.4,7,7.2,6.6H5.9c-0.1,0.3-0.3,0.6-0.5,1c-0.3,0-0.5,0-0.6,0
		C4.8,7.6,4.6,7.6,4.3,7.6z M6.2,5.8H7c-0.2-0.6-0.3-0.9-0.3-1C6.6,5.1,6.5,5.3,6.4,5.5L6.2,5.8z"/>
	<path class="st0" d="M9,7.6L9,7l0.1-1.8l0-0.7V4.1c0.3,0,0.5,0,0.7,0c0.1,0,0.3,0,0.6,0l1.1,2l0.2,0.3c0-0.3,0-0.7,0.1-1.2
		c0-0.5,0-0.9,0-1.1c0.2,0,0.4,0,0.5,0c0.1,0,0.2,0,0.5,0l-0.1,0.8L12.6,7l0,0.6c-0.2,0-0.4,0-0.6,0c-0.2,0-0.4,0-0.7,0
		c-0.1-0.2-0.2-0.3-0.2-0.4l-0.4-0.7c-0.1-0.2-0.3-0.5-0.4-0.7c-0.1-0.1-0.2-0.3-0.2-0.5L10,6.6l0,1c-0.2,0-0.4,0-0.5,0
		C9.4,7.6,9.3,7.6,9,7.6z"/>
	<path class="st0" d="M13.3,7.6c0-0.3,0.1-0.6,0.1-0.8c0-0.4,0.1-0.9,0.1-1.5c0-0.5,0-0.8,0-1V4.1c0.3,0,0.5,0,0.6,0
		c0.1,0,0.3,0,0.6,0L14.5,6l-0.1,1.6l-0.6,0C13.8,7.6,13.6,7.6,13.3,7.6z M14.6,5.7l0.6-0.8l0.5-0.6l0.1-0.2c0.3,0,0.5,0,0.6,0
		c0,0,0.2,0,0.6,0l-1.1,1.4l-0.2,0.3L15.9,6L17,7.6l-0.6,0c-0.1,0-0.4,0-0.7,0C15.4,7.2,15.1,6.5,14.6,5.7z"/>
</g>
<g>
	<path class="st0" d="M46.6,1.5h-5h-5c-0.3,0-0.6,0.3-0.6,0.6v2.2v0.4v1.9v0.4v2.2c0,0.3,0.3,0.6,0.6,0.6h5h5c0.3,0,0.6-0.3,0.6-0.6
		V6.9V6.5V4.6V4.3V2.1C47.2,1.8,46.9,1.5,46.6,1.5z M47,4.4v2.3v2.4c0,0.2-0.2,0.4-0.4,0.4h-5h-5c-0.2,0-0.4-0.2-0.4-0.4V6.7V4.4
		V2.1c0-0.2,0.2-0.4,0.4-0.4h5h5c0.2,0,0.4,0.2,0.4,0.4V4.4z"/>
	<path class="st0" d="M42.9,5.6c0-0.6,0.3-1.1,0.4-1.2c0-0.4-0.1-2.5-1.7-2.5C40,1.9,39.9,4,39.9,4.4c0.1,0.1,0.4,0.6,0.4,1.2
		c0,0.6-0.3,1.1-0.4,1.2c0,0.4,0.1,2.5,1.7,2.5c1.6-0.1,1.7-2.2,1.7-2.5C43.2,6.6,42.9,6.2,42.9,5.6z"/>
	<path class="st0" d="M40,5.6c0-0.5-0.2-0.8-0.3-1h-3.3v1.9h3.3C39.8,6.4,40,6.1,40,5.6z"/>
	<path class="st0" d="M40.6,1.8h-4c-0.1,0-0.2,0.1-0.2,0.2v2.2h3.2C39.6,3.5,39.8,2.4,40.6,1.8z"/>
	<path class="st0" d="M39.6,6.9h-3.2v2.2c0,0.1,0.1,0.2,0.2,0.2h4C39.8,8.7,39.6,7.6,39.6,6.9z"/>
	<path class="st0" d="M46.6,1.8h-4c0.7,0.6,1,1.7,1,2.4h3.2V2.1C46.9,1.9,46.7,1.8,46.6,1.8z"/>
	<path class="st0" d="M43.2,5.6c0,0.5,0.2,0.8,0.3,1h3.3V4.6h-3.3C43.4,4.7,43.2,5.1,43.2,5.6z"/>
	<path class="st0" d="M42.6,9.3h4c0.1,0,0.2-0.1,0.2-0.2V6.9h-3.2C43.6,7.6,43.4,8.7,42.6,9.3z"/>
</g>
</svg>
