<svg width="174" height="46" viewBox="0 0 174 46" fill="none" xmlns="http://www.w3.org/2000/svg">
<path d="M64.8445 9.40771H55.2478C54.5911 9.40771 54.0326 9.88165 53.9302 10.5257L50.0489 34.9712C49.9717 35.4535 50.3477 35.8884 50.8403 35.8884H55.4218C56.0785 35.8884 56.637 35.4144 56.7394 34.769L57.7863 28.1757C57.8873 27.5303 58.4472 27.0564 59.1025 27.0564H62.1405C68.462 27.0564 72.1104 24.0176 73.0632 17.9958C73.4926 15.3612 73.0814 13.2912 71.8396 11.8415C70.4756 10.2497 68.0565 9.40771 64.8445 9.40771ZM65.9516 18.3359C65.4268 21.7566 62.7958 21.7566 60.2517 21.7566H58.8036L59.8195 15.3682C59.8799 14.9821 60.2166 14.6977 60.6095 14.6977H61.2733C63.0063 14.6977 64.641 14.6977 65.4858 15.679C65.9895 16.2645 66.1439 17.1343 65.9516 18.3359Z" fill="white"/>
<path d="M93.5306 18.2257H88.9351C88.5436 18.2257 88.2054 18.5101 88.145 18.8962L87.9416 20.1731L87.6202 19.7103C86.6253 18.2759 84.4068 17.7964 82.1925 17.7964C77.1143 17.7964 72.7769 21.6172 71.9322 26.9769C71.4929 29.6504 72.1174 32.2069 73.6441 33.9898C75.0445 35.6291 77.0483 36.3121 79.4324 36.3121C83.5242 36.3121 85.7932 33.6984 85.7932 33.6984L85.5884 34.9669C85.5112 35.452 85.8872 35.8869 86.377 35.8869H90.5165C91.1746 35.8869 91.7303 35.413 91.8341 34.7676L94.3178 19.1429C94.3964 18.662 94.0217 18.2257 93.5306 18.2257ZM87.1249 27.1107C86.6815 29.7188 84.5977 31.4695 81.94 31.4695C80.6055 31.4695 79.539 31.0444 78.8543 30.2387C78.1751 29.4386 77.9169 28.2997 78.133 27.0312C78.547 24.4455 80.6658 22.6375 83.2829 22.6375C84.5879 22.6375 85.6487 23.0683 86.3475 23.8809C87.0477 24.702 87.3255 25.8478 87.1249 27.1107Z" fill="white"/>
<path d="M118.006 18.2256H113.388C112.947 18.2256 112.533 18.443 112.283 18.8069L105.914 28.1267L103.214 19.1707C103.044 18.6103 102.524 18.2256 101.935 18.2256H97.3965C96.845 18.2256 96.462 18.7609 96.6374 19.2766L101.724 34.1053L96.9419 40.8116C96.5658 41.3399 96.9447 42.0661 97.5944 42.0661H102.207C102.645 42.0661 103.054 41.8542 103.303 41.4974L118.662 19.4732C119.03 18.9463 118.653 18.2256 118.006 18.2256Z" fill="white"/>
<path d="M133.295 9.40771H123.697C123.042 9.40771 122.483 9.88165 122.381 10.5257L118.5 34.9712C118.422 35.4535 118.799 35.8884 119.288 35.8884H124.214C124.671 35.8884 125.063 35.5566 125.134 35.105L126.236 28.1757C126.337 27.5303 126.897 27.0564 127.552 27.0564H130.588C136.911 27.0564 140.558 24.0176 141.513 17.9958C141.943 15.3612 141.529 13.2912 140.288 11.8415C138.925 10.2497 136.507 9.40771 133.295 9.40771ZM134.402 18.3359C133.879 21.7566 131.248 21.7566 128.702 21.7566H127.256L128.273 15.3682C128.333 14.9821 128.667 14.6977 129.062 14.6977H129.725C131.457 14.6977 133.093 14.6977 133.938 15.679C134.442 16.2645 134.595 17.1343 134.402 18.3359Z" fill="white"/>
<path d="M161.98 18.2257H157.387C156.993 18.2257 156.658 18.5101 156.599 18.8962L156.395 20.1731L156.072 19.7103C155.077 18.2759 152.86 17.7964 150.646 17.7964C145.568 17.7964 141.232 21.6172 140.387 26.9769C139.949 29.6504 140.571 32.2069 142.098 33.9898C143.501 35.6291 145.502 36.3121 147.886 36.3121C151.978 36.3121 154.247 33.6984 154.247 33.6984L154.042 34.9669C153.965 35.452 154.341 35.8869 154.833 35.8869H158.971C159.627 35.8869 160.185 35.413 160.288 34.7676L162.773 19.1429C162.849 18.662 162.473 18.2257 161.98 18.2257ZM155.574 27.1107C155.134 29.7188 153.047 31.4695 150.389 31.4695C149.058 31.4695 147.988 31.0444 147.304 30.2387C146.624 29.4386 146.369 28.2997 146.582 27.0312C146.999 24.4455 149.115 22.6375 151.732 22.6375C153.037 22.6375 154.098 23.0683 154.797 23.8809C155.5 24.702 155.778 25.8478 155.574 27.1107Z" fill="white"/>
<path d="M167.398 10.0781L163.459 34.9711C163.382 35.4534 163.758 35.8883 164.248 35.8883H168.208C168.866 35.8883 169.424 35.4144 169.525 34.769L173.409 10.3249C173.486 9.84255 173.11 9.40625 172.621 9.40625H168.186C167.795 9.40764 167.458 9.69201 167.398 10.0781Z" fill="white"/>
<path d="M32.3415 10.6875C32.3023 10.937 32.2574 11.1921 32.2068 11.4542C30.471 20.3071 24.5326 23.3654 16.9482 23.3654H13.0865C12.1589 23.3654 11.3774 24.0345 11.2328 24.9433L9.25567 37.3996L8.69579 40.9304C8.60177 41.527 9.06483 42.0651 9.67103 42.0651H16.5202C17.3312 42.0651 18.0202 41.4796 18.1479 40.6851L18.2153 40.3394L19.5048 32.2099L19.5876 31.7639C19.7139 30.9665 20.4043 30.3811 21.2154 30.3811H22.2397C28.8756 30.3811 34.0703 27.7047 35.5886 19.96C36.2229 16.7247 35.8945 14.0232 34.2163 12.1233C33.7083 11.5503 33.0782 11.075 32.3415 10.6875Z" fill="white" fill-opacity="0.65"/>
<path d="M13.4906 10.7319C13.5762 10.1841 13.9298 9.73667 14.4055 9.51085C14.623 9.4077 14.863 9.35054 15.117 9.35054H25.4335C26.6557 9.35054 27.7965 9.43 28.8377 9.59727C29.1352 9.64467 29.4242 9.69903 29.7063 9.76036C29.9869 9.82309 30.2606 9.89279 30.5258 9.96945C30.6577 10.0085 30.7882 10.0489 30.9159 10.0893C31.428 10.258 31.9037 10.4573 32.3429 10.6873C32.8593 7.41576 32.3387 5.18824 30.558 3.17121C28.5949 0.950667 25.0518 0 20.518 0H7.35571C6.42958 0 5.63956 0.669091 5.49644 1.57933L0.0140318 36.1002C-0.0940166 36.7833 0.436403 37.3994 1.1296 37.3994H9.25568L11.296 24.5403L13.4906 10.7319Z" fill="white"/>
<path d="M30.5258 9.96803C30.2606 9.89136 29.9869 9.82167 29.7063 9.75894C29.4242 9.69761 29.1352 9.64324 28.8377 9.59585C27.7965 9.42858 26.6557 9.34912 25.4335 9.34912H15.1169C14.863 9.34912 14.6216 9.40627 14.4055 9.50942C13.9298 9.73664 13.5762 10.1841 13.4906 10.7319L11.296 24.5403L11.2328 24.9431C11.3774 24.0343 12.1589 23.3652 13.0865 23.3652H16.9482C24.5326 23.3652 30.471 20.3055 32.2068 11.454C32.2588 11.1919 32.3023 10.9368 32.3415 10.6873C31.9023 10.4559 31.4266 10.258 30.9145 10.0893C30.7882 10.0475 30.6577 10.0071 30.5258 9.96803Z" fill="white" fill-opacity="0.4"/>
</svg>
