<?xml version="1.0" standalone="no"?>
<!DOCTYPE svg PUBLIC "-//W3C//DTD SVG 1.1//EN" "http://www.w3.org/Graphics/SVG/1.1/DTD/svg11.dtd" >
<svg xmlns="http://www.w3.org/2000/svg">
<metadata>Generated by IcoMoon</metadata>
<defs>
<font id="icomoon" horiz-adv-x="1024">
<font-face units-per-em="1024" ascent="960" descent="-64" />
<missing-glyph horiz-adv-x="1024" />
<glyph unicode="&#x20;" horiz-adv-x="512" d="" />
<glyph unicode="&#xe900;" glyph-name="poker" d="M580.267 277.333c21.491-28.655 51.452-49.822 85.645-60.501 34.189-10.679 70.874-10.334 104.858 0.994 33.98 11.328 63.535 33.058 84.48 62.118 20.945 29.056 32.218 63.97 32.218 99.789 0 38.502-13.244 73.66-34.748 102.195l0.614 0.205-341.333 409.601-341.335-409.601 0.614-0.205c-22.432-29.355-34.636-65.25-34.748-102.195 0-35.819 11.27-70.733 32.215-99.789 20.944-29.060 50.501-50.79 84.483-62.118s70.666-11.674 104.857-0.994c34.191 10.679 64.154 31.846 85.648 60.501l34.133 45.466v-147.866c0-102.4-170.669-102.4-170.669-102.4-9.053 0-17.735-3.597-24.136-9.997s-9.998-15.083-9.998-24.137c0-9.050 3.596-17.732 9.998-24.137 6.401-6.4 15.083-9.997 24.136-9.997h409.602c9.050 0 17.732 3.597 24.132 9.997 6.404 6.404 10.001 15.087 10.001 24.137 0 9.054-3.597 17.737-10.001 24.137-6.4 6.4-15.083 9.997-24.132 9.997 0 0-170.667 0-170.667 102.4v147.866l34.133-45.466z" />
<glyph unicode="&#xe901;" glyph-name="arrow-left" d="M657.489 252.16l-195.413 195.84 195.413 195.84-60.16 60.16-256-256 256-256 60.16 60.16z" />
<glyph unicode="&#xe902;" glyph-name="arrow-right" d="M366.511 252.16l195.414 195.84-195.414 195.84 60.16 60.16 256-256-256-256-60.16 60.16z" />
<glyph unicode="&#xe903;" glyph-name="bank" d="M142.222 504.892h85.333v-227.558h-56.889c-7.544 0-14.779-2.995-20.113-8.329s-8.332-12.57-8.332-20.113c0-7.543 2.997-14.78 8.332-20.113 5.334-5.338 12.569-8.333 20.113-8.333h682.667c7.543 0 14.78 2.995 20.113 8.333 5.333 5.333 8.333 12.57 8.333 20.113s-2.999 14.78-8.333 20.113c-5.333 5.333-12.57 8.329-20.113 8.329h-56.887v227.558h85.333c6.191 0 12.215 2.022 17.156 5.756 4.937 3.738 8.525 8.981 10.21 14.942 1.685 5.956 1.382 12.304-0.866 18.074s-6.319 10.649-11.593 13.895l-369.779 227.555c-4.48 2.758-9.643 4.219-14.908 4.219-5.261 0-10.423-1.46-14.903-4.219l-369.779-227.555c-5.274-3.246-9.344-8.125-11.593-13.894s-2.553-12.115-0.867-18.075c1.686-5.961 5.271-11.204 10.21-14.942 4.939-3.733 10.962-5.756 17.155-5.756zM284.445 504.892h113.777v-227.558h-113.777v227.558zM568.887 504.892v-227.558h-113.775v227.558h113.775zM739.554 277.333h-113.775v227.558h113.775v-227.558zM512 727.49l269.282-165.711h-538.559l269.277 165.711zM938.667 135.113c0-7.543-2.995-14.78-8.333-20.113-5.333-5.333-12.57-8.333-20.113-8.333h-796.443c-7.544 0-14.779 2.999-20.113 8.333s-8.331 12.57-8.331 20.113c0 7.543 2.997 14.78 8.331 20.113s12.57 8.333 20.113 8.333h796.443c7.543 0 14.78-2.999 20.113-8.333 5.338-5.333 8.333-12.57 8.333-20.113z" />
<glyph unicode="&#xe904;" glyph-name="birth" d="M500.036 874.667l-25.933-37.897c0 0-17.195-24.021-33.877-52.827-8.358-14.451-16.207-29.539-22.938-44.852-6.699-15.312-12.951-29.412-12.951-47.851 0-52.476 43.223-95.701 95.699-95.701s95.701 43.225 95.701 95.701c0 18.438-6.221 32.538-12.949 47.851-6.733 15.312-14.579 30.401-22.938 44.852-16.683 28.806-33.911 52.859-33.911 52.859l-25.903 37.866zM500.036 595.539h-95.699v-127.601h-191.402c-70.499 0-127.601-57.101-127.601-127.603-0.080-31.189 11.268-61.333 31.9-84.727v-234.274h765.608v234.274c20.634 23.394 31.979 53.538 31.902 84.727 0 70.502-57.105 127.603-127.603 127.603h-191.403v127.601h-95.701zM500.036 759.028c2.108-3.509 1.882-3.254 3.989-6.986 7.59-13.079 15.693-27.020 20.928-38.854 5.231-11.867 6.985-22.809 6.985-21.948 0-17.705-14.195-31.9-31.902-31.9-17.702 0-31.898 14.196-31.898 31.9 0-0.861 1.754 10.081 6.985 21.948 5.231 11.803 13.333 25.775 20.928 38.854 2.103 3.732 1.882 3.509 3.985 6.986zM468.139 531.738h63.799v-63.799h-63.799v63.799zM212.935 404.139h574.205c37.995 0 63.799-25.809 63.799-63.804 0-37.99-25.805-63.799-63.799-63.799s-63.799 25.809-63.799 63.799h-63.799c0-37.99-25.809-63.799-63.804-63.799-37.99 0-63.799 25.809-63.799 63.799h-63.799c0-37.99-25.809-63.799-63.802-63.799s-63.801 25.809-63.801 63.799h-63.801c0-37.99-25.807-63.799-63.801-63.799s-63.8 25.809-63.8 63.799c0 37.995 25.807 63.804 63.8 63.804zM308.636 255.607c11.991-13.534 26.729-24.354 43.23-31.748s34.389-11.187 52.471-11.123c18.082-0.064 35.97 3.729 52.469 11.123 16.503 7.394 31.241 18.214 43.23 31.748 11.994-13.534 26.731-24.354 43.23-31.748 16.503-7.394 34.389-11.187 52.471-11.123 18.082-0.064 35.972 3.729 52.471 11.123 16.503 7.394 31.241 18.214 43.23 31.748 11.994-13.534 26.731-24.354 43.23-31.748 16.503-7.394 34.389-11.187 52.471-11.123 11.102 0 21.692 2.359 31.902 4.975v-132.578h-638.007v132.578c10.208-2.615 20.799-4.975 31.9-4.975 18.082-0.064 35.969 3.729 52.471 11.123s31.239 18.214 43.23 31.748z" />
<glyph unicode="&#xe905;" glyph-name="blockchain" d="M883.494 423.155l-168.994 83.802v212.544c0 0.134-0.013 0.269-0.013 0.404-0.162 8.314-4.821 15.832-12.262 19.629-0.051 0.029-0.107 0.064-0.166 0.094l-179.998 90c-6.336 3.164-13.786 3.164-20.122 0-39.040-19.523-178.816-89.402-180.164-90.094-7.688-3.926-12.275-11.783-12.275-20.033v-212.544l-168.996-83.802c-7.447-3.674-12.504-11.46-12.504-20.156v-226.5c0-8.546 4.846-16.358 12.504-20.156l181.5-89.997c0.117-0.060 0.246-0.102 0.363-0.158 6.398-3.038 13.693-2.82 19.693 0.183l169.94 84.975 169.941-84.975c6.012-3.008 13.329-3.209 19.691-0.183 0.119 0.055 0.247 0.098 0.363 0.158l181.5 89.997c7.659 3.797 12.506 11.61 12.506 20.156v226.5c0 8.346-4.698 16.26-12.506 20.156zM331.959 338.138l-130.81 64.862 130.81 64.866 129.733-64.866-129.733-64.862zM534.498 615.596l135.002 67.5v-176.19l-135.002-67.499v176.189zM489.502 439.407l-135.002 67.499v176.19l135.002-67.5v-176.189zM534.498 366.596l135.002-67.499v-176.192l-135.002 67.499v176.192zM692.041 338.138l-129.732 64.862 129.732 64.866 130.812-64.866-130.812-64.862zM512 784.346l129.69-64.845-129.69-64.846-129.691 64.846 129.691 64.845zM173 366.733l136.5-67.691v-176.273l-136.5 67.691v176.273zM489.502 190.404l-135.002-67.499v176.192l135.002 67.499v-176.192zM850.999 190.46l-136.499-67.691v176.273l136.499 67.691v-176.273z" />
<glyph unicode="&#xe906;" glyph-name="casino" d="M768 848h-512c-38.178-0.042-74.781-15.227-101.777-42.223s-42.181-63.599-42.223-101.777v-512c0.042-38.178 15.227-74.782 42.223-101.777s63.599-42.18 101.777-42.223h512c38.178 0.043 74.782 15.228 101.777 42.223s42.18 63.599 42.223 101.777v512c-0.043 38.178-15.228 74.781-42.223 101.777s-63.599 42.181-101.777 42.223v0zM816 192c-0.013-12.727-5.077-24.926-14.076-33.924s-21.197-14.063-33.924-14.076h-512c-12.726 0.013-24.927 5.077-33.926 14.076s-14.060 21.197-14.074 33.924v512c0.014 12.726 5.075 24.927 14.074 33.926s21.2 14.060 33.926 14.074h512c12.727-0.014 24.926-5.075 33.924-14.074s14.063-21.2 14.076-33.926v-512zM416 608c0-12.658-3.753-25.032-10.786-35.556s-17.028-18.728-28.722-23.572c-11.695-4.844-24.563-6.112-36.978-3.642s-23.818 8.565-32.769 17.516c-8.951 8.951-15.046 20.354-17.516 32.769s-1.202 25.283 3.642 36.978c4.844 11.694 13.047 21.69 23.572 28.722s22.898 10.786 35.556 10.786c16.968-0.019 33.236-6.768 45.234-18.766s18.747-28.266 18.766-45.234v0zM736 608c0-12.658-3.755-25.032-10.786-35.556s-17.028-18.728-28.723-23.572c-11.695-4.844-24.563-6.112-36.975-3.642-12.416 2.47-23.821 8.565-32.772 17.516-8.947 8.951-15.044 20.354-17.515 32.769s-1.203 25.283 3.644 36.978c4.843 11.694 13.047 21.69 23.569 28.722 10.526 7.033 22.899 10.786 35.558 10.786 16.969-0.019 33.237-6.768 45.235-18.766s18.748-28.266 18.765-45.234zM416 288c0-12.659-3.753-25.033-10.786-35.558-7.032-10.522-17.028-18.726-28.722-23.569-11.695-4.847-24.563-6.114-36.978-3.644s-23.818 8.567-32.769 17.515c-8.951 8.951-15.046 20.356-17.516 32.772-2.47 12.412-1.202 25.28 3.642 36.975s13.047 21.692 23.572 28.723c10.525 7.031 22.898 10.786 35.556 10.786 16.968-0.017 33.236-6.767 45.234-18.765s18.747-28.267 18.766-45.235v0zM736 288c0-12.659-3.755-25.033-10.786-35.558-7.031-10.522-17.028-18.726-28.723-23.569-11.695-4.847-24.563-6.114-36.975-3.644-12.416 2.47-23.821 8.567-32.772 17.515-8.947 8.951-15.044 20.356-17.515 32.772-2.47 12.412-1.203 25.28 3.644 36.975 4.843 11.695 13.047 21.692 23.569 28.723 10.526 7.031 22.899 10.786 35.558 10.786 16.969-0.017 33.237-6.767 45.235-18.765s18.748-28.267 18.765-45.235zM576 448c0-12.659-3.755-25.033-10.786-35.558-7.031-10.522-17.028-18.726-28.723-23.569-11.695-4.847-24.563-6.114-36.975-3.644-12.416 2.47-23.821 8.567-32.772 17.515-8.947 8.951-15.044 20.356-17.515 32.772-2.47 12.412-1.203 25.28 3.644 36.975 4.843 11.695 13.047 21.692 23.569 28.723 10.526 7.031 22.899 10.786 35.558 10.786 16.969-0.017 33.237-6.767 45.235-18.765s18.748-28.267 18.765-45.235z" />
<glyph unicode="&#xe907;" glyph-name="check" d="M316.16 465.493l-60.16-60.16 170.667-170.667 341.333 341.335-60.16 60.587-281.173-281.175-110.507 110.080z" />
<glyph unicode="&#xe908;" glyph-name="circle-check" d="M512 21.333c-235.534 0.256-426.408 191.13-426.667 426.667v8.533c4.69 234.473 197.743 421.207 432.243 418.095s422.528-194.901 420.996-429.419c-1.532-234.513-192.051-423.829-426.573-423.876zM316.16 465.493l-60.16-60.16 170.667-170.667 341.333 341.332-60.16 60.587-281.173-281.172-110.507 110.080z" />
<glyph unicode="&#xe909;" glyph-name="close-big" d="M512 508.16l-238.507 238.507-60.16-60.16 238.507-238.507-238.507-238.507 60.16-60.16 238.507 238.507 238.507-238.507 60.16 60.16-238.507 238.507 238.507 238.507-60.16 60.16-238.507-238.507z" />
<glyph unicode="&#xe90a;" glyph-name="close-small" d="M512 508.16l-153.173 153.173-60.16-60.16 153.173-153.173-153.173-153.173 60.16-60.16 153.173 153.173 153.173-153.173 60.16 60.16-153.173 153.173 153.173 153.173-60.16 60.16-153.173-153.173z" />
<glyph unicode="&#xe90b;" glyph-name="coin" d="M284.821 104.892c77.075-70.020 177.596-108.681 281.792-108.305l0.427 0.853c95.569 0.107 188.186 33.114 262.281 93.474s125.146 144.393 144.572 237.969c19.426 93.572 6.037 190.98-37.905 275.846-43.763 84.509-115.17 151.448-202.3 189.668-34.492 30.644-74.022 55.503-117.107 73.347-76.011 31.486-159.654 39.724-240.352 23.673-80.696-16.052-154.82-55.672-212.999-113.85s-97.799-132.303-113.85-212.999c-16.051-80.695-7.813-164.338 23.673-240.353s84.806-140.983 153.217-186.697c18.69-12.489 38.276-23.386 58.553-32.627zM700.821 738.64c2.078-1.973 4.134-3.973 6.17-5.999 32.811-32.692 58.854-71.531 76.642-114.295 17.792-42.765 26.978-88.617 27.034-134.932 0-69.568-20.612-137.57-59.234-195.43-38.622-57.856-93.525-102.972-157.769-129.651s-134.955-33.728-203.201-20.25c-68.246 13.483-130.968 46.878-180.247 95.979s-82.904 111.701-96.63 179.895c-13.726 68.198-6.938 138.934 19.508 203.275s71.363 119.404 129.081 158.236c57.718 38.831 125.647 59.691 195.212 59.944 46.315 0.112 92.203-8.907 135.031-26.541 37.231-15.329 71.514-36.906 101.393-63.759 0.683-0.854 1.408-1.674 2.18-2.456 1.476-1.499 3.093-2.844 4.83-4.015zM849.293 622.929c24.444-32.73 43.051-69.53 54.912-108.783 14.831-49.075 18.765-100.796 11.524-151.552-7.241-50.752-25.481-99.311-53.444-142.281s-64.973-79.313-108.446-106.487c-43.473-27.174-92.356-44.523-143.232-50.837-40.166-4.983-80.811-2.995-120.154 5.803 98.146 8.009 190.707 50.577 260.838 120.713 77.969 77.965 121.869 183.646 122.095 293.909 0 47.791-8.235 94.962-24.094 139.515zM329.387 254.289c-4.605 0.115-9.13 1.22-13.267 3.243-4.137 2.027-7.789 4.919-10.706 8.482-2.916 3.567-5.029 7.718-6.193 12.173-1.164 4.459-1.353 9.114-0.553 13.649l21.76 125.867-91.733 89.6c-4.33 4.143-7.391 9.429-8.826 15.249-1.435 5.815-1.186 11.923 0.72 17.604 1.83 5.644 5.193 10.668 9.714 14.51s10.021 6.353 15.886 7.25l128 18.347 56.746 114.773c3.008 4.945 7.236 9.032 12.279 11.868s10.735 4.326 16.521 4.326c5.786 0 11.477-1.489 16.521-4.326s9.271-6.923 12.279-11.868l54.613-114.773 128-18.347c5.867-0.897 11.366-3.407 15.885-7.25 4.523-3.843 7.885-8.866 9.715-14.51 1.907-5.681 2.155-11.788 0.721-17.604-1.438-5.82-4.497-11.106-8.828-15.249l-91.307-89.6 21.76-125.867c1.007-5.931 0.341-12.028-1.92-17.604s-6.029-10.411-10.88-13.969c-4.86-3.465-10.594-5.5-16.55-5.875-5.956-0.38-11.9 0.917-17.156 3.742l-113.493 59.307-114.773-59.307c-4.577-2.513-9.713-3.831-14.933-3.84zM457.387 385.702c5.222-0.009 10.355-1.327 14.933-3.84l70.827-37.12-13.227 78.933c-0.845 5.069-0.474 10.266 1.088 15.159 1.557 4.898 4.254 9.353 7.872 13.001l58.453 55.893-79.36 11.52c-5.137 0.811-10.014 2.816-14.238 5.854s-7.676 7.027-10.082 11.639l-35.413 72.107-35.84-72.107c-2.348-4.655-5.785-8.678-10.019-11.724s-9.14-5.022-14.301-5.769l-79.36-11.52 57.6-55.893c3.677-3.605 6.416-8.060 7.978-12.966 1.562-4.911 1.899-10.125 0.982-15.194l-13.227-78.933 70.826 37.12c4.407 2.547 9.417 3.874 14.507 3.84z" />
<glyph unicode="&#xe90c;" glyph-name="copy" d="M851.234 764.765l-86.468 86.47c-15.002 15.003-35.354 23.432-56.567 23.432h-286.865c-44.183 0-80-35.817-80-80v-80h-133.333c-44.183 0-80-35.817-80-80v-533.333c0-44.181 35.817-80 80-80h373.333c44.181 0 80 35.819 80 80v80h133.333c44.181 0 80 35.819 80 80v446.863c0 21.217-8.427 41.565-23.433 56.568zM571.332 101.333h-353.332c-2.653 0-5.196 1.054-7.071 2.927-1.876 1.877-2.929 4.42-2.929 7.074v513.332c0 2.653 1.053 5.196 2.929 7.071s4.419 2.929 7.071 2.929h123.333v-373.333c0-44.181 35.817-80 80-80h160v-69.999c0-2.654-1.054-5.197-2.927-7.074-1.877-1.873-4.42-2.927-7.074-2.927zM784.666 261.333h-353.331c-2.654 0-5.197 1.054-7.072 2.927-1.876 1.877-2.929 4.42-2.929 7.074v513.332c0 2.653 1.053 5.196 2.929 7.071s4.418 2.929 7.072 2.929h176.666v-146.667c0-22.092 17.907-40 40-40h146.667v-336.666c0-2.654-1.054-5.197-2.927-7.074-1.877-1.873-4.42-2.927-7.074-2.927zM794.667 688h-106.667v106.667h16.051c2.654 0 5.197-1.053 7.074-2.928l80.614-80.614c0.926-0.928 1.664-2.031 2.167-3.244 0.499-1.213 0.759-2.514 0.759-3.827v-16.053z" />
<glyph unicode="&#xe90d;" glyph-name="deposit" d="M463.957 642.374c21.21 0.571 42.189-4.562 60.749-14.871 18.786-10.439 34.385-25.79 45.12-44.412 11.767-20.415 4.757-46.505-15.654-58.273-20.416-11.767-46.507-4.762-58.274 15.655-3.008 5.214-7.373 9.513-12.634 12.435s-11.217 4.36-17.233 4.157c-0.478-0.016-0.96-0.024-1.438-0.024h-75.851c-8.801 0-17.242-3.496-23.465-9.719s-9.72-14.666-9.72-23.464c0-8.802 3.497-17.246 9.72-23.467 6.223-6.225 14.664-9.719 23.465-9.719h75.851c31.433 0 61.581-12.489 83.806-34.714s34.714-52.373 34.714-83.806c0-31.433-12.489-61.581-34.714-83.806s-52.373-34.714-83.806-34.714h-75.213c-21.21-0.572-42.191 4.565-60.748 14.874-18.789 10.436-34.386 25.788-45.121 44.412-11.769 20.416-4.76 46.502 15.655 58.274 20.415 11.767 46.505 4.757 58.273-15.659 3.006-5.214 7.373-9.51 12.634-12.433s11.218-4.361 17.233-4.156c0.479 0.013 0.957 0.021 1.436 0.021h75.851c8.802 0 17.242 3.499 23.467 9.719 6.225 6.225 9.719 14.665 9.719 23.467s-3.494 17.242-9.719 23.467c-6.225 6.221-14.665 9.719-23.467 9.719h-75.851c-31.433 0-61.579 12.484-83.805 34.714-22.227 22.225-34.714 52.369-34.714 83.806 0 31.431 12.487 61.577 34.714 83.803s52.372 34.713 83.805 34.713h75.215zM426.667 718.224c23.565 0 42.667-19.102 42.667-42.667v-75.852c0-23.564-19.102-42.667-42.667-42.667s-42.667 19.102-42.667 42.667v75.852c0 23.564 19.103 42.667 42.667 42.667zM426.667 338.965c23.565 0 42.667-19.102 42.667-42.667v-75.853c0-23.565-19.102-42.667-42.667-42.667s-42.667 19.102-42.667 42.667v75.853c0 23.565 19.103 42.667 42.667 42.667zM128 448c0 164.949 133.718 298.667 298.667 298.667s298.667-133.718 298.667-298.667c0-3.866-0.073-7.714-0.218-11.541 12.599 7.339 27.251 11.541 42.884 11.541 15.475 0 29.99-4.122 42.505-11.324 0.107 3.763 0.162 7.535 0.162 11.324 0 212.077-171.921 384-384 384-212.077 0-384-171.923-384-384 0-212.079 171.923-384 384-384 91.447 0 175.428 31.966 241.378 85.333h-28.045c-28.992 0-54.609 14.46-70.029 36.561-42.543-23.309-91.375-36.561-143.305-36.561-164.949 0-298.667 133.717-298.667 298.667zM810.667 362.667c0 23.565-19.102 42.667-42.667 42.667s-42.667-19.102-42.667-42.667v-85.333h-85.333c-23.565 0-42.667-19.102-42.667-42.667s19.102-42.667 42.667-42.667h85.333v-85.333c0-23.565 19.102-42.667 42.667-42.667s42.667 19.102 42.667 42.667v85.333h85.333c23.565 0 42.667 19.102 42.667 42.667s-19.102 42.667-42.667 42.667h-85.333v85.333z" />
<glyph unicode="&#xe90e;" glyph-name="edit-off" d="M938.667 714.827l-159.842 159.84-107.836-108.265 159.838-159.84 107.84 108.265zM85.333 804.763l312.008-312.006-243.383-243.383v-159.842h159.84l243.381 243.383 312.009-312.009 60.1 60.1-783.429 783.856-60.526-60.1zM785.22 560.954l-159.842 159.84-107.409-107.413 159.838-159.839 107.413 107.411z" />
<glyph unicode="&#xe90f;" glyph-name="edit" d="M157.141 95.872c-8.215 8.768-12.298 20.629-11.221 32.597l10.453 114.944 482.902 482.729 150.912-150.869-482.774-482.687-114.944-10.453c-1.323-0.128-2.645-0.171-3.883-0.171-11.968 0.021-23.378 5.065-31.445 13.909zM669.44 756.308l90.496 90.496c8.004 8.012 18.863 12.514 30.187 12.514s22.182-4.502 30.187-12.514l90.496-90.496c8.013-8.003 12.514-18.863 12.514-30.187s-4.501-22.184-12.514-30.187l-90.496-90.496-150.869 150.869z" />
<glyph unicode="&#xe910;" glyph-name="error_outline" d="M511.573 21.333c-235.586 0.235-426.397 191.364-426.24 426.953 0.157 235.584 191.223 426.459 426.807 426.381 235.588-0.079 426.526-191.081 426.526-426.667-0.141-235.75-191.343-426.761-427.093-426.667zM170.667 440.661c2.019-187.785 155.354-338.667 343.147-337.664 187.797 1.015 339.499 153.536 339.499 341.333s-151.701 340.319-339.499 341.334c-187.793 1.004-341.128-149.878-343.147-337.664v-7.339zM554.667 234.667h-85.333v85.333h85.333v-85.333zM554.667 405.333h-85.333v256h85.333v-256z" />
<glyph unicode="&#xe911;" glyph-name="exit" d="M810.667 64h-597.333c-47.128 0-85.333 38.204-85.333 85.333v170.667h85.333v-170.667h597.333v597.333h-597.333v-170.667h-85.333v170.667c0 47.128 38.205 85.333 85.333 85.333h597.333c47.13 0 85.333-38.205 85.333-85.333v-597.333c0-47.13-38.204-85.333-85.333-85.333zM469.333 277.333v128h-341.333v85.333h341.333v128l213.333-170.667-213.333-170.667z" />
<glyph unicode="&#xe912;" glyph-name="eye-off" d="M852.053 47.573l-143.189 143.189c-61.777-28.126-128.99-42.3-196.864-41.515-69.978-0.866-139.234 14.234-202.496 44.16-49.038 23.927-93.071 56.973-129.749 97.365-38.934 41.737-69.534 90.526-90.155 143.744l-4.267 13.397 4.48 13.483c30.84 78.667 82.742 147.323 150.016 198.445l-111.829 111.829 60.288 60.245 724.011-724.013-60.16-60.331h-0.085zM300.203 599.426c-54.531-38.226-97.594-90.613-124.544-151.511 57.789-133.329 191.098-217.882 336.341-213.333 44.791-0.367 89.327 6.848 131.712 21.333l-76.8 76.8c-17.097-8.38-35.874-12.753-54.912-12.8-70.507 0.444-127.558 57.493-128 128 0.020 19.085 4.399 37.909 12.8 55.040l-96.597 96.471zM847.019 293.888l-59.392 59.349c24.986 28.25 45.466 60.186 60.715 94.677-57.711 133.396-191.074 217.983-336.341 213.335-10.539 0-21.12-0.384-31.36-1.109l-75.307 75.392c35.055 7.499 70.818 11.204 106.667 11.051 69.978 0.868 139.234-14.234 202.496-44.16 49.037-23.925 93.073-56.969 129.749-97.365 38.916-41.684 69.517-90.413 90.155-143.575l4.267-13.568-4.48-13.483c-19.977-51.968-49.527-99.729-87.125-140.8l-0.043 0.256z" />
<glyph unicode="&#xe913;" glyph-name="eye" d="M512 149.333c-69.978-0.87-139.234 14.234-202.496 44.16-49.037 23.927-93.071 56.973-129.749 97.365-38.851 41.766-69.441 90.513-90.155 143.659l-4.267 13.483 4.48 13.483c20.728 53.103 51.253 101.835 89.984 143.66 36.665 40.392 80.684 73.435 129.707 97.365 63.262 29.927 132.518 45.030 202.496 44.16 69.978 0.868 139.234-14.234 202.496-44.16 49.037-23.924 93.073-56.968 129.749-97.365 38.925-41.709 69.525-90.467 90.155-143.66l4.267-13.483-4.48-13.483c-66.935-174.242-235.554-288.141-422.187-285.184zM512 661.334c-145.243 4.551-278.553-80.004-336.341-213.334 57.779-133.338 191.095-217.894 336.341-213.333 145.242-4.54 278.545 80.013 336.341 213.333-57.711 133.395-191.074 217.981-336.341 213.334zM512 320c-61.555-0.405-114.8 42.782-127.105 103.091-12.305 60.314 19.767 120.909 76.562 144.647s122.445 3.991 156.719-47.141c34.278-51.132 27.601-119.364-15.936-162.88-23.838-24.115-56.329-37.696-90.24-37.717z" />
<glyph unicode="&#xe914;" glyph-name="file" d="M768 21.333h-512c-47.128 0-85.333 38.204-85.333 85.333v682.667c0 47.128 38.205 85.333 85.333 85.333h298.667c0.465-0.020 0.926-0.106 1.365-0.256 0.418-0.129 0.845-0.215 1.28-0.256 3.763-0.241 7.479-0.973 11.051-2.176l1.195-0.384c0.969-0.328 1.907-0.727 2.816-1.195 4.646-2.066 8.883-4.957 12.501-8.533l256-256c3.575-3.618 6.468-7.853 8.533-12.501 0.427-0.939 0.725-1.92 1.067-2.901l0.384-1.109c1.19-3.558 1.894-7.261 2.091-11.008 0.068-0.392 0.166-0.777 0.299-1.152 0.077-0.393 0.102-0.794 0.090-1.195v-469.333c0-47.13-38.208-85.333-85.338-85.333zM256 789.333v-682.667h512v426.667h-213.333c-23.565 0-42.667 19.103-42.667 42.667v213.333h-256zM597.333 729.003v-110.336h110.336l-110.336 110.336z" />
<glyph unicode="&#xe915;" glyph-name="flag" d="M234.667 85.333c-23.564 0-42.667 19.102-42.667 42.667v639.998c0 23.564 19.103 42.668 42.667 42.668h272.213c16.222 0.112 31.1-8.982 38.4-23.468l30.72-61.867h213.333c23.565 0 42.667-19.102 42.667-42.667v-341.331c0-23.565-19.102-42.667-42.667-42.667h-229.973c-16.068 0.047-30.741 9.118-37.973 23.467l-30.72 61.867h-213.333v-256c0-23.565-19.103-42.667-42.667-42.667zM277.333 725.331v-255.998h256l42.667-85.333h170.667v255.998h-213.333l-42.667 85.333h-213.333z" />
<glyph unicode="&#xe916;" glyph-name="home" d="M810.667 21.333h-597.333c-23.564 0-42.667 19.102-42.667 42.667v409.003c0 11.315 4.499 22.165 12.501 30.165l298.667 298.668c8.004 8.012 18.863 12.513 30.187 12.513s22.182-4.502 30.187-12.513l298.667-298.668c8.009-7.991 12.497-18.85 12.459-30.165v-409.003c0-23.565-19.102-42.667-42.667-42.667zM426.667 320h170.667v-213.333h170.667v348.672l-256 256.001-256-256.001v-348.672h170.667v213.333z" />
<glyph unicode="&#xe917;" glyph-name="image" d="M810.667 64h-597.333c-47.128 0-85.333 38.204-85.333 85.333v597.333c0 47.128 38.205 85.333 85.333 85.333h597.333c47.13 0 85.333-38.205 85.333-85.333v-597.333c0-47.13-38.204-85.333-85.333-85.333zM213.333 746.667v-597.333h597.333v597.333h-597.333zM768 234.667h-512l128 170.667 42.667-42.667 128 170.667 213.333-298.667zM362.667 490.667c-35.346 0-64 28.655-64 64 0 35.346 28.654 64 64 64s64-28.654 64-64c0-35.345-28.654-64-64-64z" />
<glyph unicode="&#xe918;" glyph-name="info_circle_outline" d="M512 21.333c-235.642 0-426.667 191.027-426.667 426.667 0 235.642 191.025 426.667 426.667 426.667 235.639 0 426.667-191.025 426.667-426.667-0.26-235.533-191.134-426.406-426.667-426.667zM170.667 440.661c2.019-187.785 155.354-338.667 343.147-337.664 187.797 1.015 339.499 153.536 339.499 341.333s-151.701 340.319-339.499 341.333c-187.793 1.004-341.128-149.878-343.147-337.664v-7.339zM597.333 234.667h-128v170.667h-42.667v85.333h128v-170.667h42.667v-85.333zM554.667 576h-85.333v85.333h85.333v-85.333z" />
<glyph unicode="&#xe919;" glyph-name="logo-btc" d="M813.653 531.61c13.414 89.666-54.857 137.868-148.207 170.023l30.281 121.463-73.933 18.426-29.483-118.262c-19.439 4.843-39.398 9.413-59.238 13.94l29.692 119.041-73.89 18.426-30.302-121.42c-16.090 3.664-31.885 7.286-47.213 11.098l0.084 0.379-101.963 25.459-19.668-78.967c0 0 54.856-12.572 53.698-13.351 29.945-7.476 35.357-27.291 34.451-43l-34.493-138.371c2.063-0.529 4.738-1.284 7.686-2.466-2.464 0.61-5.096 1.284-7.812 1.937l-48.349-193.839c-3.664-9.097-12.951-22.741-33.882-17.562 0.737-1.075-53.74 13.414-53.74 13.414l-36.704-84.634 96.214-23.983c17.899-4.484 35.441-9.182 52.708-13.606l-30.598-122.85 73.85-18.428 30.302 121.549c20.174-5.474 39.756-10.53 58.922-15.287l-30.199-120.977 73.936-18.428 30.596 122.62c126.076-23.859 220.877-14.234 260.783 99.793 32.154 91.814-1.6 144.777-67.934 179.311 48.307 11.14 84.693 42.914 94.404 108.553zM644.723 294.729c-22.848-91.81-177.434-42.18-227.552-29.734l40.599 162.761c50.121-12.51 210.833-37.274 186.953-133.026zM667.593 532.937c-20.847-83.516-149.513-41.084-191.249-30.682l36.809 147.618c41.741-10.403 176.154-29.818 154.441-116.936z" />
<glyph unicode="&#xe91a;" glyph-name="logo-doge" d="M226.043 64.508h278.132c0 0 391.078-30.306 391.078 377.318 0 391.815-357.12 390.426-426.142 390.157-1.617-0.006-3.076-0.012-4.365-0.012h-238.711v-341.872h-98.035v-83.742h98.043v-341.85zM382.698 690.114h109.731c41.041 0 247.526-15.273 247.859-251.053 0.324-232.973-207.859-232.73-241.348-232.691-0.405 0-0.781 0-1.135 0h-115.107v199.996h172.639v83.742h-172.639v200.006z" />
<glyph unicode="&#xe91b;" glyph-name="logo-eth" d="M510.050 235.759l-261.946 154.586 261.788-369.037 262.080 369.037-261.922-154.586zM513.946 874.667l-261.841-434.586 261.841-154.854 261.943 154.692-261.943 434.748z" />
<glyph unicode="&#xe91c;" glyph-name="logo-tron" d="M852.634 649.996c-34.59 24.195-71.582 49.989-107.776 75.584-0.798 0.6-1.596 1.199-2.598 1.799-3.998 2.999-8.597 6.199-14.195 7.998l-0.401 0.2c-96.777 23.395-195.153 47.389-290.334 70.584-86.38 20.995-172.56 41.991-258.941 62.986-2.199 0.6-4.399 1.2-6.799 1.8-7.798 2.199-16.796 4.599-26.394 3.399-2.799-0.4-5.199-1.399-7.398-2.799l-2.399-1.999c-3.799-3.599-5.799-8.198-6.799-10.798l-0.6-1.6v-9.198l0.4-1.4c54.588-152.966 110.575-308.132 164.563-458.298 41.59-115.575 84.78-235.349 126.971-352.922 2.6-8 9.997-13.201 19.196-13.999h2.001c8.597 0 16.196 4.198 19.994 10.999l158.366 230.946c38.588 56.188 77.18 112.576 115.772 168.764 15.795 22.997 31.595 46.191 47.39 69.184 25.993 37.993 52.787 77.184 79.381 115.376l1.399 1.999v2.4c0.602 6.999 0.798 21.395-10.799 28.994zM667.076 565.814c-37.193-19.395-75.183-39.392-113.374-59.185 22.195 23.795 44.591 47.788 66.786 71.583 27.793 29.993 56.785 60.986 85.18 91.38l0.602 0.6c2.398 3.2 5.397 6.199 8.597 9.398 2.197 2.199 4.599 4.399 6.797 6.998 14.797-10.198 29.794-20.595 44.19-30.793 10.398-7.398 20.996-14.797 31.795-22.195-43.994-22.395-87.983-45.39-130.573-67.785zM571.499 575.412c-28.595-30.993-58.185-62.785-87.578-94.179-56.99 69.184-115.176 139.369-171.563 207.154-25.594 30.793-51.388 61.786-76.983 92.58l-0.2 0.2c-5.799 6.599-11.398 13.797-16.996 20.596-3.599 4.599-7.398 8.998-11.197 13.597 23.195-5.999 46.589-11.597 69.584-16.996 20.195-4.799 41.19-9.798 61.786-14.996 115.975-28.194 232.148-56.388 348.12-84.582-38.592-41.191-77.38-82.982-114.974-123.373zM470.921 185.698c2.202 20.996 4.599 42.59 6.601 63.787 1.801 16.994 3.597 34.389 5.397 50.987 2.799 26.594 5.798 54.187 8.201 81.182l0.597 4.8c2.001 17.195 4.002 34.991 5.201 52.787 2.197 1.199 4.599 2.402 7.198 3.401 2.999 1.399 5.999 2.598 8.998 4.399 46.187 24.196 92.378 48.388 138.769 72.384 46.187 23.995 93.577 48.789 140.565 73.384-42.79-61.988-85.781-124.571-127.369-185.559-35.793-52.19-72.585-105.975-109.175-158.967-14.4-21.193-29.393-42.79-43.593-63.586-15.996-23.194-32.393-46.989-48.388-70.784 2.001 23.996 4.399 48.192 6.997 71.787zM192.186 768.169c-2.6 7.199-5.399 14.597-7.799 21.595 53.988-65.186 108.375-130.771 161.364-194.357 27.394-32.993 54.787-65.786 82.179-98.976 5.402-6.199 10.799-12.8 16-19.196 6.797-8.201 13.594-16.798 20.992-24.998-2.398-20.595-4.399-41.391-6.596-61.385-1.399-13.999-2.799-27.994-4.399-42.189v-0.201c-0.602-8.998-1.801-17.997-2.799-26.795-1.399-12.198-4.599-39.791-4.599-39.791l-0.201-1.399c-3.601-40.393-8-81.182-12.198-120.777-1.796-16.397-3.396-33.19-5.197-49.988-1.003 2.999-2.202 5.999-3.2 8.798-2.999 8-5.999 16.397-8.798 24.597l-21.395 59.383c-67.785 188.561-135.569 376.919-203.354 565.678z" />
<glyph unicode="&#xe91d;" glyph-name="member" d="M512 21.333l-128 128h-170.667c-47.128 0-85.333 38.204-85.333 85.333v554.667c0 47.128 38.205 85.333 85.333 85.333h597.333c47.13 0 85.333-38.205 85.333-85.333v-554.667c0-47.13-38.204-85.333-85.333-85.333h-170.667l-128-128zM213.333 789.333v-554.667h213.333l85.333-85.333 85.333 85.333h213.333v554.667h-597.333zM682.667 320.597h-341.333v16.469c5.050 89.382 81.248 157.961 170.667 153.6 89.421 4.361 165.615-64.218 170.667-153.6v-16.469zM512 533.333c-22.865-0.794-45.035 7.94-61.214 24.119s-24.914 38.348-24.119 61.214c-0.782 22.863 7.957 45.024 24.132 61.2s38.34 24.915 61.201 24.133c22.861 0.782 45.026-7.957 61.201-24.133s24.913-38.338 24.132-61.2c0.794-22.866-7.94-45.036-24.119-61.214s-38.349-24.913-61.214-24.119z" />
<glyph unicode="&#xe91e;" glyph-name="minus" d="M213.333 405.333v85.333h597.333v-85.333h-597.333z" />
<glyph unicode="&#xe91f;" glyph-name="more_vertical" d="M426.667 192c0 47.13 38.204 85.333 85.333 85.333s85.333-38.204 85.333-85.333c0-47.13-38.204-85.333-85.333-85.333s-85.333 38.204-85.333 85.333zM426.667 448c0 47.13 38.204 85.333 85.333 85.333s85.333-38.204 85.333-85.333c0-22.63-8.99-44.335-24.994-60.339s-37.709-24.994-60.339-24.994c-47.13 0-85.333 38.204-85.333 85.333zM426.667 704c0 47.128 38.204 85.333 85.333 85.333s85.333-38.205 85.333-85.333c0-22.632-8.99-44.337-24.994-60.34s-37.709-24.994-60.339-24.994c-47.13 0-85.333 38.205-85.333 85.333z" />
<glyph unicode="&#xe920;" glyph-name="news" d="M878.946 877.302c-132.42-131.13-327.040-211.394-514.537-222.682h-278.437c-43.854-0.602-83.5-37.885-85.972-87.060v-125.551c0.598-43.836 36.751-84.582 85.93-87.057h111.634c-29.834-101.18 2.213-203.605 36.821-304.141 51.342-48.478 168.777-42.449 207.053 20.646-81.515 64.077-121.218 236.497-22.947 279.019 167.497-19.004 333.441-104.115 460.455-218.21 43.661 0.597 83.375 36.476 85.926 85.389v205.922c87.424 31.049 69.751 140.168 0 162.373v205.379c-0.58 43.831-36.753 83.455-85.926 85.931v0.042zM881.161 766.254v-523.48c-122.735 95.637-274.381 159.812-430.822 188.621v146.197c153.51 23.101 303.646 93.932 430.822 188.663v0z" />
<glyph unicode="&#xe921;" glyph-name="plus-circle-outline" d="M512 21.333c-235.642 0-426.667 191.027-426.667 426.667 0 235.642 191.025 426.667 426.667 426.667 235.639 0 426.667-191.025 426.667-426.667-0.26-235.533-191.134-426.406-426.667-426.667zM170.667 440.661c2.019-187.785 155.354-338.667 343.147-337.664 187.797 1.015 339.499 153.536 339.499 341.333s-151.701 340.319-339.499 341.333c-187.793 1.004-341.128-149.878-343.147-337.664v-7.339zM554.667 234.667h-85.333v170.667h-170.667v85.333h170.667v170.667h85.333v-170.667h170.667v-85.333h-170.667v-170.667z" />
<glyph unicode="&#xe922;" glyph-name="pw" d="M544.606 412.442c-9.058-52.625-37.513-99.942-79.753-132.608-42.24-32.67-95.193-48.316-148.404-43.849-53.211 4.463-102.815 28.715-139.020 67.964-36.204 39.253-56.378 90.65-56.539 144.047-0.049 53.525 20.024 105.114 56.237 144.529s85.92 63.777 139.257 68.253c53.337 4.476 106.409-11.262 148.686-44.091 42.274-32.829 70.665-80.35 79.535-133.134h358.507v-71.113h-71.113v-142.221h-71.108v142.221h-71.113v-142.221h-71.113v142.221h-74.061zM334.224 305.775c37.719 0 73.894 14.985 100.566 41.655s41.655 62.848 41.655 100.565c0 37.722-14.985 73.894-41.655 100.568-26.672 26.672-62.847 41.656-100.566 41.656s-73.895-14.984-100.567-41.656c-26.672-26.674-41.656-62.847-41.656-100.568 0-37.717 14.984-73.894 41.656-100.565s62.847-41.655 100.567-41.655z" />
<glyph unicode="&#xe923;" glyph-name="scan" d="M725.333 21.333v85.333h128v128h85.333v-149.333c0-16.64-6.827-31.573-19.627-44.373s-27.733-19.627-44.373-19.627h-149.333zM298.667 21.333h-149.333c-16.64 0-31.573 6.827-44.373 19.627s-19.627 27.733-19.627 44.373v149.333h85.333v-128h128v-85.333zM725.333 874.667h149.333c16.64 0 31.573-6.827 44.373-19.627s19.627-27.733 19.627-44.373v-149.333h-85.333v128h-128v85.333zM298.667 874.667v-85.333h-128v-128h-85.333v149.333c0 16.64 6.827 31.573 19.627 44.373s27.733 19.627 44.373 19.627h149.333zM170.667 490.667h682.667v-85.333h-682.667v85.333z" />
<glyph unicode="&#xe924;" glyph-name="search-file" d="M650.039 874.667c-104.576 0-188.237-83.66-188.237-188.235s83.661-188.234 188.237-188.234c37.645 0 71.113 12.548 100.39 29.278l129.677-129.673 58.56 58.564-129.673 129.672c16.73 29.281 29.282 62.745 29.282 100.393 0 104.575-83.661 188.235-188.237 188.235zM168.993 791.007c-22.188 0-43.467-8.815-59.156-24.503s-24.503-36.969-24.503-59.157v-585.623c0-22.187 8.814-43.465 24.503-59.153 15.689-15.693 36.969-24.503 59.156-24.503h585.622c22.187 0 43.465 8.811 59.157 24.503 15.689 15.689 24.503 36.966 24.503 59.153v209.152l-83.661 83.661v-292.813h-585.622v585.623h210.406c2.51 29.281 9.621 56.471 19.66 83.66h-230.065zM650.039 791.007c58.56 0 104.576-46.013 104.576-104.575s-46.016-104.576-104.576-104.576c-58.564 0-104.576 46.013-104.576 104.576s46.012 104.575 104.576 104.575z" />
<glyph unicode="&#xe925;" glyph-name="send" d="M150.807 870.176l770.558-368.565c7.778-3.725 14.349-9.57 18.944-16.87 4.595-7.296 7.036-15.744 7.036-24.367s-2.441-17.071-7.036-24.367c-4.595-7.296-11.166-13.141-18.944-16.866l-770.558-368.567c-7.903-3.789-16.727-5.222-25.424-4.139-8.696 1.088-16.896 4.651-23.625 10.266s-11.701 13.043-14.326 21.406c-2.625 8.358-2.791 17.301-0.479 25.754l77.093 282.624c0.944 3.465 2.886 6.571 5.585 8.939s6.035 3.887 9.592 4.373l373.396 50.722c1.557 0.222 3.029 0.836 4.279 1.792 1.25 0.951 2.231 2.214 2.85 3.657l0.657 2.304c0.29 2.044-0.119 4.122-1.161 5.901-1.045 1.779-2.658 3.157-4.578 3.904l-2.014 0.546-373.028 50.688c-3.55 0.491-6.879 2.014-9.571 4.382s-4.628 5.474-5.57 8.93l-77.532 284.271c-2.312 8.453-2.146 17.392 0.479 25.754s7.598 15.791 14.326 21.406c6.729 5.615 14.929 9.177 23.625 10.263s17.521-0.351 25.424-4.139z" />
<glyph unicode="&#xe926;" glyph-name="service" d="M85.333 789.333v-597.333l204.8 153.6c14.755 11.11 32.731 17.101 51.2 17.067h341.333c47.13 0 85.333 38.204 85.333 85.333v341.333c0 47.128-38.204 85.333-85.333 85.333h-512c-47.128 0-85.333-38.205-85.333-85.333zM170.667 362.667v426.667h512v-341.333h-369.749c-18.472 0.051-36.453-5.943-51.2-17.067l-91.051-68.267zM938.667 21.333v554.667c0 47.128-38.204 85.333-85.333 85.333v-469.333l-91.051 68.267c-14.746 11.123-32.73 17.118-51.2 17.067h-412.416c0-47.13 38.205-85.333 85.333-85.333h298.667c18.47 0.034 36.446-5.956 51.2-17.067l204.8-153.6z" />
<glyph unicode="&#xe927;" glyph-name="setting" d="M589.653 21.333h-155.307c-20.047 0-37.393 13.952-41.684 33.536l-17.365 80.384c-23.166 10.15-45.132 22.844-65.493 37.845l-78.379-24.96c-19.115-6.097-39.894 1.95-49.92 19.328l-77.824 134.443c-9.916 17.387-6.5 39.317 8.235 52.864l60.8 55.467c-2.765 25.126-2.765 50.479 0 75.605l-60.8 55.339c-14.756 13.552-18.174 35.511-8.235 52.907l77.653 134.528c10.026 17.378 30.805 25.423 49.92 19.328l78.379-24.96c10.413 7.716 21.254 14.839 32.469 21.333 10.767 6.072 21.847 11.569 33.195 16.469l17.408 80.299c4.27 19.585 21.597 33.558 41.641 33.579h155.307c20.049-0.021 37.376-13.993 41.643-33.579l17.579-80.341c11.981-5.27 23.65-11.225 34.944-17.835 10.539-6.093 20.723-12.774 30.507-20.011l78.421 24.96c19.102 6.073 39.859-1.969 49.877-19.328l77.653-134.528c9.92-17.386 6.502-39.318-8.235-52.864l-60.8-55.467c2.765-25.126 2.765-50.479 0-75.605l60.8-55.467c14.737-13.547 18.155-35.477 8.235-52.864l-77.653-134.528c-10.018-17.357-30.775-25.399-49.877-19.328l-78.421 24.96c-9.92-7.309-20.233-14.076-30.891-20.267-11.183-6.481-22.724-12.335-34.56-17.536l-17.579-80.171c-4.284-19.567-21.611-33.519-41.643-33.536zM325.122 267.563l34.987-25.6c7.887-5.811 16.107-11.153 24.619-16 8.009-4.638 16.255-8.853 24.704-12.629l39.806-17.451 19.499-89.216h86.613l19.499 89.259 39.808 17.451c17.378 7.663 33.873 17.19 49.195 28.416l35.029 25.6 87.083-27.733 43.307 75.008-67.541 61.568 4.779 43.179c2.099 18.884 2.099 37.948 0 56.832l-4.779 43.179 67.584 61.696-43.349 75.051-87.083-27.733-35.029 25.6c-15.326 11.276-31.817 20.875-49.195 28.629l-39.808 17.451-19.499 89.216h-86.613l-19.584-89.259-39.721-17.408c-8.456-3.714-16.703-7.887-24.704-12.501-8.459-4.835-16.636-10.149-24.491-15.915l-35.029-25.6-87.040 27.733-43.392-75.264 67.541-61.483-4.779-43.221c-2.099-18.884-2.099-37.948 0-56.832l4.779-43.179-67.541-61.568 43.307-75.008 87.040 27.733zM511.829 277.333c-94.255 0-170.665 76.412-170.665 170.667 0 94.257 76.41 170.667 170.665 170.667 94.259 0 170.667-76.41 170.667-170.667-0.115-94.208-76.459-170.547-170.667-170.667zM511.829 533.333c-46.618-0.047-84.57-37.495-85.236-84.109s36.195-85.137 82.792-86.519c46.601-1.382 85.683 34.884 87.778 81.455v-17.067 20.907c0 47.13-38.204 85.333-85.333 85.333z" />
<glyph unicode="&#xe928;" glyph-name="slot" d="M879.040 827.915c-10.001 7.478-22.059 11.353-34.227 11.353-5.538 0-11.059-0.803-16.427-2.41l-45.274-13.552c-15.198-3.703-40.171-8.113-73.135-8.113-39.3 0-79.334 6.325-119.031 18.962-44.949 14.312-92.023 21.552-139.861 21.538-19.989 0-38.526-1.338-55.725-3.366v22.34h-267.36v-460.015h216.577c-13.255-21.158-26.004-43.725-37.667-67.686-32.383-66.598-56.5-143.791-59.29-228.565l-3.197-97.067h443.491l2.735 91.153c0.593 19.934 4.591 85.039 29.739 167.147 25.143 82.18 71.275 181.12 155.891 270.16l25.835 27.215v204.97c0 18.115-8.567 35.132-23.074 45.937zM848.418 598.463l-11.072-11.678c-91.648-96.477-141.346-203.322-168.32-291.433-26.961-88.149-31.343-157.764-32.047-181.261l-1.169-39.061h-335.887l1.367 41.596c2.465 75.588 24.045 145.442 53.908 206.844 29.835 61.389 67.939 114.125 102.607 154.876l37.623 44.245h-153.766v-54.234h-159.964v352.614h159.964v-31.962l31.721 5.847c22.087 4.085 48.47 7.157 77.702 7.157 42.441 0 83.981-6.41 123.575-19.003 44.685-14.242 90.24-21.51 135.313-21.51 38.174 0 67.686 5.141 86.532 9.805l0.649 0.169 46.639 13.945 1.020 0.154 2.138-0.69 1.468-2.901v-183.515zM709.982 721.206c-49.079 0-98.718 7.875-147.541 23.413-35.665 11.353-73.135 17.1-111.351 17.1-76.222 0-130.37-23.102-130.905-23.342l-18.777-8.127v50.442h-79.433v-272.076h79.433v54.233h303.982l-30.524-23.975c-2.3-1.804-225.324-179.8-233.326-423.572h255.188c1.788 59.806 21.21 298.995 211.422 499.215v118.198c-0.128-0.043-0.252-0.070-0.397-0.1-20.553-5.197-54.204-11.41-97.771-11.41z" />
<glyph unicode="&#xe929;" glyph-name="star" d="M308.054 48.213c-18.609-0.559-36.889 4.983-52.053 15.787-14.639 10.581-25.542 25.536-31.139 42.714-5.597 17.173-5.6 35.682-0.007 52.86l53.76 165.973c1.376 4.348 1.378 9.020 0.003 13.372s-4.058 8.175-7.683 10.948l-141.227 102.4c-15.345 10.466-26.855 25.655-32.783 43.26s-5.949 36.663-0.060 54.282c5.888 17.618 17.365 32.833 32.687 43.335s33.652 15.718 52.208 14.855h174.507c4.561-0.028 9.012 1.408 12.698 4.096s6.413 6.486 7.782 10.838l53.76 166.4c5.675 17.098 16.614 31.962 31.253 42.462s32.226 16.098 50.24 15.991c18.014 0.106 35.601-5.492 50.24-15.991s25.579-25.364 31.253-42.462l53.76-166.4c1.37-4.352 4.096-8.15 7.782-10.838s8.137-4.123 12.698-4.096h174.507c18.172 0.193 35.934-5.421 50.692-16.024s25.749-25.641 31.369-42.924c5.619-17.283 5.572-35.911-0.132-53.165s-16.768-32.239-31.582-42.765l-141.227-102.827c-3.639-2.662-6.345-6.409-7.727-10.701-1.378-4.292-1.361-8.913 0.047-13.193l53.76-165.973c5.973-17.118 6.336-35.691 1.045-53.026-5.295-17.34-15.97-32.542-30.485-43.401-14.613-10.679-32.247-16.435-50.347-16.435s-35.733 5.756-50.347 16.435l-140.8 102.4c-3.721 2.705-8.201 4.16-12.8 4.16s-9.079-1.455-12.8-4.16l-142.506-102.4c-14.693-10.449-32.318-15.979-50.347-15.787zM512 234.667c18.125-0.060 35.759-5.888 50.347-16.64l141.227-102.4c3.721-2.62 8.166-4.006 12.715-3.964 4.553 0.043 8.973 1.506 12.646 4.19s6.413 6.451 7.834 10.773c1.417 4.322 1.451 8.977 0.085 13.321l-54.187 166.4c-5.692 17.233-5.743 35.831-0.141 53.099 5.602 17.263 16.563 32.29 31.287 42.901l139.52 102.4c3.84 2.586 6.694 6.4 8.090 10.816s1.25 9.178-0.41 13.504c-1.306 4.387-4.019 8.224-7.718 10.922s-8.183 4.107-12.762 4.009h-172.8c-17.993 0.013-35.524 5.715-50.086 16.29-14.558 10.575-25.404 25.482-30.98 42.59l-54.187 165.973c-1.242 4.427-3.938 8.307-7.65 11.016-3.716 2.708-8.235 4.089-12.83 3.918-4.595 0.171-9.114-1.209-12.826-3.918-3.716-2.709-6.413-6.589-7.654-11.016l-54.187-165.547c-5.504-17.188-16.317-32.188-30.883-42.844s-32.136-16.42-50.183-16.463h-174.507c-4.578 0.097-9.062-1.312-12.761-4.009s-6.412-6.536-7.719-10.922c-1.659-4.326-1.803-9.088-0.408-13.504s4.246-8.23 8.088-10.816l141.227-102.4c14.726-10.611 25.686-25.638 31.287-42.901 5.601-17.267 5.552-35.866-0.14-53.099l-54.187-165.547c-1.364-4.343-1.333-8.998 0.087-13.321s4.16-8.090 7.833-10.773c3.673-2.684 8.094-4.147 12.643-4.19s8.996 1.344 12.716 3.964l141.226 102.4c14.694 10.449 32.32 15.974 50.347 15.787z" />
<glyph unicode="&#xe92a;" glyph-name="transfer" d="M384 106.667l-213.333 170.667 213.333 170.667v-128h554.667v-85.333h-554.667v-128zM640 448v128h-554.667v85.333h554.667v128l213.333-170.667-213.333-170.667z" />
<glyph unicode="&#xe92b;" glyph-name="trash" d="M298.667 21.333c-47.128 0-85.333 38.204-85.333 85.333v554.667h-85.333v85.333h170.667v42.667c0 47.128 38.205 85.333 85.333 85.333h256c47.13 0 85.333-38.205 85.333-85.333v-42.667h170.667v-85.333h-85.333v-554.667c0-47.13-38.204-85.333-85.333-85.333h-426.667zM298.667 106.667h426.667v554.667h-426.667v-554.667zM384 746.667h256v42.667h-256v-42.667zM554.667 192v384h85.333v-384h-85.333zM384 192v384h85.333v-384h-85.333z" />
<glyph unicode="&#xe92c;" glyph-name="user-circle" d="M512 947.198c-275.249 0-499.198-223.949-499.198-499.198 0-275.251 223.949-499.2 499.198-499.2 275.251 0 499.2 223.949 499.2 499.2 0 275.249-223.949 499.198-499.2 499.198zM512 870.398c233.702 0 422.4-188.698 422.4-422.398 0-233.702-188.698-422.4-422.4-422.4-233.7 0-422.398 188.698-422.398 422.4 0 233.7 188.698 422.398 422.398 422.398zM512 755.198c-105.598 0-191.998-86.4-191.998-192 0-58.212 27.149-109.937 68.39-145.188-43.757-22.686-80.44-56.956-106.045-99.072-25.604-42.112-39.146-90.453-39.146-139.738h76.8c0 106.483 85.517 192 191.998 192 106.483 0 192-85.517 192-192h76.8c0 103.68-58.79 193.92-145.19 238.81 41.242 35.251 68.39 86.976 68.39 145.188 0 105.6-86.4 192-192 192zM512 678.398c64.051 0 115.2-51.149 115.2-115.2 0-64.049-51.149-115.198-115.2-115.198s-115.198 51.149-115.198 115.198c0 64.051 51.147 115.2 115.198 115.2z" />
<glyph unicode="&#xe92d;" glyph-name="wallet" d="M867.554 51.644h-711.11c-39.274 0-71.111 31.761-71.111 70.942v638.473c0 39.18 31.837 70.941 71.111 70.941h568.889c39.275 0 71.113-31.761 71.113-70.941v-70.942h71.108c39.275 0 71.113-31.761 71.113-70.941v-496.59c0-39.181-31.838-70.942-71.113-70.942zM725.333 761.053h-568.887v-70.941h568.887v70.941zM867.558 619.173h-711.113v-496.592h711.113v496.592zM689.779 477.291c58.91 0 106.667-47.642 106.667-106.411s-47.757-106.415-106.667-106.415c-58.91 0-106.667 47.646-106.667 106.415s47.757 106.411 106.667 106.411zM689.775 335.411c19.639 0 35.558 15.881 35.558 35.473 0 19.588-15.919 35.469-35.558 35.469-19.635 0-35.554-15.881-35.554-35.469 0-19.593 15.919-35.473 35.554-35.473z" />
<glyph unicode="&#xe92e;" glyph-name="withdraw-pw" d="M432.986 843.063c41.911 0 82.108-16.649 111.74-46.284 29.636-29.635 46.285-69.83 46.285-111.741v-79.012h69.137c23.573 0 46.182-9.365 62.852-26.035s26.035-39.279 26.035-62.854v-29.632c-12.599 0-25.165-4.343-35.396-12.996l-4.228-3.951c-6.477-6.716-13.035-12.762-19.593-18.052l-0.043 64.631c0 7.859-3.119 15.394-8.674 20.951-5.559 5.557-13.094 8.678-20.954 8.678h-454.321c-7.858 0-15.395-3.121-20.951-8.678s-8.678-13.091-8.678-20.951v-375.309c0-16.354 13.274-29.632 29.63-29.632h390.636c16.563-23.241 37.171-43.311 60.838-59.255h-451.475c-23.575 0-46.184 9.365-62.854 26.035s-26.035 39.279-26.035 62.852v375.309c0 23.574 9.365 46.184 26.035 62.854s39.279 26.035 62.854 26.035h69.136v79.012c0 41.911 16.649 82.105 46.284 111.741s69.83 46.284 111.739 46.284zM760.256 443.183c39.189-40.93 82.607-61.039 131.004-61.039 7.625 0 14.025-5.649 15.484-13.116l0.316-3.319v-98.803c0-105.958-51.87-178.014-153.007-213.137-3.234-1.126-6.758-1.126-9.993 0-97.818 33.975-149.534 102.4-152.892 202.667l-0.158 10.428v98.769c0 9.084 7.113 16.474 15.804 16.474 48.316 0 91.772 20.147 131.081 61.035 1.438 1.523 3.17 2.739 5.094 3.567 1.92 0.832 3.994 1.259 6.089 1.259 2.091 0 4.164-0.427 6.089-1.259 1.92-0.828 3.652-2.044 5.090-3.567v0.043zM432.986 388.74c15.718 0 30.793-6.242 41.903-17.357 11.115-11.11 17.357-26.185 17.357-41.903 0-15.714-6.242-30.788-17.357-41.903-11.11-11.11-26.185-17.353-41.903-17.353-15.715 0-30.788 6.242-41.901 17.353-11.113 11.115-17.357 26.189-17.357 41.903 0 15.718 6.243 30.793 17.357 41.903 11.113 11.115 26.186 17.357 41.901 17.357zM432.986 783.803c-26.193 0-51.314-10.406-69.836-28.928s-28.928-43.643-28.928-69.838v-79.012h197.529v79.012c0 26.194-10.402 51.316-28.924 69.838-18.526 18.522-43.644 28.928-69.841 28.928z" />
<glyph unicode="&#xe92f;" glyph-name="withdraw" d="M512 448c-21.094 0-41.719-6.255-59.26-17.975s-31.212-28.378-39.286-47.872c-8.073-19.49-10.186-40.934-6.070-61.628 4.116-20.689 14.275-39.697 29.193-54.613 14.916-14.921 33.924-25.079 54.613-29.193 20.693-4.117 42.138-2.005 61.628 6.067 19.494 8.077 36.151 21.747 47.872 39.287s17.975 38.165 17.975 59.26c0 28.292-11.238 55.424-31.241 75.426s-47.134 31.241-75.426 31.241zM512 305.779c-7.031 0-13.905 2.086-19.75 5.99-5.85 3.908-10.406 9.463-13.099 15.957-2.688 6.498-3.392 13.649-2.022 20.544 1.374 6.899 4.757 13.235 9.732 18.206 4.971 4.971 11.307 8.358 18.206 9.732 6.895 1.37 14.046 0.666 20.54-2.027 6.498-2.688 12.053-7.245 15.957-13.094 3.908-5.845 5.995-12.719 5.995-19.755 0-9.429-3.746-18.47-10.415-25.139s-15.71-10.415-25.143-10.415zM486.758 529.425c3.379-3.238 7.369-5.777 11.733-7.467 4.254-1.882 8.858-2.854 13.508-2.854 4.655 0 9.259 0.973 13.513 2.854 4.365 1.69 8.354 4.228 11.733 7.467l81.421 79.999c6.886 6.884 10.752 16.221 10.752 25.956s-3.866 19.072-10.752 25.955c-6.882 6.884-16.218 10.751-25.954 10.751s-19.072-3.867-25.954-10.751l-19.2-20.978v127.645c0 9.43-3.746 18.474-10.415 25.142s-15.71 10.414-25.143 10.414c-9.429 0-18.47-3.746-25.139-10.414s-10.415-15.712-10.415-25.142v-127.645l-19.2 20.978c-6.882 6.884-16.222 10.751-25.954 10.751-9.737 0-19.073-3.867-25.957-10.751s-10.751-16.22-10.751-25.955c0-9.735 3.867-19.072 10.751-25.956l81.423-79.999zM760.892 341.333c0 7.036-2.086 13.909-5.995 19.755-3.904 5.85-9.459 10.406-15.957 13.094-6.494 2.692-13.645 3.396-20.54 2.027-6.899-1.374-13.235-4.762-18.206-9.732-4.975-4.971-8.358-11.307-9.732-18.206-1.37-6.895-0.666-14.046 2.022-20.544 2.692-6.494 7.249-12.049 13.099-15.957 5.845-3.904 12.719-5.99 19.75-5.99 9.434 0 18.475 3.746 25.143 10.415s10.415 15.71 10.415 25.139zM796.446 590.224h-106.667c-9.429 0-18.475-3.746-25.143-10.414-6.665-6.668-10.411-15.712-10.411-25.142s3.746-18.473 10.411-25.141c6.669-6.669 15.714-10.415 25.143-10.415h106.667c9.429 0 18.475-3.746 25.143-10.415 6.665-6.669 10.411-15.71 10.411-25.139v-284.446c0-9.429-3.746-18.475-10.411-25.139-6.669-6.669-15.714-10.415-25.143-10.415h-568.889c-9.43 0-18.473 3.746-25.141 10.415-6.668 6.665-10.414 15.71-10.414 25.139v284.446c0 9.429 3.746 18.47 10.414 25.139s15.712 10.415 25.141 10.415h106.667c9.43 0 18.474 3.746 25.142 10.415s10.414 15.711 10.414 25.141-3.746 18.474-10.414 25.142c-6.668 6.668-15.712 10.414-25.142 10.414h-106.667c-28.29 0-55.421-11.238-75.424-31.242s-31.242-47.136-31.242-75.424v-284.446c0-28.288 11.238-55.42 31.242-75.426 20.004-20.002 47.135-31.241 75.424-31.241h568.889c28.288 0 55.42 11.238 75.426 31.241 20.002 20.006 31.241 47.138 31.241 75.426v284.446c0 28.288-11.238 55.42-31.241 75.424-20.006 20.004-47.138 31.242-75.426 31.242zM263.113 341.333c0-7.031 2.085-13.905 5.992-19.75 3.907-5.85 9.46-10.406 15.957-13.099 6.497-2.688 13.646-3.392 20.543-2.022 6.897 1.374 13.232 4.757 18.205 9.732 4.972 4.971 8.359 11.307 9.731 18.206 1.372 6.895 0.668 14.046-2.023 20.54-2.691 6.498-7.248 12.053-13.095 15.957-5.847 3.908-12.721 5.995-19.754 5.995-9.43 0-18.473-3.746-25.142-10.415s-10.414-15.71-10.414-25.143z" />
<glyph unicode="&#xe930;" glyph-name="world" d="M511.531 917.333c-259.072 0-468.864-210.261-468.864-469.333s209.792-469.333 468.864-469.333c259.541 0 469.803 210.261 469.803 469.333s-210.261 469.333-469.803 469.333zM836.779 635.733h-138.453c-14.69 58.129-36.442 114.241-64.768 167.083 85.611-29.474 157.751-88.785 203.221-167.083zM512 821.589c38.955-56.32 69.461-118.741 89.643-185.856h-179.286c20.182 67.115 50.688 129.536 89.643 185.856zM148.736 354.133c-7.509 30.037-12.203 61.483-12.203 93.867s4.693 63.829 12.203 93.867h158.634c-3.755-30.976-6.571-61.952-6.571-93.867s2.816-62.891 6.571-93.867h-158.634zM187.221 260.267h138.453c15.019-58.667 36.608-114.987 64.768-167.083-85.702 29.312-157.891 88.666-203.221 167.083v0zM325.674 635.733h-138.453c45.329 78.417 117.519 137.77 203.221 167.083-28.328-52.842-50.079-108.954-64.768-167.083v0zM512 74.411c-38.955 56.32-69.461 118.741-89.643 185.856h179.286c-20.181-67.115-50.688-129.536-89.643-185.856zM621.824 354.133h-219.648c-4.224 30.976-7.509 61.952-7.509 93.867s3.285 63.36 7.509 93.867h219.648c4.224-30.507 7.509-61.952 7.509-93.867s-3.285-62.891-7.509-93.867zM633.557 93.184c28.16 52.096 49.749 108.416 64.768 167.083h138.453c-45.47-78.298-117.611-137.609-203.221-167.083v0zM716.629 354.133c3.755 30.976 6.571 61.952 6.571 93.867s-2.816 62.891-6.571 93.867h158.635c7.509-30.038 12.203-61.483 12.203-93.867s-4.693-63.829-12.203-93.867h-158.635z" />
<glyph unicode="&#xe931;" glyph-name="swp-arrow-left" d="M590.080 149.333c-6.374-0.021-12.672 1.382-18.428 4.117-5.76 2.731-10.833 6.716-14.852 11.669l-206.078 256c-6.275 7.633-9.706 17.207-9.706 27.093 0 9.882 3.431 19.456 9.706 27.093l213.332 255.999c7.245 8.713 17.651 14.193 28.932 15.233s22.515-2.444 31.228-9.686c8.717-7.242 14.195-17.649 15.236-28.931 1.037-11.282-2.445-22.515-9.69-31.229l-190.72-228.692 184.32-228.693c5.218-6.263 8.533-13.892 9.553-21.978 1.020-8.090-0.303-16.299-3.802-23.659-3.503-7.36-9.037-13.564-15.953-17.877s-14.925-6.558-23.078-6.46z" />
<glyph unicode="&#xe932;" glyph-name="swp-arrow-right" d="M433.6 149.333c6.374-0.021 12.672 1.382 18.432 4.117 5.76 2.731 10.833 6.716 14.848 11.669l206.080 256c6.276 7.633 9.707 17.207 9.707 27.093 0 9.882-3.43 19.456-9.707 27.093l-213.333 255.999c-7.241 8.713-17.647 14.193-28.932 15.233-11.281 1.040-22.514-2.444-31.227-9.686s-14.193-17.649-15.233-28.931c-1.040-11.282 2.444-22.515 9.686-31.229l190.72-228.692-184.32-228.693c-5.217-6.263-8.532-13.892-9.551-21.978-1.019-8.090 0.3-16.299 3.802-23.659s9.037-13.564 15.954-17.877c6.917-4.314 14.924-6.558 23.075-6.46z" />
<glyph unicode="&#xe933;" glyph-name="photo-camera" d="M697.472 712.533h121.728c42.24 0 76.8-34.56 76.8-76.8v-460.8c0-42.24-34.56-76.8-76.8-76.8h-614.4c-42.24 0-76.8 34.56-76.8 76.8v460.8c0 42.24 34.56 76.8 76.8 76.8h121.728l47.232 51.84c14.592 15.744 35.328 24.96 56.832 24.96h162.816c10.628-0.006 21.137-2.23 30.857-6.528s18.436-10.575 25.591-18.432l47.616-51.84zM320 405.333c0-105.984 86.016-192 192-192s192 86.016 192 192c0 105.984-86.016 192-192 192s-192-86.016-192-192zM627.2 405.333c0-63.625-51.575-115.2-115.2-115.2s-115.2 51.575-115.2 115.2c0 63.625 51.575 115.2 115.2 115.2s115.2-51.575 115.2-115.2z" />
<glyph unicode="&#xe934;" glyph-name="user" d="M442.010 383.531c22.592-6.729 46.161-10.197 69.99-10.197 22.153 0.038 43.989 3.068 64.977 8.862 69.875-7.578 135.471-38.763 185.63-88.922 57.988-57.988 90.615-136.602 90.726-218.607 0.111-8.452 3.516-16.529 9.493-22.507s14.054-9.382 22.507-9.493c8.452 0.111 16.529 3.516 22.507 9.493s9.382 14.054 9.493 22.507c-0.111 98.978-39.484 193.873-109.47 263.863-40.461 40.457-89.242 70.682-142.323 89.011 6.891 5.534 13.504 11.465 19.81 17.775 45.986 45.982 71.872 108.318 71.983 173.35 0 48.522-14.387 95.955-41.344 136.3-26.961 40.345-65.276 71.79-110.106 90.358-44.826 18.569-94.157 23.427-141.747 13.961-47.589-9.466-91.303-32.832-125.613-67.142s-57.676-78.025-67.142-125.615c-9.466-47.59-4.608-96.919 13.961-141.746 14.807-35.746 37.801-67.354 66.967-92.361-58.957-17.579-113.216-49.604-157.504-93.892-69.989-69.99-109.359-164.885-109.472-263.863 0-8.486 3.372-16.627 9.373-22.626 6.001-6.003 14.141-9.374 22.627-9.374s16.626 3.371 22.627 9.374c6.001 5.999 9.373 14.14 9.373 22.626 0.113 82.005 32.739 160.619 90.726 218.607 54.048 54.050 126.016 86.063 201.95 90.257zM570.505 447.031c-8.794 0.631-17.634 0.96-26.505 0.969h-85.333c-2.569-0.004-5.133-0.034-7.697-0.090-25.165 8.994-48.14 23.484-67.191 42.534-25.36 25.361-42.63 57.67-49.627 92.845s-3.406 71.636 10.319 104.77c13.725 33.135 36.967 61.455 66.787 81.38 29.818 19.925 64.878 30.56 100.743 30.56 48.060-0.113 94.114-19.254 128.098-53.236 33.98-33.982 53.124-80.039 53.235-128.097 0-35.864-10.637-70.924-30.562-100.745-19.921-29.82-48.243-53.060-81.378-66.786-3.593-1.489-7.223-2.859-10.889-4.105z" />
<glyph unicode="&#xe935;" glyph-name="games" d="M725.333 789.333c67.895 0 133.009-26.971 181.018-74.981 48.013-48.009 74.982-113.124 74.982-181.019v-170.667c0-67.895-26.97-133.009-74.982-181.018-48.009-48.013-113.122-74.982-181.018-74.982h-426.667c-67.895 0-133.010 26.97-181.019 74.982-48.009 48.009-74.981 113.122-74.981 181.018v170.667c0 67.895 26.971 133.010 74.981 181.019s113.124 74.981 181.019 74.981h426.667zM725.333 704h-426.667c-43.786 0-85.898-16.829-117.624-47.007s-50.64-71.395-52.829-115.127l-0.213-8.533v-170.667c0-43.785 16.829-85.897 47.007-117.623s71.395-50.641 115.127-52.83l8.533-0.213h426.667c43.785 0 85.897 16.828 117.623 47.006s50.641 71.394 52.83 115.127l0.213 8.533v170.667c0 43.786-16.828 85.898-47.006 117.624s-71.394 50.64-115.127 52.829l-8.533 0.213zM426.667 576v-85.333h85.333v-85.333h-85.376l0.043-85.333h-85.333l-0.043 85.333h-85.291v85.333h85.333v85.333h85.333zM768 405.333v-85.333h-85.333v85.333h85.333zM682.667 576v-85.333h-85.333v85.333h85.333z" />
</font>
</defs>
</svg>
