<?xml version="1.0" encoding="utf-8"?>
<!-- Generator: Adobe Illustrator 24.0.2, SVG Export Plug-In . SVG Version: 6.00 Build 0)  -->
<svg version="1.1" id="圖層_1" xmlns="http://www.w3.org/2000/svg" xmlns:xlink="http://www.w3.org/1999/xlink" x="0px" y="0px"
	 viewBox="0 0 335 185" style="enable-background:new 0 0 335 185;" xml:space="preserve">
<style type="text/css">
	.st0{fill:url(#SVGID_1_);}
	.st1{fill:#FFFFFF;fill-opacity:3.000000e-02;}
	.st2{fill-rule:evenodd;clip-rule:evenodd;fill:#FFFFFF;fill-opacity:8.000000e-02;}
</style>
<linearGradient id="SVGID_1_" gradientUnits="userSpaceOnUse" x1="-47.7893" y1="206.4017" x2="382.2107" y2="-19.0983" gradientTransform="matrix(1 0 0 -1 0 186)">
	<stop  offset="0.1222" style="stop-color:#179BD7"/>
	<stop  offset="0.8789" style="stop-color:#253B80"/>
</linearGradient>
<rect class="st0" width="335" height="185"/>
<g>
	<rect class="st1" width="335" height="185"/>
</g>
<path class="st2" d="M133.9,57.8c13.9,32.4,27.3,63.6,88.7,61.9c56.4-1.5,92.1,4.1,112.4,14V165c0,11-9,20-20,20H20
	c-11,0-20-9-20-20V20C0,9,9,0,20,0h69.8C114.8,13.3,124.4,35.9,133.9,57.8z"/>
<path class="st2" d="M17.2,0.2C7.5,1.6,0,9.9,0,20v145c0,11,9,20,20,20h295c7.7,0,14.3-4.3,17.7-10.6c7.9-27.8-22.1-51.2-127.2-48.4
	c-58.6,1.6-71.4-28.2-84.7-59.2C106.4,33.3,91.5-1.6,17.2,0.2z"/>
</svg>
