<svg width="80" height="28" viewBox="0 0 80 28" fill="none" xmlns="http://www.w3.org/2000/svg">
<g clip-path="url(#clip0)">
<path fill-rule="evenodd" clip-rule="evenodd" d="M57.4065 6.74989C59.2183 6.74989 60.6869 5.28205 60.6869 3.472C60.6869 1.6609 59.2183 0.19165 57.4065 0.19165C55.5968 0.19165 54.129 1.6609 54.129 3.472C54.129 5.28205 55.5968 6.74989 57.4065 6.74989ZM32.2833 8.52011C32.1353 8.89191 31.07 11.9013 28.4934 15.0202V1.68416L21.6282 3.04099V27.214H28.4934V19.742C30.4818 22.7242 31.4636 27.214 31.4636 27.214H39.6867C38.8733 23.8325 35.3152 17.5975 35.3152 17.5975C38.5085 13.5488 39.9112 9.23482 40.1343 8.52011H32.2833ZM50.3316 8.26777C44.1826 8.46513 41.0611 11.2239 41.0611 16.7079V27.214H47.7695V18.6466C47.7695 15.3628 48.1995 13.9552 52.0962 13.8209V8.36398C51.4403 8.22478 50.3316 8.26777 50.3316 8.26777ZM10.1145 11.182C9.27366 11.1266 7.32687 11.0008 7.32687 9.24821C7.32687 7.13332 10.1297 7.13332 11.181 7.13332C13.0294 7.13332 15.4234 7.67958 17.133 8.19095C17.133 8.19095 18.0867 8.52716 18.8983 8.87147L18.9737 8.89191V3.09984L18.8701 3.06918C16.8525 2.36328 14.5064 1.68416 10.1568 1.68416C2.65727 1.68416 0 6.05315 0 9.79588C0 11.9534 0.924758 17.0311 9.51366 17.6168C10.2418 17.6616 12.1741 17.773 12.1741 19.5841C12.1741 21.0794 10.5921 21.9612 7.93128 21.9612C5.01533 21.9612 2.18678 21.2176 0.468722 20.5124V26.4778C3.0407 27.152 5.94009 27.4889 9.33815 27.4889C16.671 27.4889 19.9552 23.3554 19.9552 19.2584C19.9552 14.6131 16.2802 11.595 10.1145 11.182ZM54.0811 27.214H60.7352V8.54125H54.0811V27.214ZM73.2645 2.87465V27.214H79.9196V1.68416L73.2645 2.87465ZM63.5538 2.87465L70.2026 1.68416V27.214H63.5538V2.87465Z" fill="white"/>
</g>
<defs>
<clipPath id="clip0">
<rect width="80" height="27.489" fill="white"/>
</clipPath>
</defs>
</svg>
