<?xml version="1.0" encoding="utf-8"?>
<!-- Generator: Adobe Illustrator 22.1.0, SVG Export Plug-In . SVG Version: 6.00 Build 0)  -->
<svg version="1.1" id="圖層_1" xmlns="http://www.w3.org/2000/svg" xmlns:xlink="http://www.w3.org/1999/xlink" x="0px" y="0px"
	 viewBox="0 0 121.5 88.8" style="enable-background:new 0 0 121.5 88.8;" xml:space="preserve">
<style type="text/css">
	.st0{fill:#C1A678;}
</style>
<path class="st0" d="M114,71.2c4.9-6.4,7.5-14.3,7.5-22.4c0-20.5-16.6-37.1-37.1-37.1c-3,0-6,0.4-8.9,1.1C67.1,4.5,56.1,0,44.4,0
	C19.9,0,0,19.9,0,44.4c0,9.8,3.3,19.3,9.2,27L4,80.6c-0.5,0.8-0.4,1.8,0.1,2.6c0.5,0.8,1.5,1.2,2.4,1L21,82.1
	c7,4.4,15.1,6.7,23.4,6.7c8.3,0,16.5-2.3,23.5-6.8c5.1,2.5,10.8,3.9,16.5,3.9c6.9,0,13.6-1.9,19.4-5.5l11.8,1.8
	c0.9,0.1,1.9-0.3,2.4-1c0.5-0.8,0.6-1.8,0.1-2.6L114,71.2z M28.5,51.4c-2.8,0-5.1-2.3-5.1-5.1s2.3-5.1,5.1-5.1
	c2.8,0,5.1,2.3,5.1,5.1S31.3,51.4,28.5,51.4z M44.4,51.4c-2.8,0-5.1-2.3-5.1-5.1s2.3-5.1,5.1-5.1s5.1,2.3,5.1,5.1
	S47.2,51.4,44.4,51.4z M60.3,51.4c-2.8,0-5.1-2.3-5.1-5.1s2.3-5.1,5.1-5.1c2.8,0,5.1,2.3,5.1,5.1S63.1,51.4,60.3,51.4z M103.6,75.4
	c-0.6-0.1-1.2,0-1.7,0.4C96.7,79.2,90.6,81,84.4,81c-4.1,0-8.1-0.8-11.9-2.3c10.2-8.4,16.3-21.1,16.3-34.3c0-10-3.3-19.6-9.5-27.4
	c1.7-0.3,3.4-0.4,5.1-0.4c17.8,0,32.2,14.4,32.2,32.2c0,7.5-2.6,14.8-7.4,20.6c-0.6,0.8-0.8,1.9-0.3,2.8l2.5,4.4L103.6,75.4z"/>
</svg>
