<?xml version="1.0" encoding="utf-8"?>
<!-- Generator: Adobe Illustrator 23.0.1, SVG Export Plug-In . SVG Version: 6.00 Build 0)  -->
<svg version="1.1" id="icon" xmlns="http://www.w3.org/2000/svg" xmlns:xlink="http://www.w3.org/1999/xlink" x="0px" y="0px"
	 viewBox="0 0 141.73 141.73" style="enable-background:new 0 0 141.73 141.73;" xml:space="preserve">
<style type="text/css">
	.st0{fill:#FFFFFF;}
</style>
<path class="st0" d="M82.18,70.87l48.52-48.52c3.12-3.12,3.12-8.19,0-11.31c-3.13-3.12-8.19-3.12-11.31,0L70.87,59.55L22.34,11.03
	c-3.12-3.12-8.19-3.12-11.31,0c-3.12,3.12-3.12,8.19,0,11.31l48.52,48.52l-48.52,48.52c-3.12,3.13-3.12,8.19,0,11.31
	c1.56,1.56,3.61,2.34,5.66,2.34s4.09-0.78,5.66-2.34l48.52-48.52l48.52,48.52c1.56,1.56,3.61,2.34,5.66,2.34s4.09-0.78,5.66-2.34
	c3.12-3.13,3.12-8.19,0-11.31L82.18,70.87z"/>
</svg>
