<?xml version="1.0" encoding="utf-8"?>
<!-- Generator: Adobe Illustrator 24.0.2, SVG Export Plug-In . SVG Version: 6.00 Build 0)  -->
<svg version="1.1" xmlns="http://www.w3.org/2000/svg" xmlns:xlink="http://www.w3.org/1999/xlink" x="0px" y="0px"
	 viewBox="0 0 150 150" style="enable-background:new 0 0 150 150;" xml:space="preserve">
<style type="text/css">
	.st0{display:none;}
	.st1{display:inline;fill:#509BE6;}
	.st2{fill:#509BE6;}
</style>
<g id="圖層_1" class="st0">
	<path class="st1" d="M0,150V47.6c26.4-34,109.7-47.5,149.1-29.8c-43.2,0-78.2,39.2-78.2,93V150H0z"/>
	<path class="st1" d="M0,150V47.6c26.4-34,109.7-47.5,149.1-29.8c-43.2,0-78.2,39.2-78.2,93V150H0z"/>
	<path class="st1" d="M0,150V47.6c26.4-34,109.7-47.5,149.1-29.8c-43.2,0-78.2,39.2-78.2,93V150H0z"/>
</g>
<g id="圖層_1_拷貝">
	<path class="st2" d="M0,150V47.6c26.4-34,109.7-47.5,149.1-29.8c-43.2,0-78.2,39.2-78.2,93V150H0z"/>
	<path class="st2" d="M0,150V47.6c26.4-34,109.7-47.5,149.1-29.8c-43.2,0-78.2,39.2-78.2,93V150H0z"/>
	<path d="M0,150V47.6c26.4-34,109.7-47.5,149.1-29.8c-43.2,0-78.2,39.2-78.2,93V150H0z"/>
</g>
</svg>
