<svg xmlns="http://www.w3.org/2000/svg" viewBox="0 0 101.22 116.63"><defs><style>.cls-1{fill:#f6a428;}.cls-2{fill:#fff;}.cls-3{fill:#fafbfb;}.cls-4{fill:#000072;}.cls-5{fill:#f9a429;}.cls-6{fill:#f8fafa;}.cls-7{opacity:0.3;}.cls-8{opacity:0.35;}.cls-9{fill:#162872;}.cls-10{opacity:0.5;}.cls-11{fill:#e34989;}.cls-12{fill:#f95a93;}.cls-13{fill:#f9fcfd;}</style></defs><title>step2_a-chi</title><g id="EXPORT"><ellipse class="cls-1" cx="36.53" cy="103.87" rx="10.01" ry="9.49" transform="translate(-64.65 60.43) rotate(-47.39)"/><path class="cls-1" d="M35.81,113.65s-13.34-.42-15.78-4.49-.28-11.73,9.93-8.84S32,105.13,35.81,113.65Z"/><path class="cls-2" d="M46.12,104.21c-.44.3-1-.57-1.49-.3-2.18,1.4-5,.76-7.45.3-3.34-.64-6.14-.87-8.39-3.42A8.4,8.4,0,0,1,28,99.7a.83.83,0,0,0-.09.16c-8.41-1.33-10.12,5.52-7.85,9.3s13.1,4.36,15.37,4.47h.41c.21,0,.43,0,.65,0a10.42,10.42,0,0,0,9.8-10.23C46.26,103.06,46.15,104.55,46.12,104.21Z"/><path class="cls-3" d="M35.61,113.64h0Z"/><path class="cls-4" d="M35.6,113.73h.33l0-.18h-.26Z"/><path class="cls-4" d="M27.59,98.78c-.09.14-.18.29-.26.44a.76.76,0,0,0,.31,1.06.82.82,0,0,0,1.08-.36.41.41,0,0,1,.05-.09A4.73,4.73,0,0,1,27.59,98.78Z"/><path class="cls-4" d="M47,102.37a5,5,0,0,1-1.55,1.26,9.56,9.56,0,0,1-9,9.21.84.84,0,0,0-.79.83.74.74,0,0,0,.78.76,11.24,11.24,0,0,0,10.6-11.05C47.05,103,47,102.7,47,102.37Z"/><path class="cls-4" d="M20.15,110.57c1.51,1.39,4.37,2.45,8.51,3.15a57.71,57.71,0,0,0,7.08.72.84.84,0,0,0,.86-.77.74.74,0,0,0-.72-.82c-3.6-.11-13.34-1.07-15.17-4.13a5.76,5.76,0,0,1,.1-6c1.26-1.82,3.71-2.55,6.9-2a.84.84,0,0,0,.94-.67.75.75,0,0,0-.61-.91c-5.18-.82-7.56,1.38-8.52,2.76a7.39,7.39,0,0,0-.18,7.78A4.22,4.22,0,0,0,20.15,110.57Z"/><path class="cls-4" d="M22.3,105.64a1.67,1.67,0,0,0-.84.32,4,4,0,0,0-.7.61c-.11.11-.2.24-.3.36s-.19.25-.28.38l-.25.4-.23.42A.82.82,0,0,0,20,109.2a.73.73,0,0,0,1-.26.75.75,0,0,0,.09-.3v0l0-.41.06-.42c0-.13.05-.27.08-.4s.07-.27.11-.4a2.83,2.83,0,0,1,.34-.75A1.56,1.56,0,0,1,22.3,105.64Z"/><path class="cls-4" d="M24.8,107.8a4.25,4.25,0,0,0-.71.35,4.33,4.33,0,0,0-.66.49,4.27,4.27,0,0,0-.59.61,4.84,4.84,0,0,0-.49.75v0a.8.8,0,0,0,.29,1.07.72.72,0,0,0,1-.25.83.83,0,0,0,.1-.35,4.14,4.14,0,0,1,.07-.69,3.68,3.68,0,0,1,.2-.7,3.73,3.73,0,0,1,.32-.67A4.53,4.53,0,0,1,24.8,107.8Z"/><path class="cls-5" d="M85.75,78.4S84.69,86.5,74,84.33l-1.56,1.56S83,101.48,95.45,88.06c13-14-5.61-29.91-14.8-23.55-8.92,6.18-.11,15.5,4.09,14.27s3-4.55,3-4.55"/><path class="cls-6" d="M95.45,88.06c13-14-5.61-29.91-14.8-23.55C76,67.76,76.17,71.88,78,74.88c-.88-2.18-.55-4.82,2.56-7,7.12-4.93,21.49,7.42,11.46,18.23-8.38,9-15.68,1.1-17.45-1.14-.37,0-.76-.1-1.16-.18l-1.06,1.07S83,101.48,95.45,88.06Z"/><path class="cls-4" d="M86.47,78.49c0,.12,0,.2,0,.29l-.06.25c0,.17-.09.33-.14.49a9.85,9.85,0,0,1-.37,1,8.57,8.57,0,0,1-1,1.74,8,8,0,0,1-3.24,2.44,10.78,10.78,0,0,1-3.9.76A17.73,17.73,0,0,1,73.8,85l.66-.2L72.91,86.4l.08-.92h0c.25.36.55.74.85,1.09s.62.71.94,1.05a20.52,20.52,0,0,0,2.06,1.9,17.05,17.05,0,0,0,2.3,1.58c.2.11.39.23.6.33l.62.3L81,92l.16.07.16,0,.32.11a10.19,10.19,0,0,0,2.66.52l.34,0h.68a1.83,1.83,0,0,0,.33,0l.68-.07.16,0,.17,0,.33-.07a9.75,9.75,0,0,0,1.31-.36l.16-.05.16-.06.31-.13c.21-.09.43-.17.63-.27a15,15,0,0,0,2.36-1.44c.36-.28.75-.55,1.09-.87l.52-.46.26-.24.25-.25c.33-.33.67-.66,1-1l.47-.52.44-.54a15.35,15.35,0,0,0,2.62-4.83,11.68,11.68,0,0,0,.53-2.68A11.27,11.27,0,0,0,99,76.11a13.32,13.32,0,0,0-1.9-5.1,15.94,15.94,0,0,0-3.68-4.09,14.69,14.69,0,0,0-4.85-2.56,9.57,9.57,0,0,0-5.27-.17,6.32,6.32,0,0,0-1.21.47,6.19,6.19,0,0,0-.57.3c-.18.13-.37.23-.55.38l-.54.41-.5.44c-.17.14-.31.31-.47.47l-.22.24-.2.26a6.12,6.12,0,0,0-1.16,2.25,5.8,5.8,0,0,0-.1,2.49,7.55,7.55,0,0,0,.94,2.4,9.05,9.05,0,0,0,1.66,2,7.78,7.78,0,0,0,2.17,1.43,4,4,0,0,0,1.17.31,2.53,2.53,0,0,0,.55,0l.25,0,.31-.09.31-.1.29-.12.29-.12.27-.15a3.39,3.39,0,0,0,.5-.34c.08-.06.14-.13.22-.2l.11-.1.09-.11a2.84,2.84,0,0,0,.57-1.09,4.21,4.21,0,0,0,.15-1.34v0a.13.13,0,0,1,.13-.14.15.15,0,0,1,.12.07,2.74,2.74,0,0,1,.3.73,3.43,3.43,0,0,1,.11.8,3.23,3.23,0,0,1-.39,1.62l-.1.2-.13.17a2.18,2.18,0,0,1-.26.34,4.22,4.22,0,0,1-.63.57l-.35.25-.36.19a2.53,2.53,0,0,1-.37.18l-.37.15-.38.13-.46.11a4.47,4.47,0,0,1-.89,0A5.39,5.39,0,0,1,82,79.28c-.27-.09-.5-.22-.75-.33l-.35-.19a3.87,3.87,0,0,1-.34-.21,5,5,0,0,1-.65-.45,7.52,7.52,0,0,1-.62-.5,10.4,10.4,0,0,1-2-2.41,9.09,9.09,0,0,1-1.17-3A7.34,7.34,0,0,1,76.18,69a8,8,0,0,1,1.5-2.87l.25-.31.27-.28c.19-.19.36-.39.56-.56l.59-.51L80,64c.2-.16.43-.29.66-.44a6,6,0,0,1,.71-.37,9,9,0,0,1,1.5-.56,10.42,10.42,0,0,1,1.56-.28,10.3,10.3,0,0,1,1.57,0,12.51,12.51,0,0,1,3,.54A15.59,15.59,0,0,1,91.85,64a17.12,17.12,0,0,1,2.54,1.67,17.53,17.53,0,0,1,4,4.51,14.72,14.72,0,0,1,2.11,5.71,13.7,13.7,0,0,1,.1,3.07,13.86,13.86,0,0,1-.61,3,16.74,16.74,0,0,1-2.9,5.31l-.48.59-.49.56c-.34.37-.7.71-1.05,1.07l-.26.26-.29.25-.56.5c-.37.34-.78.63-1.18.94A17.11,17.11,0,0,1,90.21,93c-.23.12-.47.2-.71.3l-.35.15-.18.07-.19.06a10.91,10.91,0,0,1-1.49.4l-.38.08-.19,0-.19,0-.77.08a2.55,2.55,0,0,1-.39,0h-.78l-.38,0a11.4,11.4,0,0,1-3-.6l-.37-.12-.18-.06-.18-.07-.7-.3-.69-.33c-.23-.11-.44-.25-.66-.37a18.6,18.6,0,0,1-2.49-1.71,23.62,23.62,0,0,1-2.2-2c-.34-.36-.67-.73-1-1.12a14.15,14.15,0,0,1-.93-1.2h0a.71.71,0,0,1,.08-.91h0l1.55-1.56a.7.7,0,0,1,.65-.2h0a16.41,16.41,0,0,0,3.54.35A9.37,9.37,0,0,0,81,83.31a6.46,6.46,0,0,0,2.65-2,7,7,0,0,0,.88-1.44c.11-.25.21-.52.3-.79s.08-.26.11-.4a1.46,1.46,0,0,0,0-.2c0-.06,0-.14,0-.17v0a.72.72,0,1,1,1.43.21Z"/><g class="cls-7"><path class="cls-4" d="M87.88,74.87s-7.73,3.89-10.84-4c0,0,2.35,10.15,9.25,7.23A4,4,0,0,0,87.88,74.87Z"/></g><path class="cls-1" d="M28.71,75.9S8.8,58.11,13,51.2,27.35,52,39.36,61.38C39.36,61.38,41.53,81.52,28.71,75.9Z"/><path class="cls-4" d="M32.77,77a10.39,10.39,0,0,1-4.1-1l0,0a106.83,106.83,0,0,1-9.43-9.77c-5.94-7.08-8-12.15-6.29-15.05a5.23,5.23,0,0,1,3.62-2.65c5.18-1,13.29,5.35,22.68,12.66l.23.17v0c0,.11,1.15,11.22-3.49,14.62A5.26,5.26,0,0,1,32.77,77Zm-4-1.16c3,1.3,5.34,1.3,7.09,0,4.42-3.24,3.49-13.69,3.42-14.41l-.16-.13C29.75,54,21.67,47.74,16.57,48.68a5.07,5.07,0,0,0-3.49,2.57C9,58,28.2,75.32,28.76,75.82Z"/><path class="cls-3" d="M16.31,62.41c-3-4.24-4.93-8.49-3.35-11.16s5.24-5.34,14.59,1.3A10.53,10.53,0,0,1,25.28,58,11.9,11.9,0,0,1,16.31,62.41Z"/><path class="cls-4" d="M16.26,62.5l0,0c-3.62-5.11-4.75-8.9-3.35-11.26a5.49,5.49,0,0,1,3.66-2.73c2.77-.59,6.5.76,11.06,4l0,0v.05a10.83,10.83,0,0,1-2.28,5.52,12,12,0,0,1-9,4.42Zm1.61-14a6,6,0,0,0-1.29.13A5.34,5.34,0,0,0,13,51.29c-1.36,2.29-.24,6,3.31,11A11.79,11.79,0,0,0,25.21,58a10.55,10.55,0,0,0,2.24-5.36C23.63,49.89,20.41,48.52,17.87,48.52Z"/><g class="cls-8"><path class="cls-4" d="M17,50.8c-2.73,3.72-1.82,8.52-.36,12.21-3.21-4.41-5.39-8.92-3.71-11.68,2.63-4.33,4.38-4.18,8-2.23C19.66,49.49,18.2,49.12,17,50.8Z"/></g><path class="cls-4" d="M28.71,76.74a.81.81,0,0,1-.56-.22,109.29,109.29,0,0,1-9.51-9.84c-6.16-7.36-8.3-12.71-6.35-15.92a5.89,5.89,0,0,1,4.14-2.93c5.24-.9,13.17,4.51,23.46,12.9A.84.84,0,1,1,38.83,62c-8.6-7-17.23-13.4-22.12-12.56a4.27,4.27,0,0,0-3,2.16c-1.49,2.45.71,7.41,6.2,14a106.59,106.59,0,0,0,9.35,9.69.83.83,0,0,1,.07,1.18A.85.85,0,0,1,28.71,76.74Z"/><path class="cls-9" d="M18.73,51.76a2.88,2.88,0,0,0-1.14-3.42,10.05,10.05,0,0,0-1.13,1A5.17,5.17,0,0,1,18.73,51.76Z"/><path class="cls-4" d="M18.73,52l-.09-.17a5,5,0,0,0-2.22-2.32l-.11,0,.08-.1a9.62,9.62,0,0,1,1.14-1.06l.06,0,.06,0a3,3,0,0,1,1.16,3.53Zm-2.12-2.61a5.36,5.36,0,0,1,2.1,2.17,2.81,2.81,0,0,0-1.12-3.07A10.73,10.73,0,0,0,16.61,49.36Z"/><path class="cls-1" d="M66.83,52.49S82.47,68.57,86,82.46c1,3.76-.36,8.35-1.79,12.21C83,98,82,100.79,79.78,101.82c-13.7,6.56-19.06-.29-29.49.9-10.65,1.22-22.49-3.33-22.49-3.33S24.06,63.45,41.11,54.74,65.8,51.16,66.83,52.49Z"/><path class="cls-5" d="M30.32,78.14S14.61,66.47,13,56.77s4.38-11.37,9.16-5.83,14.21,8.74,14.21,8.74Z"/><path class="cls-3" d="M26.69,55.08c0,5.05-3.82,9.15-8.54,9.15A8.14,8.14,0,0,1,16.23,64c-.25-.36-.48-.73-.71-1.1a19.52,19.52,0,0,1-2.17-4.57A12.88,12.88,0,0,1,13,56.77V56.7c-.1-.62-.17-1.22-.22-1.77-.6-8.06,4.93-9.16,9.39-4a23.17,23.17,0,0,0,4.54,3.91C26.68,54.93,26.69,55,26.69,55.08Z"/><path class="cls-4" d="M28.57,77.61a.8.8,0,0,1-.52-.19C23.71,73.9,13.49,64.86,12.16,56.91c-.82-4.88.16-8.36,2.7-9.56,2.32-1.09,5.35.08,7.91,3,4.56,5.3,13.76,8.47,13.85,8.5a.83.83,0,1,1-.54,1.58c-.39-.14-9.71-3.34-14.57-9-2-2.33-4.35-3.36-5.94-2.62-1.78.84-2.44,3.75-1.77,7.77C15,64,24.91,72.72,29.1,76.12a.84.84,0,0,1,.12,1.18A.83.83,0,0,1,28.57,77.61Z"/><path class="cls-4" d="M41.49,55.48c8.85-4.52,14.9-5.11,18.42-4.8,3.9.34,5.87,1.82,6.26,2.32l.09.1c.18.16,16.22,15,18.73,29.08A9.59,9.59,0,0,1,85.24,84c-.1,5.3-2.78,15.43-7.54,19a2,2,0,0,1,1.49,1.19c4.46-4.47,7.74-14.6,7.66-20.84a23.23,23.23,0,0,0-.44-2.65c-1.21-5.39-4.29-11.37-9.2-17.86a92.44,92.44,0,0,0-9.77-10.94c-.73-.88-3.13-2.54-7.39-2.9-5.43-.47-11.93,1.2-19.32,5a.84.84,0,0,0-.36,1.13A.83.83,0,0,0,41.49,55.48Z"/><path class="cls-4" d="M28.84,100c-.26-3.64-2-13.39.63-23.88a.85.85,0,0,0-.44-1,.83.83,0,0,0-1.16.55A57,57,0,0,0,27,99.48a.84.84,0,0,0,.78.74C27.83,99.49,28.42,100.64,28.84,100Z"/><ellipse class="cls-3" cx="47.25" cy="77.87" rx="15.32" ry="22.47"/><g class="cls-7"><path class="cls-4" d="M36.35,59.68a3.75,3.75,0,0,0-.26.49c-3.89-1.15-10.24-3.75-13.26-9,0,0-1.83,8.67,13.08,12.54.71,2,3,4.25,9.13,5.81,12.32,3.16,21.53-8.72,21.53-8.72C47.09,65.12,36.35,59.68,36.35,59.68Z"/></g><path class="cls-5" d="M79.93,26s4.89-17.32,0-21-15,6-15,6A26.74,26.74,0,0,0,52.55,8.08,26.69,26.69,0,0,0,40.2,11s-10.13-9.65-15-6,0,21,0,21h0a55.15,55.15,0,0,0-4.69,12.14,14.91,14.91,0,0,0,1.66,11.61c3.66,6,12.09,12.8,30.4,12.73S79.29,55.72,83,49.72a14.91,14.91,0,0,0,1.66-11.61A55.15,55.15,0,0,0,79.93,26"/><path class="cls-3" d="M83,49.72a14.9,14.9,0,0,0,2-9.79c-6.42-2.07-14.81,2-18.12,3.9s-5.37-2.57-10.09-5.31a19.71,19.71,0,0,0-19.32,0c-4.72,2.74-6.75,7.28-10.09,5.31-1.92-1.13-4.32-2.95-7.24-3.89a14.92,14.92,0,0,0,2,9.78c3.66,6,12.09,12.8,30.4,12.73S79.29,55.72,83,49.72Z"/><g class="cls-10"><path class="cls-2" d="M77.83,4.17C73.73,2.72,64.91,11,64.91,11,34.52-.89,22.29,32.48,22.29,32.48,32.49,15.24,47.13,5.41,64.41,12.84a1.12,1.12,0,0,0,1.37-.18C67.44,11,72.15,6.48,76.52,5.81c5.42-.83,5.39,3.75,5.39,3.75A5.92,5.92,0,0,0,77.83,4.17Z"/></g><g class="cls-10"><path class="cls-2" d="M25.54,5.52a3.35,3.35,0,0,0-.77.82c4.52-3,13.51,5.57,13.51,5.57l.95-.95S30,2.17,25.54,5.52Z"/></g><path class="cls-11" d="M36.31,13.21s-5.48-5.11-8-3.25.07,10.91.07,10.91A33.25,33.25,0,0,1,36.31,13.21Z"/><path class="cls-11" d="M68.8,13.21s5.48-5.11,8-3.25-.06,10.91-.06,10.91A33.43,33.43,0,0,0,68.8,13.21Z"/><path class="cls-4" d="M52.83,63.28h-.56c-8.28,0-15.28-1.4-20.79-4.17a24.27,24.27,0,0,1-10-9,15.87,15.87,0,0,1-1.76-12.27,57.26,57.26,0,0,1,4.6-12A73.53,73.53,0,0,1,22.52,17C21.66,10.28,22.39,6,24.68,4.31,29.52.67,38.29,8.1,40.35,10a27.45,27.45,0,0,1,12.2-2.72A27.48,27.48,0,0,1,64.76,10c2-1.86,10.83-9.29,15.67-5.65,2.29,1.72,3,6,2.16,12.65a71,71,0,0,1-1.77,8.91,56.73,56.73,0,0,1,4.61,12,15.87,15.87,0,0,1-1.76,12.27,24.24,24.24,0,0,1-10,9C68.11,61.88,61.12,63.28,52.83,63.28Zm-.28-1.67h.28c18.08,0,26-6.69,29.41-12.32a14.14,14.14,0,0,0,1.57-11,54.77,54.77,0,0,0-4.6-11.93.81.81,0,0,1-.08-.65c1.31-4.66,3.93-17.36.3-20.1S68.16,9,65.49,11.56a.84.84,0,0,1-.94.14A26.23,26.23,0,0,0,52.61,8.91h-.12A26.32,26.32,0,0,0,40.56,11.7a.84.84,0,0,1-.94-.14C36.94,9,29.22,3,25.68,5.64s-1,15.44.3,20.1a.86.86,0,0,1-.08.65,55.29,55.29,0,0,0-4.61,11.93,14.18,14.18,0,0,0,1.57,11c3.44,5.63,11.33,12.32,29.41,12.32Z"/><path class="cls-4" d="M25.18,26.8a.8.8,0,0,1-.42-.11.84.84,0,0,1-.31-1.14c6.43-11.28,15-15.2,15.41-15.36a.83.83,0,1,1,.68,1.52h0c-.09,0-8.5,3.89-14.64,14.67A.82.82,0,0,1,25.18,26.8Z"/><path class="cls-4" d="M15.64,53.62a2.25,2.25,0,0,1-.91-.49,4.5,4.5,0,0,1-.73-.78,5.15,5.15,0,0,1-.32-.45l-.27-.46L13.16,51l-.22-.49a.85.85,0,1,1,1.63-.37v.49l0,.47c0,.15,0,.31.05.46s0,.31.09.46a4.09,4.09,0,0,0,.31.89A2.05,2.05,0,0,0,15.64,53.62Z"/><path class="cls-4" d="M18.62,51.62a4.83,4.83,0,0,1-.77-.5,5.26,5.26,0,0,1-.7-.64,5.17,5.17,0,0,1-.61-.77,7,7,0,0,1-.49-.89v0a.86.86,0,1,1,1.64-.33,4.11,4.11,0,0,0,0,.78,3.87,3.87,0,0,0,.16.81,4.74,4.74,0,0,0,.3.79A5,5,0,0,0,18.62,51.62Z"/><path class="cls-4" d="M70.52,108.86a12.16,12.16,0,0,1-1.81,0,11.3,11.3,0,0,1-5.14-1.61,11.56,11.56,0,0,1-4.7-5.36,13.29,13.29,0,0,1-.59-1.71A12,12,0,0,1,58,98.4a11,11,0,0,1,.19-3.61,10.2,10.2,0,0,1,.57-1.72,9.37,9.37,0,0,1,.86-1.59A8.7,8.7,0,0,1,62.1,89a.24.24,0,0,1,.31.07.23.23,0,0,1,0,.26h0a16.52,16.52,0,0,0-1.8,2.76,13.31,13.31,0,0,0-1.06,3,10.94,10.94,0,0,0-.22,3.18,9.76,9.76,0,0,0,.78,3.09,10.25,10.25,0,0,0,10.31,6.16.67.67,0,0,1,.12,1.33Z"/><ellipse class="cls-1" cx="69.24" cy="104.97" rx="10.01" ry="9.49" transform="matrix(0.53, -0.85, 0.85, 0.53, -56.47, 108.35)"/><path class="cls-1" d="M70.36,114.71S57.17,116.79,54,113.24s-2.45-11.47,8.12-10.54S65.07,107,70.36,114.71Z"/><path class="cls-2" d="M71.77,106.34a19.39,19.39,0,0,1-2.58-.17,13.24,13.24,0,0,1-8.13-2.78,9.85,9.85,0,0,1-1-.92l-.06.17c-8.51.26-8.91,7.31-6,10.6S67.7,115.08,70,114.77l.21,0,.2,0h0l.63-.13a10.42,10.42,0,0,0,7.8-11.4C76.9,104.87,74.14,106.34,71.77,106.34Z"/><path class="cls-3" d="M70.16,114.74l.2,0h0Z"/><path class="cls-4" d="M70.17,114.83h0l.2,0,.12,0-.08-.16h-.06l-.2,0h0Z"/><path class="cls-4" d="M59.51,101.64c-.06.16-.12.31-.17.47a.76.76,0,0,0,.5,1,.82.82,0,0,0,1-.55.3.3,0,0,1,0-.1A4.67,4.67,0,0,1,59.51,101.64Z"/><path class="cls-4" d="M79.26,101.54A5,5,0,0,1,78,103.07a9.57,9.57,0,0,1-7.12,10.73.84.84,0,0,0-.63,1,.75.75,0,0,0,.92.59,11.25,11.25,0,0,0,8.35-12.84C79.43,102.19,79.35,101.86,79.26,101.54Z"/><path class="cls-4" d="M54.4,114.61c1.75,1.08,4.75,1.59,9,1.5a58,58,0,0,0,7.09-.6.86.86,0,0,0,.7-.92.76.76,0,0,0-.87-.68c-3.55.57-13.3,1.44-15.66-1.22a5.73,5.73,0,0,1-1-6c.9-2,3.17-3.19,6.4-3.29a.84.84,0,0,0,.8-.83.75.75,0,0,0-.77-.78c-5.25.16-7.18,2.76-7.86,4.29a7.39,7.39,0,0,0,1.27,7.68A4.19,4.19,0,0,0,54.4,114.61Z"/><path class="cls-4" d="M59.83,111.35a1.85,1.85,0,0,0-.82.45,3.78,3.78,0,0,0-.65.73c-.1.13-.17.27-.26.41l-.24.44-.2.45-.18.46a.85.85,0,0,0,.45,1.07.75.75,0,0,0,1-.41.7.7,0,0,0,.06-.32v0l0-.44c0-.14,0-.29,0-.43s0-.29,0-.44,0-.29.06-.42a3.32,3.32,0,0,1,.25-.83A1.76,1.76,0,0,1,59.83,111.35Z"/><path class="cls-4" d="M56.17,109.68a3.56,3.56,0,0,0-.69.45,5,5,0,0,0-.62.6,5.57,5.57,0,0,0-.53.72,5.45,5.45,0,0,0-.41.84v0a.85.85,0,0,0,.44,1.08.77.77,0,0,0,1-.41.68.68,0,0,0,.05-.37,4.42,4.42,0,0,1,0-.73,3.88,3.88,0,0,1,.11-.75,4,4,0,0,1,.25-.74A3.24,3.24,0,0,1,56.17,109.68Z"/><path class="cls-4" d="M58.41,100.73l-.51.27a14.48,14.48,0,0,1-8.14,1.38l-.32,0a13.58,13.58,0,0,1-8.91-2.81,9.54,9.54,0,0,1-1.87-1.94L38,97.22l.22.35a14.63,14.63,0,0,0,5.73,5,15.55,15.55,0,0,0,2.35,1,16.25,16.25,0,0,0,12.39-.84l.36-.19A13.77,13.77,0,0,1,58.41,100.73Z"/><path class="cls-4" d="M47.48,42.67l.05.18a1.72,1.72,0,0,0,.07.21c0,.14.11.29.17.43a7.68,7.68,0,0,0,.41.81,5.66,5.66,0,0,0,1.14,1.37,4.27,4.27,0,0,0,.71.49,4.44,4.44,0,0,0,.8.36,5.9,5.9,0,0,0,1.8.28,4,4,0,0,0,3.21-1.24A8.68,8.68,0,0,0,57.42,42h0a.19.19,0,0,1,.24-.15.22.22,0,0,1,.15.13A4.55,4.55,0,0,1,58,43.1a5.73,5.73,0,0,1,0,1.17,5.06,5.06,0,0,1-2.87,3.88,6.56,6.56,0,0,1-2.42.59,8.29,8.29,0,0,1-1.22,0,7.72,7.72,0,0,1-1.24-.23A6.2,6.2,0,0,1,48,47.34a7.15,7.15,0,0,1-1.67-1.89,8.74,8.74,0,0,1-.56-1.1c-.08-.19-.15-.39-.21-.58l-.09-.31c0-.11-.06-.19-.09-.34a1.09,1.09,0,0,1,2.11-.54Z"/><path class="cls-4" d="M47.58,43.13c0,.15,0,.23-.08.34a2.81,2.81,0,0,1-.1.31c-.06.19-.14.39-.22.58a7.14,7.14,0,0,1-.59,1.09,6.33,6.33,0,0,1-1.79,1.82,5.72,5.72,0,0,1-1.15.6,6.89,6.89,0,0,1-1.24.33,7.73,7.73,0,0,1-2.45,0,6,6,0,0,1-2.35-.89,4.32,4.32,0,0,1-1.61-2,4.78,4.78,0,0,1-.28-2.4,5.3,5.3,0,0,1,.71-2.17.2.2,0,0,1,.28-.07.21.21,0,0,1,.1.17v0a9,9,0,0,0,.62,3.83,2.62,2.62,0,0,0,1.12,1.16,4.11,4.11,0,0,0,1.67.47A6.11,6.11,0,0,0,42,46.17a4.5,4.5,0,0,0,.81-.26,4.67,4.67,0,0,0,.72-.42,4.3,4.3,0,0,0,1.16-1.24,5.93,5.93,0,0,0,.43-.78c.06-.14.12-.28.17-.42s.05-.14.07-.2l.05-.17,0-.1a1.09,1.09,0,0,1,2.1.55Z"/><path class="cls-4" d="M39.1,47s.47,8.54,7.81,9,7.63-8.56,7.63-8.56-7.25,1.68-8-5.46C46.58,42,45.83,48.84,39.1,47Z"/><path class="cls-12" d="M41.54,53.33s3.57-8,12.36-2.52C53.9,50.81,50,60.39,41.54,53.33Z"/><path class="cls-4" d="M47.49,56.87l-.64,0c-6.4-.44-8.43-6.64-8.61-9.85a.83.83,0,0,1,.32-.72.86.86,0,0,1,.77-.16,5,5,0,0,0,4.24-.35,6.1,6.1,0,0,0,2.16-3.89.86.86,0,0,1,.85-.77h0a.87.87,0,0,1,.85.78,5.13,5.13,0,0,0,1.93,3.9c2,1.45,5,.81,5,.8a.86.86,0,0,1,1,.87c0,.2-.19,5-3.16,7.66A6.87,6.87,0,0,1,47.49,56.87Zm-7.38-8.82c.4,2.19,1.84,6.74,6.86,7.08a5.34,5.34,0,0,0,4.11-1.28,9.39,9.39,0,0,0,2.49-5.42,8,8,0,0,1-5.2-1.23A5.85,5.85,0,0,1,46.5,45a6.17,6.17,0,0,1-2,2.24A6.08,6.08,0,0,1,40.11,48.05Z"/><ellipse class="cls-2" cx="45.84" cy="40.15" rx="0.54" ry="1.62" transform="translate(3.68 84.15) rotate(-87.43)"/><path class="cls-4" d="M52,39.47c-.52-2.08-4.94-2.53-4.94-2.53s-4.41-.45-5.35,1.48,2.17,4.81,4.69,5.06S52.57,41.56,52,39.47Z"/><ellipse class="cls-2" cx="45.65" cy="38.66" rx="0.66" ry="1.98" transform="matrix(0.04, -1, 1, 0.04, 5.04, 82.58)"/><ellipse class="cls-4" cx="34.27" cy="33.66" rx="4.45" ry="4.41"/><ellipse class="cls-2" cx="33.19" cy="33.52" rx="1.72" ry="1.7"/><ellipse class="cls-4" cx="60.18" cy="33.66" rx="4.45" ry="4.41"/><ellipse class="cls-2" cx="58.37" cy="33.28" rx="1.72" ry="1.7"/><ellipse class="cls-3" cx="59.08" cy="25.9" rx="3.67" ry="2.04" transform="translate(-3.85 11.71) rotate(-10.96)"/><ellipse class="cls-3" cx="36.35" cy="24.45" rx="2.04" ry="3.67" transform="translate(5.38 55.44) rotate(-78.95)"/><path class="cls-5" d="M70.25,73.19s10.8-3,13.53-14.31S77,44.43,74.51,51.1s-9.36,11.43-9.36,11.43S63.33,73.92,70.25,73.19Z"/><path class="cls-13" d="M78.58,68.1a19.06,19.06,0,0,0,5.2-9.22C86.51,47.6,77,44.43,74.51,51.1a22.12,22.12,0,0,1-4.25,6.79C70.48,61,71.84,66.69,78.58,68.1Z"/><path class="cls-4" d="M70.35,74.07a.88.88,0,0,1-.24-1.73c.1,0,10.25-3,12.82-13.66,1.4-5.81-.62-9.26-3.09-10-1.56-.48-3.57.18-4.5,2.74-2.53,6.85-9.4,11.65-9.69,11.85A.88.88,0,0,1,64.43,63a.87.87,0,0,1,.22-1.22h0c.07-.05,6.71-4.69,9-11,1.13-3.09,3.88-4.66,6.67-3.82,3.23,1,6,5.19,4.28,12.11A20.48,20.48,0,0,1,76.56,71a21,21,0,0,1-6,3A.67.67,0,0,1,70.35,74.07Z"/><path class="cls-4" d="M78,51.25a2,2,0,0,1-.14-.92,4.39,4.39,0,0,1,.17-1,6.31,6.31,0,0,1,.35-.91l.21-.44.24-.43a.77.77,0,0,1,1.35.75.79.79,0,0,1-.21.24h0l-.34.25-.32.27a5.76,5.76,0,0,0-.6.61,3.43,3.43,0,0,0-.47.7A1.7,1.7,0,0,0,78,51.25Z"/><path class="cls-4" d="M81,52.33a4.4,4.4,0,0,1-.06-.82,4.91,4.91,0,0,1,.09-.85,4.37,4.37,0,0,1,.23-.86,5.71,5.71,0,0,1,.38-.84v0a.78.78,0,0,1,1.06-.3.76.76,0,0,1,.31,1,.81.81,0,0,1-.25.27,4.58,4.58,0,0,0-1.05,1,4.77,4.77,0,0,0-.41.65A3.34,3.34,0,0,0,81,52.33Z"/><path class="cls-4" d="M14.58,52.18a1.54,1.54,0,0,1-1.33-.77L.2,28.33a1.52,1.52,0,1,1,2.64-1.49L15.9,49.91a1.53,1.53,0,0,1-1.32,2.27Z"/></g></svg>