<svg xmlns="http://www.w3.org/2000/svg" viewBox="0 0 125.06 145.72"><defs><style>.cls-1{fill:#f9a429;}.cls-2{fill:#fafbfb;}.cls-3{opacity:0.3;}.cls-4{fill:#000072;}.cls-5{fill:#f6a428;}.cls-6{fill:#fff;}.cls-7{fill:#f8fafa;}.cls-8{opacity:0.5;}.cls-9{fill:#e34989;}.cls-10{fill:#f95a93;}.cls-11,.cls-13{fill:none;}.cls-12,.cls-14{fill:#f06;}.cls-13,.cls-14{stroke:#000072;stroke-miterlimit:10;}.cls-15{fill:#f9fcfd;}</style></defs><title>a-chi-key</title><g id="EXPORT"><path class="cls-1" d="M89,91.79s28.39,3.82,31.63-4.54c3.3-8.53,1.11-8.68-14.81-12C105.85,75.27,86.38,79.7,89,91.79Z"/><path class="cls-2" d="M108.8,92.47c5.63-.53,10.59-1.94,11.84-5.16,3-7.72,1.48-8.57-10.65-11.11a12.54,12.54,0,0,0-1.19,16.27Z"/><g class="cls-3"><path class="cls-4" d="M118.41,83.69c-1.44,4.89-6.18,7.54-10.33,9,5.92-.48,11.24-1.87,12.53-5.22,2-5.24,2-7.32-2-8.91A8.39,8.39,0,0,1,118.41,83.69Z"/></g><path class="cls-4" d="M89.87,91.69c.58.17,1.16.32,1.74.46l.88.19.88.17c1.17.23,2.35.41,3.54.56s2.37.26,3.56.34q.9.06,1.8.09c.6,0,1.2,0,1.8,0a48.53,48.53,0,0,0,7.21-.49,30.21,30.21,0,0,0,3.6-.73,16.58,16.58,0,0,0,3.52-1.38A8.53,8.53,0,0,0,120,89.79a6,6,0,0,0,1.29-1.66,4.37,4.37,0,0,0,.23-.49l.17-.42.33-.85c.21-.57.41-1.15.58-1.76a9.81,9.81,0,0,0,.37-1.94,4.88,4.88,0,0,0-.31-2.2,4.39,4.39,0,0,0-1.38-1.8,7.8,7.8,0,0,0-1.73-1,20.23,20.23,0,0,0-3.52-1.18c-1.18-.3-2.35-.54-3.53-.74s-2.36-.36-3.55-.47-2.38-.2-3.58-.21a.16.16,0,0,0-.16.15.19.19,0,0,0,.11.16c2.26.81,4.55,1.42,6.82,2,1.13.3,2.27.59,3.37.92.56.17,1.11.35,1.64.54s1,.4,1.54.63a7.73,7.73,0,0,1,1.3.79,2.52,2.52,0,0,1,.77,1,4.62,4.62,0,0,1-.1,2.83c-.14.54-.31,1.08-.5,1.62l-.29.82-.15.4a3.09,3.09,0,0,1-.14.32,5.21,5.21,0,0,1-2.13,2.05,13,13,0,0,1-3.08,1.21,27.05,27.05,0,0,1-3.37.63,64.36,64.36,0,0,1-7,.39c-4.68.06-9.38-.14-14.14-.14a.16.16,0,0,0-.16.16A.16.16,0,0,0,89.87,91.69Z"/><path class="cls-4" d="M116.37,85.83a2.47,2.47,0,0,0,.8.84,4.6,4.6,0,0,0,1,.56c.19.09.38.14.57.21l.58.16.59.13.6.1a1,1,0,0,0,1.09-.79.94.94,0,0,0-.78-1.09.85.85,0,0,0-.39,0h0l-.5.13-.51.11-.52.07a4.55,4.55,0,0,1-.52,0,5.15,5.15,0,0,1-1-.07A2.29,2.29,0,0,1,116.37,85.83Z"/><path class="cls-4" d="M117.66,82a6.15,6.15,0,0,0,.76.68,7.48,7.48,0,0,0,.89.57,6,6,0,0,0,1,.43,6.66,6.66,0,0,0,1.11.27h0a1,1,0,1,0,.32-1.89.92.92,0,0,0-.44,0,5.85,5.85,0,0,1-.85.2,4.64,4.64,0,0,1-.92.06,5.17,5.17,0,0,1-1-.09A5.36,5.36,0,0,1,117.66,82Z"/><ellipse class="cls-5" cx="102.01" cy="129.9" rx="12.26" ry="12.94" transform="translate(-61.01 103.37) rotate(-42.61)"/><path class="cls-5" d="M102.94,142.52s17.23-.53,20.39-5.79.35-15.15-12.84-11.43S107.8,131.52,102.94,142.52Z"/><path class="cls-6" d="M89.62,130.33c.56.4,1.26-.73,1.92-.38,2.82,1.81,6.48,1,9.62.38,4.31-.82,7.94-1.12,10.85-4.42a12,12,0,0,0,1.06-1.4,1.28,1.28,0,0,1,.11.2c10.87-1.72,13.07,7.14,10.15,12-2.83,4.71-16.94,5.63-19.86,5.77h-.53a7.85,7.85,0,0,1-.84,0,13.43,13.43,0,0,1-12.66-13.2C89.43,128.85,89.57,130.77,89.62,130.33Z"/><path class="cls-2" d="M103.2,142.51h0Z"/><path class="cls-4" d="M103.21,142.63h-.43l.07-.22h.33Z"/><path class="cls-4" d="M113.56,123.32l.33.56a1,1,0,0,1-.4,1.38,1.06,1.06,0,0,1-1.39-.47l-.07-.11A6,6,0,0,0,113.56,123.32Z"/><path class="cls-4" d="M88.47,128a6.22,6.22,0,0,0,2,1.63,12.33,12.33,0,0,0,11.62,11.9,1.09,1.09,0,0,1,1,1.08,1,1,0,0,1-1,1,14.55,14.55,0,0,1-13.69-14.28C88.41,128.82,88.43,128.38,88.47,128Z"/><path class="cls-4" d="M123.17,138.55c-2,1.8-5.65,3.17-11,4.07a74.22,74.22,0,0,1-9.15.93,1.09,1.09,0,0,1-1.11-1,1,1,0,0,1,.94-1.07c4.65-.14,17.22-1.38,19.59-5.33a7.4,7.4,0,0,0-.13-7.8c-1.63-2.35-4.8-3.29-8.91-2.64a1.09,1.09,0,0,1-1.22-.86,1,1,0,0,1,.79-1.17c6.69-1.06,9.77,1.77,11,3.55a9.56,9.56,0,0,1,.23,10.06A5.9,5.9,0,0,1,123.17,138.55Z"/><path class="cls-4" d="M120.39,132.18a2.31,2.31,0,0,1,1.08.41,4.87,4.87,0,0,1,.91.79c.14.15.26.31.39.47l.36.49c.1.17.22.34.32.52l.3.54a1,1,0,0,1-.38,1.38.93.93,0,0,1-1.32-.33.89.89,0,0,1-.12-.39v0l-.05-.54c0-.18,0-.35-.07-.53s-.07-.36-.1-.53-.09-.35-.15-.51a3.89,3.89,0,0,0-.43-1A2.1,2.1,0,0,0,120.39,132.18Z"/><path class="cls-4" d="M117.16,135a4.89,4.89,0,0,1,.92.45,6.13,6.13,0,0,1,.85.62,5.78,5.78,0,0,1,.76.8,7.28,7.28,0,0,1,.64,1v0a1.05,1.05,0,0,1-.37,1.39.94.94,0,0,1-1.46-.78,4.58,4.58,0,0,0-.1-.89,5,5,0,0,0-.25-.9,6.42,6.42,0,0,0-.42-.88A5.61,5.61,0,0,0,117.16,135Z"/><path class="cls-1" d="M38.42,97s1.37,10.46,15.25,7.66l2,2S42,126.8,25.89,109.48C9.15,91.44,33.13,70.83,45,79.06c11.53,8,.14,20-5.28,18.43s-3.88-5.88-3.88-5.88"/><path class="cls-7" d="M25.89,109.48C9.15,91.44,33.13,70.83,45,79.06c6.07,4.19,5.79,9.51,3.37,13.38,1.13-2.8.72-6.22-3.3-9C35.88,77.07,17.31,93,30.27,107c10.82,11.67,20.25,1.42,22.54-1.47.48-.06,1-.13,1.5-.23l1.37,1.38S42,126.8,25.89,109.48Z"/><path class="cls-4" d="M37.49,97.11c0,.16,0,.25.07.37s0,.22.08.33.11.43.18.64a11.35,11.35,0,0,0,.47,1.22,10.89,10.89,0,0,0,1.36,2.24,10.36,10.36,0,0,0,4.18,3.15,13.83,13.83,0,0,0,5,1,22.32,22.32,0,0,0,5-.48l-.84-.26,2,2-.11-1.19h0c-.32.46-.71,1-1.09,1.41s-.8.91-1.21,1.35a26.92,26.92,0,0,1-2.67,2.46,23.6,23.6,0,0,1-3,2c-.27.14-.52.3-.79.42l-.8.39-.82.34-.21.09-.21.07-.41.13a13.18,13.18,0,0,1-3.44.67c-.15,0-.29,0-.44,0H39a3.1,3.1,0,0,1-.43,0l-.87-.09-.22,0-.21,0-.43-.09a12.42,12.42,0,0,1-1.69-.46l-.21-.07-.21-.08-.4-.17c-.27-.12-.55-.21-.81-.35a19.83,19.83,0,0,1-3.05-1.85c-.47-.37-1-.71-1.4-1.13l-.68-.6c-.11-.1-.23-.19-.34-.3l-.32-.32c-.42-.44-.86-.86-1.27-1.3l-.6-.68-.57-.7A20,20,0,0,1,21.88,101a16.43,16.43,0,0,1-.68-3.46A15.27,15.27,0,0,1,21.31,94a17.39,17.39,0,0,1,2.46-6.6,20.65,20.65,0,0,1,4.76-5.28,18.75,18.75,0,0,1,6.26-3.3,12.26,12.26,0,0,1,6.81-.22,8.76,8.76,0,0,1,1.57.6,7.43,7.43,0,0,1,.73.4,6.22,6.22,0,0,1,.7.48l.7.53.65.57a5.76,5.76,0,0,1,.6.61l.3.31.26.33a8,8,0,0,1,1.49,2.9,7.6,7.6,0,0,1,.13,3.22,9.67,9.67,0,0,1-1.21,3.1,11.21,11.21,0,0,1-2.15,2.65,9.94,9.94,0,0,1-2.8,1.85,5.05,5.05,0,0,1-1.51.4,2.81,2.81,0,0,1-.71,0L40,96.53l-.4-.12-.4-.13a2.43,2.43,0,0,1-.37-.16L38.47,96l-.34-.2a4.07,4.07,0,0,1-.65-.43,2.33,2.33,0,0,1-.28-.26L37.06,95l-.12-.15a3.57,3.57,0,0,1-.74-1.39A5.54,5.54,0,0,1,36,91.67v0a.18.18,0,0,0-.33-.1,3.56,3.56,0,0,0-.38,1,4.33,4.33,0,0,0-.15,1,4.19,4.19,0,0,0,.51,2.11l.13.25.16.22a5.12,5.12,0,0,0,.34.44,5.71,5.71,0,0,0,.82.74l.44.32.47.25c.16.07.31.17.47.23l.49.19.49.18.59.13a6.46,6.46,0,0,0,1.16,0,7.37,7.37,0,0,0,2.12-.49c.33-.12.64-.28,1-.42l.45-.25c.15-.09.3-.17.44-.27a9.8,9.8,0,0,0,.85-.58c.27-.2.53-.43.79-.65a13.92,13.92,0,0,0,2.61-3.11A11.81,11.81,0,0,0,51,89a9.37,9.37,0,0,0-.17-4.21,10,10,0,0,0-1.93-3.71l-.32-.4-.36-.37a9.63,9.63,0,0,0-.72-.71c-.26-.22-.51-.45-.77-.66l-.8-.6c-.26-.2-.57-.38-.85-.57s-.6-.34-.92-.48a11.31,11.31,0,0,0-1.94-.72,13.81,13.81,0,0,0-2-.37,15.29,15.29,0,0,0-2,0,16.38,16.38,0,0,0-3.94.71,20,20,0,0,0-3.64,1.53,21.6,21.6,0,0,0-3.28,2.16,22.5,22.5,0,0,0-5.21,5.83,19.33,19.33,0,0,0-2.73,7.37,18.18,18.18,0,0,0-.12,4,18.4,18.4,0,0,0,.79,3.89,21.8,21.8,0,0,0,3.74,6.86l.62.75L25,110c.44.48.9.92,1.35,1.38l.34.34.37.33.73.64c.47.44,1,.81,1.52,1.21a21.13,21.13,0,0,0,3.36,2c.29.15.61.26.91.39l.46.19.23.09.24.08a16.17,16.17,0,0,0,1.93.52l.49.1.24,0,.25,0,1,.1a4.18,4.18,0,0,0,.5,0h1c.17,0,.34,0,.5,0a15.67,15.67,0,0,0,3.91-.77l.47-.16.23-.08.23-.09.91-.38.89-.44c.3-.13.57-.31.86-.47a24.37,24.37,0,0,0,3.21-2.21A29.48,29.48,0,0,0,54,110.2c.44-.47.87-1,1.28-1.45s.81-1,1.21-1.55h0a.92.92,0,0,0-.11-1.18h0l-2-2a.94.94,0,0,0-.84-.26h0a21.54,21.54,0,0,1-4.57.46,12.26,12.26,0,0,1-4.36-.85,8.44,8.44,0,0,1-3.43-2.58A9.06,9.06,0,0,1,40,98.9a10.65,10.65,0,0,1-.39-1c-.06-.18-.11-.35-.15-.52l-.06-.26a1.24,1.24,0,0,1,0-.23v0a.93.93,0,0,0-1.85.27Z"/><g class="cls-3"><path class="cls-4" d="M35.67,92.44s10,5,14-5.18c0,0-3,13.11-12,9.35A5.24,5.24,0,0,1,35.67,92.44Z"/></g><path class="cls-5" d="M62.87,63.52S42.65,84.3,38.05,102.24C36.8,107.1,38.51,113,40.36,118c1.58,4.27,3,7.89,5.77,9.23,17.7,8.47,24.63-.38,38.1,1.16,13.76,1.57,29.05-4.3,29.05-4.3s4.84-46.43-17.2-57.69S64.2,61.8,62.87,63.52Z"/><path class="cls-4" d="M95.59,67.38c-11.43-5.83-19.24-6.59-23.79-6.2-5,.44-7.59,2.36-8.08,3l-.12.13c-.23.21-21,19.41-24.2,37.56a12.05,12.05,0,0,0-.32,2.37c.12,6.85,3.59,19.93,9.75,24.55a2.57,2.57,0,0,0-1.93,1.54c-5.77-5.77-10-18.85-9.9-26.92a30.49,30.49,0,0,1,.57-3.42c1.56-7,5.54-14.69,11.88-23.08A119.9,119.9,0,0,1,62.08,62.78c.94-1.13,4-3.27,9.54-3.75,7-.6,15.41,1.56,25,6.43A1.07,1.07,0,0,1,97,66.91,1.08,1.08,0,0,1,95.59,67.38Z"/><path class="cls-4" d="M111.94,124.94c.34-4.7,2.63-17.29-.82-30.85a1.12,1.12,0,0,1,.58-1.3,1.07,1.07,0,0,1,1.49.71,73.45,73.45,0,0,1,1.16,30.72,1.06,1.06,0,0,1-1,1C113.25,124.24,112.49,125.73,111.94,124.94Z"/><ellipse class="cls-2" cx="88.16" cy="96.3" rx="19.8" ry="29.03"/><path class="cls-4" d="M58.1,136.34a16.62,16.62,0,0,0,2.34,0,16.28,16.28,0,0,0,2.31-.34,15.26,15.26,0,0,0,4.33-1.75,15,15,0,0,0,6.07-6.92,14.75,14.75,0,0,0,.75-2.21,15.13,15.13,0,0,0,.42-2.31,14,14,0,0,0-.25-4.66,13.22,13.22,0,0,0-.73-2.23,13.53,13.53,0,0,0-1.11-2A11.4,11.4,0,0,0,69,110.66a.3.3,0,0,0-.4.09.32.32,0,0,0,0,.34h0a19.51,19.51,0,0,1,2.33,3.57,16.76,16.76,0,0,1,1.37,3.9,13.84,13.84,0,0,1,.29,4.11,12.59,12.59,0,0,1-1,4,13.26,13.26,0,0,1-13.32,8,.86.86,0,1,0-.15,1.71Z"/><ellipse class="cls-5" cx="59.75" cy="131.32" rx="12.26" ry="12.94" transform="translate(-60.33 51.35) rotate(-31.87)"/><path class="cls-5" d="M58.31,143.9s17,2.69,21.11-1.89,3.17-14.82-10.48-13.62S65.14,134,58.31,143.9Z"/><path class="cls-6" d="M56.49,133.08a25.66,25.66,0,0,0,3.33-.21,17.14,17.14,0,0,0,10.5-3.6,11.25,11.25,0,0,0,1.3-1.18c0,.07,0,.14.08.22,11,.34,11.5,9.45,7.72,13.7s-17.69,2.37-20.59,2l-.26,0-.26,0h0c-.28-.05-.55-.1-.82-.17A13.44,13.44,0,0,1,47.42,129C49.85,131.19,53.42,133.08,56.49,133.08Z"/><path class="cls-2" d="M58.56,143.94l-.25,0h0Z"/><path class="cls-4" d="M58.55,144.05h0l-.25,0-.17,0,.11-.21h.08l.25,0h0Z"/><path class="cls-4" d="M72.32,127a6.32,6.32,0,0,1,.22.61,1,1,0,0,1-.64,1.28,1.07,1.07,0,0,1-1.29-.72c0-.05,0-.09,0-.13A6.06,6.06,0,0,0,72.32,127Z"/><path class="cls-4" d="M46.81,126.89a6.15,6.15,0,0,0,1.66,2,12.36,12.36,0,0,0,9.2,13.86,1.09,1.09,0,0,1,.81,1.25.94.94,0,0,1-.44.66,1,1,0,0,1-.74.12,14.54,14.54,0,0,1-10.79-16.59A13,13,0,0,1,46.81,126.89Z"/><path class="cls-4" d="M78.93,143.77c-2.26,1.4-6.14,2.06-11.57,1.94a75.65,75.65,0,0,1-9.16-.78,1.09,1.09,0,0,1-.9-1.19,1,1,0,0,1,1.11-.87c4.6.73,17.18,1.85,20.24-1.58a7.42,7.42,0,0,0,1.34-7.7c-1.17-2.61-4.11-4.12-8.27-4.25a1.09,1.09,0,0,1-1-1.07,1,1,0,0,1,1-1c6.77.21,9.26,3.57,10.15,5.55a9.54,9.54,0,0,1-1.65,9.92A5.91,5.91,0,0,1,78.93,143.77Z"/><path class="cls-4" d="M71.91,139.56a2.32,2.32,0,0,1,1.06.58,5,5,0,0,1,.83.94,6,6,0,0,1,.34.53q.17.28.3.57l.27.58.23.59a1.09,1.09,0,0,1-.57,1.38,1,1,0,0,1-1.33-.51.93.93,0,0,1-.07-.43v0l0-.57c0-.18,0-.37,0-.56s0-.37,0-.56,0-.37-.08-.55a4.38,4.38,0,0,0-.31-1.07A2.34,2.34,0,0,0,71.91,139.56Z"/><path class="cls-4" d="M76.64,137.4a5.09,5.09,0,0,1,.89.59,6.43,6.43,0,0,1,.8.77,6.25,6.25,0,0,1,.68.92,7.85,7.85,0,0,1,.53,1.09v0a1.1,1.1,0,0,1-.58,1.39,1,1,0,0,1-1.34-.52.92.92,0,0,1-.07-.49,5.75,5.75,0,0,0,0-.93,5.29,5.29,0,0,0-.15-1,5.75,5.75,0,0,0-.31-1A5,5,0,0,0,76.64,137.4Z"/><path class="cls-4" d="M73.74,125.84l.66.34A18.61,18.61,0,0,0,84.91,128l.42,0a17.55,17.55,0,0,0,11.51-3.62,12.24,12.24,0,0,0,2.42-2.51c.26-.18.53-.36.79-.56-.09.16-.19.31-.28.46a19.56,19.56,0,0,1-2.08,2.56,20,20,0,0,1-5.32,3.85,21.17,21.17,0,0,1-3,1.26,20.68,20.68,0,0,1-3.19.8,21,21,0,0,1-12.81-1.89c-.16-.07-.31-.16-.47-.24A16.78,16.78,0,0,0,73.74,125.84Z"/><path class="cls-1" d="M45.94,29.26s-6.32-22.37,0-27.12,19.4,7.72,19.4,7.72a36.21,36.21,0,0,1,31.93,0s13.08-12.47,19.4-7.72,0,27.12,0,27.12h0a71.5,71.5,0,0,1,6.06,15.68,19.32,19.32,0,0,1-2.15,15C115.85,67.7,105,76.48,81.31,76.39,57.65,76.48,46.76,67.7,42,60a19.32,19.32,0,0,1-2.15-15,71.5,71.5,0,0,1,6.06-15.68"/><path class="cls-2" d="M42,60a19.29,19.29,0,0,1-2.62-12.66c8.3-2.67,19.13,2.52,23.41,5.05s6.94-3.33,13-6.86a25.4,25.4,0,0,1,25,0c6.1,3.53,8.72,9.4,13,6.86,2.48-1.47,5.58-3.82,9.35-5A19.23,19.23,0,0,1,120.58,60C115.85,67.7,105,76.48,81.31,76.39,57.65,76.48,46.76,67.7,42,60Z"/><g class="cls-8"><path class="cls-6" d="M48.65,1.1C54-.77,65.34,9.86,65.34,9.86,104.6-5.44,120.4,37.67,120.4,37.67,107.23,15.4,88.31,2.7,66,12.3a1.45,1.45,0,0,1-1.78-.24c-2.14-2.2-8.21-8-13.86-8.84-7-1.08-7,4.84-7,4.84A7.65,7.65,0,0,1,48.65,1.1Z"/></g><g class="cls-8"><path class="cls-6" d="M116.2,2.84a4.39,4.39,0,0,1,1,1.06C111.36,0,99.74,11.09,99.74,11.09L98.52,9.87S110.45-1.49,116.2,2.84Z"/></g><path class="cls-9" d="M102.29,12.78s7.08-6.6,10.28-4.2-.08,14.09-.08,14.09A43,43,0,0,0,102.29,12.78Z"/><path class="cls-9" d="M60.32,12.78s-7.08-6.6-10.27-4.2.08,14.09.08,14.09A42.83,42.83,0,0,1,60.32,12.78Z"/><path class="cls-4" d="M54.09,72.07a31.29,31.29,0,0,1-13-11.56,20.44,20.44,0,0,1-2.27-15.84,73.14,73.14,0,0,1,5.95-15.54A92.12,92.12,0,0,1,42.5,17.62C41.4,9,42.34,3.5,45.29,1.28c6.26-4.71,17.6,4.9,20.25,7.29a37.26,37.26,0,0,1,31.53,0c2.66-2.39,14-12,20.25-7.29,3,2.22,3.89,7.72,2.79,16.34a92.12,92.12,0,0,1-2.29,11.51,73.14,73.14,0,0,1,6,15.54,20.44,20.44,0,0,1-2.27,15.84,31.26,31.26,0,0,1-13,11.56c-7.12,3.58-16.16,5.39-26.85,5.39h-.74C70.24,77.46,61.21,75.65,54.09,72.07Zm27.59,3.24c23.34,0,33.54-8.65,38-15.92a18.27,18.27,0,0,0,2-14.17,70.94,70.94,0,0,0-6-15.41,1.11,1.11,0,0,1-.11-.84c1.71-6,5.09-22.43.39-26s-14.55,4.35-18,7.64a1.07,1.07,0,0,1-1.21.19A34.09,34.09,0,0,0,81.38,7.22a.38.38,0,0,1-.15,0,33.85,33.85,0,0,0-15.42,3.61,1.07,1.07,0,0,1-1.21-.19C61.14,7.35,51.17-.44,46.59,3S45.28,22.94,47,29a1.08,1.08,0,0,1-.11.83,71,71,0,0,0-5.95,15.42,18.35,18.35,0,0,0,2,14.17c4.44,7.27,14.64,15.92,38,15.92h.74Z"/><path class="cls-4" d="M116.67,30.34a1.09,1.09,0,0,0,.94-1.62C109.3,14.15,98.18,9.08,97.71,8.87a1.09,1.09,0,0,0-1.43.55,1.08,1.08,0,0,0,.55,1.42h0c.11.05,11,5,18.91,19A1.06,1.06,0,0,0,116.67,30.34Z"/><path class="cls-4" d="M83.22,48.46c.55-2.21,5.22-2.69,5.22-2.69s4.67-.48,5.66,1.57-2.29,5.08-4.95,5.35S82.67,50.66,83.22,48.46Z"/><path class="cls-4" d="M87.86,50.84l-.06.23-.09.27c-.07.19-.14.37-.22.55A9.59,9.59,0,0,1,87,53a7,7,0,0,1-1.47,1.75,4.88,4.88,0,0,1-.92.64,5.3,5.3,0,0,1-1,.46,7.39,7.39,0,0,1-2.33.37,5.18,5.18,0,0,1-4.14-1.6A11.22,11.22,0,0,1,75,50v0a.27.27,0,0,0-.32-.19.24.24,0,0,0-.18.17,5.43,5.43,0,0,0-.27,1.48,7.57,7.57,0,0,0,.06,1.5,6.46,6.46,0,0,0,1.17,2.92A6.55,6.55,0,0,0,78,57.92a8.34,8.34,0,0,0,3.12.75,10.56,10.56,0,0,0,1.59,0,8.74,8.74,0,0,0,1.59-.3,8.15,8.15,0,0,0,3-1.49,9.2,9.2,0,0,0,2.14-2.44A11.32,11.32,0,0,0,90.12,53q.15-.36.27-.75a2.91,2.91,0,0,0,.12-.39c0-.14.07-.25.11-.44a1.41,1.41,0,0,0-2.72-.7Z"/><path class="cls-4" d="M87.73,51.42c0,.2.07.31.11.45s.08.27.12.39.18.51.29.75A8.88,8.88,0,0,0,89,54.43a8.16,8.16,0,0,0,2.3,2.35,8.46,8.46,0,0,0,1.49.78,9.21,9.21,0,0,0,1.6.42,10.13,10.13,0,0,0,3.16,0,7.61,7.61,0,0,0,3-1.15,5.64,5.64,0,0,0,2.09-2.62,6.43,6.43,0,0,0,.36-3.1,7.28,7.28,0,0,0-.92-2.81.27.27,0,0,0-.36-.09.26.26,0,0,0-.13.23v0a11.69,11.69,0,0,1-.8,4.94,3.42,3.42,0,0,1-1.45,1.51,5.72,5.72,0,0,1-2.16.61,8.3,8.3,0,0,1-2.35-.12,6.43,6.43,0,0,1-1-.34,6.73,6.73,0,0,1-.94-.54,5.9,5.9,0,0,1-1.49-1.61,6.15,6.15,0,0,1-.55-1c-.08-.17-.15-.35-.22-.53l-.09-.27-.07-.21,0-.13a1.41,1.41,0,0,0-2.72.7Z"/><path class="cls-4" d="M98.69,56.36S98.08,67.4,88.6,68,78.74,57,78.74,57s9.37,2.18,10.28-7C89,49.93,90,58.81,98.69,56.36Z"/><path class="cls-10" d="M95.53,64.61s-4.6-10.36-16-3.26C79.57,61.35,84.61,73.73,95.53,64.61Z"/><path class="cls-4" d="M81.71,66.92c-3.83-3.46-4.07-9.64-4.08-9.9a1.13,1.13,0,0,1,.4-.89,1.11,1.11,0,0,1,1-.23s3.84.84,6.43-1a6.62,6.62,0,0,0,2.49-5,1.12,1.12,0,0,1,1.1-1h0a1.12,1.12,0,0,1,1.11,1s.41,3.45,2.78,5c1.38.92,3.23,1.08,5.48.44a1.12,1.12,0,0,1,1.41,1.14C99.57,60.58,97,68.59,88.67,69.15c-.27,0-.55,0-.82,0A8.87,8.87,0,0,1,81.71,66.92Zm10-10.24a7.88,7.88,0,0,1-2.53-2.88,7.66,7.66,0,0,1-2.42,2.89A10.32,10.32,0,0,1,80,58.28c.27,1.81,1.05,5,3.22,7a6.92,6.92,0,0,0,5.31,1.65c6.48-.44,8.34-6.32,8.86-9.15A7.78,7.78,0,0,1,91.66,56.68Z"/><ellipse class="cls-6" cx="89.97" cy="47.58" rx="2.09" ry="0.7" transform="translate(-2.04 4.08) rotate(-2.57)"/><ellipse class="cls-2" cx="72.49" cy="30.32" rx="2.64" ry="4.74" transform="translate(18.64 87.55) rotate(-69.44)"/><ellipse class="cls-2" cx="101.22" cy="29.89" rx="4.74" ry="2.64" transform="translate(-3.47 43.28) rotate(-23.74)"/><path class="cls-4" d="M97.77,40.94c.38-.26.76-.54,1.13-.78s.73-.46,1.08-.65a10.77,10.77,0,0,1,1.07-.46c.18,0,.35-.12.53-.14l.27-.06.27,0a5.3,5.3,0,0,1,.59,0c.2,0,.39,0,.59,0l.29,0,.29,0,.28,0,.28.07a4.51,4.51,0,0,1,1.09.41,3.61,3.61,0,0,1,.53.33,2.48,2.48,0,0,1,.26.19c.09.06.17.15.24.19l.14.1a.39.39,0,0,0,.55-.12.4.4,0,0,0,.06-.3,1.55,1.55,0,0,0-.06-.23,1.52,1.52,0,0,0-.06-.2,2.78,2.78,0,0,0-.16-.4c-.07-.12-.13-.25-.21-.37l-.12-.18-.13-.17a4.62,4.62,0,0,0-1.34-1.11,5.45,5.45,0,0,0-1.64-.58l-.42-.06a3.28,3.28,0,0,0-.43,0h-.42a1.47,1.47,0,0,0-.21,0l-.22,0-.45,0-.43.1a3,3,0,0,0-.43.12l-.42.16a5.89,5.89,0,0,0-1.45.93,5.56,5.56,0,0,0-1,1.28,4.08,4.08,0,0,0-.37.72,5,5,0,0,0-.24.8.42.42,0,0,0,.66.43Z"/><path class="cls-4" d="M78.66,40.68a3.85,3.85,0,0,0-.26-.79,5.17,5.17,0,0,0-1.48-2A5.5,5.5,0,0,0,75.44,37L75,36.89l-.43-.11-.44-.08-.44,0-.23,0h-.21l-.42,0a3,3,0,0,0-.42,0L72,36.8a5.62,5.62,0,0,0-1.62.63,4.53,4.53,0,0,0-1.31,1.15l-.12.17-.12.19c-.07.12-.14.25-.2.38s-.11.26-.15.39a1.6,1.6,0,0,0,0,.21c0,.07,0,.14,0,.23a.4.4,0,0,0,.62.4l.14-.1c.07-.05.15-.14.23-.2l.25-.2a4.21,4.21,0,0,1,.52-.34,5,5,0,0,1,1.08-.45l.28-.07.28,0,.29,0,.29,0c.2,0,.39,0,.59,0a5.54,5.54,0,0,1,.59,0l.27,0,.27.06c.18,0,.35.1.53.13a8.09,8.09,0,0,1,1.08.43c.36.18.73.38,1.11.61s.76.5,1.15.75l.06,0a.43.43,0,0,0,.59-.13A.41.41,0,0,0,78.66,40.68Z"/><path class="cls-11" d="M39.09,76.29a7.74,7.74,0,0,1-6.52.06,7.26,7.26,0,0,1-3.13-2.89,9.06,9.06,0,0,1-1-2.29l-1.34-4.69.12,0-.37-1.22-.14-.46,15.12-3c.71,2.72,2,8.12.58,11A6.78,6.78,0,0,1,39.09,76.29Z"/><polygon class="cls-11" points="56.54 65.36 54.07 61.12 58.91 60.28 56.54 65.36"/><path class="cls-12" d="M98.05,123.4a6.51,6.51,0,0,1-2.8-.63,7.21,7.21,0,0,1-3.48-9.57l10.29-22L91.24,86.11l-8.55,18.31a7.1,7.1,0,0,1-6.41,4.08,7,7,0,0,1-3-.66,7.65,7.65,0,0,1-3.7-10.18l8.3-17.77L58.79,71l-1.72,3.69L47.38,58l19-3.27-1.72,3.69,55.78,26L104,119.58a6.63,6.63,0,0,1-6,3.82ZM56.44,63.21l.76-1.61-1.54.26Z"/><path class="cls-4" d="M64.66,56,63.33,58.9l55.78,26-.62,1.32h0l-15.35,32.9a5.63,5.63,0,0,1-5.09,3.24,5.53,5.53,0,0,1-2.37-.53,6.2,6.2,0,0,1-3-8.25l10.71-22.94L90.75,84.79l-9,19.21a6.06,6.06,0,0,1-8.06,2.93,6.65,6.65,0,0,1-3.22-8.84L79.22,79.4,58.31,69.64,57,72.51l-3.35-5.78-2.47-4.24L51,62.22l-2-3.48L53.15,58l.09,0,4.84-.83L64.66,56m-8.12,9.33,2.37-5.08-4.84.84,2.47,4.24m11.55-12-3.77.65-6.58,1.13L52.9,56h-.09l-4.18.73-2.84.48,1.45,2.49,2,3.48.16.27,2.47,4.25,3.36,5.77,1.92,3.31,1.62-3.47.49-1,17.29,8.07L68.69,97.24a8.66,8.66,0,0,0,4.18,11.5,7.93,7.93,0,0,0,3.41.76,8.09,8.09,0,0,0,7.31-4.65l8.13-17.41,9,4.21-9.86,21.13a8.19,8.19,0,0,0,4,10.9,7.49,7.49,0,0,0,3.22.72A7.66,7.66,0,0,0,105,120l15.36-32.89.61-1.33.85-1.81L120,83.12,66,57.93l.49-1,1.61-3.47Z"/><path class="cls-13" d="M16.25,35.6l.71.48,1.72,1.16L15,38.86a3.92,3.92,0,0,1-1.62.22,4.16,4.16,0,0,1-2.64-1.93,4.52,4.52,0,0,1-.53-1.33,5.32,5.32,0,0,1,.39-3.34,5.14,5.14,0,0,1,3-2.75,2.24,2.24,0,0,1,1.85.17,2.3,2.3,0,0,1,.79.79,2.66,2.66,0,0,1,.31.8,1.5,1.5,0,0,1,0,.6,2.08,2.08,0,0,1-.18.66l-.12.22-.46.72-.74,1.15Z"/><path class="cls-13" d="M55.63,44.79c-1,2.16-4.11,4.44-9.21,6.78L39,37.93,45.51,35a7.82,7.82,0,0,1,6.55-.12,7.35,7.35,0,0,1,3.19,2.92A8.81,8.81,0,0,1,56.17,40,6.77,6.77,0,0,1,55.63,44.79Z"/><path class="cls-13" d="M14.44,57.22a1.42,1.42,0,0,1,.59-.64c.07.2.18.49.32.91l-.52.21-.52.22A1.35,1.35,0,0,1,14.44,57.22Z"/><path class="cls-13" d="M18.15,47.11l.58-.25.37-.16.08,0C21,46,23,45.1,25.46,44l1.25-.56-4.07,8.72c-.12-.25-.25-.49-.38-.72a7.84,7.84,0,0,0-6.57-3.78A21.29,21.29,0,0,0,18,47.06Z"/><polygon class="cls-13" points="30.69 55.03 34.21 47.49 37.58 53.66 30.69 55.03"/><path class="cls-14" d="M49,75.83c1.86-4,1.76-9.6-.29-17.16,7.07-3.19,11.6-6.84,13.46-10.82a14.61,14.61,0,0,0,1-10.28,16.3,16.3,0,0,0-1.7-4A14.2,14.2,0,0,0,55.3,28a14.78,14.78,0,0,0-12.42.1L22,37.3l.26-.41a9.52,9.52,0,0,0,.62-1.13,10,10,0,0,0,.87-3.12,9.13,9.13,0,0,0-.16-3.09,9.87,9.87,0,0,0-1.16-2.95,9.08,9.08,0,0,0-10.66-4,12.79,12.79,0,0,0-7.6,6.84,13,13,0,0,0-.95,8.28A11.72,11.72,0,0,0,4.6,41.23a11,11,0,0,0,6.92,5.09c1.77.42,3.81.18,6.59-.77l.06,0,.36-.16.13-.06c1.82-.66,3.81-1.54,6.23-2.63l2.87-1.28.73-.32,0-.1,1.15-.51L22.48,55.81c-.46-1.37-.78-2.29-1-2.77a8.86,8.86,0,0,0-.44-.87,6.43,6.43,0,0,0-7.23-2.89A8.85,8.85,0,0,0,8,54.22a9.07,9.07,0,0,0-.76,5.31,8.83,8.83,0,0,0,1.11,3.21,6,6,0,0,0,2.17,2.17,6.48,6.48,0,0,0,5.91,0l.74-.31-.25-.76-1.25-4L15.38,59l-.89.37a1.74,1.74,0,0,1-1,.22.55.55,0,0,1-.17-.19,3.44,3.44,0,0,1-.36-1.13,2.79,2.79,0,0,1,.23-1.63,2.72,2.72,0,0,1,1.76-1.5,1,1,0,0,1,1.19.42l.06.13c.12.28.38,1,1,2.82l4.29,15.09a16.38,16.38,0,0,0,1.73,4.08,14.25,14.25,0,0,0,6.1,5.59,14.78,14.78,0,0,0,12.41,0A14.61,14.61,0,0,0,49,75.83ZM21.55,37.5l-6.08,2.68a5.21,5.21,0,0,1-2.41.26,5.56,5.56,0,0,1-3.51-2.57,5.82,5.82,0,0,1-.69-1.75,6.62,6.62,0,0,1,.49-4.23,6.52,6.52,0,0,1,3.86-3.49A3.58,3.58,0,0,1,17.48,30,4.09,4.09,0,0,1,18,31.19,3.33,3.33,0,0,1,18,32.24a3.16,3.16,0,0,1-.31,1.1,3.39,3.39,0,0,1-.2.38l-.46.72.7.48L21,37.14Zm12.56,6.9,5.61,10.26L28.25,57Zm12.28,8.72a3.82,3.82,0,0,0-.56.3L37,37.26l7.94-3.5a9.16,9.16,0,0,1,7.71-.11,8.69,8.69,0,0,1,3.8,3.46,10.41,10.41,0,0,1,1.07,2.5,8.1,8.1,0,0,1-.63,5.77C55.68,48,52.25,50.5,46.39,53.12ZM39.65,77.57a9.12,9.12,0,0,1-7.68,0,8.69,8.69,0,0,1-3.73-3.43,11,11,0,0,1-1.11-2.62l-1.67-5.9.09,0-.23-.77L25,63.68,42.88,60.1a2.81,2.81,0,0,0,.08.31c1.08,3.94,2.34,9.56.76,13A8.1,8.1,0,0,1,39.65,77.57Z"/><path class="cls-14" d="M39.72,54.66,34.11,44.4,28.25,57Zm-5.51-7.17,3.37,6.17L30.69,55Z"/><path class="cls-14" d="M46.39,53.12c5.86-2.62,9.29-5.15,10.5-7.74a8.1,8.1,0,0,0,.63-5.77,10.41,10.41,0,0,0-1.07-2.5,8.69,8.69,0,0,0-3.8-3.46,9.16,9.16,0,0,0-7.71.11L37,37.26l8.83,16.16A3.82,3.82,0,0,1,46.39,53.12Zm8.86-15.29A8.81,8.81,0,0,1,56.17,40a6.77,6.77,0,0,1-.54,4.79c-1,2.16-4.11,4.44-9.21,6.78L39,37.93,45.51,35a7.82,7.82,0,0,1,6.55-.12A7.35,7.35,0,0,1,55.25,37.83Z"/><path class="cls-14" d="M39.65,77.57a8.1,8.1,0,0,0,4.07-4.21c1.58-3.39.32-9-.76-13a2.81,2.81,0,0,1-.08-.31L25,63.68l.36,1.17.23.77-.09,0,1.67,5.9a11,11,0,0,0,1.11,2.62A8.69,8.69,0,0,0,32,77.61,9.12,9.12,0,0,0,39.65,77.57Zm2.8-4.8a6.78,6.78,0,0,1-3.36,3.52,7.74,7.74,0,0,1-6.52.06,7.26,7.26,0,0,1-3.13-2.89,9.06,9.06,0,0,1-1-2.29l-1.34-4.69.12,0-.37-1.22-.14-.46,15.12-3C42.58,64.45,43.82,69.85,42.45,72.77Z"/><path class="cls-14" d="M53.15,58c5.2-2.88,8.67-6.09,10.3-9.58a16,16,0,0,0,1.09-11.26A17.4,17.4,0,0,0,62.7,32.9a15.71,15.71,0,0,0-6.81-6.19,16.16,16.16,0,0,0-13.58.09l-17.5,7.73a10.27,10.27,0,0,0,.33-1.74A10.76,10.76,0,0,0,25,29.25a11.51,11.51,0,0,0-1.33-3.37,10.61,10.61,0,0,0-3.79-3.71,10.48,10.48,0,0,0-8.49-.86A14.52,14.52,0,0,0,1.86,38.06,12.91,12.91,0,0,0,3.4,42a12.38,12.38,0,0,0,7.79,5.73,9.68,9.68,0,0,0,2.31.24h0a10.26,10.26,0,0,0-6.76,5.71,10.73,10.73,0,0,0,.42,9.83,7.4,7.4,0,0,0,2.69,2.67,7.78,7.78,0,0,0,7.13.09l.74-.31.09,0L20.1,74A17.85,17.85,0,0,0,22,78.39a15.72,15.72,0,0,0,6.7,6.13,16.2,16.2,0,0,0,21.6-8.1c1.66-3.55,1.89-8.23.71-14.2l-2-3.48Zm-4.43.65c2.05,7.56,2.15,13.18.29,17.16a14.61,14.61,0,0,1-7.32,7.43,14.78,14.78,0,0,1-12.41,0,14.25,14.25,0,0,1-6.1-5.59,16.38,16.38,0,0,1-1.73-4.08L17.16,58.5c-.6-1.83-.86-2.54-1-2.82l-.06-.13a1,1,0,0,0-1.19-.42,2.72,2.72,0,0,0-1.76,1.5,2.79,2.79,0,0,0-.23,1.63,3.44,3.44,0,0,0,.36,1.13.55.55,0,0,0,.17.19,1.74,1.74,0,0,0,1-.22l.89-.37.29.92,1.25,4,.25.76-.74.31a6.48,6.48,0,0,1-5.91,0,6,6,0,0,1-2.17-2.17,8.83,8.83,0,0,1-1.11-3.21A9.07,9.07,0,0,1,8,54.22a8.85,8.85,0,0,1,5.83-4.94,6.43,6.43,0,0,1,7.23,2.89,8.86,8.86,0,0,1,.44.87c.2.48.52,1.4,1,2.77l7.13-15.29L28.46,41l0,.1-.73.32-2.87,1.28c-2.42,1.09-4.41,2-6.23,2.63l-.13.06-.36.16-.06,0c-2.78,1-4.82,1.19-6.59.77A11,11,0,0,1,4.6,41.23a11.72,11.72,0,0,1-1.38-3.47,13,13,0,0,1,.95-8.28,12.79,12.79,0,0,1,7.6-6.84,9.08,9.08,0,0,1,10.66,4,9.87,9.87,0,0,1,1.16,2.95,9.13,9.13,0,0,1,.16,3.09,10,10,0,0,1-.87,3.12,9.52,9.52,0,0,1-.62,1.13L22,37.3l20.88-9.22A14.78,14.78,0,0,1,55.3,28a14.2,14.2,0,0,1,6.2,5.64,16.3,16.3,0,0,1,1.7,4,14.61,14.61,0,0,1-1,10.28C60.32,51.83,55.79,55.48,48.72,58.67ZM18,47.06l.13,0,.58-.25.37-.16.08,0C21,46,23,45.1,25.46,44l1.25-.56-4.07,8.72c-.12-.25-.25-.49-.38-.72a7.84,7.84,0,0,0-6.57-3.78A21.29,21.29,0,0,0,18,47.06ZM14.83,57.7l-.52.22a1.35,1.35,0,0,1,.13-.7,1.42,1.42,0,0,1,.59-.64c.07.2.18.49.32.91Z"/><path class="cls-14" d="M15.47,40.18l6.08-2.68L21,37.14l-3.29-2.22-.7-.48.46-.72a3.39,3.39,0,0,0,.2-.38,3.16,3.16,0,0,0,.31-1.1A3.33,3.33,0,0,0,18,31.19,4.09,4.09,0,0,0,17.48,30a3.58,3.58,0,0,0-4.27-1.57,6.52,6.52,0,0,0-3.86,3.49,6.62,6.62,0,0,0-.49,4.23,5.82,5.82,0,0,0,.69,1.75,5.56,5.56,0,0,0,3.51,2.57A5.21,5.21,0,0,0,15.47,40.18Zm.39-6.49-.74,1.15,1.13.76.71.48,1.72,1.16L15,38.86a3.92,3.92,0,0,1-1.62.22,4.16,4.16,0,0,1-2.64-1.93,4.52,4.52,0,0,1-.53-1.33,5.32,5.32,0,0,1,.39-3.34,5.14,5.14,0,0,1,3-2.75,2.24,2.24,0,0,1,1.85.17,2.3,2.3,0,0,1,.79.79,2.66,2.66,0,0,1,.31.8,1.5,1.5,0,0,1,0,.6,2.08,2.08,0,0,1-.18.66l-.12.22Z"/><ellipse class="cls-15" cx="117.6" cy="82.72" rx="8.33" ry="6.31" transform="translate(34.16 199.81) rotate(-89.65)"/><path class="cls-4" d="M118.37,92.15a6.27,6.27,0,0,1-4.8-1.43,10,10,0,0,1-3.39-7.06c-.39-5.17,2.59-9.82,6.64-10.36a6.23,6.23,0,0,1,4.8,1.42,10,10,0,0,1,3.4,7.07c.37,4.95-2.36,9.43-6.16,10.27Zm-5.91-8.67h0A7.81,7.81,0,0,0,115,88.94a3.9,3.9,0,0,0,3,.93c2.88-.38,5-3.94,4.67-7.91a7.81,7.81,0,0,0-2.55-5.46,3.94,3.94,0,0,0-3.05-.93l-.32.05C114.1,76.22,112.18,79.66,112.46,83.48Z"/><path class="cls-4" d="M116.79,81.51a3.12,3.12,0,0,0-1.49,0,6.63,6.63,0,0,0-1.48.45c-.24.1-.46.22-.7.33l-.68.39c-.22.14-.44.27-.65.42l-.63.46a1.23,1.23,0,1,0,1.44,2,1.33,1.33,0,0,0,.34-.37v0l.34-.58.37-.56c.13-.18.26-.37.4-.54a5.37,5.37,0,0,1,.44-.51,5.1,5.1,0,0,1,1-.89A2.94,2.94,0,0,1,116.79,81.51Z"/><path class="cls-4" d="M119.09,86.15a6.5,6.5,0,0,0-1.32.07,7.74,7.74,0,0,0-1.33.3,7,7,0,0,0-1.31.53,7.88,7.88,0,0,0-1.26.77h0a1.24,1.24,0,1,0,1.44,2,1.33,1.33,0,0,0,.38-.44,7.43,7.43,0,0,1,.58-1,7.2,7.2,0,0,1,.78-.89,8.05,8.05,0,0,1,1-.78A6.36,6.36,0,0,1,119.09,86.15Z"/><path class="cls-1" d="M45.13,95.05s28.38,3.82,31.62-4.54c3.3-8.53,1.12-8.68-14.8-12C62,78.53,42.48,83,45.13,95.05Z"/><path class="cls-2" d="M64.89,95.73c5.64-.53,10.6-1.94,11.85-5.16,3-7.72,1.48-8.57-10.65-11.11a12.55,12.55,0,0,0-1.2,16.27Z"/><path class="cls-4" d="M46,95c.58.17,1.16.32,1.74.46l.88.19.87.17c1.18.23,2.36.41,3.54.56s2.38.26,3.57.34l1.8.09c.59,0,1.19,0,1.79,0a48.76,48.76,0,0,0,7.22-.49,30.62,30.62,0,0,0,3.6-.73A16.58,16.58,0,0,0,74.5,94.2a8.86,8.86,0,0,0,1.62-1.15,6,6,0,0,0,1.29-1.66,4.37,4.37,0,0,0,.23-.49l.17-.42.32-.85c.22-.57.42-1.15.59-1.76a9.81,9.81,0,0,0,.37-1.94,4.88,4.88,0,0,0-.31-2.2,4.48,4.48,0,0,0-1.38-1.8,7.8,7.8,0,0,0-1.73-1,20.23,20.23,0,0,0-3.52-1.18c-1.18-.3-2.35-.54-3.53-.74s-2.36-.36-3.55-.47-2.38-.2-3.58-.21a.16.16,0,0,0-.16.15.18.18,0,0,0,.1.16c2.26.81,4.55,1.42,6.83,2,1.13.3,2.26.59,3.37.92.56.17,1.1.35,1.64.54a16.3,16.3,0,0,1,1.53.63,7,7,0,0,1,1.3.79,2.55,2.55,0,0,1,.78,1,4.7,4.7,0,0,1-.1,2.83c-.14.54-.31,1.08-.5,1.62l-.29.82-.15.4a3.13,3.13,0,0,1-.15.32,5.12,5.12,0,0,1-2.12,2,13,13,0,0,1-3.08,1.21,27.05,27.05,0,0,1-3.37.63,64.51,64.51,0,0,1-7,.39c-4.68.06-9.38-.14-14.14-.14a.16.16,0,0,0-.16.16A.16.16,0,0,0,46,95Z"/><path class="cls-4" d="M72.47,89.09a2.43,2.43,0,0,0,.79.84,4.89,4.89,0,0,0,1.06.56c.19.09.38.14.57.21l.58.16.59.13.59.1a1,1,0,0,0,1.1-.79A.94.94,0,0,0,77,89.21a.86.86,0,0,0-.39,0h0l-.5.13-.52.11-.51.07a4.55,4.55,0,0,1-.52,0,5.3,5.3,0,0,1-1-.07A2.3,2.3,0,0,1,72.47,89.09Z"/><path class="cls-4" d="M73.76,85.3a5,5,0,0,0,.76.68,6.75,6.75,0,0,0,.89.57,5.68,5.68,0,0,0,1,.43,6.43,6.43,0,0,0,1.11.27h0a1,1,0,1,0,.32-1.89,1,1,0,0,0-.45,0,5.56,5.56,0,0,1-.85.2,4.54,4.54,0,0,1-.91.06,5.17,5.17,0,0,1-1-.09A5.36,5.36,0,0,1,73.76,85.3Z"/></g></svg>