<svg xmlns="http://www.w3.org/2000/svg" xmlns:xlink="http://www.w3.org/1999/xlink" viewBox="0 0 132.3 157.34"><defs><style>.cls-1{fill:none;}.cls-2{clip-path:url(#clip-path);}.cls-3{opacity:0.85;}.cls-4{fill:#ed407b;}.cls-5{fill:#f6a428;}.cls-6{fill:#fff;}.cls-7{fill:#fafbfb;}.cls-8{fill:#000072;}.cls-9{fill:#f9a429;}.cls-10{fill:#f8fafa;}.cls-11{opacity:0.3;}.cls-12{opacity:0.35;}.cls-13{fill:#162872;}.cls-14{opacity:0.5;}.cls-15{fill:#e34989;}.cls-16{fill:#f95a93;}.cls-17{fill:#f9fcfd;}.cls-18{fill:#f9c710;}.cls-19{opacity:0.7;}.cls-20{fill:#f89f1d;}.cls-21{fill:#ffe01e;}.cls-22{fill:#ff9e16;}.cls-23{fill:#ffeda1;}.cls-24{fill:#ff398a;}</style><clipPath id="clip-path"><rect id="SVGID" class="cls-1" x="173.96" y="-8.15" width="600" height="65"/></clipPath></defs><title>a-chi-coin-logo</title><g id="EXPORT"><g class="cls-2"><g class="cls-3"><path class="cls-4" d="M142.2,6.79a37.16,37.16,0,0,1,9.41-8A18.84,18.84,0,0,1,161-4.17L148.43-11.5A18.84,18.84,0,0,0,139-8.55a37.16,37.16,0,0,0-9.41,8Z"/><polygon class="cls-4" points="129.62 61.44 142.2 68.77 142.2 6.79 129.62 -0.54 129.62 61.44"/></g></g><ellipse class="cls-5" cx="55.37" cy="144.93" rx="10.17" ry="9.64" transform="translate(-85.26 79.39) rotate(-44.1)"/><path class="cls-5" d="M54.64,154.83s-13.6-.41-16.08-4.54-.28-11.88,10.12-9S50.8,146.21,54.64,154.83Z"/><path class="cls-6" d="M65.15,145.27c-.45.31-1-.57-1.52-.3-2.23,1.42-5.11.77-7.59.3-3.4-.64-6.26-.88-8.56-3.46a9.61,9.61,0,0,1-.83-1.1.83.83,0,0,0-.09.16c-8.57-1.35-10.31,5.59-8,9.42s13.35,4.41,15.66,4.53h.42c.22,0,.44,0,.66,0a10.57,10.57,0,0,0,10-10.35C65.29,144.11,65.18,145.62,65.15,145.27Z"/><path class="cls-7" d="M54.44,154.83h0Z"/><path class="cls-8" d="M54.43,154.91h.33l0-.18h-.27Z"/><path class="cls-8" d="M46.26,139.78c-.09.14-.18.29-.26.44a.78.78,0,0,0,.31,1.08.84.84,0,0,0,1.1-.37l.06-.09A4.71,4.71,0,0,1,46.26,139.78Z"/><path class="cls-8" d="M66.06,143.41a5.1,5.1,0,0,1-1.59,1.28,9.52,9.52,0,0,1-2.7,6.37,9.66,9.66,0,0,1-6.46,3,.87.87,0,0,0-.82.84.78.78,0,0,0,.25.57.73.73,0,0,0,.56.2,11.45,11.45,0,0,0,10.8-11.2C66.1,144.09,66.08,143.75,66.06,143.41Z"/><path class="cls-8" d="M38.68,151.72c1.54,1.41,4.45,2.48,8.68,3.19a58.77,58.77,0,0,0,7.21.73.87.87,0,0,0,.88-.78.76.76,0,0,0-.74-.83c-3.67-.12-13.59-1.09-15.45-4.18a5.79,5.79,0,0,1,.09-6.12c1.29-1.85,3.79-2.58,7-2.07a.85.85,0,0,0,1-.67.77.77,0,0,0-.63-.93c-5.28-.83-7.7,1.39-8.68,2.79a7.44,7.44,0,0,0-.18,7.88A4.36,4.36,0,0,0,38.68,151.72Z"/><path class="cls-8" d="M40.87,146.72a1.82,1.82,0,0,0-.85.33,3.82,3.82,0,0,0-.72.62c-.11.11-.2.24-.31.36l-.28.39-.25.4-.24.42a.84.84,0,0,0,.3,1.09.73.73,0,0,0,1-.26.67.67,0,0,0,.1-.31h0l0-.43c0-.13,0-.27,0-.41s0-.28.08-.42.07-.27.12-.4a3,3,0,0,1,.34-.76A1.54,1.54,0,0,1,40.87,146.72Z"/><path class="cls-8" d="M43.42,148.92a3.42,3.42,0,0,0-.72.35,4.49,4.49,0,0,0-.68.49,5.06,5.06,0,0,0-.6.62,5,5,0,0,0-.5.76v0a.82.82,0,0,0,.29,1.09.75.75,0,0,0,1.06-.25.92.92,0,0,0,.1-.36,4.15,4.15,0,0,1,.07-.7,3.78,3.78,0,0,1,.2-.71,4.73,4.73,0,0,1,.33-.68A3.5,3.5,0,0,1,43.42,148.92Z"/><path class="cls-9" d="M105.53,119.14s-1.08,8.2-12,6l-1.58,1.58s10.81,15.79,23.5,2.2c13.2-14.13-5.71-30.29-15.08-23.85-9.1,6.26-.11,15.69,4.16,14.45s3.06-4.6,3.06-4.6"/><path class="cls-10" d="M115.42,128.92c13.2-14.13-5.71-30.29-15.08-23.85-4.79,3.29-4.57,7.46-2.66,10.5-.9-2.2-.57-4.88,2.6-7.06,7.26-5,21.91,7.52,11.69,18.47-8.54,9.14-16,1.1-17.79-1.16-.38,0-.77-.1-1.18-.18l-1.08,1.08S102.73,142.51,115.42,128.92Z"/><path class="cls-8" d="M106.26,119.23a1.92,1.92,0,0,1-.05.29l-.06.25c0,.17-.09.34-.14.5a10,10,0,0,1-.37,1,8.57,8.57,0,0,1-1.08,1.76,8,8,0,0,1-3.29,2.47,11,11,0,0,1-4,.78,18.38,18.38,0,0,1-3.93-.38l.67-.21-1.59,1.59.09-.93h0c.26.36.56.74.87,1.1s.62.72.95,1.06a21.25,21.25,0,0,0,2.1,1.93A18.19,18.19,0,0,0,98.79,132c.21.12.41.24.62.34l.63.31.65.26.16.07.17.05.33.11a10.93,10.93,0,0,0,2.71.53l.34,0h.69a2.06,2.06,0,0,0,.35,0l.68-.07.17,0,.17,0,.34-.07a12.45,12.45,0,0,0,1.33-.36l.17,0,.16-.07.32-.13c.21-.1.43-.17.64-.28a16,16,0,0,0,2.4-1.45c.37-.29.76-.56,1.11-.88l.53-.47.27-.24.25-.25c.33-.34.68-.67,1-1l.47-.54.45-.54a15.54,15.54,0,0,0,2.68-4.9,12.52,12.52,0,0,0,.54-2.71,12.06,12.06,0,0,0-.09-2.75,13.48,13.48,0,0,0-1.94-5.17,16.29,16.29,0,0,0-3.75-4.15,15,15,0,0,0-4.94-2.58,9.83,9.83,0,0,0-5.37-.18,7.38,7.38,0,0,0-1.24.47,7.53,7.53,0,0,0-1.13.69l-.56.42-.51.45a5.32,5.32,0,0,0-.47.48l-.23.24-.21.26A6.29,6.29,0,0,0,97.5,110a5.94,5.94,0,0,0-.1,2.52,7.44,7.44,0,0,0,1,2.43,8.67,8.67,0,0,0,1.69,2.08,7.89,7.89,0,0,0,2.21,1.45,4.11,4.11,0,0,0,1.19.31,2.62,2.62,0,0,0,.56,0l.26,0,.31-.09.32-.1.3-.13.29-.12.28-.15a3.48,3.48,0,0,0,.51-.34c.08-.06.14-.14.22-.2l.11-.1.09-.12a3,3,0,0,0,.59-1.1,4.62,4.62,0,0,0,.15-1.36v0a.13.13,0,0,1,.13-.14.14.14,0,0,1,.12.07,3,3,0,0,1,.31.74,3.6,3.6,0,0,1,.11.81,3.27,3.27,0,0,1-.4,1.65l-.1.19-.13.18c-.09.11-.17.24-.27.34a3.9,3.9,0,0,1-.64.58l-.35.25-.37.19a3.24,3.24,0,0,1-.37.19l-.39.14-.38.14-.47.11a4.67,4.67,0,0,1-.91,0,5.59,5.59,0,0,1-1.67-.38,6.51,6.51,0,0,1-.76-.34l-.36-.19a4.05,4.05,0,0,1-.35-.21,6,6,0,0,1-.66-.46c-.22-.15-.42-.33-.63-.5a11.21,11.21,0,0,1-2.06-2.44,9.21,9.21,0,0,1-1.19-3,7.41,7.41,0,0,1,.13-3.31,8,8,0,0,1,1.53-2.9l.25-.31.28-.29a7.5,7.5,0,0,1,.57-.56L99,105l.63-.47a7.74,7.74,0,0,1,.67-.44,7.24,7.24,0,0,1,.73-.38,9.06,9.06,0,0,1,1.53-.57,10.6,10.6,0,0,1,1.59-.29,12.21,12.21,0,0,1,1.6,0,12.37,12.37,0,0,1,3.1.55,15.49,15.49,0,0,1,2.88,1.2,17.72,17.72,0,0,1,2.59,1.69,17.91,17.91,0,0,1,4.11,4.57,15.1,15.1,0,0,1,2.15,5.78,13.5,13.5,0,0,1,.09,3.11,13.76,13.76,0,0,1-.62,3,16.9,16.9,0,0,1-2.95,5.38l-.48.59-.51.57c-.35.38-.72.72-1.07,1.09l-.27.26-.28.26-.58.5c-.37.35-.8.64-1.2.95a16.91,16.91,0,0,1-2.65,1.59c-.23.12-.48.21-.72.31l-.37.15-.18.07-.18.06a13.66,13.66,0,0,1-1.52.41l-.39.08-.2,0-.19,0-.79.08c-.13,0-.26,0-.39,0h-.79l-.4,0a12.37,12.37,0,0,1-3.08-.61l-.37-.12-.18-.06-.18-.08-.73-.29-.69-.34c-.24-.11-.45-.25-.68-.37a18.58,18.58,0,0,1-2.53-1.74,23.07,23.07,0,0,1-2.24-2.06c-.35-.37-.69-.74-1-1.14s-.63-.77-1-1.22h0a.73.73,0,0,1,.08-.92h0L93,124.62a.72.72,0,0,1,.66-.2h0a15.79,15.79,0,0,0,3.61.35,9.44,9.44,0,0,0,3.44-.66,6.69,6.69,0,0,0,2.7-2,7.09,7.09,0,0,0,.9-1.46c.11-.26.22-.53.31-.8s.08-.27.11-.41a1.46,1.46,0,0,0,0-.2,1.68,1.68,0,0,0,0-.18v0a.74.74,0,0,1,.84-.61A.73.73,0,0,1,106.26,119.23Z"/><g class="cls-11"><path class="cls-8" d="M107.7,115.56s-7.87,3.94-11-4c0,0,2.39,10.28,9.42,7.32A4.1,4.1,0,0,0,107.7,115.56Z"/></g><path class="cls-5" d="M47.4,116.6s-20.29-18-16-25S46,92.44,58.26,101.9C58.26,101.9,60.47,122.29,47.4,116.6Z"/><path class="cls-8" d="M51.54,117.7a10.7,10.7,0,0,1-4.18-1h0a112,112,0,0,1-9.62-9.9c-6-7.18-8.2-12.3-6.4-15.25A5.32,5.32,0,0,1,35,88.85c5.28-1,13.55,5.42,23.12,12.82l.23.18v0c0,.11,1.17,11.36-3.55,14.8A5.42,5.42,0,0,1,51.54,117.7Zm-4.09-1.17c3,1.3,5.45,1.31,7.24,0,4.49-3.28,3.55-13.86,3.48-14.59l-.17-.13C48.47,94.45,40.23,88.09,35,89a5.19,5.19,0,0,0-3.55,2.6C27.32,98.42,46.88,116,47.45,116.53Z"/><path class="cls-7" d="M34.76,102.94c-3.06-4.3-5-8.6-3.4-11.31s5.33-5.4,14.86,1.33a10.62,10.62,0,0,1-2.31,5.53A12.13,12.13,0,0,1,34.76,102.94Z"/><path class="cls-8" d="M34.72,103l0-.05c-3.7-5.17-4.84-9-3.41-11.41A5.59,5.59,0,0,1,35,88.82c2.83-.59,6.62.77,11.28,4.06l0,0V93A10.93,10.93,0,0,1,44,98.55,12.26,12.26,0,0,1,34.77,103Zm1.64-14.17A7,7,0,0,0,35,89a5.4,5.4,0,0,0-3.6,2.68c-1.39,2.32-.25,6.08,3.37,11.16a12,12,0,0,0,9-4.41A10.62,10.62,0,0,0,46.12,93C42.23,90.26,39,88.87,36.36,88.87Z"/><g class="cls-12"><path class="cls-8" d="M35.44,91.18c-2.78,3.77-1.85,8.63-.36,12.36-3.28-4.46-5.5-9-3.79-11.83,2.69-4.38,4.47-4.23,8.14-2.25C38.19,89.86,36.69,89.48,35.44,91.18Z"/></g><path class="cls-8" d="M47.4,117.45a.89.89,0,0,1-.57-.21,111.35,111.35,0,0,1-9.69-10c-6.28-7.45-8.46-12.87-6.47-16.12a6,6,0,0,1,4.22-3c5.34-.91,13.42,4.57,23.9,13.07a.85.85,0,0,1,.13,1.19.86.86,0,0,1-1.2.12C49,95.45,40.16,89,35.18,89.84A4.33,4.33,0,0,0,32.12,92c-1.52,2.49.72,7.51,6.31,14.14A107.75,107.75,0,0,0,48,116a.84.84,0,0,1,.06,1.2A.86.86,0,0,1,47.4,117.45Z"/><path class="cls-13" d="M37.23,92.15a2.9,2.9,0,0,0-1.16-3.46,9.42,9.42,0,0,0-1.15,1.07A5.18,5.18,0,0,1,37.23,92.15Z"/><path class="cls-8" d="M37.23,92.37l-.08-.18a5.17,5.17,0,0,0-2.27-2.35l-.11,0,.08-.09A9.07,9.07,0,0,1,36,88.62l.06-.05.06.05a3,3,0,0,1,1.19,3.57Zm-2.16-2.64a5.32,5.32,0,0,1,2.15,2.19,2.83,2.83,0,0,0-1.15-3.1A9.43,9.43,0,0,0,35.07,89.73Z"/><path class="cls-5" d="M86.25,92.89s15.94,16.29,19.58,30.36c1,3.81-.37,8.45-1.83,12.37-1.24,3.35-2.34,6.19-4.55,7.24-14,6.64-19.43-.3-30,.9C58.54,145,46.48,140.4,46.48,140.4S42.66,104,60,95.17,85.2,91.55,86.25,92.89Z"/><path class="cls-9" d="M49,118.87S33,107.06,31.37,97.23s4.47-11.52,9.34-5.91,14.48,8.85,14.48,8.85Z"/><path class="cls-7" d="M45.34,95.52a9,9,0,0,1-8.69,9.26,7.91,7.91,0,0,1-2-.24c-.25-.37-.5-.74-.73-1.12a20.1,20.1,0,0,1-2.21-4.63,11.36,11.36,0,0,1-.37-1.56l0-.07c-.1-.64-.17-1.23-.21-1.8-.62-8.15,5-9.27,9.56-4a23.38,23.38,0,0,0,4.63,4Z"/><path class="cls-8" d="M47.26,118.33a.84.84,0,0,1-.53-.19c-4.42-3.56-14.83-12.72-16.19-20.77-.84-4.94.16-8.47,2.75-9.68,2.37-1.1,5.46.08,8.06,3.08,4.65,5.36,14,8.57,14.11,8.6a.84.84,0,1,1-.54,1.6c-.4-.13-9.9-3.38-14.86-9.1C38,89.51,35.64,88.47,34,89.22c-1.81.85-2.49,3.79-1.8,7.87,1.27,7.48,11.33,16.3,15.59,19.74a.84.84,0,0,1,.13,1.19A.88.88,0,0,1,47.26,118.33Z"/><path class="cls-8" d="M60.43,95.92c9-4.58,15.18-5.17,18.77-4.86,4,.34,6,1.85,6.38,2.35l.09.1c.18.17,16.53,15.22,19.09,29.45a9.14,9.14,0,0,1,.25,1.86c-.1,5.37-2.83,15.63-7.68,19.25a2,2,0,0,1,1.51,1.2c4.56-4.52,7.9-14.78,7.82-21.1a23.87,23.87,0,0,0-.46-2.68C105,116,101.84,110,96.83,103.39a94,94,0,0,0-10-11.08c-.74-.89-3.19-2.56-7.53-2.93-5.53-.48-12.15,1.22-19.68,5a.83.83,0,0,0-.37,1.13A.85.85,0,0,0,60.43,95.92Z"/><path class="cls-8" d="M47.54,141.05c-.27-3.69-2.08-13.56.64-24.19a.87.87,0,0,0-.45-1,.85.85,0,0,0-1.18.56,57,57,0,0,0-.91,24.08.84.84,0,0,0,.78.76C46.51,140.49,47.1,141.66,47.54,141.05Z"/><ellipse class="cls-7" cx="66.3" cy="118.6" rx="15.62" ry="22.76"/><g class="cls-11"><path class="cls-8" d="M55.19,100.17a3.55,3.55,0,0,0-.26.5c-4-1.17-10.44-3.8-13.52-9.06,0,0-1.87,8.78,13.34,12.7.71,2,3,4.3,9.3,5.89C76.6,113.39,86,101.36,86,101.36,66.14,105.69,55.19,100.17,55.19,100.17Z"/></g><path class="cls-9" d="M99.6,66s5-17.53,0-21.26-15.3,6-15.3,6a28.71,28.71,0,0,0-25.19,0s-10.32-9.77-15.31-6S43.8,66,43.8,66h0A56.38,56.38,0,0,0,39,78.33a15.08,15.08,0,0,0,1.7,11.76c3.73,6.08,12.32,13,31,12.89s27.25-6.81,31-12.89a15,15,0,0,0,1.69-11.76A55.88,55.88,0,0,0,99.6,66"/><path class="cls-7" d="M102.69,90.09a15,15,0,0,0,2.06-9.92c-6.55-2.09-15.09,2-18.47,4S80.81,81.52,76,78.74a20.21,20.21,0,0,0-19.69,0C51.5,81.52,49.43,86.12,46,84.12c-2-1.14-4.4-3-7.38-3.94a15.08,15.08,0,0,0,2.07,9.91c3.73,6.08,12.32,13,31,12.89S99,96.17,102.69,90.09Z"/><g class="cls-14"><path class="cls-6" d="M97.47,44c-4.19-1.47-13.17,6.86-13.17,6.86-31-12-43.44,21.81-43.44,21.81C51.25,55.16,66.18,45.21,83.79,52.74a1.17,1.17,0,0,0,1.4-.19c1.69-1.73,6.48-6.25,10.93-6.94,5.53-.84,5.5,3.8,5.5,3.8A6,6,0,0,0,97.47,44Z"/></g><g class="cls-14"><path class="cls-6" d="M44.17,45.32a3.26,3.26,0,0,0-.78.83c4.6-3,13.77,5.64,13.77,5.64l1-1S48.72,41.92,44.17,45.32Z"/></g><path class="cls-15" d="M55.15,53.11S49.56,47.94,47,49.82s.07,11,.07,11A33.79,33.79,0,0,1,55.15,53.11Z"/><path class="cls-15" d="M88.26,53.11s5.58-5.17,8.1-3.29-.06,11-.06,11A34,34,0,0,0,88.26,53.11Z"/><path class="cls-8" d="M72,103.82h-.58c-8.44,0-15.56-1.42-21.18-4.22A24.71,24.71,0,0,1,40,90.53,16,16,0,0,1,38.2,78.11a57,57,0,0,1,4.7-12.18,71.88,71.88,0,0,1-1.81-9c-.87-6.75-.13-11.06,2.2-12.8,4.94-3.69,13.88,3.84,16,5.71a29.51,29.51,0,0,1,24.88,0c2.09-1.87,11-9.4,16-5.71,2.33,1.74,3.07,6,2.2,12.8a72.48,72.48,0,0,1-1.8,9,57.5,57.5,0,0,1,4.69,12.18,15.9,15.9,0,0,1-1.79,12.42A24.68,24.68,0,0,1,93.18,99.6C87.56,102.4,80.43,103.82,72,103.82Zm-.29-1.69H72c18.42,0,26.47-6.77,30-12.48a14.27,14.27,0,0,0,1.6-11.11,55.77,55.77,0,0,0-4.69-12.08.84.84,0,0,1-.09-.66c1.34-4.72,4-17.59.31-20.35s-11.48,3.4-14.21,6a.83.83,0,0,1-1,.15,26.89,26.89,0,0,0-12.16-2.83h-.12a27,27,0,0,0-12.16,2.83.84.84,0,0,1-1-.15c-2.72-2.58-10.59-8.68-14.2-6s-1,15.63.3,20.35a.84.84,0,0,1-.08.66,55.47,55.47,0,0,0-4.7,12.08,14.27,14.27,0,0,0,1.61,11.11c3.5,5.71,11.54,12.48,30,12.48Z"/><path class="cls-8" d="M43.8,66.88a.85.85,0,0,1-.73-1.27c6.55-11.43,15.32-15.4,15.69-15.56a.86.86,0,0,1,1.13.43.84.84,0,0,1-.43,1.11h0c-.09,0-8.66,3.94-14.92,14.86A.85.85,0,0,1,43.8,66.88Z"/><path class="cls-8" d="M34.09,94a2.23,2.23,0,0,1-.93-.5,4.68,4.68,0,0,1-.75-.79c-.12-.14-.21-.3-.32-.45s-.19-.31-.28-.47-.17-.32-.25-.49l-.23-.49a.87.87,0,1,1,1.58-.72.71.71,0,0,1,.08.34V91c0,.16,0,.31,0,.47l.06.47c0,.15.05.32.09.47a3.51,3.51,0,0,0,.32.89A2,2,0,0,0,34.09,94Z"/><path class="cls-8" d="M37.12,92a4.74,4.74,0,0,1-.78-.51,6.11,6.11,0,0,1-.72-.64,6.85,6.85,0,0,1-.62-.78,6.63,6.63,0,0,1-.5-.91v0a.88.88,0,0,1,1.6-.73,1,1,0,0,1,.08.4,4.19,4.19,0,0,0,0,.79,4.78,4.78,0,0,0,.17.82,4.48,4.48,0,0,0,.31.81A4.67,4.67,0,0,0,37.12,92Z"/><path class="cls-8" d="M90,150a12.68,12.68,0,0,1-1.85,0,11.26,11.26,0,0,1-1.82-.27,12,12,0,0,1-3.41-1.37,11.73,11.73,0,0,1-4.79-5.42,12.34,12.34,0,0,1-.6-1.74,13.58,13.58,0,0,1-.33-1.8,11.26,11.26,0,0,1,.2-3.66A9.71,9.71,0,0,1,78,134a10.06,10.06,0,0,1,.88-1.61,8.94,8.94,0,0,1,2.56-2.53.25.25,0,0,1,.32.07.24.24,0,0,1,0,.27h0A15.13,15.13,0,0,0,79.9,133a12.53,12.53,0,0,0-1.08,3.06,10.88,10.88,0,0,0-.24,3.22,10,10,0,0,0,.8,3.13,10.38,10.38,0,0,0,4.24,4.81,10.51,10.51,0,0,0,6.27,1.43.67.67,0,0,1,.73.61A.67.67,0,0,1,90,150Z"/><ellipse class="cls-5" cx="88.71" cy="146.05" rx="10.16" ry="9.65" transform="translate(-81.82 135.07) rotate(-55.04)"/><path class="cls-5" d="M89.85,155.91S76.41,158,73.19,154.43s-2.5-11.62,8.27-10.68S84.46,148.15,89.85,155.91Z"/><path class="cls-6" d="M91.28,147.43a18.51,18.51,0,0,1-2.62-.17,13.53,13.53,0,0,1-8.29-2.82,9.1,9.1,0,0,1-1-.93l-.06.18c-8.67.26-9.07,7.4-6.09,10.74s14,1.86,16.24,1.54l.21,0,.21,0h0l.65-.13a10.56,10.56,0,0,0,8-11.55C96.52,146,93.7,147.43,91.28,147.43Z"/><path class="cls-7" d="M89.64,155.94l.21,0h0Z"/><path class="cls-8" d="M89.65,156h0l.21,0,.12,0-.08-.16h-.07l-.2,0h0Z"/><path class="cls-8" d="M78.79,142.67c-.06.16-.12.32-.17.48a.78.78,0,0,0,.5,1,.85.85,0,0,0,1-.57l0-.1A4.71,4.71,0,0,1,78.79,142.67Z"/><path class="cls-8" d="M98.92,142.57a4.79,4.79,0,0,1-1.32,1.55,9.47,9.47,0,0,1-1.46,6.76A9.58,9.58,0,0,1,90.35,155a.85.85,0,0,0-.64,1,.77.77,0,0,0,.34.51.75.75,0,0,0,.59.09,11.39,11.39,0,0,0,8.51-13C99.09,143.23,99,142.9,98.92,142.57Z"/><path class="cls-8" d="M73.58,155.81c1.78,1.1,4.84,1.61,9.12,1.52a61.55,61.55,0,0,0,7.23-.61.86.86,0,0,0,.71-.93.75.75,0,0,0-.88-.68c-3.62.56-13.55,1.45-16-1.25a5.77,5.77,0,0,1-1.06-6c.92-2.05,3.24-3.23,6.53-3.33a.85.85,0,0,0,.81-.84.75.75,0,0,0-.78-.79c-5.35.16-7.31,2.79-8,4.34a7.44,7.44,0,0,0,1.3,7.78A4.8,4.8,0,0,0,73.58,155.81Z"/><path class="cls-8" d="M79.12,152.51a1.92,1.92,0,0,0-.84.45,4.21,4.21,0,0,0-.66.74c-.1.13-.18.28-.27.42s-.16.29-.23.44-.15.3-.21.46l-.19.46a.87.87,0,0,0,.46,1.09.78.78,0,0,0,1-.41.76.76,0,0,0,0-.33v0l0-.44v-.45c0-.14,0-.29,0-.43s0-.3.06-.44a3.32,3.32,0,0,1,.25-.83A1.66,1.66,0,0,1,79.12,152.51Z"/><path class="cls-8" d="M75.38,150.81a4.51,4.51,0,0,0-.7.47,5.91,5.91,0,0,0-.63.6,4.4,4.4,0,0,0-.53.73,4.8,4.8,0,0,0-.42.85v0a.87.87,0,0,0,.46,1.09.78.78,0,0,0,1.06-.41,1,1,0,0,0,0-.38,4.42,4.42,0,0,1,0-.73,3.87,3.87,0,0,1,.11-.76,4.22,4.22,0,0,1,.25-.76A4.14,4.14,0,0,1,75.38,150.81Z"/><path class="cls-8" d="M77.67,141.75l-.52.27a14.74,14.74,0,0,1-8.29,1.4l-.33,0a13.9,13.9,0,0,1-9.08-2.84,9.89,9.89,0,0,1-1.91-2c-.21-.14-.42-.28-.62-.43l.22.35a14.6,14.6,0,0,0,5.84,5,17.18,17.18,0,0,0,2.39,1,17.86,17.86,0,0,0,2.52.63A16.73,16.73,0,0,0,78,143.71l.36-.19A14.1,14.1,0,0,1,77.67,141.75Z"/><path class="cls-8" d="M66.53,83l0,.18c0,.07,0,.14.07.21s.11.29.18.44a6.34,6.34,0,0,0,.42.82A5.56,5.56,0,0,0,68.41,86a4.1,4.1,0,0,0,.73.5,3.7,3.7,0,0,0,.81.36,5.8,5.8,0,0,0,1.83.29,4.08,4.08,0,0,0,3.27-1.26,8.57,8.57,0,0,0,1.61-3.61h0a.21.21,0,0,1,.25-.15.22.22,0,0,1,.15.13,4.64,4.64,0,0,1,.21,1.16,6.7,6.7,0,0,1,0,1.18,5,5,0,0,1-.92,2.28,5.1,5.1,0,0,1-2,1.65,6.76,6.76,0,0,1-2.46.59,8.69,8.69,0,0,1-1.25,0,7.75,7.75,0,0,1-1.26-.23A6.36,6.36,0,0,1,67,87.68a7.39,7.39,0,0,1-1.7-1.92,9.69,9.69,0,0,1-.57-1.11c-.08-.2-.15-.39-.22-.59l-.09-.31-.09-.35a1.12,1.12,0,0,1,.86-1.31,1.11,1.11,0,0,1,1.29.77Z"/><path class="cls-8" d="M66.64,83.41l-.09.35c0,.1-.06.21-.1.31a4.79,4.79,0,0,1-.23.59,6.66,6.66,0,0,1-.6,1.11,6.33,6.33,0,0,1-3,2.45,7.19,7.19,0,0,1-1.27.33,8,8,0,0,1-2.49,0,5.91,5.91,0,0,1-2.39-.89,4.42,4.42,0,0,1-1.65-2.06,5,5,0,0,1-.29-2.43,5.61,5.61,0,0,1,.73-2.2.21.21,0,0,1,.29-.07.21.21,0,0,1,.1.17v0a9.05,9.05,0,0,0,.63,3.88,2.71,2.71,0,0,0,1.14,1.18,4.42,4.42,0,0,0,1.71.48,6.59,6.59,0,0,0,1.84-.1,4.46,4.46,0,0,0,.83-.26,4.88,4.88,0,0,0,.74-.42,4.66,4.66,0,0,0,1.19-1.27,6.63,6.63,0,0,0,.43-.79c.06-.14.12-.28.17-.42s0-.14.07-.2l0-.17,0-.1a1.12,1.12,0,0,1,1.38-.74A1.1,1.1,0,0,1,66.64,83.41Z"/><path class="cls-8" d="M58,87.28s.48,8.65,8,9.16,7.78-8.67,7.78-8.67-7.4,1.7-8.11-5.53C65.62,82.24,64.86,89.2,58,87.28Z"/><path class="cls-16" d="M60.48,93.75s3.63-8.12,12.59-2.56C73.07,91.19,69.09,100.9,60.48,93.75Z"/><path class="cls-8" d="M66.54,97.33l-.65,0c-6.53-.44-8.59-6.72-8.77-10a.86.86,0,0,1,.32-.73.93.93,0,0,1,.79-.16,5.08,5.08,0,0,0,4.32-.35,6.11,6.11,0,0,0,2.19-4,.89.89,0,0,1,.88-.77h0a.87.87,0,0,1,.87.78,5.22,5.22,0,0,0,2,4c2,1.47,5,.81,5.08.81a.87.87,0,0,1,.76.18.89.89,0,0,1,.32.7c0,.2-.2,5-3.23,7.76A7,7,0,0,1,66.54,97.33ZM59,88.4c.41,2.21,1.88,6.82,7,7.17a5.48,5.48,0,0,0,4.19-1.3,9.41,9.41,0,0,0,2.54-5.49,8.06,8.06,0,0,1-5.3-1.25,5.92,5.92,0,0,1-1.91-2.26A5.9,5.9,0,0,1,59,88.4Z"/><path class="cls-8" d="M70.88,78.76c-.66-2-5-2.1-5-2.1s-4.34-.13-5.11,1.81S63.23,83,65.7,83,71.53,80.75,70.88,78.76Z"/><ellipse class="cls-6" cx="64.6" cy="78.42" rx="1.93" ry="0.64" transform="translate(-2.19 1.86) rotate(-1.62)"/><ellipse class="cls-7" cx="78.66" cy="66.86" rx="3.74" ry="2.07" transform="translate(-18.34 31.51) rotate(-20.34)"/><ellipse class="cls-7" cx="55.99" cy="66.52" rx="2.07" ry="3.74" transform="translate(-27.34 91.36) rotate(-66.51)"/><path class="cls-9" d="M89.73,113.86s11-3.06,13.8-14.49-7-14.64-9.45-7.88-9.54,11.57-9.54,11.57S82.69,114.6,89.73,113.86Z"/><path class="cls-17" d="M98.22,108.7a19.23,19.23,0,0,0,5.31-9.33c2.78-11.43-7-14.64-9.45-7.88a22.4,22.4,0,0,1-4.33,6.87C90,101.54,91.36,107.28,98.22,108.7Z"/><path class="cls-8" d="M89.84,114.75a.9.9,0,0,1-.86-.65.88.88,0,0,1,.62-1.1c.1,0,10.44-3.08,13.06-13.84,1.43-5.88-.63-9.38-3.14-10.14-1.6-.48-3.64.19-4.6,2.77-2.57,6.94-9.58,11.8-9.87,12a.91.91,0,0,1-1.25-.23.89.89,0,0,1,.23-1.24h0c.07,0,6.84-4.75,9.21-11.15,1.16-3.13,4-4.72,6.8-3.86,3.29,1,6.06,5.25,4.36,12.26a20.69,20.69,0,0,1-8.24,12,21.3,21.3,0,0,1-6.08,3.09A.67.67,0,0,1,89.84,114.75Z"/><path class="cls-8" d="M97.59,91.64a2.11,2.11,0,0,1-.14-.94,4.14,4.14,0,0,1,.18-1,6.43,6.43,0,0,1,.35-.92c.07-.15.14-.3.22-.45l.24-.43a.8.8,0,0,1,1.07-.31.79.79,0,0,1,.31,1.07.73.73,0,0,1-.22.24h0l-.34.26-.33.27a5,5,0,0,0-.61.61,3.69,3.69,0,0,0-.48.71A1.9,1.9,0,0,0,97.59,91.64Z"/><path class="cls-8" d="M100.71,92.74a4.75,4.75,0,0,1-.06-.84,6.11,6.11,0,0,1,.09-.86,4.5,4.5,0,0,1,.24-.87,5.88,5.88,0,0,1,.39-.85v0a.8.8,0,0,1,1.08-.31.79.79,0,0,1,.31,1.07.81.81,0,0,1-.25.27,3.87,3.87,0,0,0-.56.44,4.52,4.52,0,0,0-.51.56A4.59,4.59,0,0,0,101,92,3.85,3.85,0,0,0,100.71,92.74Z"/><ellipse class="cls-18" cx="72.54" cy="29.58" rx="26.3" ry="26.14"/><g class="cls-19"><path class="cls-6" d="M85.71,40.42a17,17,0,0,1-30.86-9.74,16.78,16.78,0,0,1,4.46-11.4,16.65,16.65,0,0,0-3.14,9.77A17,17,0,0,0,85.71,40.42Z"/></g><path class="cls-20" d="M53.21,11.9a25.93,25.93,0,0,0-6.69,17.41A26.33,26.33,0,0,0,91,48.2q.49-.54,1-1.11A26.34,26.34,0,0,1,51.06,25.33,25.94,25.94,0,0,1,56.82,9,26.59,26.59,0,0,0,53.21,11.9Z"/><g class="cls-19"><path class="cls-6" d="M99.12,29.31A26,26,0,0,1,88.71,50.14,26,26,0,0,0,96.2,31.88,26.33,26.33,0,0,0,54,11.05,26.33,26.33,0,0,1,99.12,29.31Z"/></g><path class="cls-8" d="M72.82,56.53A27.22,27.22,0,1,1,100.2,29.31,27.34,27.34,0,0,1,72.82,56.53Zm0-52.27A25.06,25.06,0,1,0,98,29.31,25.16,25.16,0,0,0,72.82,4.26Z"/><ellipse class="cls-20" cx="72.82" cy="29.31" rx="17.45" ry="17.34"/><g class="cls-11"><path class="cls-8" d="M85.71,41a17.16,17.16,0,0,0,3.2-10A17.47,17.47,0,0,0,58.59,19.28a17.46,17.46,0,0,1,31.67,10A17.21,17.21,0,0,1,85.71,41Z"/></g><path class="cls-8" d="M41.91,17.31c-2.81,6.31-1.81,13.23-1.52,20.14-2.35-5.83-4-12.21-.1-17.91A12.25,12.25,0,0,1,41.91,17.31Z"/><path class="cls-8" d="M36.52,18.8c-2.37,4.76-1.27,10.08-.8,15.37-2.31-4.52-4-9.45-.6-13.7A8.56,8.56,0,0,1,36.52,18.8Z"/><path class="cls-8" d="M104.71,24.47c1.72,6.16.17,12.42-.78,18.74,2.57-5.08,4.63-10.75,1.91-16.49A11.55,11.55,0,0,0,104.71,24.47Z"/><path class="cls-8" d="M109.08,26.51c1.51,4.66,0,9.44-.89,14.25,2.39-3.88,4.33-8.21,1.9-12.55A8.29,8.29,0,0,0,109.08,26.51Z"/><path class="cls-8" d="M49,70.51a.17.17,0,0,1,0-.34,12.19,12.19,0,0,1,9.42,3.42.81.81,0,0,1-.37,1.34c-1.45.5-3.83,1.82-6.2,2.71-.32.11-.59-.24-.36-.47a23.86,23.86,0,0,1,3.31-2.62.59.59,0,0,0,.11-1A11.75,11.75,0,0,0,49,70.51Z"/><path class="cls-8" d="M84.93,71.36a.17.17,0,0,0,0-.34,12.11,12.11,0,0,0-9.42,3.42.8.8,0,0,0,.37,1.33c1.45.51,3.83,1.83,6.2,2.71.32.12.59-.24.36-.46a23.83,23.83,0,0,0-3.31-2.63.59.59,0,0,1-.11-1A11.75,11.75,0,0,1,84.93,71.36Z"/><path class="cls-21" d="M65,133.41A1.56,1.56,0,0,1,63.39,135H22a1.56,1.56,0,0,1-1.56-1.56v-4.67A1.56,1.56,0,0,1,22,127.19H63.39A1.56,1.56,0,0,1,65,128.74Z"/><path class="cls-22" d="M63.39,127.19H55.93a1.56,1.56,0,0,1,1.56,1.55v4.67A1.56,1.56,0,0,1,55.93,135h7.46A1.56,1.56,0,0,0,65,133.41v-4.67A1.56,1.56,0,0,0,63.39,127.19Z"/><path class="cls-23" d="M25.51,133.41v-4.67a1.56,1.56,0,0,1,1.56-1.55H22a1.56,1.56,0,0,0-1.56,1.55v4.67A1.56,1.56,0,0,0,22,135h5.11A1.56,1.56,0,0,1,25.51,133.41Z"/><path class="cls-8" d="M63.39,135.68H22a2.27,2.27,0,0,1-2.27-2.27v-4.67A2.27,2.27,0,0,1,22,126.48H63.39a2.27,2.27,0,0,1,2.28,2.26v4.67A2.28,2.28,0,0,1,63.39,135.68ZM22,127.9a.85.85,0,0,0-.85.84v4.67a.85.85,0,0,0,.85.85H63.39a.86.86,0,0,0,.86-.85v-4.67a.86.86,0,0,0-.86-.84Z"/><path class="cls-21" d="M58.6,125.71A1.56,1.56,0,0,1,57,127.27H15.61A1.56,1.56,0,0,1,14,125.71V121a1.56,1.56,0,0,1,1.57-1.55H57A1.55,1.55,0,0,1,58.6,121Z"/><path class="cls-22" d="M57,119.49H49.57A1.56,1.56,0,0,1,51.14,121v4.67a1.56,1.56,0,0,1-1.57,1.56H57a1.56,1.56,0,0,0,1.56-1.56V121A1.55,1.55,0,0,0,57,119.49Z"/><path class="cls-23" d="M19.15,125.71V121a1.56,1.56,0,0,1,1.57-1.55H15.61A1.56,1.56,0,0,0,14,121v4.67a1.56,1.56,0,0,0,1.57,1.56h5.11A1.56,1.56,0,0,1,19.15,125.71Z"/><path class="cls-8" d="M57,128H15.61a2.28,2.28,0,0,1-2.28-2.27V121a2.27,2.27,0,0,1,2.28-2.26H57A2.27,2.27,0,0,1,59.31,121v4.67A2.27,2.27,0,0,1,57,128ZM15.61,120.2a.86.86,0,0,0-.86.84v4.67a.86.86,0,0,0,.86.85H57a.85.85,0,0,0,.85-.85V121a.85.85,0,0,0-.85-.84Z"/><path class="cls-21" d="M55.46,117.8a1.56,1.56,0,0,1-1.56,1.56H12.47a1.56,1.56,0,0,1-1.57-1.56v-4.67a1.56,1.56,0,0,1,1.57-1.55H53.9a1.55,1.55,0,0,1,1.56,1.55Z"/><path class="cls-22" d="M53.9,111.58H46.43A1.56,1.56,0,0,1,48,113.13v4.67a1.56,1.56,0,0,1-1.57,1.56H53.9a1.56,1.56,0,0,0,1.56-1.56v-4.67A1.55,1.55,0,0,0,53.9,111.58Z"/><path class="cls-23" d="M16,117.8v-4.67a1.56,1.56,0,0,1,1.57-1.55H12.47a1.56,1.56,0,0,0-1.57,1.55v4.67a1.56,1.56,0,0,0,1.57,1.56h5.11A1.57,1.57,0,0,1,16,117.8Z"/><path class="cls-8" d="M53.9,120.06H12.47a2.27,2.27,0,0,1-2.28-2.26v-4.67a2.27,2.27,0,0,1,2.28-2.26H53.9a2.27,2.27,0,0,1,2.27,2.26v4.67A2.27,2.27,0,0,1,53.9,120.06Zm-41.43-7.78a.86.86,0,0,0-.86.85v4.67a.86.86,0,0,0,.86.85H53.9a.85.85,0,0,0,.85-.85v-4.67a.85.85,0,0,0-.85-.85Z"/><path class="cls-21" d="M53.13,149.36a1.56,1.56,0,0,1-1.56,1.56H10.14a1.56,1.56,0,0,1-1.57-1.56v-4.67a1.56,1.56,0,0,1,1.57-1.55H51.57a1.55,1.55,0,0,1,1.56,1.55Z"/><path class="cls-22" d="M51.57,143.14H44.1a1.56,1.56,0,0,1,1.57,1.55v4.67a1.56,1.56,0,0,1-1.57,1.56h7.47a1.56,1.56,0,0,0,1.56-1.56v-4.67A1.55,1.55,0,0,0,51.57,143.14Z"/><path class="cls-23" d="M13.68,149.36v-4.67a1.56,1.56,0,0,1,1.57-1.55H10.14a1.56,1.56,0,0,0-1.57,1.55v4.67a1.56,1.56,0,0,0,1.57,1.56h5.11A1.56,1.56,0,0,1,13.68,149.36Z"/><path class="cls-8" d="M51.57,151.62H10.14a2.27,2.27,0,0,1-2.28-2.26v-4.67a2.27,2.27,0,0,1,2.28-2.26H51.57a2.27,2.27,0,0,1,2.27,2.26v4.67A2.27,2.27,0,0,1,51.57,151.62Zm-41.43-7.78a.86.86,0,0,0-.86.85v4.67a.86.86,0,0,0,.86.85H51.57a.85.85,0,0,0,.85-.85v-4.67a.85.85,0,0,0-.85-.85Z"/><path class="cls-21" d="M46.78,141.66a1.56,1.56,0,0,1-1.57,1.56H3.78a1.56,1.56,0,0,1-1.56-1.56V137a1.55,1.55,0,0,1,1.56-1.55H45.21A1.56,1.56,0,0,1,46.78,137Z"/><path class="cls-22" d="M45.21,135.44H37.75A1.55,1.55,0,0,1,39.31,137v4.67a1.56,1.56,0,0,1-1.56,1.56h7.46a1.56,1.56,0,0,0,1.57-1.56V137A1.56,1.56,0,0,0,45.21,135.44Z"/><path class="cls-23" d="M7.33,141.66V137a1.55,1.55,0,0,1,1.56-1.55H3.78A1.55,1.55,0,0,0,2.22,137v4.67a1.56,1.56,0,0,0,1.56,1.56H8.89A1.56,1.56,0,0,1,7.33,141.66Z"/><path class="cls-8" d="M45.21,143.92H3.78a2.27,2.27,0,0,1-2.27-2.26V137a2.27,2.27,0,0,1,2.27-2.26H45.21A2.27,2.27,0,0,1,47.49,137v4.67A2.27,2.27,0,0,1,45.21,143.92ZM3.78,136.14a.85.85,0,0,0-.85.85v4.67a.85.85,0,0,0,.85.85H45.21a.85.85,0,0,0,.85-.85V137a.85.85,0,0,0-.85-.85Z"/><path class="cls-21" d="M50.47,133.75a1.55,1.55,0,0,1-1.56,1.55H7.48a1.56,1.56,0,0,1-1.57-1.55v-4.67a1.56,1.56,0,0,1,1.57-1.56H48.91a1.56,1.56,0,0,1,1.56,1.56Z"/><path class="cls-22" d="M48.91,127.52H41.44A1.56,1.56,0,0,1,43,129.08v4.67a1.56,1.56,0,0,1-1.57,1.55h7.47a1.55,1.55,0,0,0,1.56-1.55v-4.67A1.56,1.56,0,0,0,48.91,127.52Z"/><path class="cls-23" d="M11,133.75v-4.67a1.56,1.56,0,0,1,1.57-1.56H7.48a1.56,1.56,0,0,0-1.57,1.56v4.67a1.56,1.56,0,0,0,1.57,1.55h5.11A1.56,1.56,0,0,1,11,133.75Z"/><path class="cls-8" d="M48.91,136H7.48a2.27,2.27,0,0,1-2.28-2.26v-4.67a2.27,2.27,0,0,1,2.28-2.26H48.91a2.27,2.27,0,0,1,2.27,2.26v4.67A2.27,2.27,0,0,1,48.91,136ZM7.48,128.23a.86.86,0,0,0-.86.85v4.67a.86.86,0,0,0,.86.85H48.91a.85.85,0,0,0,.85-.85v-4.67a.85.85,0,0,0-.85-.85Z"/><path class="cls-8" d="M79.69,28.89l-3.45-3c-.41-.38-.56-.54-.62-.6a.29.29,0,0,1,0-.4.79.79,0,0,1,.61-.27.82.82,0,0,1,.46.13c.2.14.28.27.28.3s0,.11-.18.24l-.21.19.21.19.88.81.17.15.17-.15A1.85,1.85,0,0,0,78.74,25a2.05,2.05,0,0,0-1-1.51,2.68,2.68,0,0,0-3.51.47,1.85,1.85,0,0,0,0,2.46c.1.12.31.31.61.6H70l.28-.24,0,0,.17-.15.69-.6c.59-.5,1.06-.91,1.46-1.31l0,0,.09-.08v0a3.41,3.41,0,0,0,1-1.63,3.2,3.2,0,0,0-1.23-3.21A3.9,3.9,0,0,0,70.2,19a3.73,3.73,0,0,0-2.73,1.16,2.6,2.6,0,0,0-.72,2,2.7,2.7,0,0,0,1.08,1.91,2.77,2.77,0,0,0,.8.42,2.93,2.93,0,0,0,.93.16,2.31,2.31,0,0,0,.37,0l.14,0-5,4.34a4.23,4.23,0,0,0,2.83,7.46c1.27,0,2.79-.74,4.5-2.2,1.74,1.46,3.2,2.17,4.48,2.17a4.2,4.2,0,0,0,2.8-7.48Zm-8.45,4c-1.41,1.22-2.5,1.81-3.33,1.81a2.44,2.44,0,0,1-1.6-.54,2.55,2.55,0,0,1,0-4l1.9-1.65,3.16,4.28Zm7.26,1.23a2.4,2.4,0,0,1-1.61.55c-1.09,0-2.41-1-3.31-1.78l-.08-.06,3.15-4.25.26.24.17.15,0,0,1.34,1.16a2.55,2.55,0,0,1,0,4Zm-4-5.5-2,2.72-2-2.72ZM70,23.2l0-.24-.25,0h-.13a.87.87,0,0,1-.32-.06A.77.77,0,0,1,69,22.8a1.06,1.06,0,0,1-.44-.77,1,1,0,0,1,.28-.81,2,2,0,0,1,2.57-.2A1.63,1.63,0,0,1,72,22.65a1.55,1.55,0,0,1-.36.6l-1.45,1.26,0-.18Z"/><path class="cls-8" d="M73.05,35.91l-.65-.78-.66.78-.73.88L70,38h4.79l-1-1.2Zm-1.39,1.33.74-.88.73.88Z"/><path class="cls-8" d="M109.41,69.89a.75.75,0,0,1-.17-.74l1.37-4.36a11.27,11.27,0,0,1-1.34-6.88,11.49,11.49,0,1,1,5.57,11.25l-4.71,1a.69.69,0,0,1-.25,0A.72.72,0,0,1,109.41,69.89Zm6-2.19a9.95,9.95,0,1,0-4.6-9.61,9.78,9.78,0,0,0,1.31,6.23.77.77,0,0,1,.07.61l-1.08,3.43,3.73-.76a.7.7,0,0,1,.25,0A.76.76,0,0,1,115.4,67.7Z"/><path class="cls-24" d="M124.83,56.44h0a2.73,2.73,0,0,0-3.82-.07l-.18.15-.15-.17a2.71,2.71,0,0,0-3.79-.45h0a2.68,2.68,0,0,0-.26,3.79l.15.17,3.08,3.51a.72.72,0,0,0,1,.07l3.53-3.06.18-.15A2.68,2.68,0,0,0,124.83,56.44Z"/></g></svg>