<svg width="160" height="160" viewBox="0 0 160 160" fill="none" xmlns="http://www.w3.org/2000/svg">
<rect width="160" height="160" fill="#DDDDDD"/>
<g opacity="0.5">
<path d="M67.5 70C67.5 63.0964 73.0964 57.5 80 57.5C86.9036 57.5 92.5 63.0964 92.5 70C92.5 76.9036 86.9036 82.5 80 82.5C73.0964 82.5 67.5 76.9036 67.5 70ZM80 77.5C84.1421 77.5 87.5 74.1421 87.5 70C87.5 65.8579 84.1421 62.5 80 62.5C75.8579 62.5 72.5 65.8579 72.5 70C72.5 74.1421 75.8579 77.5 80 77.5Z" fill="#444444"/>
<path d="M65.8579 90.8579C62.1071 94.6086 60 99.6957 60 105H65C65 101.022 66.5804 97.2064 69.3934 94.3934C72.2064 91.5804 76.0218 90 80 90C83.9782 90 87.7936 91.5804 90.6066 94.3934C93.4196 97.2064 95 101.022 95 105H100C100 99.6957 97.8929 94.6086 94.1421 90.8579C90.3914 87.1071 85.3043 85 80 85C74.6957 85 69.6086 87.1071 65.8579 90.8579Z" fill="#444444"/>
</g>
</svg>
