<?xml version="1.0" encoding="utf-8"?>
<!-- Generator: Adobe Illustrator 23.0.2, SVG Export Plug-In . SVG Version: 6.00 Build 0)  -->
<svg version="1.1" id="圖層_1" xmlns="http://www.w3.org/2000/svg" xmlns:xlink="http://www.w3.org/1999/xlink" x="0px" y="0px"
	 viewBox="0 0 24 24" style="enable-background:new 0 0 24 24;" xml:space="preserve">
<style type="text/css">
	.st0{fill:#EFEFEF;}
</style>
<g>
	<path class="st0" d="M20,13.5H4c-0.8,0-1.5-0.7-1.5-1.5s0.7-1.5,1.5-1.5h16c0.8,0,1.5,0.7,1.5,1.5S20.8,13.5,20,13.5z"/>
</g>
<g>
	<path class="st0" d="M20,19.5H4c-0.8,0-1.5-0.7-1.5-1.5s0.7-1.5,1.5-1.5h16c0.8,0,1.5,0.7,1.5,1.5S20.8,19.5,20,19.5z"/>
</g>
<g>
	<path class="st0" d="M20,7.5H4C3.2,7.5,2.5,6.8,2.5,6S3.2,4.5,4,4.5h16c0.8,0,1.5,0.7,1.5,1.5S20.8,7.5,20,7.5z"/>
</g>
</svg>
