<?xml version="1.0" encoding="utf-8"?>
<!-- Generator: Adobe Illustrator 23.0.2, SVG Export Plug-In . SVG Version: 6.00 Build 0)  -->
<svg version="1.1" id="圖層_1" xmlns="http://www.w3.org/2000/svg" xmlns:xlink="http://www.w3.org/1999/xlink" x="0px" y="0px"
	 viewBox="0 0 24 24" style="enable-background:new 0 0 24 24;" xml:space="preserve">
<style type="text/css">
	.st0{fill:#EFEFEF;}
</style>
<g>
	<path class="st0" d="M20,11c-0.6,0-1,0.4-1,1v8c0,0.3-0.1,0.5-0.3,0.7S18.3,21,18,21H6c-0.3,0-0.5-0.1-0.7-0.3
		C5.1,20.5,5,20.3,5,20v-8c0-0.6-0.4-1-1-1s-1,0.4-1,1v8c0,0.8,0.3,1.6,0.9,2.1C4.4,22.7,5.2,23,6,23h12c0.8,0,1.6-0.3,2.1-0.9
		S21,20.8,21,20v-8C21,11.4,20.6,11,20,11z"/>
	<path class="st0" d="M8.7,6.7L11,4.4V15c0,0.6,0.4,1,1,1s1-0.4,1-1V4.4l2.3,2.3C15.5,6.9,15.7,7,16,7s0.5-0.1,0.7-0.3
		c0.4-0.4,0.4-1,0-1.4l-4-4c-0.1-0.1-0.2-0.2-0.3-0.2c-0.2-0.1-0.5-0.1-0.8,0c-0.1,0.1-0.2,0.1-0.3,0.2l-4,4c-0.4,0.4-0.4,1,0,1.4
		S8.3,7.1,8.7,6.7z"/>
</g>
</svg>
