<?xml version="1.0" encoding="utf-8"?>
<!-- Generator: Adobe Illustrator 24.0.2, SVG Export Plug-In . SVG Version: 6.00 Build 0)  -->
<svg version="1.1" id="圖層_1" xmlns="http://www.w3.org/2000/svg" xmlns:xlink="http://www.w3.org/1999/xlink" x="0px" y="0px"
	 viewBox="0 0 1440 480" style="enable-background:new 0 0 1440 480;" xml:space="preserve">
<style type="text/css">
	.st0{display:none;fill:#EEEEEE;}
	.st1{opacity:0.1;fill:#444444;enable-background:new    ;}
</style>
<rect class="st0" width="1440" height="480"/>
<path class="st1" d="M735.6,260h-31.1c-2.5,0-4.4-2-4.4-4.4v-31.1c0-2.5,2-4.4,4.4-4.4h31.1c2.5,0,4.4,2,4.4,4.4v31.1
	C740,258,738,260,735.6,260z M704.4,224.4v31.1h31.1v-31.1H704.4z M733.3,251.1h-26.7l6.7-8.9l2.2,2.2l6.7-8.9L733.3,251.1z
	 M712.2,237.8c-1.8,0-3.3-1.5-3.3-3.3s1.5-3.3,3.3-3.3s3.3,1.5,3.3,3.3S714.1,237.8,712.2,237.8z"/>
</svg>
