<svg width="144" height="144" viewBox="0 0 144 144" fill="none" xmlns="http://www.w3.org/2000/svg">
<rect width="144" height="144" fill="#EEEEEE"/>
<path opacity="0.1" d="M86 90H58C55.7909 90 54 88.2091 54 86V58C54 55.7909 55.7909 54 58 54H86C88.2091 54 90 55.7909 90 58V86C90 88.2091 88.2091 90 86 90ZM58 58V86H86V58H58ZM84 82H60L66 74L68 76L74 68L84 82ZM65 70C63.3431 70 62 68.6569 62 67C62 65.3431 63.3431 64 65 64C66.6569 64 68 65.3431 68 67C68 68.6569 66.6569 70 65 70Z" fill="#444444"/>
</svg>
