<?xml version="1.0" encoding="utf-8"?>
<!-- Generator: Adobe Illustrator 25.0.1, SVG Export Plug-In . SVG Version: 6.00 Build 0)  -->
<svg version="1.1" id="圖層_1" xmlns="http://www.w3.org/2000/svg" xmlns:xlink="http://www.w3.org/1999/xlink" x="0px" y="0px"
	 viewBox="0 0 178 37" style="enable-background:new 0 0 178 37;" xml:space="preserve">
<style type="text/css">
	.st0{fill:url(#SVGID_1_);}
	.st1{fill:url(#SVGID_2_);}
	.st2{fill:url(#SVGID_3_);}
	.st3{fill:url(#SVGID_4_);}
	.st4{fill:url(#SVGID_5_);}
	.st5{fill:url(#SVGID_6_);}
	.st6{fill:url(#SVGID_7_);}
	.st7{fill:url(#SVGID_8_);}
	.st8{fill:url(#SVGID_9_);}
	.st9{fill:url(#SVGID_10_);}
	.st10{fill:url(#SVGID_11_);}
	.st11{fill:url(#SVGID_12_);}
</style>
<g id="圖層_2_1_">
	<linearGradient id="SVGID_1_" gradientUnits="userSpaceOnUse" x1="50.1555" y1="9.8969" x2="50.1555" y2="29.6696">
		<stop  offset="0" style="stop-color:#FF4C94"/>
		<stop  offset="1" style="stop-color:#FF0066"/>
	</linearGradient>
	<path class="st0" d="M51.4,30.2c-0.1,0-0.2,0-0.3,0c-0.4-0.1-0.8-0.3-1-0.7c-2.4-3.3-4.7-6.4-6.8-9.1C43,20,42.9,19.6,43,19.2
		c0.1-0.4,0.3-0.8,0.7-1c0.3-0.2,0.6-0.3,1-0.3H45c0.4,0.1,0.8,0.3,1.1,0.6l2.4,3.1c0,0,0.1,0,0.1,0c0,0,0,0,0.1,0
		c2.1-1,4.1-2.4,5.8-4c1.5-1.4,2.7-3.1,3.5-5H40.4c-0.4,0-0.8-0.1-1-0.4c-0.3-0.3-0.4-0.6-0.4-1c0-0.4,0.2-0.7,0.4-1
		c0.3-0.3,0.7-0.4,1-0.4h19.5c0.4,0,0.7,0.2,1,0.4c0.3,0.3,0.4,0.6,0.4,1c0.1,0.9-0.1,1.8-0.4,2.6c-0.9,2.2-2.3,4.1-4,5.8
		c-1.9,1.9-4.2,3.4-6.6,4.6v0.1c1.2,1.7,2,2.8,2.4,3.3c0.2,0.4,0.3,0.8,0.2,1.2c-0.1,0.4-0.4,0.8-0.8,1C52,30.1,51.7,30.2,51.4,30.2
		z"/>
	<linearGradient id="SVGID_2_" gradientUnits="userSpaceOnUse" x1="50.152" y1="9.8969" x2="50.152" y2="29.6696">
		<stop  offset="0" style="stop-color:#FF4C94"/>
		<stop  offset="1" style="stop-color:#FF0066"/>
	</linearGradient>
	<path class="st1" d="M59.9,10.1c0.4,0,0.7,0.1,1,0.4c0.3,0.2,0.4,0.6,0.4,0.9c0,0.8-0.1,1.7-0.4,2.5c-0.9,2.2-2.3,4.1-4,5.8
		c-1.9,1.9-4.1,3.4-6.5,4.6c-0.1,0-0.1,0.1-0.1,0.2c0,0,0,0.1,0.1,0.1c1.2,1.7,2,2.8,2.4,3.3c0.2,0.3,0.3,0.7,0.2,1.1
		c-0.1,0.4-0.3,0.7-0.7,0.9C52,30,51.7,30,51.4,30h-0.3c-0.4-0.1-0.8-0.3-1-0.6c-2.4-3.3-4.6-6.4-6.8-9.2c-0.2-0.3-0.3-0.6-0.2-1
		c0.1-0.4,0.3-0.7,0.6-0.9c0.3-0.2,0.6-0.3,0.9-0.3c0.1,0,0.2,0,0.3,0c0.4,0.1,0.8,0.3,1,0.6l2.4,3.1c0,0.1,0.1,0.1,0.2,0.1
		c0.1,0,0.1,0,0.2,0c2.1-1,4.1-2.4,5.8-4c1.5-1.4,2.8-3.1,3.6-5c0-0.1,0-0.2-0.1-0.2H40.4c-0.4,0-0.7-0.1-1-0.4
		c-0.3-0.2-0.4-0.6-0.4-0.9c0-0.3,0.2-0.7,0.4-0.9c0.3-0.3,0.6-0.4,1-0.4h19.5 M59.9,9.9H40.4c-0.4,0-0.8,0.2-1.1,0.4
		c-0.6,0.6-0.6,1.5-0.1,2.1c0,0,0.1,0.1,0.1,0.1c0.3,0.3,0.7,0.5,1.1,0.5h17.3c-0.8,1.8-2,3.3-3.5,4.6c-1.7,1.6-3.7,3-5.8,4l0,0
		l-2.4-3.1c-0.3-0.4-0.7-0.6-1.2-0.7h-0.3c-0.4,0-0.7,0.1-1,0.3c-0.4,0.2-0.6,0.6-0.7,1c-0.1,0.4,0,0.9,0.3,1.2
		c2.1,2.7,4.4,5.8,6.8,9.1c0.2,0.4,0.6,0.6,1,0.7c0.1,0,0.2,0,0.4,0c0.4,0,0.7-0.1,1-0.3c0.4-0.2,0.7-0.6,0.8-1.1
		c0.1-0.5,0-0.9-0.3-1.3c-0.4-0.6-1.2-1.7-2.4-3.3c2.4-1.2,4.6-2.7,6.5-4.6c1.7-1.7,3.1-3.7,4-5.9c0.3-0.8,0.5-1.7,0.4-2.6
		c0-0.4-0.2-0.8-0.5-1.1c-0.3-0.3-0.7-0.5-1.1-0.4L59.9,9.9z"/>
	<linearGradient id="SVGID_3_" gradientUnits="userSpaceOnUse" x1="77.5188" y1="9.8969" x2="77.5188" y2="29.6696">
		<stop  offset="0" style="stop-color:#FF4C94"/>
		<stop  offset="1" style="stop-color:#FF0066"/>
	</linearGradient>
	<path class="st2" d="M87.6,29.5c-0.3,0-0.6-0.1-0.9-0.2c-0.4-0.2-0.7-0.6-0.8-1c-1.4-5.5-3.2-10.9-5.4-16.2
		c-0.1-0.4-0.1-0.8,0.1-1.1c0.2-0.4,0.5-0.6,0.9-0.7c0.2-0.1,0.4-0.1,0.6-0.1c0.2,0,0.5,0.1,0.7,0.2c0.4,0.2,0.7,0.5,0.9,0.9
		c2.3,5.3,4.1,10.8,5.6,16.4c0.1,0.4,0.1,0.8-0.2,1.2c-0.2,0.4-0.6,0.6-1.1,0.7C87.9,29.5,87.8,29.5,87.6,29.5z M67.3,29.2
		c-0.3,0-0.5-0.1-0.8-0.2c-0.8-0.3-1.1-1.3-0.8-2c0,0,0-0.1,0-0.1c2.6-4.8,4.3-10,5.1-15.3c0.1-0.4,0.3-0.8,0.6-1.1
		c0.3-0.2,0.7-0.4,1.1-0.4h0.2c0.4,0,0.8,0.2,1.1,0.5c0.3,0.3,0.4,0.7,0.4,1.1c-0.7,5.8-2.5,11.4-5.3,16.5c-0.2,0.4-0.6,0.7-1,0.8
		C67.7,29.1,67.5,29.2,67.3,29.2z"/>
	<linearGradient id="SVGID_4_" gradientUnits="userSpaceOnUse" x1="77.5152" y1="9.8969" x2="77.5152" y2="29.6696">
		<stop  offset="0" style="stop-color:#FF4C94"/>
		<stop  offset="1" style="stop-color:#FF0066"/>
	</linearGradient>
	<path class="st3" d="M82.1,10.2c0.2,0,0.5,0,0.7,0.1c0.4,0.2,0.6,0.4,0.8,0.8c2.3,5.3,4.1,10.8,5.6,16.4c0.1,0.4,0,0.8-0.2,1.1
		c-0.2,0.3-0.6,0.6-1,0.7l0,0c-0.1,0-0.2,0-0.4,0c-0.3,0-0.6-0.1-0.8-0.2c-0.4-0.2-0.6-0.5-0.7-0.9c-1.4-5.5-3.2-10.9-5.4-16.2
		c-0.1-0.3-0.1-0.7,0.1-1c0.2-0.3,0.5-0.6,0.8-0.7C81.8,10.2,82,10.2,82.1,10.2 M72.6,10.2h0.2c0.4,0,0.7,0.2,1,0.5
		c0.3,0.3,0.4,0.6,0.3,1c-0.7,5.8-2.5,11.4-5.3,16.4c-0.2,0.4-0.5,0.6-0.9,0.8c-0.2,0.1-0.3,0.1-0.5,0.1c-0.2,0-0.5-0.1-0.7-0.2
		c-0.4-0.2-0.6-0.5-0.8-0.8c-0.1-0.4-0.1-0.8,0.1-1.1c2.6-4.7,4.4-9.9,5.1-15.3c0-0.4,0.3-0.8,0.6-1C71.9,10.4,72.2,10.2,72.6,10.2
		 M82.1,9.9c-0.2,0-0.4,0-0.6,0.1c-0.4,0.1-0.8,0.4-1,0.8c-0.2,0.4-0.2,0.8-0.1,1.2c2.2,5.3,3.9,10.7,5.4,16.2
		c0.1,0.5,0.4,0.9,0.8,1.1c0.3,0.2,0.6,0.3,1,0.3c0.1,0,0.3,0,0.4,0l0,0c0.5-0.1,0.9-0.4,1.2-0.8c0.3-0.4,0.3-0.9,0.2-1.3
		c-1.5-5.6-3.4-11.1-5.6-16.4c-0.2-0.4-0.5-0.8-0.9-0.9C82.6,10,82.3,10,82.1,9.9L82.1,9.9z M72.6,9.9L72.6,9.9
		c-0.4,0-0.8,0.1-1.1,0.4c-0.4,0.3-0.6,0.7-0.7,1.1c-0.7,5.4-2.4,10.6-5,15.3c-0.2,0.4-0.3,0.9-0.1,1.3c0.1,0.4,0.5,0.8,0.9,1
		c0.3,0.1,0.5,0.2,0.8,0.2c0.2,0,0.4,0,0.6-0.1c0.4-0.1,0.8-0.4,1-0.8c2.8-5.1,4.7-10.7,5.4-16.5c0.1-0.4-0.1-0.9-0.4-1.2
		c-0.3-0.3-0.7-0.5-1.2-0.6L72.6,9.9z"/>
	<linearGradient id="SVGID_5_" gradientUnits="userSpaceOnUse" x1="104.5261" y1="9.8969" x2="104.5261" y2="29.6696">
		<stop  offset="0" style="stop-color:#FF4C94"/>
		<stop  offset="1" style="stop-color:#FF0066"/>
	</linearGradient>
	<path class="st4" d="M99.2,30.3c-0.4,0-0.7-0.1-1-0.3c-0.3-0.2-0.5-0.6-0.6-0.9c-0.1-0.4,0-0.7,0.3-1c0.2-0.3,0.6-0.5,1-0.5
		c7.8-0.7,12.3-3.5,13.2-8.4c0,0-0.1,0-0.1,0H95c-0.4,0-0.7-0.1-1-0.4c-0.3-0.3-0.4-0.6-0.4-1c0-0.4,0.2-0.7,0.4-1
		c0.3-0.3,0.6-0.4,1-0.4h18.8c0.5,0,0.9,0.2,1.2,0.5c0.3,0.3,0.5,0.7,0.5,1.2c-0.4,7.2-5.8,11.4-16.1,12.3L99.2,30.3z M97,12.3
		c-0.4,0-0.7-0.1-1-0.4c-0.3-0.3-0.4-0.6-0.4-1c0-0.4,0.1-0.7,0.4-1c0.3-0.3,0.6-0.4,1-0.4h15.2c0.4,0,0.7,0.1,1,0.4
		c0.3,0.3,0.4,0.6,0.4,1c0,0.4-0.2,0.7-0.4,1c-0.3,0.3-0.6,0.4-1,0.4H97z"/>
	<linearGradient id="SVGID_6_" gradientUnits="userSpaceOnUse" x1="104.4773" y1="9.8969" x2="104.4773" y2="29.6696">
		<stop  offset="0" style="stop-color:#FF4C94"/>
		<stop  offset="1" style="stop-color:#FF0066"/>
	</linearGradient>
	<path class="st5" d="M112.2,9.7c0.4,0,0.7,0.1,0.9,0.4c0.2,0.2,0.4,0.5,0.4,0.9c0,0.3-0.1,0.7-0.4,0.9c-0.3,0.2-0.6,0.4-0.9,0.4H97
		c-0.4,0-0.7-0.1-1-0.4c-0.3-0.2-0.4-0.6-0.4-0.9c0-0.3,0.1-0.6,0.4-0.9c0.3-0.3,0.6-0.4,1-0.4H112.2 M113.7,16.4
		c0.4,0,0.8,0.2,1.1,0.5c0.3,0.3,0.5,0.7,0.4,1.1c-0.4,7.2-5.8,11.3-16,12.2h-0.1c-0.3,0-0.7-0.1-0.9-0.3c-0.3-0.2-0.5-0.5-0.6-0.9
		c-0.1-0.3,0-0.7,0.2-0.9c0.2-0.3,0.5-0.4,0.9-0.4c7.9-0.7,12.4-3.5,13.3-8.5c0,0,0-0.1-0.1-0.1c0,0-0.1-0.1-0.2,0h-17
		c-0.3,0-0.7-0.1-0.9-0.3c-0.5-0.5-0.5-1.2-0.1-1.7c0,0,0,0,0.1-0.1c0.2-0.2,0.6-0.4,0.9-0.4L113.7,16.4 M112.2,9.5H97
		c-0.4,0-0.8,0.2-1.1,0.4c-0.6,0.5-0.6,1.4-0.1,2c0,0,0.1,0.1,0.1,0.1c0.3,0.3,0.7,0.4,1.1,0.4h15.2c0.4,0,0.8-0.2,1.1-0.4
		c0.6-0.5,0.6-1.4,0.1-2c0,0-0.1-0.1-0.1-0.1C113,9.6,112.6,9.5,112.2,9.5L112.2,9.5z M113.8,16.3H94.9c-0.4,0-0.8,0.1-1.1,0.4
		c-0.3,0.3-0.5,0.7-0.5,1.1c0,0.4,0.2,0.8,0.5,1.1c0.3,0.3,0.7,0.4,1.1,0.4h17c-1,4.8-5.3,7.5-13,8.1c-0.4,0-0.8,0.2-1,0.5
		c-0.3,0.3-0.4,0.7-0.3,1.1c0.1,0.4,0.3,0.8,0.7,1c0.3,0.2,0.7,0.4,1.1,0.3h0.1c10.3-0.9,15.8-5.1,16.2-12.4c0-0.5-0.1-1-0.5-1.3
		C114.8,16.4,114.3,16.2,113.8,16.3L113.8,16.3z"/>
	<linearGradient id="SVGID_7_" gradientUnits="userSpaceOnUse" x1="132.9763" y1="9.8969" x2="132.9763" y2="29.6696">
		<stop  offset="0" style="stop-color:#FF4C94"/>
		<stop  offset="1" style="stop-color:#FF0066"/>
	</linearGradient>
	<path class="st6" d="M123.8,30.2c-0.4,0-0.7-0.1-1-0.3c-0.3-0.2-0.6-0.6-0.6-1c-0.1-0.4,0-0.8,0.3-1.1c0.2-0.3,0.6-0.5,1-0.5
		c5.1-0.6,9-1.9,11.5-3.8s4.3-5.1,5.3-9.4c0.1-0.4,0.3-0.7,0.7-1c0.2-0.2,0.5-0.3,0.9-0.3c0.5,0,1,0.2,1.3,0.6
		c0.2,0.3,0.3,0.7,0.2,1.1c-1.1,4.9-3.2,8.6-6.2,11.1s-7.4,4-13.1,4.6L123.8,30.2z M129.1,19.8h-0.3c-1.6-0.3-3.7-0.7-6.4-1.2
		c-0.4-0.1-0.8-0.3-1-0.6c-0.2-0.3-0.3-0.7-0.2-1.1c0.1-0.4,0.3-0.7,0.7-0.9c0.2-0.2,0.5-0.3,0.8-0.3h0.3c2.7,0.5,4.8,0.8,6.4,1.2
		c0.4,0.1,0.7,0.3,0.9,0.6c0.2,0.3,0.3,0.7,0.2,1.1c-0.1,0.4-0.3,0.7-0.6,0.9C129.6,19.7,129.3,19.8,129.1,19.8z M130.6,13.4
		c-0.1,0-0.2,0-0.3,0c-2.4-0.4-4.7-0.8-6.7-1.2c-0.4-0.1-0.8-0.3-1-0.6c-0.2-0.3-0.3-0.7-0.2-1.1c0.1-0.4,0.3-0.7,0.6-0.9
		c0.2-0.2,0.5-0.3,0.8-0.3c0.1,0,0.2,0,0.3,0c1.4,0.2,3.6,0.6,6.7,1.2c0.4,0.1,0.8,0.3,1,0.6c0.2,0.3,0.3,0.7,0.2,1.1
		c-0.1,0.4-0.3,0.7-0.7,0.9C131.2,13.3,130.9,13.4,130.6,13.4z M139.6,11.9c-0.2,0-0.3,0-0.5-0.1c-0.3-0.1-0.6-0.3-0.8-0.6l-1.1-1.9
		c-0.2-0.3-0.2-0.6-0.1-0.9c0.1-0.3,0.3-0.6,0.6-0.7c0.2-0.1,0.4-0.1,0.6-0.1c0.5,0,0.9,0.2,1.1,0.6l1.1,2c0.2,0.3,0.2,0.7,0.1,1
		c-0.1,0.3-0.3,0.6-0.7,0.7C139.9,11.9,139.7,11.9,139.6,11.9z M143.6,11.6c-0.2,0-0.3,0-0.4-0.1c-0.3-0.1-0.6-0.3-0.8-0.6
		c-0.2-0.4-0.6-1.1-1.1-2C141,8.6,141,8.3,141.1,8c0.1-0.3,0.3-0.6,0.6-0.7c0.2-0.1,0.4-0.1,0.6-0.1c0.1,0,0.3,0,0.4,0
		c0.3,0.1,0.6,0.3,0.8,0.6l1.2,2c0.2,0.3,0.2,0.7,0.1,1c-0.1,0.3-0.4,0.6-0.7,0.7C144,11.6,143.8,11.6,143.6,11.6L143.6,11.6z"/>
	<linearGradient id="SVGID_8_" gradientUnits="userSpaceOnUse" x1="132.9968" y1="9.8969" x2="132.9968" y2="29.6696">
		<stop  offset="0" style="stop-color:#FF4C94"/>
		<stop  offset="1" style="stop-color:#FF0066"/>
	</linearGradient>
	<path class="st7" d="M142.4,7.3c0.1,0,0.2,0,0.4,0.1c0.3,0.1,0.6,0.3,0.7,0.6l1.2,2c0.2,0.3,0.2,0.6,0.1,0.9
		c-0.1,0.3-0.3,0.5-0.6,0.6c-0.2,0.1-0.3,0.1-0.5,0.1c-0.1,0-0.3,0-0.4-0.1c-0.3-0.1-0.6-0.3-0.7-0.6c-0.2-0.4-0.6-1.1-1.1-2
		c-0.1-0.3-0.2-0.6-0.1-0.8c0.1-0.3,0.3-0.5,0.6-0.6C142,7.3,142.2,7.2,142.4,7.3 M138.4,7.6c0.1,0,0.2,0,0.4,0.1
		c0.3,0.1,0.5,0.3,0.7,0.5l1.1,1.9c0.1,0.3,0.2,0.6,0.1,0.9c-0.1,0.3-0.3,0.5-0.6,0.6c-0.2,0.1-0.3,0.1-0.5,0.1
		c-0.1,0-0.3,0-0.4-0.1c-0.3-0.1-0.5-0.3-0.7-0.5c-0.6-1.1-1-1.7-1.1-1.9c-0.1-0.2-0.2-0.5-0.1-0.8c0.1-0.3,0.3-0.5,0.6-0.6
		C137.9,7.7,138.1,7.6,138.4,7.6 M123.8,9.4h0.3c1.4,0.2,3.6,0.6,6.8,1.2c0.4,0.1,0.7,0.3,0.9,0.5c0.2,0.3,0.3,0.7,0.2,1
		c-0.1,0.4-0.3,0.7-0.6,0.8c-0.2,0.1-0.5,0.2-0.8,0.2h-0.3c-2.4-0.4-4.6-0.8-6.7-1.2c-0.4-0.1-0.7-0.3-0.9-0.5
		c-0.2-0.3-0.3-0.7-0.2-1c0.1-0.4,0.3-0.7,0.6-0.9C123.3,9.5,123.6,9.4,123.8,9.4 M141.8,12.9h0.3c0.4,0.1,0.7,0.3,0.9,0.6
		c0.2,0.3,0.3,0.6,0.2,1c-1.1,4.9-3.2,8.6-6.2,11s-7.3,3.9-13,4.5h-0.2c-0.3,0-0.6-0.1-0.9-0.3c-0.3-0.2-0.5-0.5-0.6-0.9
		c-0.1-0.4,0-0.7,0.3-1c0.2-0.3,0.5-0.5,0.9-0.5c5.1-0.6,9-1.9,11.5-3.9s4.3-5.2,5.3-9.5c0.1-0.4,0.3-0.7,0.6-0.9
		C141.3,12.9,141.5,12.9,141.8,12.9 M122.7,15.9c0.1,0,0.2,0,0.3,0c2.6,0.5,4.8,0.8,6.4,1.2c0.4,0.1,0.7,0.3,0.9,0.5
		c0.4,0.6,0.2,1.4-0.4,1.8c0,0,0,0,0,0c-0.2,0.1-0.5,0.2-0.8,0.2c-0.1,0-0.2,0-0.3,0c-1.6-0.3-3.8-0.7-6.4-1.2
		c-0.4-0.1-0.7-0.3-0.9-0.5c-0.2-0.3-0.3-0.6-0.2-1c0.1-0.3,0.3-0.7,0.6-0.8C122.1,15.9,122.4,15.8,122.7,15.9 M142.4,6.9L142.4,6.9
		c-0.2,0-0.5,0.1-0.7,0.2c-0.3,0.1-0.6,0.4-0.7,0.8c-0.1,0.3-0.1,0.7,0.1,1c0.5,0.9,0.9,1.6,1.1,2c0.2,0.3,0.5,0.6,0.9,0.7
		c0.2,0,0.3,0.1,0.5,0.1c0.2,0,0.4,0,0.6-0.1c0.3-0.2,0.6-0.4,0.7-0.8c0.1-0.3,0.1-0.7-0.1-1l-1.2-2c-0.2-0.3-0.5-0.6-0.9-0.7
		C142.7,7,142.5,7,142.4,6.9L142.4,6.9z M138.4,7.3c-0.2,0-0.5,0.1-0.7,0.1c-0.3,0.2-0.6,0.4-0.7,0.8c-0.1,0.3-0.1,0.7,0.1,1
		c0.1,0.2,0.5,0.8,1.1,1.9c0.2,0.3,0.5,0.6,0.8,0.7c0.2,0.1,0.3,0.1,0.5,0.1c0.2,0,0.4,0,0.6-0.1c0.4-0.1,0.6-0.4,0.7-0.8
		c0.1-0.3,0.1-0.7-0.1-1.1c-0.1-0.2-0.5-0.9-1.1-2c-0.2-0.3-0.5-0.5-0.8-0.6C138.7,7.3,138.5,7.3,138.4,7.3L138.4,7.3z M123.9,9.1
		L123.9,9.1c-0.3,0-0.6,0.1-0.9,0.3c-0.4,0.2-0.6,0.6-0.7,1c-0.1,0.4,0,0.8,0.3,1.2c0.2,0.3,0.6,0.6,1,0.6c2.1,0.3,4.3,0.7,6.7,1.2
		c0.1,0,0.2,0,0.3,0c0.3,0,0.6-0.1,0.9-0.3c0.4-0.2,0.6-0.6,0.7-1c0.1-0.4,0-0.8-0.3-1.2c-0.3-0.3-0.6-0.6-1.1-0.6
		c-3.2-0.6-5.4-1-6.8-1.2C124.1,9.1,124,9.1,123.9,9.1L123.9,9.1z M141.8,12.6c-0.3,0-0.6,0.1-0.9,0.3c-0.4,0.2-0.6,0.6-0.7,1
		c-1,4.2-2.7,7.4-5.2,9.4s-6.4,3.3-11.4,3.8c-0.4,0-0.8,0.3-1.1,0.6c-0.3,0.3-0.4,0.7-0.3,1.2c0.1,0.4,0.3,0.8,0.7,1.1
		c0.3,0.2,0.7,0.4,1.1,0.3h0.2c5.7-0.6,10.1-2.2,13.2-4.6s5.1-6.2,6.2-11.1c0.1-0.4,0-0.9-0.3-1.2c-0.3-0.3-0.6-0.6-1.1-0.7
		C142,12.6,141.9,12.6,141.8,12.6L141.8,12.6z M122.7,15.6L122.7,15.6c-0.3,0-0.6,0.1-0.9,0.3c-0.4,0.2-0.6,0.6-0.7,1
		c-0.1,0.4,0,0.8,0.3,1.2c0.2,0.3,0.6,0.6,1,0.6c2.6,0.5,4.8,0.9,6.4,1.2c0.1,0,0.2,0,0.3,0c0.3,0,0.6-0.1,0.9-0.3
		c0.4-0.2,0.6-0.6,0.7-1c0.1-0.4,0-0.8-0.2-1.2c-0.2-0.3-0.6-0.6-1-0.6c-1.6-0.3-3.8-0.7-6.4-1.2C122.8,15.6,122.7,15.6,122.7,15.6
		L122.7,15.6z"/>
	<linearGradient id="SVGID_9_" gradientUnits="userSpaceOnUse" x1="158.9554" y1="9.8969" x2="158.9554" y2="29.6696">
		<stop  offset="0" style="stop-color:#FF4C94"/>
		<stop  offset="1" style="stop-color:#FF0066"/>
	</linearGradient>
	<path class="st8" d="M157.9,30.4c-0.3,0-0.6-0.1-0.9-0.3c-0.4-0.2-0.6-0.6-0.7-1l-1.7-9c0-0.1,0-0.1-0.1-0.1l-3.6,0.7
		c-0.1,0-0.2,0-0.3,0c-0.3,0-0.6-0.1-0.8-0.2c-0.3-0.2-0.6-0.5-0.6-0.9c-0.1-0.4,0-0.8,0.2-1.1c0.2-0.3,0.6-0.5,0.9-0.6l3.6-0.7
		c0.1,0,0.1,0,0.1,0l-0.5-2.8c-0.1-0.4,0-0.8,0.3-1.1c0.2-0.3,0.6-0.5,1-0.6c0.1,0,0.2,0,0.3,0c0.3,0,0.6,0.1,0.9,0.3
		c0.3,0.2,0.6,0.6,0.6,1l0.5,2.6c0,0.1,0.1,0.1,0.1,0.1l9.6-1.8h0.3c0.3,0,0.6,0.1,0.8,0.2c0.3,0.2,0.5,0.5,0.6,0.9
		c0.2,0.8,0.2,1.7-0.1,2.5c-0.7,2.1-1.9,4.1-3.5,5.6c-0.3,0.3-0.7,0.5-1.1,0.5c-0.4,0-0.8-0.1-1.1-0.4c-0.3-0.2-0.5-0.6-0.5-1
		c0-0.4,0.1-0.7,0.4-1c1.2-1.2,2.2-2.7,2.8-4.3l-7.6,1.5c-0.1,0-0.1,0-0.1,0l1.7,9.1c0.1,0.4,0,0.8-0.2,1.1c-0.2,0.3-0.6,0.5-1,0.6
		L157.9,30.4z"/>
	<linearGradient id="SVGID_10_" gradientUnits="userSpaceOnUse" x1="159.0445" y1="9.8969" x2="159.0445" y2="29.6696">
		<stop  offset="0" style="stop-color:#FF4C94"/>
		<stop  offset="1" style="stop-color:#FF0066"/>
	</linearGradient>
	<path class="st9" d="M155.2,12.9c0.3,0,0.6,0.1,0.8,0.2c0.3,0.2,0.5,0.5,0.6,0.9l0.5,2.6c0,0.1,0.1,0.2,0.2,0.2h0.1l9.5-1.8h0.3
		c0.3,0,0.5,0.1,0.7,0.2c0.3,0.2,0.5,0.5,0.6,0.8c0.2,0.8,0.2,1.7-0.1,2.5c-0.7,2.1-1.9,4-3.4,5.6c-0.3,0.3-0.6,0.4-1,0.4
		c-0.4,0-0.8-0.1-1.1-0.4c-0.3-0.2-0.4-0.5-0.4-0.9c0-0.3,0.1-0.7,0.4-0.9c1.2-1.3,2.2-2.7,2.9-4.4c0,0,0-0.1,0-0.1c0,0,0-0.1-0.1,0
		l0,0l-7.6,1.5c-0.2,0-0.2,0.1-0.2,0.3l1.7,9c0.1,0.3,0,0.7-0.2,1c-0.2,0.3-0.6,0.5-1,0.6H158c-0.3,0-0.6-0.1-0.8-0.2
		c-0.3-0.2-0.5-0.5-0.6-0.9l-1.7-9c0-0.1-0.1-0.2-0.2-0.2h-0.1l-3.6,0.8h-0.3c-0.3,0-0.5-0.1-0.7-0.2c-0.3-0.2-0.5-0.5-0.6-0.8
		c-0.1-0.3,0-0.7,0.2-1c0.2-0.3,0.5-0.5,0.9-0.5l3.6-0.7c0.2,0,0.2-0.1,0.2-0.3l-0.5-2.7c-0.1-0.4,0-0.7,0.2-1
		c0.2-0.3,0.6-0.5,1-0.6L155.2,12.9 M155.3,12.6c-0.1,0-0.2,0-0.3,0c-0.4,0.1-0.9,0.3-1.1,0.7c-0.3,0.4-0.4,0.8-0.3,1.2l0.5,2.7
		l-3.6,0.7c-0.4,0.1-0.8,0.3-1,0.6c-0.3,0.3-0.3,0.8-0.2,1.2c0.1,0.4,0.3,0.7,0.7,1c0.3,0.2,0.6,0.3,0.9,0.2h0.3l3.6-0.7l1.7,8.9
		c0.1,0.4,0.3,0.8,0.7,1.1c0.3,0.2,0.6,0.3,1,0.3c0.1,0,0.2,0,0.3,0c0.4-0.1,0.8-0.3,1.1-0.7c0.3-0.4,0.4-0.8,0.3-1.2l-1.7-9
		l7.4-1.4c-0.6,1.5-1.6,2.9-2.7,4.1c-0.3,0.3-0.5,0.7-0.4,1.1c0,0.4,0.2,0.8,0.5,1c0.3,0.3,0.8,0.4,1.2,0.4c0.4,0,0.9-0.2,1.2-0.5
		c1.6-1.6,2.8-3.6,3.5-5.8c0.3-0.8,0.3-1.7,0.1-2.6c-0.2-0.7-0.8-1.2-1.5-1.2h-0.3l-9.5,1.9l-0.5-2.6c-0.1-0.4-0.3-0.8-0.7-1.1
		c-0.3-0.2-0.6-0.3-1-0.3L155.3,12.6z"/>
</g>
<g id="圖層_4">
	
		<linearGradient id="SVGID_11_" gradientUnits="userSpaceOnUse" x1="7.8454" y1="30.2313" x2="25.1054" y2="0.7613" gradientTransform="matrix(1 0 0 -1 0 37.8898)">
		<stop  offset="0" style="stop-color:#FF4C94"/>
		<stop  offset="1" style="stop-color:#FF0066"/>
	</linearGradient>
	<path class="st10" d="M31.3,19.2l-6.7-5.8c-0.8-0.7-1.1-1-1.2-1.2c-0.2-0.2-0.2-0.6,0-0.8c0.5-0.6,1.4-0.7,2.1-0.3
		c0.4,0.3,0.5,0.5,0.5,0.6S26,12,25.7,12.3l-0.4,0.4l0.4,0.4l1.7,1.6l0.3,0.3l0.3-0.3c0.9-0.7,1.4-1.8,1.4-3c-0.1-1.2-0.9-2.3-1.9-3
		c-0.9-0.6-1.9-0.9-2.9-0.9c-1.5,0-2.9,0.6-3.9,1.8c-1.2,1.4-1.1,3.5,0.1,4.8c0.2,0.2,0.6,0.6,1.2,1.1h-9.5l0.5-0.5l0,0l0.3-0.3
		l1.3-1.2c1.1-1,2-1.8,2.8-2.6l0.1-0.1l0.2-0.1l0,0c1-0.8,1.7-2,2-3.2c0.5-2.4-0.5-4.8-2.4-6.3c-1.3-1-2.8-1.5-4.4-1.5
		c-2,0-3.9,0.8-5.3,2.2c-1,1.1-1.5,2.5-1.4,3.9C6.4,7.6,7.1,9,8.3,9.9c0.5,0.4,1,0.6,1.5,0.8c0.6,0.2,1.2,0.3,1.8,0.3
		c0.2,0,0.5,0,0.7-0.1h0.3L3,19.3c-3.5,2.8-4,7.9-1.2,11.4c0.4,0.4,0.7,0.8,1.2,1.2c1.5,1.3,3.5,2,5.5,1.9c2.5,0,5.4-1.4,8.7-4.3
		c3.4,2.8,6.2,4.2,8.7,4.2c2,0,4-0.7,5.5-2c3.5-2.8,3.9-7.9,1.1-11.4C32.1,19.9,31.7,19.5,31.3,19.2L31.3,19.2z M14.9,27.1
		c-2.7,2.4-4.8,3.5-6.4,3.5c-1.1,0-2.2-0.3-3.1-1c-2.2-1.7-2.5-4.9-0.8-7c0.2-0.3,0.5-0.5,0.8-0.8l3.7-3.2l6.1,8.3
		C15.1,26.9,15,27,14.9,27.1z M29,29.4c-0.9,0.7-2,1.1-3.1,1.1c-2.1,0-4.7-2-6.4-3.5l-0.1-0.1l6.1-8.3l0.5,0.5l0.3,0.3l0,0l2.6,2.3
		c2.2,1.7,2.6,4.8,0.9,7C29.5,29,29.2,29.2,29,29.4L29,29.4z M21.2,18.7L17.3,24l-3.9-5.3L21.2,18.7z M12.5,8.1l-0.1-0.5l-0.5,0.1
		h-0.2c-0.2,0-0.4,0-0.6-0.1c-0.2-0.1-0.4-0.2-0.5-0.3C10,7,9.7,6.5,9.7,5.9c-0.1-0.6,0.1-1.2,0.6-1.6c0.7-0.7,1.7-1.1,2.7-1.1
		c0.8,0,1.6,0.3,2.3,0.8c1,0.7,1.4,2,1.2,3.2c-0.1,0.4-0.4,0.8-0.7,1.2l-2.8,2.5l-0.1-0.4L12.5,8.1z"/>
	
		<linearGradient id="SVGID_12_" gradientUnits="userSpaceOnUse" x1="2.0009" y1="26.7986" x2="19.2609" y2="-2.6714" gradientTransform="matrix(1 0 0 -1 0 37.8898)">
		<stop  offset="0" style="stop-color:#FF4C94"/>
		<stop  offset="1" style="stop-color:#FF0066"/>
	</linearGradient>
	<path class="st11" d="M18.4,32.9l-1.3-1.5l-1.3,1.5l-1.4,1.7l-2,2.3h9.3l-1.9-2.3L18.4,32.9z M15.7,35.5l1.4-1.7l1.4,1.7H15.7z"/>
</g>
</svg>
