<?xml version="1.0" encoding="utf-8"?>
<!-- Generator: Adobe Illustrator 26.0.3, SVG Export Plug-In . SVG Version: 6.00 Build 0)  -->
<svg version="1.1" id="圖層_1" xmlns="http://www.w3.org/2000/svg" xmlns:xlink="http://www.w3.org/1999/xlink" x="0px" y="0px"
	 viewBox="0 0 178 37" style="enable-background:new 0 0 178 37;" xml:space="preserve">
<style type="text/css">
	.st0{fill:url(#SVGID_1_);}
	.st1{fill:url(#SVGID_00000134216684813147402460000007386876224306884797_);}
	.st2{fill:#FFFFFF;}
	.st3{fill:#717071;}
	.st4{fill:#3E3A39;}
	.st5{fill:url(#SVGID_00000047023268148155764100000008459635685145898164_);}
	.st6{fill:url(#SVGID_00000172437574727476099360000000537760447810101909_);}
	.st7{fill:url(#SVGID_00000154392803117429583470000011970891074762473641_);}
	.st8{fill:url(#SVGID_00000181069399163740478250000018096484809241829772_);}
	.st9{fill:url(#SVGID_00000017495565032458357140000013553069630254127037_);}
	.st10{fill:url(#SVGID_00000174576481506591145290000016688766825746180244_);}
	.st11{fill:url(#SVGID_00000168838192965087775710000003340737122245047996_);}
	.st12{fill:url(#SVGID_00000124146597536441194070000002233148278752398729_);}
</style>
<g>
	<linearGradient id="SVGID_1_" gradientUnits="userSpaceOnUse" x1="-2.0061" y1="-3.8113" x2="40.4701" y2="42.8553">
		<stop  offset="0" style="stop-color:#D4B863"/>
		<stop  offset="0.1566" style="stop-color:#F4E540"/>
		<stop  offset="0.495" style="stop-color:#E4A54C"/>
		<stop  offset="0.6993" style="stop-color:#413932"/>
		<stop  offset="1" style="stop-color:#73684B"/>
	</linearGradient>
	<path class="st0" d="M32.1,5.8L32.1,5.8l-0.3-0.3c0,0,0,0,0,0l-0.3-0.3l0,0c-3.4-3.3-7.9-5.1-12.7-5.1C13.9,0.1,9.5,1.9,6,5.1l0,0
		L5.7,5.5L5.3,5.8l0,0c-3.3,3.4-5.1,7.9-5.1,12.7c0,4.9,1.9,9.5,5.4,13L6,31.9l0.3-0.3l0,0l2.9-2.9c2.6,2.4,5.9,3.7,9.4,3.7
		c3.5,0,6.8-1.3,9.4-3.7l2.6,2.6c-3.3,3.1-7.5,4.8-12,4.8c-2.9,0-5.7-0.7-8.2-2c0-0.2,0.1-0.3,0.1-0.5c0-0.5-0.2-0.9-0.5-1.2
		c-0.3-0.3-0.8-0.5-1.2-0.5c-0.5,0-0.9,0.2-1.2,0.5c0,0,0,0,0,0c-0.7,0.7-0.7,1.8,0,2.4C8,35,8.5,35.1,8.9,35.1
		c0.4,0,0.8-0.1,1.1-0.4c2.7,1.4,5.7,2.2,8.7,2.2c4.9,0,9.5-1.9,13-5.4l0.3-0.3l-4-4l-0.3,0.3c-2.4,2.4-5.6,3.8-9.1,3.8
		c-3.4,0-6.6-1.3-9.1-3.8l-0.3-0.3L9,27.6l0,0L7.5,29L6,30.5c-1.7-1.8-3-3.9-3.8-6.2c1.1-0.5,2.2-1,3.4-1.4c0.3,1,0.8,2,1.3,2.9
		l0.8-0.5c-1.2-2-1.9-4.3-1.9-6.7c0-3.4,1.3-6.6,3.8-9.1c2.4-2.4,5.6-3.8,9.1-3.8c3.4,0,6.6,1.3,9.1,3.8l0,0
		c2.4,2.4,3.7,5.6,3.7,9.1c0,1.9-0.4,3.7-1.2,5.4c-0.5-0.1-1.1,0.1-1.5,0.5c0,0,0,0,0,0c-0.3,0.3-0.5,0.8-0.5,1.2
		c0,0.5,0.2,0.9,0.5,1.2c0.3,0.3,0.8,0.5,1.2,0.5c0.4,0,0.9-0.2,1.2-0.5c0.7-0.7,0.7-1.8,0-2.4c0,0,0,0,0,0c0.2-0.5,0.4-1,0.6-1.5
		c1.2,0.4,2.3,0.9,3.4,1.4c-0.6,1.6-1.4,3.2-2.4,4.6l0.8,0.6c2.4-3.2,3.6-7,3.6-10.9C37.1,13.7,35.3,9.3,32.1,5.8z M8.4,33.9
		c-0.3-0.3-0.3-0.8,0-1.1v0c0.1-0.1,0.3-0.2,0.5-0.2c0.2,0,0.4,0.1,0.5,0.2c0.1,0.1,0.2,0.3,0.2,0.5c0,0.2-0.1,0.4-0.2,0.5
		C9.1,34.2,8.7,34.2,8.4,33.9z M30.5,26.1c-0.3,0.3-0.8,0.3-1.1,0c-0.1-0.1-0.2-0.3-0.2-0.5c0-0.2,0.1-0.4,0.2-0.5h0
		c0.1-0.1,0.3-0.2,0.5-0.2c0.2,0,0.4,0.1,0.5,0.2C30.8,25.4,30.8,25.8,30.5,26.1z"/>
	
		<linearGradient id="SVGID_00000091015845491421067970000015104490444456204182_" gradientUnits="userSpaceOnUse" x1="-1.937" y1="-3.8742" x2="40.5392" y2="42.7924">
		<stop  offset="0" style="stop-color:#D4B863"/>
		<stop  offset="0.1566" style="stop-color:#F4E540"/>
		<stop  offset="0.495" style="stop-color:#E4A54C"/>
		<stop  offset="0.6993" style="stop-color:#413932"/>
		<stop  offset="1" style="stop-color:#73684B"/>
	</linearGradient>
	<path style="fill:url(#SVGID_00000091015845491421067970000015104490444456204182_);" d="M20.5,24.5v-1.7H22c3.1,0,5.8-2.6,5.7-5.7
		c-0.1-3-2.5-5.5-5.6-5.5h-1.6V10h-0.7v1.7h-1.5V10h-0.7v1.7c0,0-3.4,0-4.2,0c-2.2,0-0.8,2.8-2.3,3.4l10.8,0c1.2,0,2.1,0.9,2.2,2
		c0.1,1.2-0.9,2.3-2.1,2.3h-9.9c-0.2,0-0.4,0.2-0.4,0.4v5.1L15,28c0.1,0.1,0.2,0,0.2-0.1v-5.1h2.5v1.7h0.7v-1.7h1.5v1.7H20.5z"/>
</g>
<path class="st2" d="M35,18.5c0-0.7,0-1.4-0.1-2.1l-0.6,0.1c-0.2-1.4-0.5-2.7-1.1-4l0.6-0.2c-0.5-1.3-1.3-2.5-2.1-3.7L31.2,9
	c-0.8-1.1-1.8-2.1-2.9-2.9l0.4-0.5C27.5,4.7,26.3,4,25,3.4L24.7,4c-1.3-0.5-2.6-0.9-4-1.1l0.1-0.6c-0.7-0.1-1.4-0.1-2.1-0.1
	c-0.7,0-1.4,0-2.1,0.1l0.1,0.6c-1.4,0.2-2.7,0.5-4,1.1l-0.2-0.6C11.1,4,9.9,4.7,8.8,5.5L9.2,6C8.1,6.9,7.1,7.9,6.2,9L5.7,8.6
	c-0.9,1.1-1.6,2.3-2.1,3.7l0.6,0.2c-0.5,1.3-0.9,2.6-1.1,4l-0.6-0.1c-0.1,0.7-0.1,1.4-0.1,2.1c0,0.7,0,1.4,0.1,2.1l0.6-0.1
	c0.1,1,0.4,2,0.7,3c0.1,0,0.1-0.1,0.2-0.1c-0.3-0.9-0.5-1.9-0.7-3l0.6-0.1c-0.1-0.6-0.1-1.3-0.1-1.9s0-1.3,0.1-1.9l-0.6-0.1
	c0.2-1.4,0.5-2.7,1-3.9L5,12.8c0.5-1.2,1.1-2.3,1.9-3.3L6.4,9.1C7.2,8,8.2,7,9.3,6.2l0.4,0.5c1-0.8,2.1-1.4,3.3-1.9l-0.2-0.6
	c1.2-0.5,2.6-0.9,3.9-1l0.1,0.6c0.6-0.1,1.3-0.1,1.9-0.1c0.7,0,1.3,0,1.9,0.1l0.1-0.6c1.4,0.2,2.7,0.5,3.9,1l-0.2,0.6
	c1.2,0.5,2.3,1.1,3.3,1.9l0.4-0.5C29.2,7,30.2,8,31,9.1l-0.5,0.4c0.8,1,1.4,2.1,1.9,3.3l0.6-0.2c0.5,1.2,0.9,2.6,1,3.9l-0.6,0.1
	c0.1,0.6,0.1,1.3,0.1,1.9s0,1.3-0.1,1.9l0.6,0.1c-0.1,1-0.4,2-0.7,3c0.1,0,0.2,0.1,0.2,0.1c0.3-1,0.6-2,0.7-3l0.6,0.1
	C35,19.9,35,19.2,35,18.5z"/>
<g>
	<path class="st3" d="M110,7c0,0.1,0,0.3,0,0.4c0,2,0,4.1,0,6.1c0,0.8-0.3,1.1-1.1,1.1c-1.5,0-3,0-4.5,0c0,1.2,0,2.4,0,3.6
		c0.1,0,0.2,0,0.3,0c2,0,4.1,0,6.1,0c0.4,0,0.8-0.1,1.1-0.2c0.2-0.1,0.3-0.2,0.3-0.5c0-3.5,0-7,0-10.5c0-0.1,0-0.3,0-0.4
		c0-0.3,0.2-0.4,0.4-0.4c0.8,0,1.6,0,2.5,0c-0.4,0.6-0.3,1.3-0.3,1.9c0,1.2,0,2.5,0,3.7c0,0.1,0,0.2,0,0.4c0.9,0,1.7,0,2.6,0
		c-0.5,0.3-0.5,0.7-0.5,1.1c0,0.7-0.2,1-1,1c-0.3,0-0.7,0-1.1,0c0,0.2,0,0.3,0,0.4c0,2,0,4.1,0,6.1c0,0.2,0,0.3,0,0.5
		c0,0.3-0.2,0.5-0.5,0.5c-0.6,0-1.1,0-1.7,0c-0.2,0-0.4-0.1-0.4-0.3c0-0.2-0.1-0.3-0.1-0.5c0-0.6,0-1.3,0-1.9
		c-0.3,0.9-1,1.1-1.8,1.1c-2.9,0-5.9,0-8.8,0c-0.1,0-0.3,0-0.4,0c0-0.1,0-0.1,0-0.1c0.3-0.5,0.4-1.1,0.4-1.7c0-1.7,0-3.4,0-5.2
		c0-0.6,0.1-0.7,0.7-0.7c1.6,0,3.3,0,5,0c0-1.1,0-2.2,0-3.4c-2,0-4,0-6,0c0.5-0.3,0.4-0.8,0.4-1.3c0-0.7,0.1-0.8,0.7-0.8
		C105,7,107.5,7,110,7z"/>
	<path class="st3" d="M98.4,6.1c-0.1,0.5-0.2,0.9-0.2,1.4c0,1.4,0,2.8,0,4.3c0,0.1,0,0.2,0,0.4c0.8,0,1.7,0,2.6,0
		c-0.5,0.3-0.5,0.7-0.5,1.1c0,0.7-0.2,0.9-0.9,1c-0.4,0-0.7,0-1.1,0c0,0.2,0,0.3,0,0.4c0,2.1,0,4.1,0,6.2c0,0.2,0,0.3,0,0.5
		c0,0.3-0.2,0.4-0.5,0.5c-0.6,0-1.2,0-1.7,0c-0.3,0-0.4-0.2-0.4-0.5c0-0.4,0-0.7,0-1.1c0-0.3,0-0.7,0-1.1c-0.3,0.9-1.1,1-1.9,1
		c-3.1,0-6.2,0-9.2,0c-0.1,0-0.2,0-0.5,0c0.5-0.3,0.6-0.7,0.6-1.2c0-0.5,0.3-0.8,0.8-0.8c0.2,0,0.4,0,0.7,0c0-0.2,0-0.3,0-0.4
		c0-2.2,0-4.3,0-6.5c0-0.5,0.1-0.6,0.5-0.8c0.2-0.1,0.4-0.1,0.6-0.2c0.5-0.1,1-0.3,1.5-0.4c0,2.7,0,5.4,0,8.2c0.5,0,1,0,1.6,0
		c0-0.1,0-0.3,0-0.4c0-2.1,0-4.3,0-6.4c0-0.6,0-0.7,0.6-0.8c0.4-0.1,0.7-0.2,1.1-0.3c0.3-0.1,0.6-0.2,0.9-0.3c0,2.7,0,5.5,0,8.3
		c0.8-0.1,1.5-0.1,2.2-0.2c0.3,0,0.5-0.3,0.5-0.7c0-3.5,0-7,0-10.5c0-0.6,0.1-0.7,0.7-0.7C97,6.1,97.7,6.1,98.4,6.1z"/>
	<path class="st3" d="M129,19.1c-0.4,0.9-1.1,1-1.9,1c-2.9,0-5.8,0-8.7,0c-0.1,0-0.3,0-0.4,0c0-0.1,0.1-0.2,0.1-0.2
		c0.3-0.5,0.4-1,0.4-1.6c0-2.7,0-5.3,0-8c0-0.1,0-0.3,0-0.4c0.9,0,1.8,0,2.7,0c0,2.8,0,5.5,0,8.3c0.1,0,0.2,0,0.3,0
		c2.1,0,4.1,0,6.2,0c0.3,0,0.7-0.1,1-0.2c0.3-0.1,0.3-0.3,0.3-0.6c0-3.5,0-7,0-10.4c0-0.1,0-0.3,0-0.4c0-0.4,0.1-0.5,0.5-0.5
		c0.8,0,1.6,0,2.4,0c-0.4,0.6-0.3,1.2-0.3,1.8c0,1.4,0,2.8,0,4.3c0.8,0,1.6,0,2.6,0c-0.4,0.3-0.5,0.7-0.5,1.1c0,0.7-0.2,0.9-0.9,1
		c-0.4,0-0.7,0-1.1,0c0,0.2,0,0.3,0,0.4c0,2,0,4,0,6.1c0,0.1,0,0.2,0,0.3c0,0.6-0.1,0.8-0.8,0.8c-0.5,0-0.9,0-1.4,0
		c-0.3,0-0.4-0.1-0.4-0.4c0-0.3,0-0.5,0-0.8C129,20.1,129,19.6,129,19.1z"/>
	<path class="st4" d="M53.8,12.9c0.4,0.2,0.8,0.4,1.2,0.6c1,0.6,1.4,1.6,1.3,2.7c-0.1,2.3-1.6,3.4-3.5,3.5c-2.3,0.1-4.6,0-6.9,0
		c0.8-0.3,0.7-0.9,0.7-1.5c0-3.6,0-7.2,0-10.8c0-0.1,0-0.3,0-0.5c0.1,0,0.2,0,0.3,0c1.8,0,3.6,0,5.4,0c0.5,0,1,0.1,1.5,0.3
		c1.6,0.4,2.1,1.9,2,3.2c-0.1,1.2-0.8,2-1.9,2.4C53.9,12.9,53.9,12.9,53.8,12.9C53.8,12.9,53.8,12.9,53.8,12.9z M49.2,18
		c0.1,0,0.3,0,0.4,0c0.8,0,1.6,0,2.4,0c0.9-0.1,1.4-0.6,1.5-1.5c0.1-0.4,0-0.9-0.1-1.3c-0.1-0.6-0.6-1-1.2-1.1
		c-1-0.1-2.1-0.1-3.2-0.1C49.2,15.3,49.2,16.6,49.2,18z M49.2,12.3c0.1,0,0.1,0,0.2,0c0.8,0,1.5,0,2.3,0c1.1,0,1.6-0.5,1.6-1.6
		c0-0.9-0.1-1.5-1-1.8c-1-0.3-2-0.1-3-0.2C49.2,10,49.2,11.1,49.2,12.3z"/>
	<path class="st3" d="M144.2,13.5c0,1.7-0.2,3.3-1,4.7c-1.4,2.5-4.3,2.6-5.9,1.4c-1-0.7-1.5-1.7-1.8-2.8c-0.6-2.3-0.6-4.6,0.1-6.8
		c0.4-1.2,1-2.2,2.1-2.9c2-1.1,4.3-0.4,5.5,1.6c0.7,1.1,0.9,2.4,1,3.7C144.2,12.7,144.2,13.1,144.2,13.5z M141.7,13.5
		C141.7,13.5,141.7,13.5,141.7,13.5c-0.1-0.6-0.1-1.2-0.2-1.8c-0.1-0.8-0.2-1.7-0.7-2.4c-0.6-0.9-1.9-0.9-2.4,0.1
		c-0.2,0.4-0.4,0.8-0.5,1.3c-0.4,1.7-0.3,3.4-0.1,5.1c0.1,0.7,0.2,1.4,0.7,2c0.5,0.7,1.5,0.7,2.1,0.1c0.4-0.4,0.6-0.9,0.7-1.4
		C141.5,15.5,141.6,14.5,141.7,13.5z"/>
	<path class="st4" d="M57.5,19.8c0.7-0.4,0.7-0.9,0.7-1.6c0-3.6,0-7.2,0-10.8c0-0.1,0-0.3,0-0.4c0.2,0,0.3,0,0.4,0
		c2.2,0,4.3,0,6.5,0c0.5,0,1.1-0.1,1.5-0.5c0.2,1.3-0.2,2.4-1.7,2.4c-1.2,0-2.5,0-3.7,0c-0.1,0-0.3,0-0.4,0c0,1.1,0,2.1,0,3.2
		c0.1,0,0.2,0,0.3,0c1.2,0,2.5,0,3.7,0c0.7,0,1-0.1,1.4-0.5c0.1,0.7,0.1,1.3-0.4,1.9c-0.3,0.4-0.8,0.5-1.3,0.5c-1.1,0-2.3,0-3.4,0
		c-0.1,0-0.3,0-0.4,0c0,1.3,0,2.5,0,3.8c0.2,0,0.4,0,0.5,0c1.3,0,2.6,0,3.9,0c0.8,0,0.9,0,1.4-0.5c0.2,1-0.1,1.8-0.8,2.2
		c-0.3,0.1-0.6,0.2-1,0.2c-2.4,0-4.8,0-7.1,0C57.8,19.8,57.7,19.8,57.5,19.8z"/>
	<path class="st3" d="M160.6,6.5c0,0.7,0,1.5,0,2.2c0,0.6,0.1,1.2,0.3,1.8c0.5,1.7,1.7,2.8,3.3,3.5c0.7,0.3,1.4,0.5,2.1,0.7
		c-0.1,0.8-1,1.6-2,1.6c-0.4,0-0.7-0.1-1.1-0.2c-1.8-0.6-3.2-1.7-4.1-3.5c0,0,0-0.1,0,0c-0.5,0.6-0.9,1.2-1.4,1.7
		c-0.9,0.9-2,1.5-3.2,1.9c-1.3,0.4-2.4-0.6-2.7-1.5c0.8-0.3,1.6-0.5,2.4-0.9c1.8-0.9,3-2.2,3.3-4.2c0.1-0.6,0.1-1.2,0.1-1.8
		c0-0.4,0.1-0.6,0.5-0.7c0.2,0,0.4-0.1,0.6-0.2C159.3,6.8,159.9,6.7,160.6,6.5z"/>
	<path class="st4" d="M71.7,9c-1.3,0-2.5,0-3.9,0c0.5-0.5,0.4-1,0.4-1.5c0-0.3,0.2-0.5,0.5-0.5c0.2,0,0.4,0,0.6,0c2.3,0,4.7,0,7,0
		c0.6,0,1.1,0,1.6-0.4c0.3,1.3-0.3,2.4-1.7,2.4c-0.6,0-1.2,0-1.9,0c0,0.2,0,0.3,0,0.4c0,3.2,0,6.3,0,9.5c0,0.1,0,0.3,0,0.4
		c0,0.4-0.2,0.5-0.6,0.6c-0.5,0-1,0-1.6,0c-0.3,0-0.5-0.1-0.5-0.5c0-0.2,0-0.3,0-0.5c0-3.1,0-6.3,0-9.4C71.7,9.3,71.7,9.1,71.7,9z"
		/>
	<path class="st3" d="M149.4,6.1c-0.3,0.4-0.3,0.9-0.3,1.3c0,4.5,0,8.9,0,13.4c0,0.2,0,0.3,0,0.5c0,0.4-0.2,0.5-0.6,0.5
		c-0.5,0-1.1,0-1.6,0c-0.3,0-0.4-0.1-0.5-0.4c0-0.2,0-0.4,0-0.6c0-4.6,0-9.3,0-13.9c0-0.8,0-0.8,0.8-0.8
		C148,6.1,148.7,6.1,149.4,6.1z"/>
	<path class="st3" d="M151.9,20.6c0.1-0.5,0.2-0.9,0.2-1.3c0.1-0.5,0.2-0.7,0.7-0.7c0.2,0,0.4,0,0.6,0c3.8,0,7.7,0,11.5,0
		c0.6,0,1.3,0,1.8-0.5c0,0,0.1,0,0.1,0c-0.1,0.5-0.1,1-0.2,1.4c-0.1,0.6-0.6,1-1.3,1c-0.2,0-0.3,0-0.5,0c-4.2,0-8.5,0-12.7,0
		C152,20.6,151.9,20.6,151.9,20.6z"/>
	<path class="st3" d="M84.4,9c0.4-0.3,0.5-0.7,0.5-1.2c0-0.5,0.2-0.7,0.7-0.8c0.2,0,0.3,0,0.5,0c2.3,0,4.7,0,7,0
		c0.5,0,0.9-0.1,1.3-0.5c0,0.6,0.1,1.2-0.2,1.8C94,8.8,93.5,9,93,9c-2.4,0-4.7,0-7.1,0C85.4,9,84.9,9,84.4,9z"/>
	<path class="st3" d="M127,6.6c0,0.5,0,0.9-0.1,1.4c-0.1,0.7-0.6,1.1-1.4,1.1c-1,0-2,0-3,0c-1.5,0-3.1,0-4.6,0
		c0.6-0.4,0.6-0.9,0.6-1.5c0-0.2,0.2-0.4,0.4-0.5c0.2-0.1,0.5-0.1,0.8-0.1c2,0,3.9,0,5.9,0C126,7,126.5,6.9,127,6.6z"/>
</g>
<g>
	
		<linearGradient id="SVGID_00000050630744024760249940000002949995860895798936_" gradientUnits="userSpaceOnUse" x1="5.4389" y1="24.5358" x2="88.4865" y2="33.4882">
		<stop  offset="0" style="stop-color:#D4B863"/>
		<stop  offset="0.1566" style="stop-color:#F4E540"/>
		<stop  offset="0.495" style="stop-color:#E4A54C"/>
		<stop  offset="0.6993" style="stop-color:#413932"/>
		<stop  offset="1" style="stop-color:#73684B"/>
	</linearGradient>
	<path style="fill:url(#SVGID_00000050630744024760249940000002949995860895798936_);" d="M47.4,32.5v-6.6h2.5c0.4,0,0.8,0,1,0.1
		c0.3,0.1,0.6,0.2,0.8,0.3c0.2,0.2,0.4,0.4,0.5,0.6c0.1,0.3,0.2,0.6,0.2,0.9c0,0.6-0.2,1-0.5,1.4c-0.4,0.4-1,0.6-1.9,0.6h-1.7v2.7
		H47.4z M48.3,29.1H50c0.6,0,1-0.1,1.2-0.3c0.2-0.2,0.4-0.5,0.4-0.9c0-0.3-0.1-0.5-0.2-0.7s-0.3-0.3-0.6-0.4c-0.1,0-0.4-0.1-0.8-0.1
		h-1.7V29.1z"/>
	
		<linearGradient id="SVGID_00000050630311259725612470000012004120089449818526_" gradientUnits="userSpaceOnUse" x1="5.5816" y1="23.2122" x2="88.6292" y2="32.1646">
		<stop  offset="0" style="stop-color:#D4B863"/>
		<stop  offset="0.1566" style="stop-color:#F4E540"/>
		<stop  offset="0.495" style="stop-color:#E4A54C"/>
		<stop  offset="0.6993" style="stop-color:#413932"/>
		<stop  offset="1" style="stop-color:#73684B"/>
	</linearGradient>
	<path style="fill:url(#SVGID_00000050630311259725612470000012004120089449818526_);" d="M59.6,32.5l2.5-6.6H63l2.7,6.6h-1l-0.8-2
		h-2.8l-0.7,2H59.6z M61.5,29.8h2.2L63,28c-0.2-0.6-0.4-1-0.5-1.4c-0.1,0.4-0.2,0.8-0.4,1.3L61.5,29.8z"/>
	
		<linearGradient id="SVGID_00000041991697260781130120000014160188458851751558_" gradientUnits="userSpaceOnUse" x1="5.7451" y1="21.695" x2="88.7928" y2="30.6474">
		<stop  offset="0" style="stop-color:#D4B863"/>
		<stop  offset="0.1566" style="stop-color:#F4E540"/>
		<stop  offset="0.495" style="stop-color:#E4A54C"/>
		<stop  offset="0.6993" style="stop-color:#413932"/>
		<stop  offset="1" style="stop-color:#73684B"/>
	</linearGradient>
	<path style="fill:url(#SVGID_00000041991697260781130120000014160188458851751558_);" d="M73.9,32.5v-6.6h2.9c0.6,0,1,0.1,1.3,0.2
		c0.3,0.1,0.6,0.3,0.7,0.6c0.2,0.3,0.3,0.6,0.3,1c0,0.5-0.2,0.9-0.5,1.2c-0.3,0.3-0.8,0.5-1.4,0.6c0.2,0.1,0.4,0.2,0.5,0.3
		c0.3,0.2,0.5,0.5,0.7,0.9l1.2,1.8h-1.1l-0.9-1.4c-0.3-0.4-0.5-0.7-0.6-0.9c-0.2-0.2-0.3-0.4-0.4-0.4c-0.1-0.1-0.3-0.1-0.4-0.2
		c-0.1,0-0.3,0-0.5,0h-1v2.9H73.9z M74.8,28.8h1.9c0.4,0,0.7,0,0.9-0.1c0.2-0.1,0.4-0.2,0.5-0.4c0.1-0.2,0.2-0.4,0.2-0.6
		c0-0.3-0.1-0.6-0.3-0.8c-0.2-0.2-0.6-0.3-1.1-0.3h-2.1V28.8z"/>
	
		<linearGradient id="SVGID_00000122693684103380236310000012317745336966104239_" gradientUnits="userSpaceOnUse" x1="5.8995" y1="20.2628" x2="88.9471" y2="29.2152">
		<stop  offset="0" style="stop-color:#D4B863"/>
		<stop  offset="0.1566" style="stop-color:#F4E540"/>
		<stop  offset="0.495" style="stop-color:#E4A54C"/>
		<stop  offset="0.6993" style="stop-color:#413932"/>
		<stop  offset="1" style="stop-color:#73684B"/>
	</linearGradient>
	<path style="fill:url(#SVGID_00000122693684103380236310000012317745336966104239_);" d="M87.2,32.5l2.5-6.6h0.9l2.7,6.6h-1l-0.8-2
		h-2.8l-0.7,2H87.2z M89.1,29.8h2.2L90.7,28c-0.2-0.6-0.4-1-0.5-1.4c-0.1,0.4-0.2,0.8-0.4,1.3L89.1,29.8z"/>
	
		<linearGradient id="SVGID_00000105407626161127720700000007272544312643071928_" gradientUnits="userSpaceOnUse" x1="6.0597" y1="18.7766" x2="89.1074" y2="27.729">
		<stop  offset="0" style="stop-color:#D4B863"/>
		<stop  offset="0.1566" style="stop-color:#F4E540"/>
		<stop  offset="0.495" style="stop-color:#E4A54C"/>
		<stop  offset="0.6993" style="stop-color:#413932"/>
		<stop  offset="1" style="stop-color:#73684B"/>
	</linearGradient>
	<path style="fill:url(#SVGID_00000105407626161127720700000007272544312643071928_);" d="M101.5,32.5v-6.6h2.3c0.5,0,0.9,0,1.2,0.1
		c0.4,0.1,0.7,0.2,1,0.5c0.3,0.3,0.6,0.7,0.8,1.1c0.2,0.5,0.3,1,0.3,1.6c0,0.5-0.1,0.9-0.2,1.3c-0.1,0.4-0.3,0.7-0.5,1
		c-0.2,0.3-0.4,0.5-0.6,0.6c-0.2,0.1-0.5,0.3-0.8,0.3c-0.3,0.1-0.7,0.1-1.1,0.1H101.5z M102.4,31.8h1.4c0.4,0,0.8,0,1-0.1
		c0.2-0.1,0.4-0.2,0.6-0.3c0.2-0.2,0.4-0.5,0.5-0.8c0.1-0.4,0.2-0.8,0.2-1.3c0-0.7-0.1-1.2-0.3-1.6c-0.2-0.4-0.5-0.6-0.8-0.7
		c-0.2-0.1-0.6-0.1-1.1-0.1h-1.4V31.8z"/>
	
		<linearGradient id="SVGID_00000033348080317877605550000008540152630286656141_" gradientUnits="userSpaceOnUse" x1="6.2125" y1="17.3592" x2="89.2601" y2="26.3116">
		<stop  offset="0" style="stop-color:#D4B863"/>
		<stop  offset="0.1566" style="stop-color:#F4E540"/>
		<stop  offset="0.495" style="stop-color:#E4A54C"/>
		<stop  offset="0.6993" style="stop-color:#413932"/>
		<stop  offset="1" style="stop-color:#73684B"/>
	</linearGradient>
	<path style="fill:url(#SVGID_00000033348080317877605550000008540152630286656141_);" d="M115.8,32.5v-6.6h0.9v6.6H115.8z"/>
	
		<linearGradient id="SVGID_00000104702295985524634660000012729578121480479931_" gradientUnits="userSpaceOnUse" x1="6.3477" y1="16.1055" x2="89.3953" y2="25.0579">
		<stop  offset="0" style="stop-color:#D4B863"/>
		<stop  offset="0.1566" style="stop-color:#F4E540"/>
		<stop  offset="0.495" style="stop-color:#E4A54C"/>
		<stop  offset="0.6993" style="stop-color:#413932"/>
		<stop  offset="1" style="stop-color:#73684B"/>
	</linearGradient>
	<path style="fill:url(#SVGID_00000104702295985524634660000012729578121480479931_);" d="M125.3,30.4l0.8-0.1
		c0,0.3,0.1,0.6,0.3,0.8c0.1,0.2,0.4,0.4,0.7,0.5c0.3,0.1,0.6,0.2,1,0.2c0.3,0,0.6-0.1,0.9-0.1c0.3-0.1,0.4-0.2,0.6-0.4
		c0.1-0.2,0.2-0.4,0.2-0.6c0-0.2-0.1-0.4-0.2-0.5c-0.1-0.2-0.3-0.3-0.6-0.4c-0.2-0.1-0.6-0.2-1.2-0.3c-0.6-0.1-1-0.3-1.3-0.4
		c-0.3-0.2-0.6-0.4-0.7-0.6c-0.2-0.2-0.2-0.5-0.2-0.8c0-0.3,0.1-0.6,0.3-0.9c0.2-0.3,0.5-0.5,0.8-0.7s0.8-0.2,1.2-0.2
		c0.5,0,0.9,0.1,1.3,0.2c0.4,0.2,0.7,0.4,0.9,0.7c0.2,0.3,0.3,0.7,0.3,1l-0.8,0.1c0-0.4-0.2-0.7-0.5-0.9c-0.3-0.2-0.6-0.3-1.2-0.3
		c-0.5,0-0.9,0.1-1.2,0.3c-0.2,0.2-0.4,0.4-0.4,0.7c0,0.2,0.1,0.4,0.3,0.6c0.2,0.2,0.6,0.3,1.3,0.5c0.7,0.2,1.2,0.3,1.5,0.4
		c0.4,0.2,0.7,0.4,0.9,0.7c0.2,0.3,0.3,0.6,0.3,0.9c0,0.4-0.1,0.7-0.3,1c-0.2,0.3-0.5,0.6-0.9,0.7c-0.4,0.2-0.8,0.3-1.3,0.3
		c-0.6,0-1.1-0.1-1.5-0.3c-0.4-0.2-0.7-0.4-1-0.8C125.5,31.2,125.3,30.8,125.3,30.4z"/>
	
		<linearGradient id="SVGID_00000078044110973883915930000002881323335374769024_" gradientUnits="userSpaceOnUse" x1="6.5042" y1="14.6537" x2="89.5518" y2="23.6061">
		<stop  offset="0" style="stop-color:#D4B863"/>
		<stop  offset="0.1566" style="stop-color:#F4E540"/>
		<stop  offset="0.495" style="stop-color:#E4A54C"/>
		<stop  offset="0.6993" style="stop-color:#413932"/>
		<stop  offset="1" style="stop-color:#73684B"/>
	</linearGradient>
	<path style="fill:url(#SVGID_00000078044110973883915930000002881323335374769024_);" d="M139.2,32.5v-6.6h4.8v0.8h-3.9v2h3.7v0.8
		h-3.7v2.3h4.1v0.8H139.2z"/>
</g>
</svg>
