<?xml version="1.0" encoding="utf-8"?>
<!-- Generator: Adobe Illustrator 26.0.3, SVG Export Plug-In . SVG Version: 6.00 Build 0)  -->
<svg version="1.1" id="圖層_1" xmlns="http://www.w3.org/2000/svg" xmlns:xlink="http://www.w3.org/1999/xlink" x="0px" y="0px"
	 viewBox="0 0 35 37" style="enable-background:new 0 0 35 37;" xml:space="preserve">
<style type="text/css">
	.st0{fill:url(#SVGID_1_);}
	.st1{fill:url(#SVGID_00000166650675844693379050000009933125422321692070_);}
	.st2{fill:#FFFFFF;}
</style>
<g>
	<g>
		<linearGradient id="SVGID_1_" gradientUnits="userSpaceOnUse" x1="-1.885" y1="-2.3885" x2="37.8824" y2="41.3022">
			<stop  offset="0" style="stop-color:#D4B863"/>
			<stop  offset="0.1566" style="stop-color:#F4E540"/>
			<stop  offset="0.495" style="stop-color:#E4A54C"/>
			<stop  offset="0.6993" style="stop-color:#413932"/>
			<stop  offset="1" style="stop-color:#73684B"/>
		</linearGradient>
		<path class="st0" d="M30,6.6L30,6.6l-0.3-0.3c0,0,0,0,0,0L29.4,6l0,0C26.1,2.9,22,1.3,17.5,1.3C13,1.3,8.9,2.9,5.6,6l0,0L5.3,6.3
			L5,6.6l0,0C1.9,9.9,0.3,14,0.3,18.5c0,4.6,1.8,8.9,5,12.2L5.6,31L6,30.7l0,0l2.7-2.7c2.4,2.2,5.5,3.5,8.8,3.5
			c3.3,0,6.4-1.2,8.8-3.5l2.4,2.4c-3,2.9-7,4.5-11.2,4.5c-2.7,0-5.3-0.7-7.6-1.9c0-0.2,0.1-0.3,0.1-0.5c0-0.4-0.2-0.8-0.5-1.1
			c-0.3-0.3-0.7-0.5-1.1-0.5c-0.4,0-0.8,0.2-1.1,0.5c0,0,0,0,0,0c-0.6,0.6-0.6,1.6,0,2.3c0.3,0.3,0.7,0.5,1.1,0.5
			c0.4,0,0.7-0.1,1-0.4c2.5,1.3,5.3,2,8.2,2c4.6,0,8.9-1.8,12.2-5l0.3-0.3l-3.7-3.7L26,27c-2.3,2.3-5.3,3.5-8.5,3.5
			c-3.2,0-6.2-1.2-8.5-3.5l-0.3-0.3L8.4,27l0,0L7,28.4l-1.4,1.4C4,28,2.8,26,2.1,23.9c1-0.5,2.1-0.9,3.2-1.3
			c0.3,0.9,0.7,1.8,1.2,2.7l0.8-0.5c-1.2-1.9-1.8-4-1.8-6.3c0-3.2,1.2-6.2,3.5-8.5c2.3-2.3,5.3-3.5,8.5-3.5c3.2,0,6.2,1.2,8.5,3.5
			l0,0c2.3,2.3,3.5,5.3,3.5,8.5c0,1.8-0.4,3.5-1.1,5.1c-0.5-0.1-1,0.1-1.4,0.4c0,0,0,0,0,0c-0.3,0.3-0.5,0.7-0.5,1.1
			c0,0.4,0.2,0.8,0.5,1.1c0.3,0.3,0.7,0.5,1.1,0.5c0.4,0,0.8-0.2,1.1-0.5c0.6-0.6,0.6-1.6,0-2.3c0,0,0,0,0,0
			c0.2-0.5,0.4-0.9,0.6-1.4c1.1,0.4,2.1,0.8,3.2,1.3c-0.5,1.5-1.3,3-2.3,4.3l0.7,0.5c2.2-3,3.4-6.5,3.4-10.2
			C34.7,14,33.1,9.9,30,6.6z M7.8,32.9c-0.3-0.3-0.3-0.7,0-1v0c0.1-0.1,0.3-0.2,0.5-0.2c0.2,0,0.4,0.1,0.5,0.2
			C8.9,32.1,9,32.3,9,32.5c0,0.2-0.1,0.4-0.2,0.5C8.5,33.2,8.1,33.2,7.8,32.9z M28.6,25.6c-0.3,0.3-0.7,0.3-1,0
			c-0.1-0.1-0.2-0.3-0.2-0.5c0-0.2,0.1-0.4,0.2-0.5h0c0.1-0.1,0.3-0.2,0.5-0.2c0.2,0,0.4,0.1,0.5,0.2C28.9,24.9,28.9,25.4,28.6,25.6
			z"/>
		
			<linearGradient id="SVGID_00000000193605588292659640000008222120467974636700_" gradientUnits="userSpaceOnUse" x1="-1.8203" y1="-2.4474" x2="37.9471" y2="41.2433">
			<stop  offset="0" style="stop-color:#D4B863"/>
			<stop  offset="0.1566" style="stop-color:#F4E540"/>
			<stop  offset="0.495" style="stop-color:#E4A54C"/>
			<stop  offset="0.6993" style="stop-color:#413932"/>
			<stop  offset="1" style="stop-color:#73684B"/>
		</linearGradient>
		<path style="fill:url(#SVGID_00000000193605588292659640000008222120467974636700_);" d="M19.2,24.1v-1.6h1.4
			c2.9,0,5.4-2.4,5.3-5.3c0-2.8-2.4-5.1-5.2-5.1h-1.5v-1.6h-0.6v1.6h-1.4v-1.6h-0.6v1.6c0,0-3.2,0-3.9,0c-2.1,0-0.7,2.6-2.1,3.2
			l10.1,0c1.1,0,2,0.8,2.1,1.9c0.1,1.2-0.9,2.1-2,2.1h-9.3c-0.2,0-0.3,0.2-0.3,0.3v4.8l3,3c0.1,0.1,0.2,0,0.2-0.1v-4.8h2.3v1.6h0.6
			v-1.6h1.4v1.6H19.2z"/>
	</g>
	<path class="st2" d="M32.8,18.5c0-0.7,0-1.3-0.1-2l-0.6,0.1c-0.2-1.3-0.5-2.6-1-3.8l0.5-0.2c-0.5-1.2-1.2-2.4-2-3.4l-0.5,0.4
		c-0.8-1-1.7-2-2.7-2.7l0.4-0.5c-1-0.8-2.2-1.5-3.4-2l-0.2,0.5c-1.2-0.5-2.4-0.8-3.8-1l0.1-0.6c-0.6-0.1-1.3-0.1-2-0.1
		c-0.7,0-1.3,0-2,0.1l0.1,0.6c-1.3,0.2-2.6,0.5-3.8,1l-0.2-0.5c-1.2,0.5-2.4,1.2-3.4,2l0.4,0.5c-1,0.8-2,1.7-2.7,2.7L5.4,9.2
		c-0.8,1-1.5,2.2-2,3.4l0.5,0.2c-0.5,1.2-0.8,2.4-1,3.8l-0.6-0.1c-0.1,0.6-0.1,1.3-0.1,2c0,0.7,0,1.3,0.1,2l0.6-0.1
		c0.1,1,0.3,1.9,0.6,2.8c0.1,0,0.1-0.1,0.2-0.1c-0.3-0.9-0.5-1.8-0.6-2.8l0.6-0.1c-0.1-0.6-0.1-1.2-0.1-1.8c0-0.6,0-1.2,0.1-1.8
		l-0.6-0.1c0.2-1.3,0.5-2.5,1-3.7l0.5,0.2C5.1,12,5.7,11,6.4,10L6,9.7c0.8-1,1.7-1.9,2.7-2.7L9,7.4c0.9-0.7,2-1.3,3.1-1.8l-0.2-0.5
		c1.2-0.5,2.4-0.8,3.7-1l0.1,0.6c0.6-0.1,1.2-0.1,1.8-0.1c0.6,0,1.2,0,1.8,0.1l0.1-0.5c1.3,0.2,2.5,0.5,3.7,1l-0.2,0.5
		C24,6.1,25,6.7,26,7.4L26.3,7c1,0.8,1.9,1.7,2.7,2.7L28.6,10c0.7,0.9,1.3,2,1.8,3.1l0.5-0.2c0.5,1.2,0.8,2.4,1,3.7l-0.5,0.1
		c0.1,0.6,0.1,1.2,0.1,1.8c0,0.6,0,1.2-0.1,1.8l0.6,0.1c-0.1,1-0.3,1.9-0.6,2.8c0.1,0,0.1,0.1,0.2,0.1c0.3-0.9,0.5-1.8,0.6-2.8
		l0.6,0.1C32.8,19.8,32.8,19.2,32.8,18.5z"/>
</g>
</svg>
