<svg xmlns="http://www.w3.org/2000/svg" viewBox="0 0 60 14"><defs><style>.cls-1{fill:#f06;}</style></defs><title>logo_OCW888</title><g id="EXPORT"><path class="cls-1" d="M22.88,9.92a3.3,3.3,0,0,1,0-3.43,3.5,3.5,0,0,1,1.31-1.22A3.78,3.78,0,0,1,28.75,6a3.16,3.16,0,0,1,.71,1.26H28.08a2.07,2.07,0,0,0-.82-.89A2.33,2.33,0,0,0,26,6a2.4,2.4,0,0,0-1.16.29A2.18,2.18,0,0,0,24,7.1a2.12,2.12,0,0,0,0,2.21,2.1,2.1,0,0,0,.83.79,2.3,2.3,0,0,0,1.16.29,2.41,2.41,0,0,0,1.22-.31,2.21,2.21,0,0,0,.83-.86h1.39a3.08,3.08,0,0,1-.72,1.23,3.56,3.56,0,0,1-1.21.84,3.77,3.77,0,0,1-1.51.3,3.7,3.7,0,0,1-1.81-.44A3.45,3.45,0,0,1,22.88,9.92Z"/><path class="cls-1" d="M37.36,11.52h-1.3L34.49,7l-1.6,4.55h-1.3l-2-6.63H31l1.25,4.5,1.68-4.5h1.14l1.65,4.5L38,4.89h1.38Z"/><path class="cls-1" d="M39.91,10.58a2,2,0,0,1-.08-1.94,2,2,0,0,1,.61-.7A1.61,1.61,0,0,1,40,7.35a1.54,1.54,0,0,1-.17-.73,1.64,1.64,0,0,1,.27-.91,1.87,1.87,0,0,1,.76-.65,2.92,2.92,0,0,1,2.32,0,1.9,1.9,0,0,1,.77.65,1.6,1.6,0,0,1,.27.91,1.66,1.66,0,0,1-.17.73,1.63,1.63,0,0,1-.49.59,2,2,0,0,1,.62.7,1.87,1.87,0,0,1,.22.9,1.82,1.82,0,0,1-.31,1,2.09,2.09,0,0,1-.84.74,2.71,2.71,0,0,1-1.23.27,2.74,2.74,0,0,1-1.23-.27A2.09,2.09,0,0,1,39.91,10.58ZM43,9.49a.81.81,0,0,0-.29-.65A1.12,1.12,0,0,0,42,8.59a1.08,1.08,0,0,0-.74.25.81.81,0,0,0-.28.65.83.83,0,0,0,.28.66,1.08,1.08,0,0,0,.74.24,1.12,1.12,0,0,0,.74-.24A.83.83,0,0,0,43,9.49Zm-.18-2.84c0-.42-.29-.63-.85-.63a1,1,0,0,0-.63.16.57.57,0,0,0-.21.47c0,.43.28.65.84.65a1,1,0,0,0,.63-.17A.55.55,0,0,0,42.83,6.65Z"/><path class="cls-1" d="M45.16,10.58a2,2,0,0,1-.08-1.94,2,2,0,0,1,.61-.7,1.61,1.61,0,0,1-.48-.59A1.66,1.66,0,0,1,45,6.62a1.64,1.64,0,0,1,.27-.91,1.87,1.87,0,0,1,.76-.65,2.92,2.92,0,0,1,2.32,0,1.9,1.9,0,0,1,.77.65,1.6,1.6,0,0,1,.27.91,1.66,1.66,0,0,1-.17.73,1.63,1.63,0,0,1-.49.59,2,2,0,0,1,.62.7,2,2,0,0,1-.08,1.94,2.19,2.19,0,0,1-.85.74,2.71,2.71,0,0,1-1.23.27A2.77,2.77,0,0,1,46,11.32,2.09,2.09,0,0,1,45.16,10.58Zm3.1-1.09A.81.81,0,0,0,48,8.84a1.13,1.13,0,0,0-.75-.25,1.1,1.1,0,0,0-.74.25.81.81,0,0,0-.28.65.83.83,0,0,0,.28.66,1.1,1.1,0,0,0,.74.24,1.13,1.13,0,0,0,.75-.24A.83.83,0,0,0,48.26,9.49Zm-.18-2.84c0-.42-.28-.63-.85-.63a1,1,0,0,0-.63.16.57.57,0,0,0-.21.47c0,.43.28.65.84.65a1,1,0,0,0,.63-.17A.55.55,0,0,0,48.08,6.65Z"/><path class="cls-1" d="M50.41,10.58a2,2,0,0,1-.08-1.94,2,2,0,0,1,.61-.7,1.61,1.61,0,0,1-.48-.59,1.66,1.66,0,0,1-.17-.73,1.64,1.64,0,0,1,.27-.91,1.9,1.9,0,0,1,.77-.65,2.6,2.6,0,0,1,1.15-.24,2.64,2.64,0,0,1,1.16.24,1.84,1.84,0,0,1,.77.65,1.6,1.6,0,0,1,.27.91A1.65,1.65,0,0,1,54,7.94a1.95,1.95,0,0,1,.54,2.64,2.19,2.19,0,0,1-.85.74,2.91,2.91,0,0,1-2.45,0A2.06,2.06,0,0,1,50.41,10.58Zm3.1-1.09a.81.81,0,0,0-.28-.65,1.13,1.13,0,0,0-.75-.25,1.1,1.1,0,0,0-.74.25.81.81,0,0,0-.28.65.83.83,0,0,0,.28.66,1.1,1.1,0,0,0,.74.24,1.13,1.13,0,0,0,.75-.24A.83.83,0,0,0,53.51,9.49Zm-.18-2.84c0-.42-.28-.63-.85-.63a1,1,0,0,0-.62.16.55.55,0,0,0-.22.47c0,.43.28.65.84.65a1,1,0,0,0,.63-.17A.55.55,0,0,0,53.33,6.65Z"/><path class="cls-1" d="M18.41,11.56a3.46,3.46,0,0,1-3.55-3.35,3.56,3.56,0,0,1,7.1,0A3.45,3.45,0,0,1,18.41,11.56Zm0-5.61A2.32,2.32,0,0,0,16,8.21a2.39,2.39,0,0,0,4.77,0A2.33,2.33,0,0,0,18.41,6Z"/><path class="cls-1" d="M11.66,7.42,9.19,5.27c-.3-.27-.41-.39-.45-.43a.22.22,0,0,1,0-.29.57.57,0,0,1,.44-.2.6.6,0,0,1,.32.1c.15.1.21.19.21.22a.49.49,0,0,1-.13.17L9.44,5l.14.13.64.59.12.11.13-.11A1.34,1.34,0,0,0,11,4.58a1.54,1.54,0,0,0-.73-1.1,1.9,1.9,0,0,0-1.07-.32,1.86,1.86,0,0,0-1.46.67,1.34,1.34,0,0,0,0,1.78c.07.08.22.22.44.43H4.68l.2-.17h0L5,5.77l.5-.43c.42-.36.76-.66,1.05-1l0,0,.06,0h0a2.51,2.51,0,0,0,.73-1.18A2.33,2.33,0,0,0,6.49.8,2.69,2.69,0,0,0,4.84.25a2.66,2.66,0,0,0-2,.83,1.92,1.92,0,0,0-.52,1.46,2,2,0,0,0,.78,1.39,1.94,1.94,0,0,0,.57.3,1.89,1.89,0,0,0,.67.11h.27l.1,0L1.16,7.45a3.06,3.06,0,0,0,2,5.4,5.36,5.36,0,0,0,3.24-1.59,5.32,5.32,0,0,0,3.22,1.57,3,3,0,0,0,2-5.41ZM5.59,10.33a4.24,4.24,0,0,1-2.4,1.3,1.66,1.66,0,0,1-1.14-.39,1.88,1.88,0,0,1-.7-1.45,1.92,1.92,0,0,1,.7-1.45L3.41,7.15l2.28,3.1A.39.39,0,0,0,5.59,10.33Zm5.22.88a1.67,1.67,0,0,1-1.16.4,4.5,4.5,0,0,1-2.38-1.29l0,0L9.48,7.21l.19.17.12.11,0,0,1,.84a2,2,0,0,1,.72,1.45A1.91,1.91,0,0,1,10.81,11.21Zm-2.9-4-1.44,2L5,7.23ZM4.67,3.3l0-.18-.17,0H4.38a.67.67,0,0,1-.24,0A.57.57,0,0,1,4,3a.78.78,0,0,1-.32-.56.75.75,0,0,1,.21-.59,1.35,1.35,0,0,1,1-.42,1.42,1.42,0,0,1,.85.28A1.19,1.19,0,0,1,6.13,2.9a1,1,0,0,1-.26.43l-1,.92,0-.13Z"/><path class="cls-1" d="M6.89,12.5l-.47-.57L6,12.5l-.53.63L4.7,14H8.14l-.72-.87Zm-1,1,.53-.64.53.64Z"/></g></svg>