<svg width="240" height="120" viewBox="0 0 240 120" fill="none" xmlns="http://www.w3.org/2000/svg">
<rect width="240" height="120" fill="#EEEEEE"/>
<path opacity="0.1" d="M134 78H106C103.791 78 102 76.2091 102 74V46C102 43.7909 103.791 42 106 42H134C136.209 42 138 43.7909 138 46V74C138 76.2091 136.209 78 134 78ZM106 46V74H134V46H106ZM132 70H108L114 62L116 64L122 56L132 70ZM113 58C111.343 58 110 56.6569 110 55C110 53.3431 111.343 52 113 52C114.657 52 116 53.3431 116 55C116 56.6569 114.657 58 113 58Z" fill="#444444"/>
</svg>
