<svg xmlns="http://www.w3.org/2000/svg" viewBox="0 0 62 62"><defs><style>.cls-1{fill:#f9a429;}.cls-2{opacity:0.7;}.cls-3{fill:#fff;}.cls-4{fill:#000072;}.cls-5{fill:#ff699f;}.cls-6{fill:#ff398a;}.cls-7{fill:#f9c710;}.cls-8{fill:#f89f1d;}.cls-9{opacity:0.3;}.cls-10{fill:#f9f6c3;}.cls-11{fill:#fafbfb;}</style></defs><title>a-chi-coin</title><g id="EXPORT"><path class="cls-1" d="M11.3,20.1s-2.7-8.79.77-16.7A3.53,3.53,0,0,1,16,1.34a17,17,0,0,1,8.63,4.78S15.39,8.44,11.3,20.1Z"/><g class="cls-2"><path class="cls-3" d="M12.84,4a3.52,3.52,0,0,1,3.7-2.36c.38,0,.79.11,1.23.2A13.79,13.79,0,0,0,16,1.34,3.53,3.53,0,0,0,12.07,3.4c-3.47,7.91-.77,16.7-.77,16.7a28.34,28.34,0,0,1,1.09-2.66A25,25,0,0,1,12.84,4Z"/></g><path class="cls-4" d="M11.3,20.61h0a.5.5,0,0,1-.47-.36c-.12-.36-2.72-9.06.79-17A4,4,0,0,1,16,.84a17.6,17.6,0,0,1,8.89,4.92.52.52,0,0,1,.14.49.5.5,0,0,1-.37.36,16.35,16.35,0,0,0-5,2.57,22.77,22.77,0,0,0-8,11.09A.51.51,0,0,1,11.3,20.61Zm4-18.83a3,3,0,0,0-2.75,1.83c-2.51,5.71-1.71,12-1.13,14.8A23.38,23.38,0,0,1,19.18,8.33a18.83,18.83,0,0,1,4.43-2.42,16.28,16.28,0,0,0-7.76-4.08A3.43,3.43,0,0,0,15.29,1.78Z"/><path class="cls-5" d="M13.33,17.23s-1.88-6.11.53-11.6a2.46,2.46,0,0,1,2.7-1.44,11.85,11.85,0,0,1,6,3.33S16.17,9.13,13.33,17.23Z"/><path class="cls-4" d="M13.33,17.59h0a.35.35,0,0,1-.34-.25c-.08-.26-1.88-6.3.55-11.86a2.8,2.8,0,0,1,3.09-1.64A12.13,12.13,0,0,1,22.8,7.26a.35.35,0,0,1-.16.6c-.06,0-6.23,1.68-9,9.49A.36.36,0,0,1,13.33,17.59ZM16.1,4.51a2.1,2.1,0,0,0-1.91,1.26A17.79,17.79,0,0,0,13.41,16a15.12,15.12,0,0,1,8.45-8.66,11.26,11.26,0,0,0-5.37-2.81A1.72,1.72,0,0,0,16.1,4.51Z"/><path class="cls-1" d="M51.81,20.1s2.7-8.79-.77-16.7a3.52,3.52,0,0,0-3.87-2.06,17,17,0,0,0-8.63,4.78S47.72,8.44,51.81,20.1Z"/><g class="cls-2"><path class="cls-3" d="M50.28,4a3.54,3.54,0,0,0-3.71-2.36c-.38,0-.79.11-1.23.2a13.51,13.51,0,0,1,1.83-.48A3.52,3.52,0,0,1,51,3.4c3.47,7.91.77,16.7.77,16.7a28.34,28.34,0,0,0-1.09-2.66A25.07,25.07,0,0,0,50.28,4Z"/></g><path class="cls-4" d="M51.81,20.61a.51.51,0,0,1-.47-.34,22.77,22.77,0,0,0-8-11.09,16.35,16.35,0,0,0-5-2.57.5.5,0,0,1-.36-.36.49.49,0,0,1,.13-.49A17.63,17.63,0,0,1,47.07.84,4,4,0,0,1,51.5,3.2c3.51,8,.91,16.69.8,17.05a.52.52,0,0,1-.47.36ZM39.5,5.91a18.85,18.85,0,0,1,4.44,2.42A23.45,23.45,0,0,1,51.7,18.41c.58-2.84,1.38-9.1-1.12-14.8a3,3,0,0,0-3.32-1.78A16.32,16.32,0,0,0,39.5,5.91Z"/><path class="cls-5" d="M49.79,17.23s1.87-6.11-.54-11.6a2.45,2.45,0,0,0-2.69-1.44,11.84,11.84,0,0,0-6,3.33S46.94,9.13,49.79,17.23Z"/><path class="cls-4" d="M49.79,17.59a.35.35,0,0,1-.34-.24c-2.74-7.81-8.92-9.47-9-9.49a.38.38,0,0,1-.26-.25.37.37,0,0,1,.1-.35,12.16,12.16,0,0,1,6.18-3.42,2.79,2.79,0,0,1,3.09,1.64c2.44,5.56.63,11.6.55,11.86a.35.35,0,0,1-.34.25ZM41.25,7.36A15.12,15.12,0,0,1,49.71,16a17.81,17.81,0,0,0-.79-10.25,2.09,2.09,0,0,0-2.3-1.22A11.26,11.26,0,0,0,41.25,7.36Z"/><path class="cls-1" d="M31.56,45.23c-15.67,0-26-8.38-21.66-20.32.12-.31.24-.61.37-.92a5.2,5.2,0,0,0,.31-1,24.94,24.94,0,0,1,3.72-9.13c3-4.41,8.2-8.68,17.26-8.68C48.42,5.14,52,19.93,52.54,23a4.16,4.16,0,0,0,.31,1C58.12,36.41,47.62,45.23,31.56,45.23Z"/><path class="cls-3" d="M53.21,24.91s-2.44-.22-4.39,3.33c-1.52,2.79-6.11,2.81-8.59,1.1a15.52,15.52,0,0,0-17.35,0c-2.47,1.71-7.06,1.69-8.59-1.1-1.95-3.55-4.39-3.33-4.39-3.33-4.39,11.94,6,20.32,21.66,20.32S57.6,36.85,53.21,24.91Z"/><g class="cls-2"><path class="cls-3" d="M52.85,24a4.16,4.16,0,0,1-.31-1c-.56-3-4.12-17.81-21-17.81S11.13,19.93,10.58,23a5.2,5.2,0,0,1-.31,1c-.13.31-.25.61-.37.92a15.2,15.2,0,0,0-1,6,16.13,16.13,0,0,1,1-4.6c.12-.3.24-.61.37-.92a5.2,5.2,0,0,0,.31-1c.46-2.53,3-13.28,13.71-16.73a41.63,41.63,0,0,1,5.05-1,16.56,16.56,0,0,1,2.22-.09c16.86,0,20.42,14.79,21,17.81a4.16,4.16,0,0,0,.31,1,16.73,16.73,0,0,1,1.35,5.51A15.52,15.52,0,0,0,52.85,24Z"/></g><path class="cls-4" d="M31.56,31.16c2.39,0,4.7-2,4.19-3.62S31.56,26,31.56,26s-3.69-.09-4.2,1.52S29.16,31.16,31.56,31.16Z"/><path class="cls-4" d="M32.09,31.07a4,4,0,0,1-.19.41,3.35,3.35,0,0,1-.21.36,5.21,5.21,0,0,1-.5.66,4.9,4.9,0,0,1-1.28,1.07,4.91,4.91,0,0,1-2.4.69h-.42l-.4,0-.41,0-.39-.09a5,5,0,0,1-.78-.24,2.59,2.59,0,0,1-.38-.17c-.12-.07-.25-.12-.37-.2L24,33.24c-.11-.08-.21-.19-.32-.28a2.81,2.81,0,0,1-.82-3s0,0,0,0h0a6.56,6.56,0,0,0,.24.71,5.09,5.09,0,0,0,.3.62,3.74,3.74,0,0,0,.83,1l.26.19.29.16a1.6,1.6,0,0,0,.3.13,1.63,1.63,0,0,0,.31.11,4.88,4.88,0,0,0,.66.16l.34.05a1.94,1.94,0,0,0,.34,0l.34,0,.33,0A4.84,4.84,0,0,0,28.1,33a2.8,2.8,0,0,0,.31-.09,1.92,1.92,0,0,0,.31-.11L29,32.7l.28-.16a4.46,4.46,0,0,0,1-.84,5.53,5.53,0,0,0,.41-.52l.18-.27c.05-.09.11-.2.14-.27l0,0a.58.58,0,0,1,.77-.26A.57.57,0,0,1,32.09,31.07Z"/><path class="cls-4" d="M32.09,30.64a1.92,1.92,0,0,0,.15.27,2.11,2.11,0,0,0,.18.27,4.21,4.21,0,0,0,.4.52,5,5,0,0,0,1,.84l.28.16.3.13a1.54,1.54,0,0,0,.3.11L35,33a4.84,4.84,0,0,0,.65.09l.34,0,.33,0a1.88,1.88,0,0,0,.34,0l.34-.05a4.88,4.88,0,0,0,.66-.16,1.63,1.63,0,0,0,.31-.11,1.6,1.6,0,0,0,.3-.13l.29-.16.26-.19a3.56,3.56,0,0,0,.83-1,5.12,5.12,0,0,0,.31-.62c.08-.22.16-.46.24-.71h0s0,0,0,0h0a2.82,2.82,0,0,1-.83,3c-.11.09-.21.2-.32.28l-.35.23a3.22,3.22,0,0,1-.37.2,2.48,2.48,0,0,1-.37.17,5.81,5.81,0,0,1-.78.24l-.4.09-.4,0-.41,0h-.41a4.58,4.58,0,0,1-.83-.09,4.74,4.74,0,0,1-1.58-.6,5.07,5.07,0,0,1-1.28-1.07,6.36,6.36,0,0,1-.5-.66l-.21-.36c-.06-.13-.12-.24-.19-.41a.58.58,0,0,1,1.05-.47Z"/><path class="cls-4" d="M38.07,33.28s-1.41,7.6-6.51,7.6a5.64,5.64,0,0,1-4.75-3.05A14.88,14.88,0,0,1,25,33.28a5.29,5.29,0,0,0,6.52-2.12A5.27,5.27,0,0,0,38.07,33.28Z"/><path class="cls-6" d="M31.56,34c-4.27,0-5.28,2.89-5.28,2.89,1.12,1.8,2.81,3.39,5.28,3.39s4.15-1.59,5.27-3.39C36.83,36.93,35.82,34,31.56,34Z"/><path class="cls-4" d="M31.56,41.38c-5.47,0-7-7.68-7-8a.51.51,0,0,1,.18-.48.49.49,0,0,1,.52-.07,4.78,4.78,0,0,0,5.9-1.94.5.5,0,0,1,.42-.22.51.51,0,0,1,.42.22,4.77,4.77,0,0,0,5.89,1.94.51.51,0,0,1,.52.07.47.47,0,0,1,.18.48C38.51,33.7,37,41.38,31.56,41.38ZM25.73,34c.53,1.89,2.16,6.36,5.83,6.36S36.85,35.9,37.38,34a5.63,5.63,0,0,1-5.82-2A5.65,5.65,0,0,1,25.73,34Z"/><ellipse class="cls-3" cx="31.56" cy="27.15" rx="2.03" ry="0.46"/><path class="cls-4" d="M18.74,21.43a.14.14,0,0,1,0-.27,8.21,8.21,0,0,1,6.79,2.75A.68.68,0,0,1,25.28,25c-1,.4-2.76,1.47-4.47,2.18a.23.23,0,0,1-.25-.37,17.19,17.19,0,0,1,2.38-2.12.51.51,0,0,0,.08-.77A8.31,8.31,0,0,0,18.74,21.43Z"/><path class="cls-4" d="M45.55,21.43a.14.14,0,0,0,0-.27,8.21,8.21,0,0,0-6.79,2.75A.68.68,0,0,0,39,25c1,.4,2.75,1.47,4.47,2.18a.23.23,0,0,0,.25-.37,17.19,17.19,0,0,0-2.38-2.12.5.5,0,0,1-.08-.77A8.31,8.31,0,0,1,45.55,21.43Z"/><ellipse class="cls-3" cx="25.04" cy="19.74" rx="1.24" ry="2.12" transform="translate(-5.55 28.7) rotate(-54.59)"/><path class="cls-3" d="M36.35,21c.4.56,1.49.47,2.45-.21s1.4-1.68,1-2.24-1.35-.47-2.3.21S36,20.4,36.35,21Z"/><path class="cls-4" d="M31.56,45.74c-9.66,0-17.54-3.21-21.1-8.59-2.52-3.81-2.75-8.43-.66-13.36a4,4,0,0,0,.28-.93c.56-3.05,4.2-18.23,21.48-18.23S52.48,19.81,53,22.86a4,4,0,0,0,.28.93c2.09,4.93,1.87,9.55-.66,13.36C49.1,42.53,41.21,45.74,31.56,45.74Zm0-40.1c-16.48,0-20,14.49-20.49,17.4a4.93,4.93,0,0,1-.34,1.15c-2,4.6-1.76,8.89.57,12.41,3.37,5.09,10.94,8.13,20.26,8.13s16.88-3,20.25-8.13c2.33-3.52,2.53-7.81.57-12.41A5.46,5.46,0,0,1,52,23C51.51,20.13,48,5.64,31.56,5.64Z"/><circle class="cls-7" cx="31.12" cy="49.14" r="13.22"/><g class="cls-2"><path class="cls-3" d="M37.74,54.62A8.54,8.54,0,1,1,24.47,43.93a8.41,8.41,0,0,0-1.58,4.94,8.54,8.54,0,0,0,14.85,5.75Z"/></g><path class="cls-8" d="M21.4,40.19a13.22,13.22,0,0,0,19,18.37q.24-.27.48-.57A13.22,13.22,0,0,1,23.22,38.73,14.37,14.37,0,0,0,21.4,40.19Z"/><g class="cls-2"><path class="cls-3" d="M44.48,49a13.2,13.2,0,0,1-5.23,10.54A13.23,13.23,0,0,0,21.8,39.76,13.22,13.22,0,0,1,44.48,49Z"/></g><path class="cls-4" d="M31.26,62.77A13.77,13.77,0,1,1,45,49,13.78,13.78,0,0,1,31.26,62.77Zm0-26.44A12.68,12.68,0,1,0,43.93,49,12.69,12.69,0,0,0,31.26,36.33Z"/><circle class="cls-8" cx="31.26" cy="49" r="8.77"/><g class="cls-9"><path class="cls-4" d="M37.74,54.91a8.66,8.66,0,0,0,1.61-5.06,8.77,8.77,0,0,0-15.24-5.92,8.77,8.77,0,1,1,13.63,11Z"/></g><path class="cls-10" d="M30.71,53.22v-1A4.15,4.15,0,0,1,29,51.79l.31-1.21A3.67,3.67,0,0,0,31,51c.59,0,1-.23,1-.64s-.33-.64-1.09-.9c-1.11-.37-1.86-.89-1.86-1.89a1.91,1.91,0,0,1,1.74-1.84v-1h1v.91a3.6,3.6,0,0,1,1.5.34L33,47.21a3.25,3.25,0,0,0-1.48-.36c-.68,0-.89.29-.89.58s.36.56,1.24.89c1.23.44,1.72,1,1.72,1.93a2,2,0,0,1-1.84,1.92v1Z"/><path class="cls-1" d="M23.67,50.89c-1.41,2.46-5.64,2-10.36-.66s-7.76-7.39-6.75-9.15C8,38.62,13,38.8,17.68,41.51S25.08,48.43,23.67,50.89Z"/><path class="cls-11" d="M23.73,50.76h0l-.06.13a3,3,0,0,1-1,1h0a4.17,4.17,0,0,1-2,.6,7.08,7.08,0,0,1-1,0,16.15,16.15,0,0,1-6.37-2.26,18.64,18.64,0,0,1-2.74-1.94A12.41,12.41,0,0,1,13.35,43a12.25,12.25,0,0,1,2.7-2.3c.54.25,1.08.52,1.63.83C22.32,44.17,25,48.29,23.73,50.76Z"/><path class="cls-4" d="M17.19,52.66A20.3,20.3,0,0,1,13,50.79a18.32,18.32,0,0,1-5.73-5.12c-1.43-2-1.89-3.81-1.26-4.91.81-1.41,2.55-2.13,4.9-2A16,16,0,0,1,18,41c5.11,2.93,7.84,7.44,6.22,10.26h0C23.09,53.18,20.5,53.66,17.19,52.66ZM13.82,40.53a12.17,12.17,0,0,0-3-.53c-1.82-.07-3.18.44-3.73,1.4-.29.51,0,1.79,1.19,3.53a17.24,17.24,0,0,0,5.32,4.75c4.5,2.58,8.31,2.93,9.48.89s-1.42-6-5.75-8.5A17,17,0,0,0,13.82,40.53Zm9.85,10.36Z"/><g class="cls-9"><path class="cls-4" d="M15.16,49.45c-4.36-2.3-7-6.85-6-8.79a3.62,3.62,0,0,1,1.16-1.3c-1.75,0-3.11.61-3.75,1.72-1,1.76,2,6.45,6.75,9.15s9,3.12,10.36.66a2.69,2.69,0,0,0,.28-.73C22.09,51.64,18.75,51.35,15.16,49.45Z"/></g><path class="cls-4" d="M21.52,48.47a1.51,1.51,0,0,1,.73.27,3.49,3.49,0,0,1,.63.52,3.85,3.85,0,0,1,.27.3l.26.33.23.33.21.35a.65.65,0,0,1-.22.9.64.64,0,0,1-.89-.22.63.63,0,0,1-.09-.25v0l0-.35-.06-.35c0-.11-.05-.22-.08-.34l-.11-.33A2.74,2.74,0,0,0,22,49,1.53,1.53,0,0,0,21.52,48.47Z"/><path class="cls-4" d="M19.42,50.27a3.64,3.64,0,0,1,.63.3,4.47,4.47,0,0,1,.59.41,5.17,5.17,0,0,1,.53.52,4.2,4.2,0,0,1,.45.63h0a.66.66,0,0,1-.22.91.65.65,0,0,1-.9-.22.63.63,0,0,1-.1-.29,3.09,3.09,0,0,0-.08-.59,3.27,3.27,0,0,0-.19-.58,3.91,3.91,0,0,0-.31-.57A4,4,0,0,0,19.42,50.27Z"/><path class="cls-1" d="M38.2,50.4c1.27,2.53,5.51,2.37,10.38-.07s8.17-6.94,7.26-8.75c-1.27-2.54-6.25-2.64-11.12-.2S36.94,47.86,38.2,50.4Z"/><path class="cls-11" d="M38.15,50.27h0a.69.69,0,0,0,.05.13,3,3,0,0,0,.91,1.07h0a4.07,4.07,0,0,0,2,.71,6.7,6.7,0,0,0,1,0,16,16,0,0,0,6.49-1.9,18,18,0,0,0,2.85-1.77A12.51,12.51,0,0,0,49,43.09a12.35,12.35,0,0,0-2.56-2.45,16.36,16.36,0,0,0-1.67.74C39.93,43.77,37,47.73,38.15,50.27Z"/><path class="cls-4" d="M44.57,52.54c-3.36.8-5.92.18-6.94-1.85h0c-1.45-2.91,1.53-7.25,6.8-9.89A16,16,0,0,1,51.64,39c2.35,0,4,.87,4.78,2.32,1.18,2.36-2.56,7.12-7.55,9.62A20.91,20.91,0,0,1,44.57,52.54Zm-5.79-2.43c1,2.11,4.88,2,9.52-.35s7.63-6.57,7-7.89c-.5-1-1.83-1.58-3.65-1.61A14.7,14.7,0,0,0,45,42c-4.46,2.24-7.31,6-6.22,8.16Z"/><g class="cls-9"><path class="cls-4" d="M46.78,49.45C51.26,47.4,54.19,43,53.28,41a3.68,3.68,0,0,0-1.08-1.37c1.73.15,3.07.79,3.64,1.94.91,1.81-2.39,6.32-7.26,8.75s-9.11,2.6-10.38.07a3.2,3.2,0,0,1-.24-.74C39.74,51.24,43.08,51.14,46.78,49.45Z"/></g><path class="cls-4" d="M40.49,48.1a1.59,1.59,0,0,0-.55.48,3.42,3.42,0,0,0-.35.62c-.05.1-.08.22-.12.32s-.07.23-.11.34a3.38,3.38,0,0,1-.08.34l-.06.35h0a.66.66,0,0,1-.76.53.65.65,0,0,1-.52-.76.59.59,0,0,1,.1-.26l.23-.33.25-.33.27-.31.29-.28a3.09,3.09,0,0,1,.66-.48A1.7,1.7,0,0,1,40.49,48.1Z"/><path class="cls-4" d="M42.47,50a3.43,3.43,0,0,0-.43.5,4.53,4.53,0,0,0-.34.55,3.34,3.34,0,0,0-.22.57,2.4,2.4,0,0,0-.12.58.65.65,0,0,1-.74.56.64.64,0,0,1-.56-.73.57.57,0,0,1,.11-.29v0a4.75,4.75,0,0,1,.49-.6,5.07,5.07,0,0,1,.55-.49,5.6,5.6,0,0,1,.61-.38A4.23,4.23,0,0,1,42.47,50Z"/></g></svg>