<svg xmlns="http://www.w3.org/2000/svg" viewBox="0 0 53.83 67.64"><defs><style>.cls-1{fill:#f9a429;}.cls-2{opacity:0.7;}.cls-3,.cls-8{fill:#fff;}.cls-4{fill:#000072;}.cls-5{fill:#ff699f;}.cls-6{fill:#ff398a;}.cls-7{fill:#ed407b;}.cls-8{opacity:0.45;}.cls-9{fill:#fafbfb;}.cls-10{opacity:0.3;}</style></defs><title>a-chi-QA</title><g id="圖層_17" data-name="圖層 17"><path class="cls-1" d="M5.87,20.71S3,11.29,6.7,2.82A3.77,3.77,0,0,1,10.85.61,18.29,18.29,0,0,1,20.1,5.73S10.25,8.21,5.87,20.71Z"/><g class="cls-2"><path class="cls-3" d="M7.51,3.43a3.79,3.79,0,0,1,4-2.52q.6.07,1.32.21a14.66,14.66,0,0,0-2-.51A3.77,3.77,0,0,0,6.7,2.82C3,11.29,5.87,20.71,5.87,20.71A28.68,28.68,0,0,1,7,17.86,27,27,0,0,1,7.51,3.43Z"/></g><path class="cls-4" d="M5.87,21.26h0a.55.55,0,0,1-.51-.39c-.12-.39-2.91-9.71.85-18.27A4.29,4.29,0,0,1,11,.08a18.7,18.7,0,0,1,9.52,5.26.55.55,0,0,1,.15.53.52.52,0,0,1-.39.38A17.86,17.86,0,0,0,14.9,9,24.42,24.42,0,0,0,6.38,20.89.55.55,0,0,1,5.87,21.26ZM10.15,1.08a3.24,3.24,0,0,0-3,2C4.5,9.16,5.37,15.86,6,18.9A24.94,24.94,0,0,1,14.31,8.1a20.22,20.22,0,0,1,4.75-2.6,17.41,17.41,0,0,0-8.31-4.36A3.13,3.13,0,0,0,10.15,1.08Z"/><path class="cls-5" d="M8,17.64S6,11.09,8.62,5.2A2.63,2.63,0,0,1,11.5,3.66a12.73,12.73,0,0,1,6.43,3.57S11.09,9,8,17.64Z"/><path class="cls-4" d="M8,18H8a.38.38,0,0,1-.36-.27c-.08-.27-2-6.75.59-12.7a3,3,0,0,1,3.31-1.76A13,13,0,0,1,18.2,7,.39.39,0,0,1,18,7.6c-.06,0-6.68,1.79-9.62,10.16A.38.38,0,0,1,8,18ZM11,4A2.24,2.24,0,0,0,9,5.36a19.08,19.08,0,0,0-.84,11,16.2,16.2,0,0,1,9-9.28,12.07,12.07,0,0,0-5.75-3A3,3,0,0,0,11,4Z"/><path class="cls-1" d="M49.28,20.71s2.89-9.42-.83-17.89A3.77,3.77,0,0,0,44.3.61a18.29,18.29,0,0,0-9.25,5.12S44.89,8.21,49.28,20.71Z"/><g class="cls-2"><path class="cls-3" d="M47.63,3.43a3.77,3.77,0,0,0-4-2.52c-.4,0-.85.12-1.32.21a14.66,14.66,0,0,1,2-.51,3.77,3.77,0,0,1,4.15,2.21c3.72,8.47.83,17.89.83,17.89a28.68,28.68,0,0,0-1.17-2.85A26.89,26.89,0,0,0,47.63,3.43Z"/></g><path class="cls-4" d="M49.28,21.26a.55.55,0,0,1-.51-.37A24.42,24.42,0,0,0,40.25,9a17.86,17.86,0,0,0-5.33-2.75.52.52,0,0,1-.39-.38.55.55,0,0,1,.15-.53A18.7,18.7,0,0,1,44.2.08,4.29,4.29,0,0,1,49,2.6c3.76,8.56,1,17.88.85,18.27a.55.55,0,0,1-.51.39ZM36.09,5.5a20.22,20.22,0,0,1,4.75,2.6,24.94,24.94,0,0,1,8.32,10.8c.62-3,1.48-9.75-1.2-15.86a3.23,3.23,0,0,0-3.56-1.9A17.41,17.41,0,0,0,36.09,5.5Z"/><path class="cls-5" d="M47.11,17.64s2-6.55-.58-12.44a2.63,2.63,0,0,0-2.88-1.54,12.73,12.73,0,0,0-6.43,3.57S44.06,9,47.11,17.64Z"/><path class="cls-4" d="M47.11,18a.38.38,0,0,1-.36-.26C43.81,9.39,37.19,7.62,37.13,7.6a.4.4,0,0,1-.28-.28A.37.37,0,0,1,37,7a13,13,0,0,1,6.63-3.66,3,3,0,0,1,3.31,1.76c2.61,6,.67,12.43.59,12.7a.38.38,0,0,1-.36.27ZM38,7.06A16.2,16.2,0,0,1,47,16.34a19.08,19.08,0,0,0-.84-11A2.24,2.24,0,0,0,43.72,4,12.07,12.07,0,0,0,38,7.06Z"/><path class="cls-1" d="M27.57,47.64c-16.78,0-27.9-9-23.2-21.78.12-.32.25-.65.39-1a5,5,0,0,0,.33-1.12,27,27,0,0,1,4-9.77c3.19-4.74,8.79-9.31,18.49-9.31,18.08,0,21.9,15.84,22.48,19.08a5,5,0,0,0,.34,1.12C56,38.19,44.79,47.64,27.57,47.64Z"/><path class="cls-3" d="M50.78,25.86s-2.61-.23-4.7,3.58c-1.64,3-6.56,3-9.21,1.17a16.63,16.63,0,0,0-18.59,0c-2.65,1.83-7.57,1.81-9.21-1.17-2.09-3.81-4.7-3.58-4.7-3.58-4.7,12.8,6.42,21.78,23.2,21.78S55.48,38.66,50.78,25.86Z"/><g class="cls-2"><path class="cls-3" d="M50.39,24.88a5.37,5.37,0,0,1-.34-1.12c-.59-3.24-4.4-19.08-22.48-19.08S5.69,20.52,5.1,23.76a5.37,5.37,0,0,1-.34,1.12c-.14.33-.27.66-.39,1a16.21,16.21,0,0,0-1.06,6.48,17.07,17.07,0,0,1,1.06-4.93q.18-.5.39-1a5.47,5.47,0,0,0,.34-1.11C5.59,22.6,8.34,11.08,19.79,7.38A43.52,43.52,0,0,1,25.2,6.32a17.4,17.4,0,0,1,2.37-.1c18.08,0,21.89,15.85,22.48,19.09a5.47,5.47,0,0,0,.34,1.11,17.49,17.49,0,0,1,1.45,5.9A16.67,16.67,0,0,0,50.39,24.88Z"/></g><path class="cls-4" d="M27.57,32.56c2.57,0,5-2.15,4.5-3.87s-4.5-1.63-4.5-1.63-3.95-.1-4.49,1.63S25,32.56,27.57,32.56Z"/><path class="cls-4" d="M28.15,32.47a3.45,3.45,0,0,1-.21.43c-.07.13-.14.26-.22.39a7.27,7.27,0,0,1-.53.71,5.67,5.67,0,0,1-1.38,1.15,5.36,5.36,0,0,1-1.68.64,5.48,5.48,0,0,1-.89.09h-.45l-.43,0c-.15,0-.3,0-.44-.06l-.42-.09a6.68,6.68,0,0,1-.84-.25,2.93,2.93,0,0,1-.4-.19,2.93,2.93,0,0,1-.39-.21l-.38-.25c-.12-.09-.23-.2-.34-.3a3,3,0,0,1-.89-3.22h0s0,0,0,0h0a6.59,6.59,0,0,0,.25.75,6.13,6.13,0,0,0,.33.68,3.85,3.85,0,0,0,.89,1.07,2.92,2.92,0,0,0,.28.21l.31.17a2.37,2.37,0,0,0,.32.14,3.4,3.4,0,0,0,.34.12,4,4,0,0,0,.7.16l.36.06c.12,0,.25,0,.37,0h.36l.35,0a4.07,4.07,0,0,0,.7-.1,1.78,1.78,0,0,0,.33-.09,3.21,3.21,0,0,0,.33-.12l.32-.13.3-.18a4.79,4.79,0,0,0,1.07-.9,5.79,5.79,0,0,0,.43-.55l.2-.3c0-.1.12-.21.15-.29l0,0a.62.62,0,0,1,1.13.51Z"/><path class="cls-4" d="M28.15,32c0,.08.1.19.15.29s.13.2.2.3a5.79,5.79,0,0,0,.43.55A4.79,4.79,0,0,0,30,34l.3.18.32.13a2.53,2.53,0,0,0,.33.12,1.78,1.78,0,0,0,.33.09,4.07,4.07,0,0,0,.7.1l.35,0h.36c.12,0,.25,0,.37,0l.36-.06a4,4,0,0,0,.7-.16,3.4,3.4,0,0,0,.34-.12,2.37,2.37,0,0,0,.32-.14l.31-.17c.1-.06.18-.14.28-.21a4,4,0,0,0,.89-1.07c.12-.21.22-.44.33-.68a6.59,6.59,0,0,0,.25-.75h0s0,0,0,0h0A3,3,0,0,1,36,34.49c-.11.1-.22.21-.34.3l-.38.25a8.77,8.77,0,0,1-.79.4,6.68,6.68,0,0,1-.84.25l-.42.09c-.14,0-.29,0-.44.06l-.43,0h-.45a5.48,5.48,0,0,1-.89-.09,5.36,5.36,0,0,1-1.68-.64A5.67,5.67,0,0,1,28,34a7.27,7.27,0,0,1-.53-.71c-.08-.13-.15-.26-.22-.39a3.45,3.45,0,0,1-.21-.43.62.62,0,0,1,.34-.81.63.63,0,0,1,.79.3Z"/><path class="cls-4" d="M34.56,34.84S33.05,43,27.57,43a6,6,0,0,1-5.08-3.27,15.71,15.71,0,0,1-1.9-4.86,5.67,5.67,0,0,0,7-2.28A5.69,5.69,0,0,0,34.56,34.84Z"/><path class="cls-6" d="M27.57,35.65c-4.57,0-5.65,3.1-5.65,3.1,1.21,1.93,3,3.63,5.65,3.63s4.45-1.7,5.66-3.63C33.23,38.75,32.15,35.65,27.57,35.65Z"/><path class="cls-4" d="M27.57,43.51c-5.85,0-7.45-8.23-7.51-8.58a.55.55,0,0,1,.19-.52.56.56,0,0,1,.56-.07,5.1,5.1,0,0,0,6.31-2.07.54.54,0,0,1,.91,0,5.1,5.1,0,0,0,6.31,2.07.56.56,0,0,1,.56.07.55.55,0,0,1,.19.52C35,35.28,33.43,43.51,27.57,43.51Zm-6.23-7.89c.56,2,2.3,6.81,6.23,6.81s5.68-4.79,6.24-6.81a6.06,6.06,0,0,1-6.24-2.14A6,6,0,0,1,21.34,35.62Z"/><ellipse class="cls-3" cx="27.58" cy="28.27" rx="2.18" ry="0.5"/><ellipse class="cls-3" cx="20.59" cy="20.32" rx="1.33" ry="2.27" transform="translate(-7.9 25.33) rotate(-54.59)"/><path class="cls-3" d="M32.71,21.63c.43.6,1.6.5,2.62-.22s1.5-1.8,1.08-2.4-1.45-.5-2.47.22S32.29,21,32.71,21.63Z"/><path class="cls-4" d="M27.57,48.18C17.23,48.18,8.78,44.74,5,39,2.26,34.9,2,30,4.27,24.67a4.79,4.79,0,0,0,.29-1c.6-3.27,4.5-19.53,23-19.53S50,20.4,50.59,23.67a4.79,4.79,0,0,0,.29,1c2.25,5.28,2,10.23-.7,14.32C46.37,44.74,37.92,48.18,27.57,48.18Zm0-43C9.92,5.22,6.19,20.75,5.63,23.86a5.65,5.65,0,0,1-.37,1.23c-2.09,4.93-1.88,9.53.61,13.3,3.61,5.45,11.72,8.71,21.7,8.71s18.1-3.26,21.71-8.71c2.49-3.77,2.7-8.37.61-13.3a5.65,5.65,0,0,1-.37-1.23C49,20.75,45.23,5.22,27.57,5.22Z"/><path class="cls-4" d="M20.47,27c-.27-.22-.54-.45-.8-.65a8.74,8.74,0,0,0-.79-.55,7.32,7.32,0,0,0-.78-.41c-.13,0-.25-.11-.39-.13l-.2-.06-.2,0a2.89,2.89,0,0,0-.44-.07l-.44,0H16l-.22,0-.21,0a3.91,3.91,0,0,0-.85.25,3.23,3.23,0,0,0-.41.22l-.21.13a2.14,2.14,0,0,1-.19.13l-.11.07a.3.3,0,0,1-.41-.12.3.3,0,0,1,0-.23l.05-.17.06-.15c0-.1.09-.19.14-.29a2.4,2.4,0,0,1,.18-.26l.1-.13L14,24.4a3.4,3.4,0,0,1,1.06-.77,4.15,4.15,0,0,1,1.27-.35l.32,0H17l.32,0h.16l.17,0,.33.06.32.09a3,3,0,0,1,.32.12l.3.14a4.29,4.29,0,0,1,1,.78,4.24,4.24,0,0,1,.73,1,4.87,4.87,0,0,1,.24.57,3.44,3.44,0,0,1,.13.61.31.31,0,0,1-.28.35.3.3,0,0,1-.23-.06Z"/><path class="cls-4" d="M33.37,26.58a2.77,2.77,0,0,1,.15-.6,3.53,3.53,0,0,1,.25-.56,4.51,4.51,0,0,1,.75-1,4.29,4.29,0,0,1,1.07-.75l.31-.14.31-.1.33-.09.33-.05.17,0h.48l.32,0,.32,0a3.94,3.94,0,0,1,1.25.38,3.58,3.58,0,0,1,1.05.79l.11.13.09.13a1.53,1.53,0,0,1,.17.27c.05.1.1.19.14.29a.75.75,0,0,1,.05.16c0,.05,0,.1,0,.17a.29.29,0,0,1-.21.36.31.31,0,0,1-.23,0l-.11-.07a1.82,1.82,0,0,1-.19-.14l-.2-.13a3.3,3.3,0,0,0-.41-.23,3.74,3.74,0,0,0-.84-.27l-.21,0-.22,0-.21,0H38c-.15,0-.3,0-.45,0s-.31,0-.44.05l-.2,0-.2.05c-.14,0-.26.1-.4.13a5.78,5.78,0,0,0-.79.39,8.32,8.32,0,0,0-.8.52l-.82.63,0,0a.33.33,0,0,1-.45-.07A.29.29,0,0,1,33.37,26.58Z"/><path class="cls-7" d="M9.89,67.09c-.12,0,.78-.07.78-.15L9.48,40.61l33.45,0,1.2,26.48Z"/><path class="cls-4" d="M42.41,41l1.17,25.8-32.39,0L10,41l32.39,0m.8-.68h0l-35-.06c-.14,0-.25.07-.24.16l1.2,26.52c0,.26.33.47.73.49h.05l34.5.06c.14,0,.25-.07.25-.16L43.45,40.49c0-.09-.11-.16-.24-.17Z"/><path class="cls-3" d="M10.12,37.52a.52.52,0,0,1,.37-.14l34.6-.1L43,40,8.87,40Z"/><path class="cls-4" d="M44,37.62l-1.26,2.07-33,0,.78-1.91L44,37.62m1.15-.68h0L10.47,37a1.12,1.12,0,0,0-.82.31L8,40.29s0,0,0,0H8l35.25,0h0l2.26-2.9c.24-.21,0-.52-.4-.53Z"/><path class="cls-3" d="M43.73,40.44l1.44-1.23,1.5,25.23a.23.23,0,0,1-.07.18l-1.52,1.62Z"/><path class="cls-4" d="M44.7,40.19l1.44,24.25-.59.63L44.27,40.56l.43-.37m.94-3-2.45,3.09,1.43,27.09,2.44-2.61a.47.47,0,0,0,.14-.36L45.64,37.23Z"/><polygon class="cls-8" points="14.53 49.63 14.25 42.98 39.2 43.17 39.48 49.82 14.53 49.63"/><path class="cls-3" d="M24.85,64.54a2.73,2.73,0,0,1-.5-.05,2.43,2.43,0,0,1-1.45-.92,2.34,2.34,0,0,1,.65-3.29,2.27,2.27,0,0,1,1.23-.37,2.31,2.31,0,0,1,.52.06,2.29,2.29,0,0,1,1.78,2.73A2.22,2.22,0,0,1,26,64.22,2.37,2.37,0,0,1,24.85,64.54ZM25.56,59a2.18,2.18,0,0,1-.49-.06,2,2,0,0,1-1.28-.84,2.13,2.13,0,0,1-.26-1.69,4.67,4.67,0,0,1,.69-1.7,4.85,4.85,0,0,1,1.12-1.14c.38-.26.88-.57,1.49-.91s.86-.5,1.09-.64a2.55,2.55,0,0,0,.46-.41.89.89,0,0,0,.2-.4,1.11,1.11,0,0,0-.2-.91,1.47,1.47,0,0,0-1-.59,2.32,2.32,0,0,0-.56-.07,1.09,1.09,0,0,0-.63.17,3.87,3.87,0,0,0-1,1.24,2.13,2.13,0,0,1-1.9,1.28,2.4,2.4,0,0,1-.46-.05,2.12,2.12,0,0,1-1.36-.94,2.07,2.07,0,0,1-.31-1.51,4.61,4.61,0,0,1,1.23-2.2,5.63,5.63,0,0,1,2.49-1.46,5.92,5.92,0,0,1,1.75-.25,7.64,7.64,0,0,1,1.54.17A6.76,6.76,0,0,1,31,47.3a5.13,5.13,0,0,1,1.68,2.17,4.46,4.46,0,0,1,.22,2.6A4,4,0,0,1,32,53.85,5.57,5.57,0,0,1,30.78,55c-.4.25-1.1.67-2.11,1.24-.24.15-.44.28-.59.39a1.58,1.58,0,0,0-.28.25c-.06.08-.11.16-.16.24s-.16.33-.29.62A1.88,1.88,0,0,1,25.56,59Z"/><path class="cls-4" d="M26.61,46.65A6.86,6.86,0,0,1,28,46.8a6,6,0,0,1,2.49,1.1,4.31,4.31,0,0,1,1.44,1.85,3.75,3.75,0,0,1,.19,2.17,3.21,3.21,0,0,1-.67,1.44,4.55,4.55,0,0,1-1.08,1q-.59.38-2.07,1.23a7.86,7.86,0,0,0-.67.44,2.21,2.21,0,0,0-.41.38,2.82,2.82,0,0,0-.24.36c-.07.13-.17.35-.32.66a1.14,1.14,0,0,1-1.1.85,2.11,2.11,0,0,1-.33,0,1.25,1.25,0,0,1-.82-.54,1.41,1.41,0,0,1-.15-1.1,4,4,0,0,1,.58-1.43,3.86,3.86,0,0,1,.94-.95,14.94,14.94,0,0,1,1.42-.88c.51-.29.89-.51,1.12-.66a3,3,0,0,0,.63-.55,1.62,1.62,0,0,0,.36-.73A1.85,1.85,0,0,0,29,49.84,2.27,2.27,0,0,0,27.55,49a3.86,3.86,0,0,0-.72-.08,1.81,1.81,0,0,0-1.06.3,4.53,4.53,0,0,0-1.24,1.48,1.48,1.48,0,0,1-1.26.91l-.3,0a1.37,1.37,0,0,1-.88-.61,1.23,1.23,0,0,1-.21-1,3.86,3.86,0,0,1,1-1.83,5,5,0,0,1,2.17-1.26,5.1,5.1,0,0,1,1.53-.22m-1.83,14a2.2,2.2,0,0,1,.36,0,1.52,1.52,0,0,1,1,.67,1.49,1.49,0,0,1,.21,1.17,1.46,1.46,0,0,1-.69,1,1.58,1.58,0,0,1-.8.22,1.39,1.39,0,0,1-.35,0,1.58,1.58,0,0,1-1-.63,1.45,1.45,0,0,1-.23-1.22,1.49,1.49,0,0,1,.68-1,1.58,1.58,0,0,1,.83-.25m1.83-15.51h0a6.8,6.8,0,0,0-2,.28,6.44,6.44,0,0,0-2.81,1.66,5.29,5.29,0,0,0-1.42,2.57,2.75,2.75,0,0,0,.41,2.06A2.79,2.79,0,0,0,22.66,53a2.54,2.54,0,0,0,.61.07,2.88,2.88,0,0,0,2.57-1.69,3.13,3.13,0,0,1,.79-1,.41.41,0,0,1,.2,0,2.27,2.27,0,0,1,.41.05.75.75,0,0,1,.53.29.35.35,0,0,1,.07.33s0,.05,0,.06a2.08,2.08,0,0,1-.32.27c-.2.13-.55.34-1,.61-.64.36-1.15.68-1.55,1a5.44,5.44,0,0,0-1.3,1.32,5.36,5.36,0,0,0-.81,2,2.82,2.82,0,0,0,.37,2.26,2.55,2.55,0,0,0,.8.77,3.56,3.56,0,0,0-.82.37,3,3,0,0,0-1.34,2,2.86,2.86,0,0,0,.5,2.44,3.14,3.14,0,0,0,1.88,1.19,3,3,0,0,0,.66.07,3,3,0,0,0,1.54-.42,2.9,2.9,0,0,0,1.42-2A3,3,0,0,0,26.4,59.6,2.73,2.73,0,0,0,28,58c.12-.27.21-.45.27-.56a.42.42,0,0,1,.08-.12.73.73,0,0,1,.14-.12c.09-.06.25-.18.53-.34,1-.58,1.71-1,2.12-1.26a6.37,6.37,0,0,0,1.41-1.25,4.72,4.72,0,0,0,1-2.1,5.32,5.32,0,0,0-.26-3,5.84,5.84,0,0,0-1.92-2.49,7.65,7.65,0,0,0-3.1-1.38,8.48,8.48,0,0,0-1.7-.18Z"/><path class="cls-1" d="M37.06,58.11c2,2.14,6.13.75,10.24-3.08s6.05-9.23,4.63-10.75c-2-2.14-7-.79-11,3S35.07,56,37.06,58.11Z"/><path class="cls-9" d="M37,58h0l.1.11a2.9,2.9,0,0,0,1.2.79h0A4.32,4.32,0,0,0,40.4,59a6.7,6.7,0,0,0,1-.25A16.33,16.33,0,0,0,47.3,55a18.41,18.41,0,0,0,2.29-2.58,12.71,12.71,0,0,0-4-4.68,12.52,12.52,0,0,0-3.25-1.67c-.48.37-1,.77-1.44,1.21C36.84,51.06,35.13,55.81,37,58Z"/><path class="cls-4" d="M44,58.38c-3.09,1.77-5.8,1.9-7.39.18h0C34.29,56.11,36,51,40.42,46.82a16.47,16.47,0,0,1,6.6-3.9c2.34-.64,4.25-.32,5.39.9,1.85,2-.46,7.79-4.66,11.7A21.36,21.36,0,0,1,44,58.38Zm-6.43-.72c1.66,1.78,5.4.53,9.31-3.11s5.63-8.7,4.59-9.82c-.77-.84-2.26-1-4.07-.53a15.07,15.07,0,0,0-6,3.59c-3.77,3.51-5.5,8-3.79,9.87Z"/><g class="cls-10"><path class="cls-4" d="M45.26,54.68c3.84-3.32,5.45-8.51,4-10.22a3.76,3.76,0,0,0-1.47-1c1.76-.36,3.27-.11,4.17.86C53.35,45.8,51.4,51.21,47.3,55s-8.25,5.22-10.24,3.08a3,3,0,0,1-.46-.66C38.82,58.5,42.1,57.43,45.26,54.68Z"/></g><path class="cls-4" d="M38.65,55.18a1.51,1.51,0,0,0-.4.63,2.94,2.94,0,0,0-.17.71c0,.12,0,.24,0,.36v.36c0,.13,0,.25,0,.37l0,.36h0a.67.67,0,0,1-.6.74.68.68,0,0,1-.74-.6.83.83,0,0,1,0-.28l.14-.4c0-.13.1-.27.15-.39s.11-.26.17-.39.13-.25.21-.37a3.24,3.24,0,0,1,.51-.66A1.69,1.69,0,0,1,38.65,55.18Z"/><path class="cls-4" d="M41.17,56.5a3.6,3.6,0,0,0-.29.63,4.64,4.64,0,0,0-.17.64,3.35,3.35,0,0,0-.05.63,2.92,2.92,0,0,0,.05.6.69.69,0,0,1-.57.78.68.68,0,0,1-.77-.57.54.54,0,0,1,0-.31v0a4.43,4.43,0,0,1,.31-.74,4.77,4.77,0,0,1,.41-.65,4.26,4.26,0,0,1,.49-.54A3.94,3.94,0,0,1,41.17,56.5Z"/><path class="cls-1" d="M18,56c-1.76,2.33-6,1.36-10.5-2s-7-8.56-5.71-10.23c1.76-2.33,6.83-1.49,11.31,1.89S19.71,53.63,18,56Z"/><path class="cls-9" d="M18,55.84h0L18,56a3,3,0,0,1-1.12.91h0a4.22,4.22,0,0,1-2.12.35,6.62,6.62,0,0,1-1-.14,16.39,16.39,0,0,1-6.22-3.14A17.83,17.83,0,0,1,4.9,51.61a12.91,12.91,0,0,1,6.59-7.07c.52.32,1,.67,1.56,1.06C17.44,48.92,19.63,53.47,18,55.84Z"/><path class="cls-4" d="M11.1,56.93a21.51,21.51,0,0,1-4-2.46,18.86,18.86,0,0,1-5.19-6c-1.2-2.25-1.43-4.14-.65-5.18,1-1.33,2.88-1.85,5.27-1.45a16.34,16.34,0,0,1,7,3.21c4.84,3.66,7,8.61,5,11.29h0C17.06,58.23,14.35,58.38,11.1,56.93ZM9.24,44.09a12.6,12.6,0,0,0-3-.92c-1.86-.31-3.31,0-4,.94-.36.48-.27,1.83.76,3.76a17.55,17.55,0,0,0,4.82,5.54c4.26,3.22,8.1,4.08,9.57,2.15s-.67-6.33-4.77-9.43A17.67,17.67,0,0,0,9.24,44.09ZM18,56Z"/><g class="cls-10"><path class="cls-4" d="M9.44,53.38c-4.16-2.91-6.3-7.91-5-9.76A3.78,3.78,0,0,1,5.8,42.44c-1.79-.18-3.26.22-4.06,1.27C.49,45.38,3,50.56,7.45,53.94s8.74,4.35,10.5,2a3.28,3.28,0,0,0,.39-.71C16.24,56.52,12.87,55.79,9.44,53.38Z"/></g><path class="cls-4" d="M16.07,53.2a1.82,1.82,0,0,1,.71.38,3.28,3.28,0,0,1,.57.61c.09.11.17.23.25.35s.14.24.21.36l.19.37.17.39a.67.67,0,0,1-1.22.55.67.67,0,0,1-.06-.28h0v-.36c0-.12,0-.24,0-.37s0-.24,0-.36,0-.24-.06-.35a3.32,3.32,0,0,0-.24-.69A1.63,1.63,0,0,0,16.07,53.2Z"/><path class="cls-4" d="M13.69,54.78a3.19,3.19,0,0,1,.6.38,3.71,3.71,0,0,1,.55.5,4,4,0,0,1,.47.6,3.91,3.91,0,0,1,.38.7h0a.69.69,0,0,1-.34.9.67.67,0,0,1-.89-.34.57.57,0,0,1-.06-.31,4.16,4.16,0,0,0,0-.61,3.56,3.56,0,0,0-.12-.62,3.61,3.61,0,0,0-.24-.62A3.16,3.16,0,0,0,13.69,54.78Z"/></g></svg>