<svg xmlns="http://www.w3.org/2000/svg" viewBox="0 0 38.19 33.49"><defs><style>.cls-1{fill:#ffa910;}.cls-2{fill:#000072;}.cls-3{fill:#ff5299;}.cls-4{fill:#6f6f84;}.cls-5{fill:#f72163;}.cls-6{fill:#fff;}.cls-7{fill:#f73954;}</style></defs><title>a-chi-service</title><g id="EXPORT"><path class="cls-1" d="M5.8,12.69S4,6.92,6.31,1.73A2.31,2.31,0,0,1,8.85.37a11.24,11.24,0,0,1,5.67,3.14S8.49,5,5.8,12.69Z"/><path class="cls-2" d="M5.8,13h0a.33.33,0,0,1-.31-.23C5.41,12.55,3.7,6.84,6,1.6A2.63,2.63,0,0,1,8.91.05a11.51,11.51,0,0,1,5.84,3.22.36.36,0,0,1,.09.33.37.37,0,0,1-.24.23,10.88,10.88,0,0,0-3.27,1.69A15,15,0,0,0,6.11,12.8.32.32,0,0,1,5.8,13ZM8.42.66a2,2,0,0,0-1.81,1.2,16.88,16.88,0,0,0-.74,9.72A15.36,15.36,0,0,1,11,5a12.56,12.56,0,0,1,2.91-1.59A10.66,10.66,0,0,0,8.79.7,1.55,1.55,0,0,0,8.42.66Z"/><path class="cls-3" d="M7.13,10.8a12.25,12.25,0,0,1,.35-7.61,1.61,1.61,0,0,1,1.77-.94,7.75,7.75,0,0,1,3.94,2.18S9,5.48,7.13,10.8Z"/><path class="cls-1" d="M32.39,12.69s1.77-5.77-.5-11A2.33,2.33,0,0,0,29.34.37a11.18,11.18,0,0,0-5.66,3.14S29.71,5,32.39,12.69Z"/><path class="cls-2" d="M32.39,13a.33.33,0,0,1-.31-.22c-2.6-7.4-8.42-9-8.48-9a.33.33,0,0,1-.24-.23.34.34,0,0,1,.09-.33A11.45,11.45,0,0,1,29.28.05,2.63,2.63,0,0,1,32.19,1.6c2.3,5.24.59,11,.52,11.19a.33.33,0,0,1-.31.23ZM24.31,3.37A12.56,12.56,0,0,1,27.22,5a15.36,15.36,0,0,1,5.1,6.62,16.8,16.8,0,0,0-.74-9.72A2,2,0,0,0,29.4.7,10.7,10.7,0,0,0,24.31,3.37Z"/><path class="cls-3" d="M31.06,10.8a12.25,12.25,0,0,0-.35-7.61,1.6,1.6,0,0,0-1.77-.94A7.69,7.69,0,0,0,25,4.43S29.2,5.48,31.06,10.8Z"/><path class="cls-4" d="M19.1,2.87C25.94,2.87,29.16,7,29.16,7l1.23-1.51S27,1,19.1,1,7.8,5.45,7.8,5.45L9,7S12.26,2.87,19.1,2.87Z"/><path class="cls-2" d="M29.16,7.3h0a.35.35,0,0,1-.26-.13s-3.22-4-9.8-4-9.78,3.93-9.81,4A.36.36,0,0,1,9,7.3H9a.35.35,0,0,1-.26-.13L7.54,5.66a.32.32,0,0,1,0-.4A10.15,10.15,0,0,1,10.3,2.92,16.62,16.62,0,0,1,19.1.62a16.58,16.58,0,0,1,8.79,2.3,10.51,10.51,0,0,1,2.77,2.34.32.32,0,0,1,0,.4L29.42,7.17A.33.33,0,0,1,29.16,7.3ZM8.23,5.46l.81,1a11.58,11.58,0,0,1,2.28-1.82,14.81,14.81,0,0,1,7.78-2.1,14.74,14.74,0,0,1,7.77,2.1,11.58,11.58,0,0,1,2.28,1.82l.81-1a10.65,10.65,0,0,0-2.44-2A16,16,0,0,0,19.1,1.28C12.36,1.28,9,4.61,8.23,5.46Z"/><path class="cls-5" d="M3.52,15.23s-4.31-.7-2.91-5c1.29-4,5.64-2,5.64-2S4.79,9.39,3.52,15.23Z"/><path class="cls-2" d="M3.52,15.56h0a4.61,4.61,0,0,1-3-1.88A4.1,4.1,0,0,1,.3,10.14a3.7,3.7,0,0,1,2-2.4,5.65,5.65,0,0,1,4.1.2.34.34,0,0,1,.19.26.33.33,0,0,1-.12.3s-1.4,1.23-2.62,6.8A.33.33,0,0,1,3.52,15.56Zm.4-7.48a3.27,3.27,0,0,0-1.36.27,3.09,3.09,0,0,0-1.63,2,3.48,3.48,0,0,0,.13,3,3.83,3.83,0,0,0,2.21,1.51c.9-4,1.9-5.75,2.42-6.45A6,6,0,0,0,3.92,8.08Z"/><path class="cls-6" d="M4.77,17.14S1,16.42,3.4,9.76c2-5.42,4.95-4.17,6.07-3.46C9.47,6.3,6.88,8.92,4.77,17.14Z"/><path class="cls-2" d="M4.76,17.52h0a3.06,3.06,0,0,1-2-1.75c-.68-1.46-.55-3.53.4-6.15C3.89,7.42,4.94,6,6.22,5.5A3.76,3.76,0,0,1,9.63,6a.4.4,0,0,1,.17.29.46.46,0,0,1-.12.34S7.13,9.27,5.09,17.24A.34.34,0,0,1,4.76,17.52ZM7.56,6a2.52,2.52,0,0,0-1.12.19c-1.1.46-2,1.69-2.74,3.68-.85,2.36-1,4.26-.42,5.48a2.45,2.45,0,0,0,1.27,1.27C6.21,10.35,8.14,7.41,8.91,6.41A3.35,3.35,0,0,0,7.56,6Z"/><path class="cls-5" d="M34.68,15.23s4.3-.7,2.9-5c-1.29-4-5.64-2-5.64-2S33.4,9.39,34.68,15.23Z"/><path class="cls-2" d="M34.67,15.56a.34.34,0,0,1-.32-.26c-1.21-5.57-2.6-6.79-2.62-6.8a.34.34,0,0,1-.12-.3.34.34,0,0,1,.2-.26,5.62,5.62,0,0,1,4.09-.2,3.71,3.71,0,0,1,2,2.4,4.14,4.14,0,0,1-.2,3.53,4.6,4.6,0,0,1-3,1.88ZM32.51,8.38c.52.7,1.51,2.45,2.42,6.45a3.83,3.83,0,0,0,2.21-1.51,3.52,3.52,0,0,0,.13-3,3.07,3.07,0,0,0-1.64-2A4.57,4.57,0,0,0,32.51,8.38Z"/><path class="cls-6" d="M34.07,17.13s3.88-.75,1.36-7.39c-2.06-5.4-5.13-4.14-6.26-3.42C29.17,6.32,31.85,8.93,34.07,17.13Z"/><path class="cls-2" d="M33.75,17.23C31.59,9.28,29,6.64,29,6.61a.39.39,0,0,1-.12-.33A.4.4,0,0,1,29,6a3.91,3.91,0,0,1,3.49-.47c1.32.52,2.42,1.89,3.25,4.08,1,2.62,1.15,4.69.46,6.15a3.16,3.16,0,0,1-2.06,1.77h0A.34.34,0,0,1,33.75,17.23Zm-4-10.8c.8,1,2.8,3.92,4.56,10.22a2.58,2.58,0,0,0,1.3-1.28c.58-1.23.41-3.12-.48-5.48-.76-2-1.71-3.21-2.84-3.66a2.84,2.84,0,0,0-1.16-.18A3.67,3.67,0,0,0,29.74,6.43Z"/><path class="cls-1" d="M19.1,29.18C8.81,29.18,2,23.68,4.88,15.84l.24-.6a3.34,3.34,0,0,0,.21-.68C5.69,12.57,8,2.87,19.1,2.87s13.41,9.7,13.77,11.69a3.31,3.31,0,0,0,.2.68C36.54,23.4,29.64,29.18,19.1,29.18Z"/><path class="cls-6" d="M33.31,15.84s-1.6-.14-2.88,2.19c-1,1.83-4,1.84-5.64.72a10.19,10.19,0,0,0-11.39,0c-1.62,1.12-4.63,1.11-5.64-.72-1.28-2.33-2.88-2.19-2.88-2.19C2,23.68,8.81,29.18,19.1,29.18S36.19,23.68,33.31,15.84Z"/><path class="cls-2" d="M19.1,20c1.57,0,3.09-1.32,2.75-2.38s-2.75-1-2.75-1-2.42-.06-2.76,1S17.52,20,19.1,20Z"/><path class="cls-2" d="M19.45,19.89l-.06.14-.07.12c0,.09-.09.16-.13.24a4.59,4.59,0,0,1-.33.44,3.33,3.33,0,0,1-.84.7,3,3,0,0,1-1,.39,3.57,3.57,0,0,1-1.08,0,4.15,4.15,0,0,1-1-.25,2.85,2.85,0,0,1-.93-.58,1.92,1.92,0,0,1-.57-.93,1.68,1.68,0,0,1,0-1h0a0,0,0,0,1,0,0h0a3.68,3.68,0,0,0,.36.88,2.3,2.3,0,0,0,.54.66,2.49,2.49,0,0,0,.76.39,4.38,4.38,0,0,0,.88.15,2.8,2.8,0,0,0,.87-.07,2.64,2.64,0,0,0,.4-.12l.38-.19a3.17,3.17,0,0,0,.66-.56,3,3,0,0,0,.26-.34l.12-.18a.41.41,0,0,0,.05-.09l.05-.08v0a.38.38,0,0,1,.51-.17A.39.39,0,0,1,19.45,19.89Z"/><path class="cls-2" d="M19.45,19.61s0,.05,0,.08l.05.09.12.18a2.24,2.24,0,0,0,.27.34,2.88,2.88,0,0,0,.65.56l.38.19a2.77,2.77,0,0,0,.41.12,2.73,2.73,0,0,0,.86.07,4.26,4.26,0,0,0,.88-.15,2.49,2.49,0,0,0,.76-.39,2.34,2.34,0,0,0,.55-.66,4.14,4.14,0,0,0,.35-.88h0s0,0,0,0a1.61,1.61,0,0,1,0,1,1.92,1.92,0,0,1-.57.93,2.75,2.75,0,0,1-.93.58,4.19,4.19,0,0,1-1,.25,3.63,3.63,0,0,1-1.09,0,2.93,2.93,0,0,1-1-.39,3.21,3.21,0,0,1-.85-.7,4.48,4.48,0,0,1-.32-.44,1.88,1.88,0,0,1-.14-.24L18.81,20a1,1,0,0,1-.06-.14A.37.37,0,0,1,19,19.4a.36.36,0,0,1,.47.18Z"/><path class="cls-2" d="M23.38,21.34s-.93,5-4.28,5a3.69,3.69,0,0,1-3.12-2,9.52,9.52,0,0,1-1.16-3A3.48,3.48,0,0,0,19.1,20,3.48,3.48,0,0,0,23.38,21.34Z"/><path class="cls-7" d="M19.1,22.61c-2.53,0-3.12,1.71-3.12,1.71a3.69,3.69,0,0,0,3.12,2,3.69,3.69,0,0,0,3.11-2S21.62,22.61,19.1,22.61Z"/><path class="cls-2" d="M19.1,26.66c-3.59,0-4.57-5.05-4.61-5.26a.35.35,0,0,1,.12-.32A.32.32,0,0,1,15,21a3.14,3.14,0,0,0,3.87-1.27.32.32,0,0,1,.28-.15h0a.31.31,0,0,1,.27.15A3.14,3.14,0,0,0,23.24,21a.32.32,0,0,1,.34,0,.33.33,0,0,1,.12.32C23.66,21.61,22.68,26.66,19.1,26.66Zm-3.82-4.84C15.62,23.06,16.69,26,19.1,26s3.47-2.93,3.82-4.17a3.7,3.7,0,0,1-3.82-1.31A3.7,3.7,0,0,1,15.28,21.82Z"/><ellipse class="cls-6" cx="19.1" cy="17.32" rx="1.34" ry="0.3"/><ellipse class="cls-6" cx="14.82" cy="12.45" rx="0.82" ry="1.39" transform="translate(-3.91 17.31) rotate(-54.59)"/><path class="cls-6" d="M22.24,13.25c.27.37,1,.31,1.61-.14s.92-1.1.66-1.47-.89-.3-1.51.14S22,12.88,22.24,13.25Z"/><path class="cls-2" d="M19.1,29.52c-6.34,0-11.52-2.11-13.85-5.64-1.66-2.5-1.81-5.53-.43-8.77A3.07,3.07,0,0,0,5,14.5c.37-2,2.76-12,14.1-12s13.73,10,14.09,12a2.54,2.54,0,0,0,.19.61c1.37,3.24,1.22,6.27-.44,8.77C30.61,27.41,25.43,29.52,19.1,29.52Zm0-26.32C8.28,3.2,6,12.71,5.65,14.62a3.81,3.81,0,0,1-.22.75c-1.29,3-1.16,5.84.37,8.15C8,26.86,13,28.85,19.1,28.85s11.08-2,13.29-5.33c1.53-2.31,1.66-5.13.38-8.15a3.26,3.26,0,0,1-.23-.75C32.19,12.71,29.91,3.2,19.1,3.2Z"/><path class="cls-2" d="M15.06,16.3l-.5-.41-.49-.33a3.77,3.77,0,0,0-.48-.26l-.25-.08-.12,0-.12,0a1.18,1.18,0,0,0-.28,0l-.27,0h-.41l-.13,0a2.07,2.07,0,0,0-.52.16,1.26,1.26,0,0,0-.26.13l-.13.08-.11.08-.07,0a.19.19,0,0,1-.26-.07.17.17,0,0,1,0-.14l0-.11,0-.09L10.8,15a1.77,1.77,0,0,1,.12-.17l.06-.08.06-.07a2.16,2.16,0,0,1,.66-.47,2.45,2.45,0,0,1,.79-.22h.69l.1,0,.21,0,.2.06.2.08.19.08a2.59,2.59,0,0,1,.64.49,2.51,2.51,0,0,1,.45.63,2.17,2.17,0,0,1,.15.35,2.12,2.12,0,0,1,.08.38.21.21,0,0,1-.17.22.24.24,0,0,1-.15,0Z"/><path class="cls-2" d="M22.78,16.24a2.11,2.11,0,0,1,.09-.38,1.58,1.58,0,0,1,.16-.35,2.69,2.69,0,0,1,.46-.62,2.79,2.79,0,0,1,.66-.46l.19-.08.2-.07.2,0,.21,0h.6l.19,0a2.36,2.36,0,0,1,.78.24,2.1,2.1,0,0,1,.65.49l.07.07.05.09.11.16.09.19,0,.09a.81.81,0,0,1,0,.11.19.19,0,0,1-.13.22.16.16,0,0,1-.15,0l-.06,0-.12-.08L27,15.63l-.26-.14a2.43,2.43,0,0,0-.52-.17l-.13,0-.13,0h-.55l-.27,0-.13,0-.12,0-.25.08a4.4,4.4,0,0,0-.49.24,4.68,4.68,0,0,0-.49.33l-.51.38,0,0a.2.2,0,0,1-.28,0A.17.17,0,0,1,22.78,16.24Z"/><path class="cls-2" d="M20.38,29.85a11,11,0,0,0-1.88-.5A22.41,22.41,0,0,1,8.08,24.72a14.93,14.93,0,0,1-5-9.54A3.3,3.3,0,0,1,.43,12.65,1.24,1.24,0,0,0,.34,13a17.62,17.62,0,0,0,6,13.68A25,25,0,0,0,18,31.92a12.2,12.2,0,0,1,1.39.35,1.34,1.34,0,0,0,.43.1,1.3,1.3,0,0,0,1.29-.79A1.32,1.32,0,0,0,20.38,29.85Z"/><path class="cls-5" d="M20.12,30.45A11.47,11.47,0,0,0,18.37,30,23.41,23.41,0,0,1,7.66,25.22,15.58,15.58,0,0,1,2.4,15,3.33,3.33,0,0,1,1,13.88,16.92,16.92,0,0,0,6.8,26.22a24.64,24.64,0,0,0,11.29,5.06,12.7,12.7,0,0,1,1.51.38.54.54,0,0,0,.21.05.65.65,0,0,0,.65-.39A.67.67,0,0,0,20.12,30.45Z"/><path class="cls-5" d="M19.1,33.16a2.63,2.63,0,1,1,2.63-2.62A2.63,2.63,0,0,1,19.1,33.16Z"/><path class="cls-2" d="M19.1,28.23a2.31,2.31,0,1,1-2.3,2.31,2.3,2.3,0,0,1,2.3-2.31m0-.65a3,3,0,1,0,3,3,3,3,0,0,0-3-3Z"/></g></svg>