<svg xmlns="http://www.w3.org/2000/svg" viewBox="0 0 102.56 116.63"><defs><style>.cls-1{fill:#f6a428;}.cls-2{fill:#fff;}.cls-3{fill:#fafbfb;}.cls-4{fill:#000072;}.cls-5{fill:#f9a429;}.cls-6{fill:#f8fafa;}.cls-7{opacity:0.3;}.cls-8{opacity:0.35;}.cls-9{fill:#162872;}.cls-10{opacity:0.5;}.cls-11{fill:#e34989;}</style></defs><title>step1_a-chi</title><g id="EXPORT"><ellipse class="cls-1" cx="36.68" cy="103.63" rx="10.21" ry="9.67" transform="translate(-64.42 60.46) rotate(-47.39)"/><path class="cls-1" d="M36,113.6s-13.6-.42-16.09-4.57-.28-12,10.13-9S32.11,104.92,36,113.6Z"/><path class="cls-2" d="M46.46,104c-.45.31-1-.58-1.52-.31-2.23,1.44-5.11.78-7.59.31-3.41-.65-6.27-.89-8.56-3.49A9,9,0,0,1,28,99.38l-.09.16c-8.57-1.35-10.31,5.63-8,9.49,2.23,3.71,13.36,4.44,15.67,4.55h1.08a10.61,10.61,0,0,0,10-10.42C46.6,102.81,46.49,104.32,46.46,104Z"/><path class="cls-3" d="M35.74,113.59h0Z"/><path class="cls-4" d="M35.73,113.68h.34l-.06-.18h-.26Z"/><path class="cls-4" d="M27.56,98.45l-.25.44a.79.79,0,0,0,.31,1.09.85.85,0,0,0,1.1-.37.93.93,0,0,0,.05-.1A4.71,4.71,0,0,1,27.56,98.45Z"/><path class="cls-4" d="M47.36,102.1a4.85,4.85,0,0,1-1.58,1.29,9.73,9.73,0,0,1-9.17,9.39.86.86,0,0,0-.81.85.74.74,0,0,0,.25.57.76.76,0,0,0,.55.2,11.49,11.49,0,0,0,10.81-11.27C47.41,102.78,47.39,102.44,47.36,102.1Z"/><path class="cls-4" d="M20,110.46c1.55,1.42,4.46,2.5,8.68,3.21a57.74,57.74,0,0,0,7.22.74.86.86,0,0,0,.87-.79.75.75,0,0,0-.73-.83c-3.67-.12-13.6-1.1-15.46-4.21a5.84,5.84,0,0,1,.1-6.16c1.29-1.86,3.78-2.59,7-2.08a.85.85,0,0,0,1-.68.76.76,0,0,0-.62-.93c-5.28-.83-7.71,1.4-8.68,2.81a7.53,7.53,0,0,0-.19,7.93A4.4,4.4,0,0,0,20,110.46Z"/><path class="cls-4" d="M22.18,105.43a1.82,1.82,0,0,0-.86.33,4.21,4.21,0,0,0-.71.62c-.11.12-.21.25-.31.37l-.28.39c-.09.14-.18.27-.26.41l-.23.42a.82.82,0,0,0,.29,1.09.74.74,0,0,0,1.05-.25.91.91,0,0,0,.09-.31v0l0-.43c0-.14,0-.27.06-.42s.05-.27.08-.41a3.11,3.11,0,0,1,.11-.41,3.76,3.76,0,0,1,.34-.77A1.81,1.81,0,0,1,22.18,105.43Z"/><path class="cls-4" d="M24.73,107.64A4.12,4.12,0,0,0,24,108a4.41,4.41,0,0,0-.67.49,4.47,4.47,0,0,0-.6.63,5.92,5.92,0,0,0-.51.76v0a.84.84,0,0,0,.3,1.1.74.74,0,0,0,1-.26.65.65,0,0,0,.1-.36,4.26,4.26,0,0,1,.07-.7,4.44,4.44,0,0,1,.21-.71,4.37,4.37,0,0,1,.33-.69A4,4,0,0,1,24.73,107.64Z"/><path class="cls-5" d="M86.85,77.67s-1.08,8.25-12,6l-1.58,1.6s10.81,15.88,23.5,2.21C110,73.29,91,57,81.65,63.52c-9.09,6.29-.11,15.79,4.17,14.54s3.06-4.63,3.06-4.63"/><path class="cls-6" d="M96.74,87.52C110,73.29,91,57,81.65,63.52,76.87,66.83,77.09,71,79,74.08c-.89-2.21-.56-4.91,2.61-7.1,7.26-5,21.91,7.57,11.69,18.58-8.55,9.21-16,1.12-17.79-1.16-.38,0-.78-.11-1.18-.18l-1.08,1.09S84.05,101.19,96.74,87.52Z"/><path class="cls-4" d="M87.58,77.77a2.18,2.18,0,0,1,0,.29l-.06.26c0,.17-.09.33-.14.5a10,10,0,0,1-.37,1,9,9,0,0,1-1.08,1.78A8.25,8.25,0,0,1,82.58,84a11,11,0,0,1-4,.78,18.47,18.47,0,0,1-3.94-.38l.67-.21-1.58,1.6.09-.94h0c.25.36.56.75.86,1.11s.63.72,1,1.07A22.65,22.65,0,0,0,77.77,89a16.7,16.7,0,0,0,2.34,1.6c.21.11.41.24.62.34l.63.31.65.27.16.06.17.06.33.11a10.48,10.48,0,0,0,2.71.52l.34,0h.69a1.94,1.94,0,0,0,.34,0l.69-.07.17,0,.17,0,.34-.07a12.5,12.5,0,0,0,1.33-.37l.17,0,.16-.07.32-.13c.21-.09.43-.17.64-.27a16.08,16.08,0,0,0,2.4-1.47c.37-.29.76-.56,1.11-.89l.53-.47.27-.24.25-.25c.33-.35.68-.68,1-1l.47-.53.46-.56a15.61,15.61,0,0,0,2.67-4.92,12.7,12.7,0,0,0,.54-2.73,12.24,12.24,0,0,0-.09-2.77,13.62,13.62,0,0,0-1.94-5.2A16.2,16.2,0,0,0,94.66,66a14.87,14.87,0,0,0-4.94-2.61,9.77,9.77,0,0,0-5.38-.17,6.78,6.78,0,0,0-1.23.47c-.21.09-.39.21-.59.32s-.36.23-.55.38l-.55.41-.51.46a5.44,5.44,0,0,0-.48.48L80.2,66l-.2.26a6.42,6.42,0,0,0-1.18,2.29,5.88,5.88,0,0,0-.1,2.54,7.75,7.75,0,0,0,1,2.45,9,9,0,0,0,1.7,2.09A7.72,7.72,0,0,0,83.58,77a4.05,4.05,0,0,0,1.19.32,3.49,3.49,0,0,0,.56,0l.26,0,.31-.1.32-.1c.1,0,.2-.08.3-.12l.29-.13.27-.15a4.65,4.65,0,0,0,.52-.34c.08-.06.14-.14.22-.2l.11-.11.09-.12a3,3,0,0,0,.59-1.1,4.72,4.72,0,0,0,.15-1.37v0a.14.14,0,0,1,.14-.14.14.14,0,0,1,.12.07,2.62,2.62,0,0,1,.3.74,3.19,3.19,0,0,1,.12.82A3.31,3.31,0,0,1,89,76.6l-.1.19L88.8,77c-.09.12-.17.24-.27.35a5,5,0,0,1-.64.58l-.35.25-.37.2c-.13.06-.25.13-.38.18l-.38.15-.39.14-.46.1a4,4,0,0,1-.91,0A5.72,5.72,0,0,1,83,78.57a7.19,7.19,0,0,1-.75-.34L81.86,78a4.05,4.05,0,0,1-.35-.21,7.92,7.92,0,0,1-.67-.46c-.22-.16-.42-.34-.62-.51a10.57,10.57,0,0,1-2.06-2.46,9.18,9.18,0,0,1-1.19-3A7.35,7.35,0,0,1,77.1,68a8,8,0,0,1,1.52-2.92l.26-.32.28-.29a6,6,0,0,1,.57-.56l.6-.53L81,63a6.52,6.52,0,0,1,.67-.45c.24-.13.47-.28.72-.39a8.51,8.51,0,0,1,1.53-.56,9.77,9.77,0,0,1,1.6-.29,10.69,10.69,0,0,1,1.6,0,12.93,12.93,0,0,1,3.1.56A15.49,15.49,0,0,1,93.07,63a18.09,18.09,0,0,1,6.7,6.3,15.34,15.34,0,0,1,2.15,5.82,13.67,13.67,0,0,1,.09,3.13,14.4,14.4,0,0,1-.61,3.07,17.23,17.23,0,0,1-3,5.42l-.48.59-.51.57c-.35.38-.71.73-1.07,1.09l-.27.27-.28.26-.58.51c-.37.34-.8.64-1.2,1a17.83,17.83,0,0,1-2.65,1.61l-.72.3-.37.15-.18.08-.19.06a12.58,12.58,0,0,1-1.52.41l-.38.07-.2,0-.19,0-.79.09c-.13,0-.26,0-.39,0h-.8l-.39,0a12.37,12.37,0,0,1-3.08-.61l-.37-.13L81.64,93l-.18-.07-.72-.3-.7-.34c-.23-.11-.45-.25-.67-.38a19.33,19.33,0,0,1-2.54-1.74,23.18,23.18,0,0,1-2.24-2.08c-.34-.37-.69-.75-1-1.14a15.34,15.34,0,0,1-1-1.23h0a.73.73,0,0,1,.08-.93h0l1.59-1.6A.75.75,0,0,1,75,83h0a16.38,16.38,0,0,0,3.61.36A9.61,9.61,0,0,0,82,82.68a6.61,6.61,0,0,0,2.71-2,7.29,7.29,0,0,0,.89-1.47,6,6,0,0,0,.31-.8A3.17,3.17,0,0,0,86,78c0-.07,0-.14,0-.2s0-.15,0-.18v0a.73.73,0,1,1,1.45.22Z"/><g class="cls-7"><path class="cls-4" d="M89,74.08S81.15,78,78,70c0,0,2.39,10.35,9.43,7.38A4.13,4.13,0,0,0,89,74.08Z"/></g><path class="cls-1" d="M28.71,75.13S8.41,57,12.7,49.94s14.62.87,26.86,10.38C39.56,60.32,41.78,80.85,28.71,75.13Z"/><path class="cls-4" d="M32.85,76.23a10.51,10.51,0,0,1-4.18-1h0a111.1,111.1,0,0,1-9.62-10c-6-7.22-8.2-12.39-6.4-15.35a5.35,5.35,0,0,1,3.68-2.7c5.28-1,13.55,5.46,23.13,12.91l.22.17v0c0,.12,1.17,11.44-3.56,14.9A5.33,5.33,0,0,1,32.85,76.23Zm-4.09-1.18c3,1.31,5.45,1.32,7.23,0,4.5-3.3,3.56-14,3.48-14.69l-.16-.12c-9.54-7.42-17.77-13.83-23-12.87A5.14,5.14,0,0,0,12.78,50C8.62,56.82,28.19,74.53,28.76,75.05Z"/><path class="cls-3" d="M16.07,61.37C13,57.05,11,52.72,12.66,50S18,44.55,27.53,51.33a10.86,10.86,0,0,1-2.31,5.57A12.14,12.14,0,0,1,16.07,61.37Z"/><path class="cls-4" d="M16,61.47l0,0c-3.69-5.21-4.84-9.07-3.41-11.49a5.62,5.62,0,0,1,3.72-2.78c2.83-.59,6.63.78,11.28,4.09l.05,0v.06A10.94,10.94,0,0,1,25.29,57a12.22,12.22,0,0,1-9.22,4.51Zm1.64-14.25a6.29,6.29,0,0,0-1.32.13A5.41,5.41,0,0,0,12.74,50c-1.38,2.34-.25,6.12,3.37,11.24a12,12,0,0,0,9-4.44,10.84,10.84,0,0,0,2.28-5.47C23.53,48.61,20.25,47.22,17.66,47.22Z"/><g class="cls-8"><path class="cls-4" d="M16.74,49.54C14,53.33,14.89,58.22,16.38,62c-3.28-4.49-5.5-9.09-3.78-11.9,2.68-4.42,4.46-4.27,8.13-2.28C19.49,48.21,18,47.83,16.74,49.54Z"/></g><path class="cls-4" d="M28.71,76a.87.87,0,0,1-.57-.22,112.92,112.92,0,0,1-9.7-10C12.16,58.23,10,52.77,12,49.5a6,6,0,0,1,4.23-3c5.33-.92,13.41,4.6,23.9,13.16A.85.85,0,0,1,39,61c-8.77-7.15-17.56-13.65-22.55-12.79a4.3,4.3,0,0,0-3.05,2.2c-1.53,2.5.72,7.55,6.31,14.23a107.54,107.54,0,0,0,9.53,9.87A.85.85,0,0,1,28.71,76Z"/><path class="cls-9" d="M18.53,50.52A2.91,2.91,0,0,0,17.37,47a9.31,9.31,0,0,0-1.14,1.06A5.23,5.23,0,0,1,18.53,50.52Z"/><path class="cls-4" d="M18.54,50.73l-.09-.17a5.21,5.21,0,0,0-2.26-2.37l-.12,0,.08-.1A10.73,10.73,0,0,1,17.32,47l.06,0,.05,0a3,3,0,0,1,1.19,3.6Zm-2.16-2.66a5.4,5.4,0,0,1,2.14,2.22,2.87,2.87,0,0,0-1.15-3.13A8.61,8.61,0,0,0,16.38,48.07Z"/><path class="cls-1" d="M67.56,51.26s16,16.4,19.58,30.55c1,3.83-.36,8.51-1.82,12.45-1.24,3.37-2.34,6.23-4.55,7.29-14,6.68-19.44-.31-30.06.91-10.86,1.24-22.92-3.39-22.92-3.39S24,62.43,41.35,53.55,66.51,49.91,67.56,51.26Z"/><path class="cls-5" d="M30.35,77.41s-16-11.9-17.67-21.79S17.15,44,22,49.68,36.5,58.59,36.5,58.59Z"/><path class="cls-3" d="M26.65,53.91c0,5.14-3.9,9.32-8.7,9.32A8.48,8.48,0,0,1,16,63l-.73-1.13a20.71,20.71,0,0,1-2.21-4.66,11.62,11.62,0,0,1-.37-1.58v-.07a18,18,0,0,1-.22-1.8c-.62-8.21,5-9.34,9.56-4.07a23.76,23.76,0,0,0,4.63,4A1.93,1.93,0,0,1,26.65,53.91Z"/><path class="cls-4" d="M28.57,76.86a.85.85,0,0,1-.54-.19c-4.41-3.58-14.83-12.8-16.19-20.91-.84-5,.17-8.52,2.75-9.73,2.37-1.11,5.46.07,8.07,3.09,4.65,5.4,14,8.63,14.11,8.66a.85.85,0,0,1,.53,1.08.84.84,0,0,1-1.07.53c-.41-.13-9.9-3.4-14.86-9.16-2.06-2.38-4.43-3.42-6.05-2.66-1.82.85-2.49,3.81-1.8,7.91C14.78,63,24.84,71.89,29.11,75.35a.85.85,0,0,1,.12,1.2A.83.83,0,0,1,28.57,76.86Z"/><path class="cls-4" d="M41.74,54.31c9-4.61,15.19-5.2,18.77-4.89,4,.34,6,1.86,6.38,2.36l.1.11c.18.16,16.53,15.31,19.09,29.63a10.11,10.11,0,0,1,.25,1.87c-.1,5.41-2.83,15.73-7.69,19.37A2,2,0,0,1,80.16,104C84.71,99.42,88.05,89.1,88,82.73A26.56,26.56,0,0,0,87.52,80c-1.23-5.49-4.37-11.6-9.37-18.21a94,94,0,0,0-10-11.15c-.75-.9-3.19-2.58-7.53-3C55.12,47.24,48.5,49,41,52.79a.85.85,0,0,0,.77,1.52Z"/><path class="cls-4" d="M28.85,99.73c-.28-3.71-2.08-13.65.64-24.34a.9.9,0,0,0-.46-1,.86.86,0,0,0-1.18.57,58.13,58.13,0,0,0-.91,24.24.84.84,0,0,0,.79.75C27.81,99.17,28.41,100.35,28.85,99.73Z"/><ellipse class="cls-3" cx="47.61" cy="77.13" rx="15.62" ry="22.9"/><g class="cls-7"><path class="cls-4" d="M36.5,58.59a4.21,4.21,0,0,0-.27.5c-4-1.18-10.44-3.82-13.52-9.12,0,0-1.86,8.84,13.34,12.78.72,2,3.06,4.33,9.31,5.93,12.56,3.21,21.94-8.9,21.94-8.9C47.45,64.14,36.5,58.59,36.5,58.59Z"/></g><path class="cls-5" d="M67.34,71.57S50.74,96.26,42.47,92.68s-1.26-16,7.22-30.65C49.69,62,74.53,50.6,67.34,71.57Z"/><path class="cls-3" d="M54.34,87.32c-4.22,4-8.62,6.74-11.81,5.39s-6.69-5-.79-16.3a11.79,11.79,0,0,1,6.38,1.67A13.26,13.26,0,0,1,54.34,87.32Z"/><path class="cls-4" d="M67.55,71.71a16,16,0,0,1-2.13,3.9c-.83,1.22-1.76,2.36-2.7,3.5s-1.87,2.27-2.84,3.38-2,2.21-3,3.28-2.09,2.1-3.2,3.08a32.94,32.94,0,0,1-3.55,2.75,14,14,0,0,1-4.19,2,6.7,6.7,0,0,1-2.46.17,5,5,0,0,1-1.24-.34,6.6,6.6,0,0,1-1.09-.56,6,6,0,0,1-1.8-1.72,6.54,6.54,0,0,1-1-2.27,12.16,12.16,0,0,1,0-4.66,28.78,28.78,0,0,1,1.19-4.35c.49-1.4,1.06-2.77,1.67-4.12,1.21-2.7,2.58-5.31,4-7.88l1.08-1.92c.37-.64.71-1.29,1.07-1.93a17.12,17.12,0,0,1,1.19-1.85A8,8,0,0,1,50.2,60.5a.27.27,0,0,1,.38,0,.23.23,0,0,1,.05.21,8.76,8.76,0,0,1-.72,2.13c-.32.65-.67,1.3-1,1.92s-.78,1.23-1.14,1.86-.72,1.27-1.08,1.9c-1.41,2.55-2.76,5.13-4,7.77-.6,1.32-1.15,2.65-1.63,4a27.85,27.85,0,0,0-1.12,4.11,10.54,10.54,0,0,0,0,4.07,5,5,0,0,0,.72,1.75A4.53,4.53,0,0,0,42,91.56a5.41,5.41,0,0,0,.86.45,3.48,3.48,0,0,0,.87.23,5.11,5.11,0,0,0,1.89-.14,12.52,12.52,0,0,0,3.72-1.76,31.2,31.2,0,0,0,3.38-2.62c1.08-1,2.11-2,3.12-3s2-2.12,2.93-3.22,1.88-2.21,2.76-3.36,1.74-2.33,2.65-3.47a22.15,22.15,0,0,1,3-3.24h0a.27.27,0,0,1,.37,0A.26.26,0,0,1,67.55,71.71Z"/><path class="cls-5" d="M80.92,24.23s5-17.65,0-21.4S65.61,8.92,65.61,8.92A27.36,27.36,0,0,0,53,6,27.31,27.31,0,0,0,40.42,8.92S30.1-.92,25.11,2.83s0,21.4,0,21.4h0A56.35,56.35,0,0,0,20.33,36.6,15.22,15.22,0,0,0,22,48.44c3.74,6.12,12.32,13,31,13s27.26-6.85,31-13A15.22,15.22,0,0,0,85.7,36.6a56.85,56.85,0,0,0-4.78-12.37"/><path class="cls-3" d="M84,48.44a15.23,15.23,0,0,0,2.07-10c-6.55-2.11-15.1,2-18.47,4S62.12,39.81,57.32,37a20.09,20.09,0,0,0-19.7,0c-4.81,2.79-6.88,7.43-10.29,5.42-1.95-1.16-4.4-3-7.37-4a15.23,15.23,0,0,0,2.06,10c3.74,6.12,12.32,13,31,13S80.27,54.56,84,48.44Z"/><g class="cls-10"><path class="cls-2" d="M78.78,2C74.6.53,65.61,8.92,65.61,8.92c-31-12.07-43.45,22-43.45,22,10.4-17.58,25.33-27.59,42.94-20a1.15,1.15,0,0,0,1.4-.19c1.69-1.74,6.48-6.29,10.94-7,5.53-.85,5.5,3.82,5.5,3.82A6,6,0,0,0,78.78,2Z"/></g><g class="cls-10"><path class="cls-2" d="M25.48,3.38a3.73,3.73,0,0,0-.79.84C29.3,1.15,38.47,9.89,38.47,9.89l1-1S30,0,25.48,3.38Z"/></g><path class="cls-11" d="M36.46,11.22S30.87,6,28.35,7.91,28.41,19,28.41,19A34,34,0,0,1,36.46,11.22Z"/><path class="cls-11" d="M69.57,11.22S75.16,6,77.68,7.91,77.61,19,77.61,19A33.76,33.76,0,0,0,69.57,11.22Z"/><path class="cls-4" d="M53.3,62.26h-.58c-8.44,0-15.57-1.43-21.18-4.25A24.69,24.69,0,0,1,21.3,48.89a16.12,16.12,0,0,1-1.79-12.51A58.45,58.45,0,0,1,24.2,24.12,72.68,72.68,0,0,1,22.4,15c-.87-6.8-.13-11.14,2.2-12.89,4.94-3.71,13.88,3.87,16,5.76A28,28,0,0,1,53,5.14,27.91,27.91,0,0,1,65.45,7.91c2.1-1.89,11-9.47,16-5.76C83.76,3.9,84.5,8.24,83.63,15a72.68,72.68,0,0,1-1.8,9.08,58.45,58.45,0,0,1,4.69,12.26,16.16,16.16,0,0,1-1.79,12.51A24.69,24.69,0,0,1,74.49,58C68.87,60.83,61.74,62.26,53.3,62.26ZM53,60.56h.29c18.43,0,26.47-6.82,30-12.56a14.44,14.44,0,0,0,1.6-11.18,56,56,0,0,0-4.7-12.16A.84.84,0,0,1,80.1,24c1.34-4.76,4-17.7.31-20.49s-11.49,3.43-14.21,6a.87.87,0,0,1-1,.15A26.66,26.66,0,0,0,53.07,6.84H53A26.91,26.91,0,0,0,40.79,9.69a.87.87,0,0,1-1-.15c-2.73-2.6-10.6-8.74-14.21-6s-1,15.73.31,20.49a.85.85,0,0,1-.09.66,56.49,56.49,0,0,0-4.69,12.16A14.44,14.44,0,0,0,22.75,48c3.51,5.74,11.55,12.56,30,12.56Z"/><ellipse class="cls-3" cx="59.67" cy="24.16" rx="3.74" ry="2.08"/><ellipse class="cls-3" cx="35.48" cy="24.72" rx="3.74" ry="2.08"/><path class="cls-4" d="M25.11,25.08a.91.91,0,0,1-.42-.11.86.86,0,0,1-.32-1.16C30.92,12.3,39.7,8.31,40.07,8.14a.87.87,0,0,1,1.13.44.85.85,0,0,1-.44,1.12h0c-.08,0-8.65,4-14.91,15A.87.87,0,0,1,25.11,25.08Z"/><path class="cls-4" d="M15.39,52.42a2.37,2.37,0,0,1-.93-.51,4.68,4.68,0,0,1-.75-.79c-.12-.15-.21-.3-.32-.45l-.28-.48c-.08-.16-.17-.32-.25-.49l-.23-.5a.86.86,0,0,1,.43-1.15.87.87,0,0,1,1.16.43,1.05,1.05,0,0,1,.08.35v.5l0,.47c0,.16,0,.32.05.47s0,.32.09.47a4.28,4.28,0,0,0,.32.91A2,2,0,0,0,15.39,52.42Z"/><path class="cls-4" d="M18.43,50.37a4.43,4.43,0,0,1-.79-.51,5.42,5.42,0,0,1-.71-.65,5.18,5.18,0,0,1-.62-.78,5.71,5.71,0,0,1-.5-.91v0a.89.89,0,0,1,.43-1.17.87.87,0,0,1,1.16.43.82.82,0,0,1,.08.4,5.38,5.38,0,0,0,0,.8,4.78,4.78,0,0,0,.17.82,5.1,5.1,0,0,0,.31.82A4.35,4.35,0,0,0,18.43,50.37Z"/><path class="cls-4" d="M45.64,88.67a2.44,2.44,0,0,1,0,1.14A5.2,5.2,0,0,1,45.3,91c-.07.18-.17.35-.26.53l-.3.52-.34.5-.35.48a1,1,0,0,1-1.34.19,1,1,0,0,1-.19-1.33.86.86,0,0,1,.3-.27h0l.45-.25.43-.27a4,4,0,0,0,.42-.3,4.12,4.12,0,0,0,.4-.33,3.92,3.92,0,0,0,.69-.77,2.51,2.51,0,0,0,.26-.45A1.93,1.93,0,0,0,45.64,88.67Z"/><path class="cls-4" d="M42.05,86.81a5.76,5.76,0,0,1-.06,1,6.28,6.28,0,0,1-.24,1,6.64,6.64,0,0,1-.42,1,6.94,6.94,0,0,1-.61,1v0a1,1,0,0,1-1.55-1.15,1.21,1.21,0,0,1,.35-.29,5.16,5.16,0,0,0,.75-.43,4.64,4.64,0,0,0,.68-.58,5.28,5.28,0,0,0,.61-.72A5,5,0,0,0,42.05,86.81Z"/><path class="cls-4" d="M71.32,108.72a12.56,12.56,0,0,1-1.84,0,11.22,11.22,0,0,1-1.83-.27,12,12,0,0,1-3.41-1.37,11.77,11.77,0,0,1-5.38-7.21,11.2,11.2,0,0,1-.33-1.82,11.39,11.39,0,0,1,.19-3.68,11,11,0,0,1,.58-1.76A9.65,9.65,0,0,1,60.18,91a8.76,8.76,0,0,1,2.56-2.55.23.23,0,0,1,.32.07.23.23,0,0,1,0,.26h0a15.2,15.2,0,0,0-1.83,2.81,12.68,12.68,0,0,0-1.08,3.08,11,11,0,0,0-.23,3.24,10.12,10.12,0,0,0,.79,3.16,10.45,10.45,0,0,0,10.51,6.28.67.67,0,0,1,.74.61.69.69,0,0,1-.61.74Z"/><ellipse class="cls-1" cx="70.02" cy="104.76" rx="10.21" ry="9.67" transform="translate(-55.92 108.91) rotate(-58.13)"/><path class="cls-1" d="M71.16,114.68s-13.44,2.13-16.66-1.49S52,101.5,62.77,102.44,65.77,106.87,71.16,114.68Z"/><path class="cls-2" d="M72.6,106.15A20.16,20.16,0,0,1,70,106a13.57,13.57,0,0,1-8.29-2.84,10.17,10.17,0,0,1-1-.93c0,.05,0,.11,0,.17-8.68.27-9.08,7.46-6.1,10.81s14,1.87,16.24,1.55l.22,0,.2,0h0l.65-.13a10.61,10.61,0,0,0,7.94-11.62C77.83,104.66,75,106.15,72.6,106.15Z"/><path class="cls-3" d="M71,114.71l.2,0h0Z"/><path class="cls-4" d="M71,114.8h0l.2,0,.13,0-.09-.16h-.06l-.2,0h0Z"/><path class="cls-4" d="M60.1,101.36c-.06.16-.12.32-.17.48a.78.78,0,0,0,.51,1,.83.83,0,0,0,1-.57.69.69,0,0,1,0-.1A4.64,4.64,0,0,1,60.1,101.36Z"/><path class="cls-4" d="M80.23,101.26a5,5,0,0,1-1.31,1.56,9.72,9.72,0,0,1-7.26,10.93.88.88,0,0,0-.64,1,.75.75,0,0,0,.35.52.79.79,0,0,0,.59.09,11.48,11.48,0,0,0,8.51-13.09A8.56,8.56,0,0,0,80.23,101.26Z"/><path class="cls-4" d="M54.89,114.58c1.79,1.11,4.84,1.62,9.13,1.53a58,58,0,0,0,7.23-.62.86.86,0,0,0,.71-.93.76.76,0,0,0-.88-.69c-3.63.57-13.56,1.46-16-1.25a5.82,5.82,0,0,1-1-6.07c.91-2.06,3.23-3.25,6.52-3.35a.88.88,0,0,0,.82-.85.78.78,0,0,0-.79-.8c-5.34.17-7.31,2.82-8,4.38a7.53,7.53,0,0,0,1.3,7.83A4.8,4.8,0,0,0,54.89,114.58Z"/><path class="cls-4" d="M60.43,111.26a1.92,1.92,0,0,0-.84.45,3.9,3.9,0,0,0-.65.75c-.1.13-.18.28-.27.42s-.16.29-.24.44l-.21.46-.19.47a.86.86,0,0,0,.46,1.09.76.76,0,0,0,1.1-.74v0l0-.45v-.44l0-.44c0-.14,0-.3.06-.44a3.53,3.53,0,0,1,.25-.84A1.66,1.66,0,0,1,60.43,111.26Z"/><path class="cls-4" d="M56.7,109.55A4.59,4.59,0,0,0,56,110a5.91,5.91,0,0,0-.63.6,5.8,5.8,0,0,0-.53.74,4.8,4.8,0,0,0-.42.85v0a.88.88,0,0,0,.46,1.1.78.78,0,0,0,1.06-.41.82.82,0,0,0,0-.38,4.54,4.54,0,0,1,0-.74,4.51,4.51,0,0,1,.36-1.52A3.67,3.67,0,0,1,56.7,109.55Z"/><path class="cls-4" d="M59,100.43c-.17.09-.34.19-.52.27a14.74,14.74,0,0,1-8.29,1.42h-.33a13.89,13.89,0,0,1-9.09-2.86,9.9,9.9,0,0,1-1.9-2c-.21-.14-.42-.28-.63-.44l.23.36a14.41,14.41,0,0,0,1.63,2,15.76,15.76,0,0,0,4.21,3,16.1,16.1,0,0,0,2.39,1,17.86,17.86,0,0,0,2.52.63,16.65,16.65,0,0,0,10.11-1.49l.37-.19A13,13,0,0,1,59,100.43Z"/><path class="cls-4" d="M47.63,41.06l0,.14.06.17c0,.12.09.24.13.35a5.32,5.32,0,0,0,.35.67,4.41,4.41,0,0,0,.93,1.12,4,4,0,0,0,.58.4,2.93,2.93,0,0,0,.65.29,4.5,4.5,0,0,0,1.48.23,3.25,3.25,0,0,0,2.62-1,7.13,7.13,0,0,0,1.3-2.92h0a.16.16,0,0,1,.2-.12.15.15,0,0,1,.12.11,3.32,3.32,0,0,1,.17.93,4.35,4.35,0,0,1,0,1,4.11,4.11,0,0,1-.74,1.85,4.05,4.05,0,0,1-1.6,1.33,5.42,5.42,0,0,1-2,.48,6.82,6.82,0,0,1-1,0,6.17,6.17,0,0,1-1-.19A5.11,5.11,0,0,1,48,44.88a5.73,5.73,0,0,1-1.36-1.55,6.36,6.36,0,0,1-.46-.9c-.07-.16-.12-.32-.18-.48S46,41.79,46,41.7a2.83,2.83,0,0,1-.07-.28A.89.89,0,0,1,47.6,41Z"/><path class="cls-4" d="M47.71,41.43a1.63,1.63,0,0,1-.07.28c0,.09,0,.17-.07.25s-.12.32-.19.47a5.18,5.18,0,0,1-.48.9,5.09,5.09,0,0,1-1.47,1.49,4.66,4.66,0,0,1-.94.49,5.54,5.54,0,0,1-3,.24,4.79,4.79,0,0,1-1.93-.72,3.51,3.51,0,0,1-1.32-1.66,4,4,0,0,1-.23-2,4.67,4.67,0,0,1,.58-1.78.17.17,0,0,1,.23-.05.16.16,0,0,1,.08.14h0a7.49,7.49,0,0,0,.51,3.14,2.12,2.12,0,0,0,.92,1,3.47,3.47,0,0,0,1.37.38,4.83,4.83,0,0,0,1.48-.07,3.75,3.75,0,0,0,.67-.22,2.66,2.66,0,0,0,.59-.34,3.67,3.67,0,0,0,1-1,5.07,5.07,0,0,0,.35-.65l.14-.33a1.54,1.54,0,0,0,.05-.17l0-.14L46,41a.89.89,0,0,1,1.72.45Z"/><path class="cls-4" d="M52.4,37.13c-.52-2.08-4.94-2.53-4.94-2.53s-4.42-.45-5.35,1.48,2.17,4.81,4.68,5.07S52.92,39.22,52.4,37.13Z"/><ellipse class="cls-2" cx="46.01" cy="36.32" rx="0.66" ry="1.98" transform="matrix(0.04, -1, 1, 0.04, 7.72, 80.7)"/><path class="cls-4" d="M14.58,47.2a1.54,1.54,0,0,1-1.33-.77L.2,23.35a1.52,1.52,0,1,1,2.64-1.49L15.9,44.93a1.53,1.53,0,0,1-1.32,2.27Z"/><ellipse class="cls-4" cx="34.37" cy="32.07" rx="4.53" ry="4.5"/><ellipse class="cls-2" cx="33.27" cy="31.93" rx="1.75" ry="1.74"/><ellipse class="cls-4" cx="60.79" cy="32.07" rx="4.53" ry="4.5"/><ellipse class="cls-2" cx="58.94" cy="31.68" rx="1.75" ry="1.74"/></g></svg>