<svg xmlns="http://www.w3.org/2000/svg" viewBox="0 0 118.42 157.1"><defs><style>.cls-1{fill:#f6a428;}.cls-2{fill:#fff;}.cls-3{fill:#fafbfb;}.cls-4{fill:#000072;}.cls-5{fill:#f9a429;}.cls-6{fill:#f8fafa;}.cls-7{opacity:0.3;}.cls-8{opacity:0.35;}.cls-9{fill:#162872;}.cls-10{opacity:0.5;}.cls-11{fill:#e34989;}.cls-12{fill:#f95a93;}.cls-13{fill:#f9fcfd;}.cls-14{fill:#f9c710;}.cls-15{opacity:0.7;}.cls-16{fill:#f89f1d;}.cls-17{fill:#f9f6c3;}.cls-18{fill:#ff398a;}.cls-19{fill:#ffe01e;}.cls-20{fill:#ff9e16;}.cls-21{fill:#ffeda1;}</style></defs><title>step3_a-chi</title><g id="EXPORT"><ellipse class="cls-1" cx="53.36" cy="144.17" rx="10.16" ry="9.63" transform="translate(-88.87 85.83) rotate(-47.39)"/><path class="cls-1" d="M52.63,154.08s-13.53-.42-16-4.55-.28-11.89,10.08-9S48.81,145.44,52.63,154.08Z"/><path class="cls-2" d="M63.09,144.51c-.45.31-1-.57-1.51-.3-2.22,1.42-5.09.77-7.56.3-3.38-.64-6.23-.88-8.52-3.47a10,10,0,0,1-.83-1.11l-.09.16c-8.52-1.34-10.26,5.61-8,9.44s13.3,4.42,15.59,4.53h1.08a10.56,10.56,0,0,0,9.94-10.37C63.23,143.35,63.12,144.85,63.09,144.51Z"/><path class="cls-3" d="M52.43,154.07h0Z"/><path class="cls-4" d="M52.42,154.16h.33l0-.18h-.27Z"/><path class="cls-4" d="M44.29,139c-.09.14-.18.29-.26.44a.78.78,0,0,0,.31,1.08.84.84,0,0,0,1.1-.37.41.41,0,0,1,.05-.09A4.69,4.69,0,0,1,44.29,139Z"/><path class="cls-4" d="M64,142.64a4.76,4.76,0,0,1-1.57,1.28,9.71,9.71,0,0,1-9.13,9.35.87.87,0,0,0-.81.84.78.78,0,0,0,.25.57.72.72,0,0,0,.55.2A11.42,11.42,0,0,0,64,143.67,8.78,8.78,0,0,0,64,142.64Z"/><path class="cls-4" d="M36.74,151c1.54,1.42,4.44,2.49,8.64,3.19a57.11,57.11,0,0,0,7.18.74.86.86,0,0,0,.87-.78.76.76,0,0,0-.73-.84c-3.65-.11-13.53-1.08-15.38-4.18a5.79,5.79,0,0,1,.1-6.13c1.28-1.85,3.76-2.58,7-2.07a.85.85,0,0,0,.95-.68.76.76,0,0,0-.62-.92c-5.25-.83-7.67,1.39-8.64,2.79a7.49,7.49,0,0,0-.18,7.9A4.26,4.26,0,0,0,36.74,151Z"/><path class="cls-4" d="M38.93,146a1.82,1.82,0,0,0-.85.33,3.75,3.75,0,0,0-.71.61,3.57,3.57,0,0,0-.31.37l-.28.39-.26.4-.23.43a.81.81,0,0,0,.29,1.08.73.73,0,0,0,1-.26.67.67,0,0,0,.1-.3v0l0-.42c0-.14,0-.28.05-.42s0-.28.08-.42.07-.27.11-.4a4,4,0,0,1,.34-.76A1.64,1.64,0,0,1,38.93,146Z"/><path class="cls-4" d="M41.46,148.16a4,4,0,0,0-.72.35,4.41,4.41,0,0,0-.67.49,5.16,5.16,0,0,0-.6.63,6.11,6.11,0,0,0-.5.75v0a.83.83,0,0,0,.3,1.09.73.73,0,0,0,1.14-.61,4.42,4.42,0,0,1,.08-.7,3.68,3.68,0,0,1,.2-.7,4.37,4.37,0,0,1,.33-.69A4,4,0,0,1,41.46,148.16Z"/><path class="cls-5" d="M103.28,118.33s-1.07,8.21-12,6l-1.57,1.59s10.76,15.81,23.39,2.2c13.14-14.15-5.69-30.34-15-23.88-9,6.26-.11,15.71,4.15,14.47s3-4.61,3-4.61"/><path class="cls-6" d="M113.13,128.13c13.14-14.15-5.69-30.34-15-23.88-4.76,3.29-4.54,7.47-2.65,10.51-.89-2.2-.56-4.89,2.6-7.07,7.22-5,21.8,7.53,11.63,18.5-8.5,9.15-15.91,1.1-17.7-1.16l-1.18-.18-1.07,1.08S100.5,141.74,113.13,128.13Z"/><path class="cls-4" d="M104,118.43c0,.12,0,.19-.05.29l-.06.25c0,.17-.09.34-.14.5a10,10,0,0,1-.37,1,9.37,9.37,0,0,1-1.07,1.77A8.16,8.16,0,0,1,99,124.67a11.12,11.12,0,0,1-4,.78,18.14,18.14,0,0,1-3.91-.39l.66-.2-1.57,1.59.08-.93h0c.26.36.56.74.86,1.1s.63.72,1,1.06a22.65,22.65,0,0,0,2.1,1.94,16.8,16.8,0,0,0,2.33,1.59c.2.11.4.24.61.34l.63.3.64.27.17.06.16.06.33.11a10.41,10.41,0,0,0,2.7.52l.34,0h.68a2.06,2.06,0,0,0,.35,0l.68-.07.17,0,.17,0,.33-.07a8.71,8.71,0,0,0,1.33-.36l.16-.05.16-.06.32-.14a6.14,6.14,0,0,0,.64-.27,15.44,15.44,0,0,0,2.39-1.46,13.25,13.25,0,0,0,1.1-.88l.54-.47.26-.24.25-.25c.33-.34.68-.67,1-1l.47-.54.45-.54a15.85,15.85,0,0,0,2.66-4.91,12.52,12.52,0,0,0,.54-2.71,12.15,12.15,0,0,0-.09-2.76,13.74,13.74,0,0,0-1.93-5.18,16.43,16.43,0,0,0-3.74-4.15,15.05,15.05,0,0,0-4.91-2.59,9.67,9.67,0,0,0-5.35-.17,7.27,7.27,0,0,0-1.23.47c-.2.09-.39.21-.58.31s-.37.23-.55.38l-.55.42-.51.45c-.17.14-.31.32-.47.48l-.23.24-.2.26a6.29,6.29,0,0,0-1.18,2.28,6,6,0,0,0-.1,2.52,7.6,7.6,0,0,0,1,2.44,8.67,8.67,0,0,0,1.69,2.08,7.5,7.5,0,0,0,2.2,1.45,4.08,4.08,0,0,0,1.18.32,2.62,2.62,0,0,0,.56,0l.26,0,.31-.1.31-.1a2.68,2.68,0,0,0,.3-.12l.3-.12.27-.16a4.32,4.32,0,0,0,.5-.33c.09-.07.15-.14.23-.21l.11-.1.09-.12a2.86,2.86,0,0,0,.58-1.09,4.4,4.4,0,0,0,.15-1.37h0a.14.14,0,0,1,.13-.15.14.14,0,0,1,.12.07,3,3,0,0,1,.31.74,3.6,3.6,0,0,1,.11.81,3.25,3.25,0,0,1-.4,1.65l-.1.2-.13.17a2.33,2.33,0,0,1-.27.35,4.41,4.41,0,0,1-.64.58l-.34.25-.37.19c-.12.06-.25.14-.37.19l-.38.14-.39.14-.46.11a4.67,4.67,0,0,1-.91,0,5.31,5.31,0,0,1-1.66-.39,6.46,6.46,0,0,1-.76-.33l-.36-.19-.34-.21a6.43,6.43,0,0,1-.66-.46,7.64,7.64,0,0,1-.62-.51,10.47,10.47,0,0,1-2.06-2.44,9.42,9.42,0,0,1-1.18-3,7.41,7.41,0,0,1,.13-3.31,8,8,0,0,1,1.52-2.91l.25-.32.28-.29a7.53,7.53,0,0,1,.57-.56c.2-.17.39-.35.6-.51l.63-.47c.2-.16.44-.3.67-.45s.47-.27.72-.38a8.41,8.41,0,0,1,1.52-.56,9.54,9.54,0,0,1,1.58-.29,12.26,12.26,0,0,1,1.6,0,13.26,13.26,0,0,1,3.09.55,15.34,15.34,0,0,1,2.86,1.21,17.62,17.62,0,0,1,2.58,1.69,17.89,17.89,0,0,1,4.09,4.58,15.07,15.07,0,0,1,2.14,5.79,13.48,13.48,0,0,1,.09,3.11,14.22,14.22,0,0,1-.61,3,17.12,17.12,0,0,1-2.94,5.39l-.49.59-.5.57c-.34.38-.71.73-1.06,1.09l-.27.27a3.47,3.47,0,0,1-.29.25l-.57.51c-.37.34-.79.64-1.2.95a17,17,0,0,1-2.63,1.59c-.23.12-.48.21-.72.31l-.36.15-.18.07-.19.06a12.94,12.94,0,0,1-1.51.41l-.39.08-.19,0-.19,0-.79.08c-.13,0-.26,0-.39,0h-.79l-.39,0a12.29,12.29,0,0,1-3.07-.61l-.36-.12-.19-.06-.18-.08-.72-.29-.69-.35a7.58,7.58,0,0,1-.68-.37,19.73,19.73,0,0,1-2.52-1.73,24.29,24.29,0,0,1-2.23-2.07c-.34-.37-.68-.74-1-1.13s-.64-.78-1-1.23h0a.73.73,0,0,1,.08-.92h0l1.57-1.58a.75.75,0,0,1,.66-.21h0a16.81,16.81,0,0,0,3.59.35,9.34,9.34,0,0,0,3.42-.67,6.57,6.57,0,0,0,2.69-2,7,7,0,0,0,.89-1.46,7.77,7.77,0,0,0,.31-.8l.12-.41c0-.07,0-.14,0-.2s0-.15,0-.18v0a.74.74,0,0,1,.84-.61A.73.73,0,0,1,104,118.43Z"/><g class="cls-7"><path class="cls-4" d="M105.44,114.76s-7.83,3.94-11-4.07c0,0,2.38,10.3,9.38,7.34A4.07,4.07,0,0,0,105.44,114.76Z"/></g><path class="cls-1" d="M45.42,115.8s-20.19-18-15.92-25.06,14.55.86,26.73,10.33C56.23,101.07,58.43,121.5,45.42,115.8Z"/><path class="cls-4" d="M49.55,116.89a10.36,10.36,0,0,1-4.16-1h0A111.56,111.56,0,0,1,35.79,106c-6-7.19-8.17-12.32-6.37-15.27A5.27,5.27,0,0,1,33.08,88c5.26-1,13.49,5.44,23,12.84l.23.18v0c0,.11,1.17,11.38-3.53,14.82A5.31,5.31,0,0,1,49.55,116.89Zm-4.07-1.17c3,1.31,5.42,1.31,7.19,0,4.48-3.28,3.54-13.88,3.47-14.61L56,101c-9.49-7.38-17.69-13.75-22.86-12.8a5.1,5.1,0,0,0-3.54,2.6C25.44,97.59,44.91,115.21,45.48,115.72Z"/><path class="cls-3" d="M32.85,102.11c-3.06-4.3-5-8.61-3.39-11.32s5.31-5.42,14.79,1.33A10.67,10.67,0,0,1,42,97.66,12,12,0,0,1,32.85,102.11Z"/><path class="cls-4" d="M32.8,102.21l0,0c-3.68-5.19-4.82-9-3.39-11.43A5.57,5.57,0,0,1,33.08,88c2.82-.59,6.59.78,11.23,4.07l0,0v.06A10.9,10.9,0,0,1,42,97.72a12.18,12.18,0,0,1-9.18,4.49ZM34.43,88a6.19,6.19,0,0,0-1.31.13,5.36,5.36,0,0,0-3.58,2.68c-1.38,2.32-.25,6.08,3.35,11.18a12,12,0,0,0,9-4.42,10.61,10.61,0,0,0,2.27-5.44C40.27,89.41,37,88,34.43,88Z"/><g class="cls-8"><path class="cls-4" d="M33.52,90.34c-2.77,3.77-1.85,8.63-.36,12.38-3.27-4.48-5.47-9-3.77-11.85,2.67-4.39,4.45-4.24,8.1-2.26C36.25,89,34.77,88.63,33.52,90.34Z"/></g><path class="cls-4" d="M45.42,116.64a.85.85,0,0,1-.56-.21,111.79,111.79,0,0,1-9.65-10C29,99,26.79,93.55,28.77,90.3a6,6,0,0,1,4.2-3c5.32-.91,13.36,4.58,23.79,13.09a.85.85,0,0,1,.13,1.19.86.86,0,0,1-1.2.13C47,94.61,38.22,88.14,33.26,89a4.31,4.31,0,0,0-3,2.19c-1.52,2.49.71,7.52,6.28,14.16A109.76,109.76,0,0,0,46,115.17a.84.84,0,0,1-.57,1.47Z"/><path class="cls-9" d="M35.3,91.31a2.9,2.9,0,0,0-1.15-3.46A9.9,9.9,0,0,0,33,88.91,5.18,5.18,0,0,1,35.3,91.31Z"/><path class="cls-4" d="M35.3,91.52l-.08-.17A5.17,5.17,0,0,0,33,89l-.12,0,.08-.1a9.94,9.94,0,0,1,1.16-1.08l.06,0,.06,0a3,3,0,0,1,1.18,3.58Zm-2.14-2.64a5.37,5.37,0,0,1,2.13,2.2A2.85,2.85,0,0,0,34.15,88,8.61,8.61,0,0,0,33.16,88.88Z"/><path class="cls-1" d="M84.09,92.05s15.87,16.32,19.49,30.4c1,3.81-.37,8.47-1.82,12.39-1.24,3.35-2.33,6.2-4.53,7.25-13.9,6.65-19.34-.3-29.91.91-10.81,1.23-22.81-3.38-22.81-3.38S40.71,103.17,58,94.33,83.05,90.7,84.09,92.05Z"/><path class="cls-5" d="M47.06,118.07S31.13,106.24,29.47,96.39s4.45-11.53,9.29-5.91,14.42,8.86,14.42,8.86Z"/><path class="cls-3" d="M43.38,94.68c0,5.13-3.88,9.28-8.66,9.28a8.4,8.4,0,0,1-1.95-.24c-.25-.37-.49-.75-.72-1.12A20.11,20.11,0,0,1,29.85,98a13.25,13.25,0,0,1-.38-1.57v-.07c-.1-.63-.17-1.23-.22-1.8-.61-8.16,5-9.28,9.52-4a23.88,23.88,0,0,0,4.61,4C43.37,94.53,43.38,94.6,43.38,94.68Z"/><path class="cls-4" d="M45.29,117.53a.8.8,0,0,1-.53-.19C40.36,113.77,30,104.6,28.64,96.53c-.83-5,.17-8.48,2.74-9.69,2.36-1.1,5.43.08,8,3.09,4.63,5.37,14,8.58,14.05,8.61A.85.85,0,0,1,54,99.62a.84.84,0,0,1-1.07.52c-.4-.13-9.85-3.38-14.79-9.11-2-2.37-4.41-3.41-6-2.66-1.81.85-2.48,3.8-1.79,7.88,1.26,7.5,11.27,16.33,15.51,19.77a.85.85,0,0,1-.53,1.51Z"/><path class="cls-4" d="M58.39,95.08c9-4.58,15.12-5.17,18.68-4.86,4,.34,6,1.85,6.35,2.35a.47.47,0,0,0,.1.1c.18.17,16.45,15.24,19,29.49a9.16,9.16,0,0,1,.26,1.86c-.1,5.38-2.82,15.65-7.65,19.28a2,2,0,0,1,1.51,1.21c4.53-4.53,7.85-14.81,7.77-21.14a26.3,26.3,0,0,0-.45-2.68c-1.22-5.47-4.35-11.54-9.33-18.12a93.12,93.12,0,0,0-9.91-11.1c-.74-.89-3.17-2.57-7.49-2.94-5.51-.48-12.1,1.22-19.6,5a.84.84,0,0,0-.36,1.14A.83.83,0,0,0,58.39,95.08Z"/><path class="cls-4" d="M45.56,140.28c-.27-3.69-2.07-13.58.64-24.22a.87.87,0,0,0-.45-1,.84.84,0,0,0-1.17.56,57.56,57.56,0,0,0-.91,24.12.84.84,0,0,0,.78.76C44.53,139.72,45.13,140.89,45.56,140.28Z"/><ellipse class="cls-3" cx="64.23" cy="117.79" rx="15.54" ry="22.79"/><g class="cls-7"><path class="cls-4" d="M53.18,99.34a3.55,3.55,0,0,0-.26.5c-4-1.17-10.4-3.8-13.46-9.08,0,0-1.86,8.8,13.28,12.72.71,2,3,4.31,9.25,5.9,12.5,3.2,21.84-8.85,21.84-8.85C64.08,104.87,53.18,99.34,53.18,99.34Z"/></g><path class="cls-5" d="M97.38,65.15s5-17.56,0-21.29-15.23,6.06-15.23,6.06a28.37,28.37,0,0,0-25.07,0s-10.27-9.79-15.23-6.06,0,21.29,0,21.29h0a56.51,56.51,0,0,0-4.75,12.31,15.14,15.14,0,0,0,1.69,11.79c3.71,6.08,12.25,13,30.83,12.9s27.12-6.82,30.84-12.9a15.18,15.18,0,0,0,1.69-11.79,56,56,0,0,0-4.76-12.31"/><path class="cls-3" d="M100.45,89.25a15.1,15.1,0,0,0,2-9.94c-6.51-2.1-15,2-18.38,4s-5.44-2.61-10.23-5.39a20,20,0,0,0-19.6,0c-4.78,2.78-6.85,7.39-10.23,5.39-2-1.15-4.38-3-7.34-4a15.13,15.13,0,0,0,2.06,9.93c3.71,6.08,12.25,13,30.83,12.9S96.73,95.33,100.45,89.25Z"/><g class="cls-10"><path class="cls-2" d="M95.25,43c-4.16-1.47-13.1,6.88-13.1,6.88-30.82-12-43.24,21.84-43.24,21.84C49.26,54.27,64.11,44.3,81.64,51.84A1.14,1.14,0,0,0,83,51.65c1.69-1.73,6.46-6.26,10.89-6.95,5.5-.84,5.47,3.8,5.47,3.8A6,6,0,0,0,95.25,43Z"/></g><g class="cls-10"><path class="cls-2" d="M42.21,44.41a3.43,3.43,0,0,0-.78.83c4.58-3.05,13.71,5.65,13.71,5.65l1-1S46.73,41,42.21,44.41Z"/></g><path class="cls-11" d="M53.14,52.21S47.57,47,45.07,48.92,45.13,60,45.13,60A33.83,33.83,0,0,1,53.14,52.21Z"/><path class="cls-11" d="M86.09,52.21s5.56-5.18,8.07-3.29S94.09,60,94.09,60A33.8,33.8,0,0,0,86.09,52.21Z"/><path class="cls-4" d="M69.9,103h-.58c-8.4,0-15.49-1.42-21.08-4.24a24.56,24.56,0,0,1-10.19-9.07,16.08,16.08,0,0,1-1.78-12.44,57.46,57.46,0,0,1,4.67-12.2,73.38,73.38,0,0,1-1.79-9c-.87-6.77-.13-11.08,2.19-12.83,4.91-3.69,13.81,3.85,15.89,5.73a29.24,29.24,0,0,1,24.76,0c2.08-1.88,11-9.42,15.9-5.73,2.32,1.75,3,6.06,2.19,12.83a73.38,73.38,0,0,1-1.79,9A58,58,0,0,1,103,77.25a16,16,0,0,1-1.79,12.44A24.5,24.5,0,0,1,91,98.76C85.39,101.57,78.3,103,69.9,103Zm-.29-1.69h.29c18.34,0,26.34-6.79,29.83-12.5a14.4,14.4,0,0,0,1.59-11.13,55.43,55.43,0,0,0-4.67-12.1.84.84,0,0,1-.08-.66c1.33-4.73,4-17.61.3-20.38s-11.43,3.41-14.14,6a.82.82,0,0,1-1,.15,26.39,26.39,0,0,0-12.11-2.83h-.12a26.61,26.61,0,0,0-12.1,2.83.84.84,0,0,1-1-.15c-2.71-2.58-10.54-8.7-14.14-6s-1,15.65.31,20.38a.84.84,0,0,1-.09.66,56.46,56.46,0,0,0-4.67,12.1,14.36,14.36,0,0,0,1.6,11.13C43,94.52,51,101.31,69.32,101.31Z"/><path class="cls-4" d="M41.84,66a.87.87,0,0,1-.41-.11.85.85,0,0,1-.32-1.16c6.52-11.44,15.26-15.42,15.63-15.58a.84.84,0,0,1,.68,1.54h0c-.08,0-8.61,3.94-14.84,14.88A.86.86,0,0,1,41.84,66Z"/><path class="cls-4" d="M32.17,93.2a2.19,2.19,0,0,1-.92-.5,4.68,4.68,0,0,1-.75-.79l-.31-.45L29.91,91c-.09-.16-.17-.33-.25-.49l-.23-.5a.87.87,0,1,1,1.65-.37v.49c0,.16,0,.32,0,.48s0,.31.05.47,0,.31.09.46a3.58,3.58,0,0,0,.32.9A2,2,0,0,0,32.17,93.2Z"/><path class="cls-4" d="M35.19,91.17a5.49,5.49,0,0,1-.78-.51A5.42,5.42,0,0,1,33.7,90a4.78,4.78,0,0,1-.61-.78,5.61,5.61,0,0,1-.5-.9v0a.87.87,0,0,1,1.58-.73.82.82,0,0,1,.08.4,4.32,4.32,0,0,0,0,.8,3.87,3.87,0,0,0,.16.81,4.67,4.67,0,0,0,.31.81A5.08,5.08,0,0,0,35.19,91.17Z"/><path class="cls-4" d="M87.83,149.22a11.61,11.61,0,0,1-3.65-.25,11.77,11.77,0,0,1-8.16-6.8,12.29,12.29,0,0,1-.59-1.74,11.08,11.08,0,0,1-.33-1.81,11.25,11.25,0,0,1,.19-3.66,10.56,10.56,0,0,1,.58-1.75,10,10,0,0,1,.87-1.61,8.9,8.9,0,0,1,2.55-2.53.23.23,0,0,1,.32.07.23.23,0,0,1,0,.26h0a16.34,16.34,0,0,0-1.82,2.8,13.68,13.68,0,0,0-1.08,3.07,10.87,10.87,0,0,0-.23,3.22,10.28,10.28,0,0,0,.79,3.14,10.39,10.39,0,0,0,10.46,6.25.69.69,0,0,1,.74.61.67.67,0,0,1-.61.73Z"/><ellipse class="cls-1" cx="86.54" cy="145.29" rx="10.16" ry="9.63" transform="translate(-82.54 142.06) rotate(-58.13)"/><path class="cls-1" d="M87.67,155.16s-13.37,2.11-16.58-1.48S68.6,142,79.32,143,82.31,147.39,87.67,155.16Z"/><path class="cls-2" d="M89.1,146.67a18.27,18.27,0,0,1-2.61-.17,13.43,13.43,0,0,1-8.25-2.83,8.15,8.15,0,0,1-1-.92l-.06.17c-8.63.27-9,7.42-6.07,10.76s13.89,1.86,16.17,1.54l.21,0,.2,0h0l.65-.13a10.57,10.57,0,0,0,7.9-11.57C94.31,145.19,91.51,146.67,89.1,146.67Z"/><path class="cls-3" d="M87.47,155.19l.2,0h0Z"/><path class="cls-4" d="M87.48,155.28h0l.2,0,.13,0-.09-.16h-.06l-.2,0h0Z"/><path class="cls-4" d="M76.66,141.9c0,.16-.11.32-.17.48a.79.79,0,0,0,.51,1,.83.83,0,0,0,1-.57l0-.1A4.71,4.71,0,0,1,76.66,141.9Z"/><path class="cls-4" d="M96.7,141.8a4.88,4.88,0,0,1-1.31,1.55,9.72,9.72,0,0,1-7.22,10.89.86.86,0,0,0-.64,1,.78.78,0,0,0,.93.61,11.42,11.42,0,0,0,8.47-13C96.87,142.46,96.79,142.13,96.7,141.8Z"/><path class="cls-4" d="M71.48,155.06c1.78,1.1,4.82,1.61,9.08,1.52a58,58,0,0,0,7.19-.61.86.86,0,0,0,.71-.93.75.75,0,0,0-.87-.68c-3.61.56-13.49,1.45-15.89-1.25a5.81,5.81,0,0,1-1-6c.91-2,3.22-3.24,6.49-3.34a.85.85,0,0,0,.81-.84.76.76,0,0,0-.78-.79c-5.32.16-7.27,2.8-8,4.35a7.5,7.5,0,0,0,1.29,7.79A4.8,4.8,0,0,0,71.48,155.06Z"/><path class="cls-4" d="M77,151.75a1.85,1.85,0,0,0-.83.46,3.29,3.29,0,0,0-.65.74,4.32,4.32,0,0,0-.27.42c-.09.14-.16.29-.24.44l-.21.46-.18.46a.86.86,0,0,0,.45,1.09.78.78,0,0,0,1.1-.74v0l0-.44v-.45c0-.14,0-.29,0-.43s0-.3.06-.44a4,4,0,0,1,.24-.84A1.89,1.89,0,0,1,77,151.75Z"/><path class="cls-4" d="M73.28,150.06a3.52,3.52,0,0,0-.7.46,5.91,5.91,0,0,0-.63.6,4.87,4.87,0,0,0-.53.73,4.8,4.8,0,0,0-.42.85v0a.87.87,0,0,0,.46,1.09.76.76,0,0,0,1-.41.71.71,0,0,0,0-.38,4.54,4.54,0,0,1,0-.74,5.21,5.21,0,0,1,.12-.76,4.09,4.09,0,0,1,.24-.75A3.85,3.85,0,0,1,73.28,150.06Z"/><path class="cls-4" d="M75.55,141l-.52.27a14.68,14.68,0,0,1-8.25,1.41h-.33a13.81,13.81,0,0,1-9-2.84,9.79,9.79,0,0,1-1.89-2l-.62-.44c.07.12.14.24.22.36a14.74,14.74,0,0,0,5.81,5,15,15,0,0,0,2.38,1,16.76,16.76,0,0,0,2.51.63A16.5,16.5,0,0,0,75.88,143l.36-.19A14.24,14.24,0,0,1,75.55,141Z"/><path class="cls-4" d="M64.46,82.09l.06.18a1.87,1.87,0,0,0,.07.22c0,.14.11.29.17.43a6.46,6.46,0,0,0,.42.83,5.75,5.75,0,0,0,1.15,1.38,4.49,4.49,0,0,0,.73.5,3.7,3.7,0,0,0,.81.36,5.69,5.69,0,0,0,1.82.29A4,4,0,0,0,72.94,85a8.62,8.62,0,0,0,1.61-3.61v0a.22.22,0,0,1,.26-.15.2.2,0,0,1,.14.14,4.57,4.57,0,0,1,.21,1.15,5.3,5.3,0,0,1,0,1.19A5,5,0,0,1,74.2,86a5.05,5.05,0,0,1-2,1.65,6.38,6.38,0,0,1-2.46.59,8.55,8.55,0,0,1-1.24,0A6.73,6.73,0,0,1,67.26,88,6.39,6.39,0,0,1,65,86.83a7.35,7.35,0,0,1-1.69-1.92,7.8,7.8,0,0,1-.56-1.12,4.19,4.19,0,0,1-.22-.59c0-.1-.07-.2-.1-.3s-.05-.2-.08-.35A1.11,1.11,0,0,1,64.44,82Z"/><path class="cls-4" d="M64.57,82.55c0,.16-.06.24-.09.36l-.09.3a6,6,0,0,1-.23.59,7.11,7.11,0,0,1-.6,1.12,6.26,6.26,0,0,1-3,2.45,6.87,6.87,0,0,1-1.26.33,7.63,7.63,0,0,1-2.48,0,6.09,6.09,0,0,1-2.38-.9,4.4,4.4,0,0,1-1.64-2.06,5,5,0,0,1-.29-2.44,5.72,5.72,0,0,1,.73-2.2.2.2,0,0,1,.38.11h0a9.1,9.1,0,0,0,.63,3.89,2.71,2.71,0,0,0,1.14,1.18,4.37,4.37,0,0,0,1.69.48,6.55,6.55,0,0,0,1.84-.1,4.46,4.46,0,0,0,.83-.26,4.2,4.2,0,0,0,.74-.43,4.42,4.42,0,0,0,1.17-1.26,5.46,5.46,0,0,0,.43-.79c.06-.14.12-.28.17-.42l.08-.21,0-.17,0-.1a1.11,1.11,0,0,1,2.14.55Z"/><path class="cls-4" d="M56,86.43s.47,8.67,7.92,9.17,7.74-8.68,7.74-8.68-7.36,1.71-8.08-5.54C63.55,81.38,62.8,88.35,56,86.43Z"/><path class="cls-12" d="M58.45,92.91S62.06,84.77,71,90.34C71,90.34,67,100.07,58.45,92.91Z"/><path class="cls-4" d="M64.47,96.5l-.64,0c-6.5-.44-8.56-6.73-8.74-10a.9.9,0,0,1,.33-.73.88.88,0,0,1,.78-.16,5,5,0,0,0,4.3-.35,6.18,6.18,0,0,0,2.19-3.95.87.87,0,0,1,.86-.78h0a.86.86,0,0,1,.86.79,5.24,5.24,0,0,0,2,4c2,1.47,5,.81,5.05.81a.84.84,0,0,1,.75.18.86.86,0,0,1,.32.7c0,.2-.2,5-3.21,7.77A6.94,6.94,0,0,1,64.47,96.5Zm-7.48-9c.41,2.22,1.87,6.83,7,7.18a5.41,5.41,0,0,0,4.17-1.3,9.58,9.58,0,0,0,2.53-5.49,8.14,8.14,0,0,1-5.28-1.25,6,6,0,0,1-1.9-2.27,6.37,6.37,0,0,1-2,2.26A6.17,6.17,0,0,1,57,87.55Z"/><path class="cls-4" d="M68.79,77.9c-.65-2-5-2.11-5-2.11s-4.31-.13-5.08,1.82,2.44,4.5,4.9,4.57S69.44,79.89,68.79,77.9Z"/><ellipse class="cls-2" cx="62.54" cy="77.56" rx="1.92" ry="0.64" transform="translate(-2.18 1.81) rotate(-1.63)"/><ellipse class="cls-3" cx="76.53" cy="65.99" rx="3.72" ry="2.07" transform="translate(-18.3 31.08) rotate(-20.56)"/><ellipse class="cls-3" cx="53.97" cy="65.64" rx="2.07" ry="3.72" transform="translate(-27.84 88.63) rotate(-66.26)"/><path class="cls-5" d="M87.56,113.05s11-3.07,13.73-14.51-6.92-14.66-9.41-7.9-9.49,11.6-9.49,11.6S80.55,113.79,87.56,113.05Z"/><path class="cls-13" d="M96,107.89a19.43,19.43,0,0,0,5.28-9.35c2.76-11.45-6.92-14.66-9.41-7.9a22.27,22.27,0,0,1-4.31,6.89C87.8,100.71,89.17,106.46,96,107.89Z"/><path class="cls-4" d="M87.67,113.94a.9.9,0,0,1-.86-.65.88.88,0,0,1,.61-1.1c.11,0,10.4-3.08,13-13.86,1.42-5.89-.62-9.4-3.13-10.16-1.59-.48-3.62.19-4.57,2.78-2.56,7-9.53,11.82-9.82,12a.89.89,0,0,1-1.24-.23.9.9,0,0,1,.22-1.24h0c.07,0,6.81-4.75,9.17-11.16,1.15-3.14,3.93-4.73,6.76-3.87,3.28,1,6,5.26,4.34,12.27A20.74,20.74,0,0,1,94,110.81a21.36,21.36,0,0,1-6,3.09A.67.67,0,0,1,87.67,113.94Z"/><path class="cls-4" d="M95.38,90.8a2.13,2.13,0,0,1-.14-.94,4,4,0,0,1,.18-1,7.36,7.36,0,0,1,.34-.93c.08-.15.15-.3.22-.44l.24-.44a.79.79,0,0,1,1.07-.3.77.77,0,0,1,.3,1.06.61.61,0,0,1-.21.24h0l-.34.26-.33.28a5.76,5.76,0,0,0-.6.61,3.9,3.9,0,0,0-.49.71A1.89,1.89,0,0,0,95.38,90.8Z"/><path class="cls-4" d="M98.48,91.89a3.82,3.82,0,0,1,0-.83,5.12,5.12,0,0,1,.08-.87,5.64,5.64,0,0,1,.24-.87,5.88,5.88,0,0,1,.39-.85h0a.79.79,0,1,1,1.38.75.73.73,0,0,1-.24.28,4.58,4.58,0,0,0-.57.44,4.53,4.53,0,0,0-.5.56,3.7,3.7,0,0,0-.42.66A3.76,3.76,0,0,0,98.48,91.89Z"/><path class="cls-4" d="M47.49,69.64a.17.17,0,0,1,0-.34,12,12,0,0,1,9.38,3.43.8.8,0,0,1-.37,1.33c-1.44.51-3.81,1.83-6.17,2.71-.31.12-.58-.24-.35-.46a22.91,22.91,0,0,1,3.29-2.63.6.6,0,0,0,.11-1A11.71,11.71,0,0,0,47.49,69.64Z"/><path class="cls-4" d="M84.08,69.34a.17.17,0,0,0,0-.34,12,12,0,0,0-9.37,3.42.81.81,0,0,0,.37,1.34c1.44.5,3.8,1.83,6.17,2.71.31.12.58-.24.35-.46a22.24,22.24,0,0,0-3.29-2.63.59.59,0,0,1-.11-1A11.71,11.71,0,0,1,84.08,69.34Z"/><circle class="cls-14" cx="70.45" cy="28.65" r="26.18"/><g class="cls-15"><path class="cls-2" d="M83.55,39.5A16.9,16.9,0,1,1,57.28,18.33,16.9,16.9,0,0,0,83.55,39.5Z"/></g><path class="cls-16" d="M51.2,10.94A26.18,26.18,0,0,0,88.81,47.3c.33-.37.64-.74,1-1.12a26.18,26.18,0,0,1-35-38.13A26.34,26.34,0,0,0,51.2,10.94Z"/><g class="cls-15"><path class="cls-2" d="M96.9,28.38A26.16,26.16,0,0,1,86.54,49.24,26.18,26.18,0,0,0,52,10.08,26.17,26.17,0,0,1,96.9,28.38Z"/></g><path class="cls-4" d="M70.72,55.64A27.26,27.26,0,1,1,98,28.38,27.29,27.29,0,0,1,70.72,55.64Zm0-52.35a25.09,25.09,0,1,0,25.1,25.09A25.11,25.11,0,0,0,70.72,3.29Z"/><circle class="cls-16" cx="70.72" cy="28.38" r="17.37"/><g class="cls-7"><path class="cls-4" d="M83.55,40.08a17.37,17.37,0,0,0-27-21.75,17.36,17.36,0,1,1,27,21.75Z"/></g><path class="cls-17" d="M69.64,36.73V34.78a8.23,8.23,0,0,1-3.48-.88l.61-2.39a7.25,7.25,0,0,0,3.4.9c1.16,0,2-.45,2-1.27s-.65-1.27-2.17-1.78c-2.19-.73-3.68-1.76-3.68-3.74,0-1.8,1.27-3.21,3.46-3.64V20h2v1.8a7.29,7.29,0,0,1,3,.68l-.59,2.31a6.87,6.87,0,0,0-3-.7c-1.33,0-1.76.58-1.76,1.15s.72,1.11,2.46,1.76c2.43.86,3.41,2,3.41,3.83S74,34.23,71.64,34.64v2.09Z"/><path class="cls-4" d="M40,16.35c-2.8,6.32-1.8,13.26-1.51,20.17-2.34-5.83-4-12.22-.1-17.93A12.15,12.15,0,0,1,40,16.35Z"/><path class="cls-4" d="M34.59,17.86C32.23,22.61,33.33,28,33.8,33.25c-2.3-4.53-4-9.47-.6-13.73A8.51,8.51,0,0,1,34.59,17.86Z"/><path class="cls-4" d="M102.47,23.53c1.7,6.16.17,12.43-.78,18.76,2.56-5.08,4.61-10.76,1.9-16.5A11.9,11.9,0,0,0,102.47,23.53Z"/><path class="cls-4" d="M106.82,25.57c1.5,4.67,0,9.45-.9,14.28,2.39-3.9,4.31-8.23,1.9-12.58A8.73,8.73,0,0,0,106.82,25.57Z"/><path class="cls-4" d="M31.25,67.62a1,1,0,0,1-.25,0l-4.54-1.52a11.51,11.51,0,1,1,4.71-3.84L32,66.71a.77.77,0,0,1-.75.91Zm-4.83-3.15a.67.67,0,0,1,.24,0l3.6,1.2-.66-3.54a.73.73,0,0,1,.15-.6,9.87,9.87,0,0,0,2-6,10,10,0,1,0-10,10,9.85,9.85,0,0,0,4.28-1A.75.75,0,0,1,26.42,64.47Z"/><path class="cls-18" d="M25.69,52.43h0a2.7,2.7,0,0,0-3.8.18l-.16.17-.16-.17a2.7,2.7,0,0,0-3.8-.18h0a2.67,2.67,0,0,0,0,3.79l.16.17,3.3,3.29a.7.7,0,0,0,1,0l3.3-3.29.16-.17A2.67,2.67,0,0,0,25.69,52.43Z"/><rect class="cls-19" x="18.55" y="126.4" width="44.35" height="7.79" rx="1.56"/><path class="cls-20" d="M61.34,126.4H53.91A1.56,1.56,0,0,1,55.47,128v4.67a1.56,1.56,0,0,1-1.56,1.56h7.43a1.56,1.56,0,0,0,1.56-1.56V128A1.56,1.56,0,0,0,61.34,126.4Z"/><path class="cls-21" d="M23.64,132.63V128a1.55,1.55,0,0,1,1.55-1.56H20.11A1.56,1.56,0,0,0,18.55,128v4.67a1.56,1.56,0,0,0,1.56,1.56h5.08A1.55,1.55,0,0,1,23.64,132.63Z"/><path class="cls-4" d="M61.34,134.9H20.11a2.27,2.27,0,0,1-2.27-2.27V128a2.27,2.27,0,0,1,2.27-2.27H61.34A2.27,2.27,0,0,1,63.61,128v4.67A2.27,2.27,0,0,1,61.34,134.9Zm-41.23-7.79a.85.85,0,0,0-.85.85v4.67a.85.85,0,0,0,.85.85H61.34a.85.85,0,0,0,.85-.85V128a.85.85,0,0,0-.85-.85Z"/><rect class="cls-19" x="12.22" y="118.69" width="44.35" height="7.79" rx="1.56"/><path class="cls-20" d="M55,118.69H47.59a1.54,1.54,0,0,1,1.55,1.55v4.68a1.55,1.55,0,0,1-1.55,1.56H55a1.55,1.55,0,0,0,1.55-1.56v-4.68A1.54,1.54,0,0,0,55,118.69Z"/><path class="cls-21" d="M17.31,124.92v-4.68a1.55,1.55,0,0,1,1.56-1.55H13.78a1.55,1.55,0,0,0-1.56,1.55v4.68a1.56,1.56,0,0,0,1.56,1.56h5.09A1.56,1.56,0,0,1,17.31,124.92Z"/><path class="cls-4" d="M55,127.19H13.78a2.27,2.27,0,0,1-2.27-2.27v-4.68A2.27,2.27,0,0,1,13.78,118H55a2.26,2.26,0,0,1,2.26,2.26v4.68A2.27,2.27,0,0,1,55,127.19Zm-41.24-7.8a.86.86,0,0,0-.85.85v4.68a.85.85,0,0,0,.85.85H55a.86.86,0,0,0,.85-.85v-4.68a.86.86,0,0,0-.85-.85Z"/><rect class="cls-19" x="9.1" y="110.76" width="44.35" height="7.79" rx="1.56"/><path class="cls-20" d="M51.89,110.76H44.46A1.56,1.56,0,0,1,46,112.32V117a1.55,1.55,0,0,1-1.56,1.55h7.43A1.55,1.55,0,0,0,53.45,117v-4.68A1.56,1.56,0,0,0,51.89,110.76Z"/><path class="cls-21" d="M14.19,117v-4.68a1.55,1.55,0,0,1,1.55-1.56H10.66a1.56,1.56,0,0,0-1.56,1.56V117a1.55,1.55,0,0,0,1.56,1.55h5.08A1.54,1.54,0,0,1,14.19,117Z"/><path class="cls-4" d="M51.89,119.26H10.66A2.27,2.27,0,0,1,8.39,117v-4.68a2.27,2.27,0,0,1,2.27-2.27H51.89a2.27,2.27,0,0,1,2.27,2.27V117A2.27,2.27,0,0,1,51.89,119.26Zm-41.23-7.79a.85.85,0,0,0-.85.85V117a.85.85,0,0,0,.85.85H51.89a.85.85,0,0,0,.85-.85v-4.68a.85.85,0,0,0-.85-.85Z"/><rect class="cls-19" x="6.78" y="142.37" width="44.35" height="7.79" rx="1.56"/><path class="cls-20" d="M49.57,142.37H42.14a1.56,1.56,0,0,1,1.56,1.56v4.67a1.56,1.56,0,0,1-1.56,1.56h7.43a1.56,1.56,0,0,0,1.56-1.56v-4.67A1.56,1.56,0,0,0,49.57,142.37Z"/><path class="cls-21" d="M11.87,148.6v-4.67a1.55,1.55,0,0,1,1.55-1.56H8.34a1.56,1.56,0,0,0-1.56,1.56v4.67a1.56,1.56,0,0,0,1.56,1.56h5.08A1.55,1.55,0,0,1,11.87,148.6Z"/><path class="cls-4" d="M49.57,150.87H8.34a2.27,2.27,0,0,1-2.27-2.27v-4.67a2.27,2.27,0,0,1,2.27-2.27H49.57a2.27,2.27,0,0,1,2.27,2.27v4.67A2.27,2.27,0,0,1,49.57,150.87ZM8.34,143.08a.85.85,0,0,0-.85.85v4.67a.85.85,0,0,0,.85.85H49.57a.85.85,0,0,0,.85-.85v-4.67a.85.85,0,0,0-.85-.85Z"/><rect class="cls-19" x="0.45" y="134.66" width="44.35" height="7.79" rx="1.56"/><path class="cls-20" d="M43.25,134.66H35.82a1.54,1.54,0,0,1,1.55,1.55v4.68a1.55,1.55,0,0,1-1.55,1.56h7.43a1.56,1.56,0,0,0,1.55-1.56v-4.68A1.55,1.55,0,0,0,43.25,134.66Z"/><path class="cls-21" d="M5.54,140.89v-4.68a1.55,1.55,0,0,1,1.56-1.55H2a1.55,1.55,0,0,0-1.56,1.55v4.68A1.56,1.56,0,0,0,2,142.45H7.1A1.56,1.56,0,0,1,5.54,140.89Z"/><path class="cls-4" d="M43.25,143.16H2a2.27,2.27,0,0,1-2.27-2.27v-4.68A2.27,2.27,0,0,1,2,134H43.25a2.27,2.27,0,0,1,2.26,2.26v4.68A2.27,2.27,0,0,1,43.25,143.16ZM2,135.36a.86.86,0,0,0-.85.85v4.68a.85.85,0,0,0,.85.85H43.25a.85.85,0,0,0,.84-.85v-4.68a.85.85,0,0,0-.84-.85Z"/><rect class="cls-19" x="4.13" y="126.73" width="44.35" height="7.79" rx="1.56"/><path class="cls-20" d="M46.92,126.73H39.49a1.56,1.56,0,0,1,1.56,1.56V133a1.55,1.55,0,0,1-1.56,1.55h7.43A1.55,1.55,0,0,0,48.48,133v-4.68A1.56,1.56,0,0,0,46.92,126.73Z"/><path class="cls-21" d="M9.22,133v-4.68a1.55,1.55,0,0,1,1.55-1.56H5.69a1.56,1.56,0,0,0-1.56,1.56V133a1.55,1.55,0,0,0,1.56,1.55h5.08A1.54,1.54,0,0,1,9.22,133Z"/><path class="cls-4" d="M46.92,135.23H5.69A2.27,2.27,0,0,1,3.42,133v-4.68A2.27,2.27,0,0,1,5.69,126H46.92a2.27,2.27,0,0,1,2.27,2.26V133A2.27,2.27,0,0,1,46.92,135.23ZM5.69,127.44a.85.85,0,0,0-.85.85V133a.85.85,0,0,0,.85.85H46.92a.85.85,0,0,0,.85-.85v-4.68a.85.85,0,0,0-.85-.85Z"/></g></svg>